<?xml version="1.0" encoding="utf-8"?>
<!-- Generator: Adobe Illustrator 19.0.0, SVG Export Plug-In . SVG Version: 6.00 Build 0)  -->
<svg version="1.1" id="OBJECTS" xmlns="http://www.w3.org/2000/svg" xmlns:xlink="http://www.w3.org/1999/xlink" x="0px" y="0px"
	 viewBox="0 0 100 100" style="enable-background:new 0 0 100 100;" xml:space="preserve">
 <style type="text/css">.st0{fill:#8CC63F;}
	.st1{fill:#FFFFFF;}</style>

 <g>
  <title>background</title>
  <rect fill="none" id="canvas_background" height="402" width="582" y="-1" x="-1"/>
 </g>
 <g>
  <title>Layer 1</title>
  <g id="svg_1">
   <g id="svg_2">
    <polygon id="svg_3" points="100,50 96.2,54.6 99,59.8 94.4,63.5 96.2,69.1 91,71.9 91.6,77.8 85.9,79.5 85.4,85.4 79.5,85.9     77.8,91.6 71.9,91 69.1,96.2 63.5,94.4 59.8,99 54.6,96.2 50,100 45.4,96.2 40.2,99 36.5,94.4 30.9,96.2 28.1,91 22.2,91.6     20.5,85.9 14.6,85.4 14.1,79.5 8.4,77.8 9,71.9 3.8,69.1 5.6,63.5 1,59.8 3.8,54.6 0,50 3.8,45.4 1,40.2 5.6,36.5 3.8,30.9     9,28.1 8.4,22.2 14.1,20.5 14.6,14.6 20.5,14.1 22.2,8.4 28.1,9 30.9,3.8 36.5,5.6 40.2,1 45.4,3.8 50,0 54.6,3.8 59.8,1     63.5,5.6 69.1,3.8 71.9,9 77.8,8.4 79.5,14.1 85.4,14.6 85.9,20.5 91.6,22.2 91,28.1 96.2,30.9 94.4,36.5 99,40.2 96.2,45.4   " class="st0"/>
   </g>
   <path id="svg_4" d="m12.9,41.475012l0,-12.6c0,-0.2 0.1,-0.3 0.3,-0.3l2,0c0.2,0 0.3,0.1 0.3,0.3l0,10.5c0,0.1 0,0.1 0.1,0.1l6,0c0.2,0 0.3,0.1 0.3,0.3l0,1.6c0,0.2 -0.1,0.3 -0.3,0.3l-8.5,0c-0.1,0.1 -0.2,0 -0.2,-0.2zm12.2,-0.1c-0.7,-0.4 -1.3,-1 -1.7,-1.7c-0.4,-0.7 -0.6,-1.6 -0.6,-2.5l0,-4c0,-0.9 0.2,-1.7 0.6,-2.5c0.4,-0.7 1,-1.3 1.7,-1.7c0.7,-0.4 1.6,-0.6 2.6,-0.6c1,0 1.9,0.2 2.6,0.6c0.7,0.4 1.3,0.9 1.7,1.7c0.4,0.7 0.6,1.5 0.6,2.5l0,4c0,0.9 -0.2,1.8 -0.6,2.5c-0.4,0.7 -1,1.3 -1.7,1.7c-0.7,0.4 -1.6,0.6 -2.6,0.6c-1,0 -1.8,-0.2 -2.6,-0.6zm4.3,-2.4c0.4,-0.4 0.6,-1 0.6,-1.7l0,-4.1c0,-0.7 -0.2,-1.3 -0.6,-1.8s-1,-0.7 -1.7,-0.7c-0.7,0 -1.2,0.2 -1.7,0.7s-0.6,1 -0.6,1.8l0,4.1c0,0.7 0.2,1.3 0.6,1.7c0.4,0.4 1,0.7 1.7,0.7c0.7,0 1.3,-0.2 1.7,-0.7zm6.9,2.3c-0.7,-0.4 -1.3,-0.9 -1.7,-1.6c-0.4,-0.7 -0.6,-1.5 -0.6,-2.4l0,-4.2c0,-0.9 0.2,-1.7 0.6,-2.4c0.4,-0.7 1,-1.2 1.7,-1.6c0.7,-0.4 1.6,-0.6 2.6,-0.6c1,0 1.8,0.2 2.5,0.6c0.7,0.4 1.3,0.9 1.7,1.5c0.4,0.6 0.6,1.4 0.6,2.2l0,0c0,0.2 -0.1,0.3 -0.3,0.3l-2,0c-0.1,0 -0.2,0 -0.2,0c-0.1,0 -0.1,-0.1 -0.1,-0.1l0,-0.1c0,-0.6 -0.2,-1.1 -0.6,-1.5c-0.4,-0.4 -0.9,-0.6 -1.6,-0.6c-0.7,0 -1.2,0.2 -1.6,0.6c-0.4,0.4 -0.6,1 -0.6,1.6l0,4.4c0,0.7 0.2,1.2 0.7,1.6c0.4,0.4 1,0.6 1.7,0.6c0.7,0 1.2,-0.2 1.6,-0.5c0.4,-0.3 0.6,-0.8 0.6,-1.4l0,-0.8c0,-0.1 0,-0.1 -0.1,-0.1l-2,0c-0.2,0 -0.3,-0.1 -0.3,-0.3l0,-1.6c0,-0.2 0.1,-0.3 0.3,-0.3l4.4,0c0.2,0 0.3,0.1 0.3,0.3l0,2.4c0,1 -0.2,1.8 -0.6,2.5c-0.4,0.7 -1,1.2 -1.7,1.6c-0.7,0.4 -1.6,0.6 -2.5,0.6c-1.2,-0.1 -2.1,-0.3 -2.8,-0.7zm11,0.1c-0.7,-0.4 -1.3,-1 -1.7,-1.7c-0.4,-0.7 -0.6,-1.6 -0.6,-2.5l0,-4c0,-0.9 0.2,-1.7 0.6,-2.5c0.4,-0.7 1,-1.3 1.7,-1.7c0.7,-0.4 1.6,-0.6 2.6,-0.6c1,0 1.9,0.2 2.6,0.6c0.7,0.4 1.3,0.9 1.7,1.7c0.4,0.7 0.6,1.5 0.6,2.5l0,4c0,0.9 -0.2,1.8 -0.6,2.5c-0.4,0.7 -1,1.3 -1.7,1.7c-0.7,0.4 -1.6,0.6 -2.6,0.6c-1,0 -1.9,-0.2 -2.6,-0.6zm4.2,-2.4c0.4,-0.4 0.6,-1 0.6,-1.7l0,-4.1c0,-0.7 -0.2,-1.3 -0.6,-1.8s-1,-0.7 -1.7,-0.7c-0.7,0 -1.2,0.2 -1.7,0.7s-0.6,1 -0.6,1.8l0,4.1c0,0.7 0.2,1.3 0.6,1.7c0.4,0.4 1,0.7 1.7,0.7s1.3,-0.2 1.7,-0.7zm6.8,2.4c-0.7,-0.3 -1.3,-0.8 -1.7,-1.4c-0.4,-0.6 -0.6,-1.3 -0.6,-2.1l0,-0.3c0,-0.2 0.1,-0.3 0.3,-0.3l2,0c0.2,0 0.3,0.1 0.3,0.2l0,0.4c0,0.5 0.2,0.9 0.7,1.3c0.5,0.3 1.1,0.5 1.8,0.5c0.7,0 1.2,-0.1 1.5,-0.4c0.3,-0.3 0.5,-0.6 0.5,-1c0,-0.3 -0.1,-0.6 -0.3,-0.8c-0.2,-0.2 -0.5,-0.4 -0.8,-0.5c-0.3,-0.2 -0.9,-0.4 -1.6,-0.6c-0.9,-0.3 -1.6,-0.6 -2.1,-0.9c-0.6,-0.3 -1.1,-0.7 -1.5,-1.2c-0.4,-0.5 -0.6,-1.2 -0.6,-1.9c0,-0.8 0.2,-1.4 0.6,-2c0.4,-0.6 0.9,-1 1.6,-1.3c0.7,-0.3 1.5,-0.5 2.4,-0.5c1,0 1.8,0.2 2.6,0.5c0.8,0.3 1.3,0.8 1.8,1.4c0.4,0.6 0.6,1.3 0.6,2.1l0,0.2c0,0.2 -0.1,0.3 -0.3,0.3l-2,0c-0.2,0 -0.3,-0.1 -0.3,-0.2l0,-0.2c0,-0.5 -0.2,-1 -0.6,-1.3c-0.4,-0.4 -1,-0.6 -1.8,-0.6c-0.6,0 -1.1,0.1 -1.4,0.4c-0.3,0.3 -0.5,0.6 -0.5,1c0,0.3 0.1,0.6 0.3,0.8c0.2,0.2 0.5,0.4 0.9,0.6c0.4,0.2 1,0.4 1.8,0.7c0.9,0.3 1.6,0.6 2.1,0.9c0.5,0.2 1,0.6 1.4,1.1c0.4,0.5 0.6,1.1 0.6,1.9c0,0.8 -0.2,1.4 -0.6,2c-0.4,0.6 -1,1 -1.7,1.3c-0.7,0.3 -1.6,0.5 -2.5,0.5s-2.2,-0.2 -2.9,-0.6zm11,0c-0.7,-0.4 -1.3,-0.9 -1.7,-1.6c-0.4,-0.7 -0.6,-1.5 -0.6,-2.4l0,-8.5c0,-0.2 0.1,-0.3 0.3,-0.3l2,0c0.2,0 0.3,0.1 0.3,0.3l0,8.5c0,0.7 0.2,1.2 0.6,1.6c0.4,0.4 0.9,0.6 1.6,0.6c0.7,0 1.2,-0.2 1.6,-0.6c0.4,-0.4 0.6,-0.9 0.6,-1.6l0,-8.5c0,-0.2 0.1,-0.3 0.3,-0.3l2,0c0.2,0 0.3,0.1 0.3,0.3l0,8.5c0,0.9 -0.2,1.7 -0.6,2.4c-0.4,0.7 -1,1.2 -1.7,1.6c-0.7,0.4 -1.6,0.6 -2.5,0.6c-0.9,-0.1 -1.8,-0.3 -2.5,-0.6zm8.6,0.1l0,-1.9c0,-0.2 0,-0.3 0.1,-0.4l6,-8.2c0,0 0,-0.1 0,-0.1c0,0 0,0 -0.1,0l-5.8,0c-0.2,0 -0.3,-0.1 -0.3,-0.3l0,-1.7c0,-0.2 0.1,-0.3 0.3,-0.3l8.5,0c0.2,0 0.3,0.1 0.3,0.3l0,1.9c0,0.2 0,0.3 -0.1,0.4l-6,8.2c0,0 0,0.1 0,0.1c0,0 0,0 0.1,0l5.8,0c0.2,0 0.3,0.1 0.3,0.3l0,1.6c0,0.2 -0.1,0.3 -0.3,0.3l-8.5,0c-0.2,0.1 -0.3,0 -0.3,-0.2z" class="st1"/>
   <text font-style="normal" font-weight="bold" xml:space="preserve" text-anchor="start" font-family="Helvetica, Arial, sans-serif" font-size="17" id="svg_5" y="69.306626" x="10.687533" stroke-width="0" stroke="#ffffff" fill="#000000">ORİJİNAL</text>
  </g>
 </g>
</svg>
