<?xml version="1.0" encoding="utf-8"?>
<!-- Generator: Adobe Illustrator 19.0.0, SVG Export Plug-In . SVG Version: 6.00 Build 0)  -->
<svg version="1.1" id="OBJECTS" xmlns="http://www.w3.org/2000/svg" xmlns:xlink="http://www.w3.org/1999/xlink" x="0px" y="0px"
	 viewBox="0 0 100 100" style="enable-background:new 0 0 100 100;" xml:space="preserve">
<style type="text/css">
	.st0{fill:#F15A24;}
	.st1{fill:#FFFFFF;}
</style>
<g>
	<path class="st0" d="M100,50c0,6.5-4.7,12.1-7.1,17.8c-2.4,5.9-3.1,13.1-7.6,17.6c-4.4,4.4-11.7,5.1-17.6,7.6
		C62.1,95.3,56.5,100,50,100c-6.5,0-12.1-4.7-17.8-7.1c-5.9-2.4-13.1-3.1-17.6-7.6S9.5,73.7,7.1,67.8C4.7,62.1,0,56.5,0,50
		s4.7-12.1,7.1-17.8c2.4-5.9,3.1-13.1,7.6-17.6c4.4-4.4,11.7-5.1,17.6-7.6C37.9,4.7,43.5,0,50,0s12.1,4.7,17.8,7.1
		c5.9,2.4,13.1,3.1,17.6,7.6c4.4,4.4,5.1,11.7,7.6,17.6C95.3,37.9,100,43.5,100,50z"/>
	<path class="st1" d="M38.4,44.6v-5.5c0,0,0-0.1,0-0.1l-3.9-7c0-0.1,0-0.1,0-0.1c0-0.1,0-0.1,0.1-0.1c0,0,0.1,0,0.2,0h0.9
		c0.1,0,0.2,0.1,0.3,0.2l3.1,5.7c0,0.1,0.1,0.1,0.1,0l3.2-5.7c0.1-0.1,0.2-0.2,0.3-0.2h0.9c0.1,0,0.2,0,0.2,0.1c0,0.1,0,0.1,0,0.2
		l-3.9,7c0,0.1,0,0.1,0,0.1v5.5c0,0.2-0.1,0.2-0.2,0.2h-0.8C38.5,44.9,38.4,44.8,38.4,44.6z M52,44.7l-0.8-2.3
		c0-0.1-0.1-0.1-0.1-0.1h-5.6c0,0-0.1,0-0.1,0.1l-0.7,2.3c0,0.1-0.1,0.2-0.3,0.2h-0.9c-0.1,0-0.2,0-0.2-0.1c0,0,0-0.1,0-0.2
		l4.1-12.7c0-0.1,0.1-0.2,0.3-0.2H49c0.1,0,0.2,0.1,0.3,0.2l4.2,12.7c0,0,0,0.1,0,0.1c0,0.1,0,0.1-0.1,0.1c0,0-0.1,0.1-0.2,0.1h-0.9
		C52.2,44.9,52.1,44.8,52,44.7z M46,41.2h4.8c0.1,0,0.1,0,0.1-0.1l-2.4-7.7c0,0,0-0.1-0.1-0.1c0,0,0,0-0.1,0.1l-2.4,7.7
		C45.9,41.2,45.9,41.2,46,41.2z M55.4,44.6V32c0-0.2,0.1-0.2,0.2-0.2h0.8c0.1,0,0.2,0.1,0.3,0.2l6.3,10.2c0,0,0.1,0.1,0.1,0
		c0,0,0,0,0-0.1V32c0-0.2,0.1-0.2,0.2-0.2h0.8c0.2,0,0.2,0.1,0.2,0.2v12.7c0,0.2-0.1,0.2-0.2,0.2h-0.8c-0.1,0-0.2-0.1-0.3-0.2
		l-6.3-10.3c0,0-0.1-0.1-0.1,0c0,0,0,0,0,0.1l0,10.2c0,0.2-0.1,0.2-0.2,0.2h-0.8C55.5,44.9,55.4,44.8,55.4,44.6z M22.4,63.3
		c-0.7-0.3-1.3-0.8-1.7-1.4c-0.4-0.6-0.6-1.3-0.6-2.1v-0.3c0-0.2,0.1-0.3,0.3-0.3h2c0.2,0,0.3,0.1,0.3,0.2v0.3
		c0,0.5,0.2,0.9,0.7,1.3c0.5,0.3,1.1,0.5,1.8,0.5c0.7,0,1.2-0.1,1.5-0.4c0.3-0.3,0.5-0.6,0.5-1c0-0.3-0.1-0.6-0.3-0.8
		c-0.2-0.2-0.5-0.4-0.8-0.5c-0.3-0.2-0.9-0.4-1.6-0.6c-0.9-0.3-1.6-0.6-2.1-0.9c-0.6-0.3-1.1-0.7-1.5-1.2c-0.4-0.5-0.6-1.2-0.6-1.9
		c0-0.8,0.2-1.4,0.6-2c0.4-0.6,0.9-1,1.6-1.3c0.7-0.3,1.5-0.5,2.4-0.5c1,0,1.8,0.2,2.6,0.5c0.8,0.3,1.3,0.8,1.8,1.4
		c0.4,0.6,0.6,1.3,0.6,2.1v0.2c0,0.2-0.1,0.3-0.3,0.3h-2c-0.2,0-0.3-0.1-0.3-0.2v-0.2c0-0.5-0.2-1-0.6-1.3c-0.4-0.4-1-0.6-1.8-0.6
		c-0.6,0-1.1,0.1-1.4,0.4c-0.3,0.3-0.5,0.6-0.5,1c0,0.3,0.1,0.6,0.3,0.8c0.2,0.2,0.5,0.4,0.9,0.6c0.4,0.2,1,0.4,1.8,0.7
		c0.9,0.3,1.6,0.6,2.1,0.9c0.5,0.2,1,0.6,1.4,1.1c0.4,0.5,0.6,1.1,0.6,1.9c0,0.8-0.2,1.4-0.6,2s-1,1-1.7,1.3
		c-0.7,0.3-1.6,0.5-2.5,0.5C24,63.8,23.1,63.7,22.4,63.3z M39.3,63.4l-0.5-1.7c0-0.1-0.1-0.1-0.1-0.1H34c-0.1,0-0.1,0-0.1,0.1
		l-0.5,1.7c-0.1,0.2-0.2,0.3-0.4,0.3h-2.2c-0.1,0-0.2,0-0.2-0.1c-0.1-0.1-0.1-0.2,0-0.3l4-12.5c0.1-0.2,0.2-0.3,0.4-0.3h2.8
		c0.2,0,0.3,0.1,0.4,0.3l4,12.5c0,0,0,0.1,0,0.1c0,0.1,0,0.1-0.1,0.2c-0.1,0-0.1,0.1-0.2,0.1h-2.2C39.5,63.7,39.3,63.6,39.3,63.4z
		 M34.7,59.5H38c0.1,0,0.1,0,0.1-0.1l-1.7-5.7c0-0.1,0-0.1-0.1-0.1s-0.1,0-0.1,0.1l-1.7,5.7C34.6,59.5,34.6,59.5,34.7,59.5z
		 M43.3,63.4V50.8c0-0.2,0.1-0.3,0.3-0.3h1.9c0.2,0,0.3,0.1,0.4,0.2l4.7,7.8c0,0.1,0.1,0.1,0.1,0.1c0,0,0,0,0-0.1v-7.7
		c0-0.2,0.1-0.3,0.3-0.3h2c0.2,0,0.3,0.1,0.3,0.3v12.5c0,0.2-0.1,0.3-0.3,0.3h-1.9c-0.2,0-0.3-0.1-0.4-0.2l-4.7-7.9
		c0,0-0.1-0.1-0.1-0.1c0,0,0,0,0,0.1l0,7.8c0,0.2-0.1,0.3-0.3,0.3h-2C43.4,63.7,43.3,63.6,43.3,63.4z M63.3,63.4l-0.5-1.7
		c0-0.1-0.1-0.1-0.1-0.1h-4.6c-0.1,0-0.1,0-0.1,0.1l-0.5,1.7c-0.1,0.2-0.2,0.3-0.4,0.3h-2.2c-0.1,0-0.2,0-0.2-0.1
		c-0.1-0.1-0.1-0.2,0-0.3l4-12.5c0.1-0.2,0.2-0.3,0.4-0.3h2.8c0.2,0,0.3,0.1,0.4,0.3l4,12.5c0,0,0,0.1,0,0.1c0,0.1,0,0.1-0.1,0.2
		c0,0-0.1,0.1-0.2,0.1h-2.2C63.5,63.7,63.4,63.6,63.3,63.4z M58.7,59.5H62c0.1,0,0.1,0,0.1-0.1l-1.7-5.7c0-0.1,0-0.1-0.1-0.1
		c0,0-0.1,0-0.1,0.1l-1.7,5.7C58.6,59.5,58.6,59.5,58.7,59.5z M69,63.3v-4.6l0-0.2l-3.8-7.7c0-0.1-0.1-0.1-0.1-0.2
		c0-0.1,0-0.1,0.1-0.2c0,0,0.1-0.1,0.2-0.1h2.2c0.2,0,0.3,0.1,0.4,0.2l2.3,4.9c0,0,0.1,0.1,0.1,0.1s0.1,0,0.1-0.1l2.3-4.9
		c0.1-0.2,0.2-0.2,0.4-0.2h2.2c0.2,0,0.3,0.1,0.3,0.2c0,0.1,0,0.1,0,0.2l-3.8,7.7l0,0.2v4.6c0,0.2-0.1,0.3-0.3,0.3h-2
		C69.1,63.7,69,63.6,69,63.3z M76.8,63.4V50.8c0-0.2,0.1-0.3,0.3-0.3h2c0.2,0,0.3,0.1,0.3,0.3v12.5c0,0.2-0.1,0.3-0.3,0.3h-2
		C77,63.7,76.8,63.6,76.8,63.4z M77.3,49c-0.2-0.2-0.3-0.5-0.3-0.9c0-0.4,0.1-0.7,0.3-0.9s0.5-0.3,0.9-0.3c0.4,0,0.7,0.1,0.9,0.3
		c0.2,0.2,0.3,0.5,0.3,0.9c0,0.4-0.1,0.7-0.3,0.9c-0.2,0.2-0.5,0.3-0.9,0.3C77.8,49.3,77.5,49.2,77.3,49z"/>
</g>
</svg>
