<svg xmlns="http://www.w3.org/2000/svg" viewBox="0 0 130 130"><defs><style>.cls-1{fill:#545556;}.cls-2{fill:#ff8900;opacity:0.6;}</style></defs><title>Asset 3</title><g id="Layer_2" data-name="Layer 2"><g id="katman_1" data-name="katman 1"><g id="_Group_" data-name="&lt;Group&gt;"><path id="_Compound_Path_" data-name="&lt;Compound Path&gt;" class="cls-1" d="M92.25,54.5A15.75,15.75,0,1,0,108,70.25,15.75,15.75,0,0,0,92.25,54.5Zm0,28A12.25,12.25,0,1,1,104.5,70.25,12.27,12.27,0,0,1,92.25,82.5ZM41.5,49.25H59V72H73V49.25H90.5v1.84c.58-.05,1.16-.09,1.75-.09s1.17,0,1.75.09V47.5a3.48,3.48,0,0,0-1.56-2.91l-10.5-7A3.44,3.44,0,0,0,80,37H52a3.44,3.44,0,0,0-1.94.59l-10.5,7A3.48,3.48,0,0,0,38,47.5v42A3.5,3.5,0,0,0,41.5,93h49A3.5,3.5,0,0,0,94,89.5H41.5ZM73,40.5h7l7.88,5.25H73Zm-10.5,0h7v5.25h-7Zm0,8.75h7V68.5h-7ZM52,40.5h7v5.25H44.13ZM98.74,66.24l-4,4,4,4a1.75,1.75,0,0,1-2.48,2.48l-4-4-4,4a1.75,1.75,0,0,1-2.48-2.48l4-4-4-4a1.75,1.75,0,0,1,2.48-2.48l4,4,4-4a1.75,1.75,0,0,1,2.48,2.48Z"/><path id="_Compound_Path_2" data-name="&lt;Compound Path&gt;" class="cls-2" d="M65,0A64.77,64.77,0,0,0,24.26,14.36L24,14.09,14.09,24l.27.27a65,65,0,0,0,91.38,91.38l.27.27L111,111h0l4.94-4.95-.27-.27A65,65,0,0,0,65,0Zm0,116A51,51,0,0,1,24.35,34.25l71.4,71.4A50.71,50.71,0,0,1,65,116ZM34.25,24.35a51,51,0,0,1,71.4,71.4Z"/></g></g></g></svg>