<?xml version="1.0" encoding="utf-8"?>
<!-- Generator: Adobe Illustrator 19.0.0, SVG Export Plug-In . SVG Version: 6.00 Build 0)  -->
<svg version="1.1" id="Layer_13" xmlns="http://www.w3.org/2000/svg" xmlns:xlink="http://www.w3.org/1999/xlink" x="0px" y="0px"
	 viewBox="56 5 242 60" style="enable-background:new 56 5 242 60;" xml:space="preserve">
<style type="text/css">
	.st0{fill:#FF8900;}
	.st1{fill:#FFFFFF;}
</style>
<path id="XMLID_319_" class="st0" d="M64.1,5h225.9c4.6,0,8.1,2.2,8.1,5v50c0,2.8-3.5,5-8.1,5H64.1c-4.6,0-8.1-2.2-8.1-5V10
	C56,7.2,59.5,5,64.1,5z"/>
<g>
	<path class="st1" d="M70.5,26.7c0,0.8-0.3,1.3-0.8,1.8s-1.3,0.6-2.2,0.6c-1,0-1.8-0.1-2.3-0.4v-1c0.4,0.1,0.7,0.3,1.1,0.4
		s0.8,0.1,1.2,0.1c0.7,0,1.2-0.1,1.5-0.4s0.5-0.6,0.5-1.1c0-0.3-0.1-0.5-0.2-0.7s-0.3-0.4-0.6-0.5S68,25.2,67.5,25
		c-0.8-0.3-1.4-0.6-1.7-1s-0.5-0.9-0.5-1.5c0-0.7,0.2-1.2,0.7-1.6s1.2-0.6,2-0.6c0.9,0,1.6,0.2,2.3,0.5L70,21.6
		c-0.7-0.3-1.4-0.4-2.1-0.4c-0.5,0-0.9,0.1-1.2,0.3s-0.4,0.5-0.4,0.9c0,0.3,0.1,0.5,0.2,0.7s0.3,0.4,0.6,0.5s0.7,0.3,1.2,0.5
		c0.9,0.3,1.5,0.7,1.9,1S70.5,26.1,70.5,26.7z"/>
	<path class="st1" d="M72,20.8c0-0.2,0.1-0.4,0.2-0.5s0.2-0.2,0.4-0.2c0.2,0,0.3,0.1,0.4,0.2s0.2,0.3,0.2,0.5s-0.1,0.4-0.2,0.5
		s-0.2,0.2-0.4,0.2c-0.2,0-0.3-0.1-0.4-0.2S72,21,72,20.8z M73.1,29h-1v-6.4h1V29z"/>
	<path class="st1" d="M77.2,28.3c0.2,0,0.3,0,0.5,0s0.3-0.1,0.4-0.1v0.7C78,29,77.9,29,77.6,29s-0.4,0-0.6,0c-1.2,0-1.9-0.7-1.9-2
		v-3.8h-0.9v-0.5l0.9-0.4l0.4-1.4h0.6v1.5h1.9v0.8h-1.9v3.8c0,0.4,0.1,0.7,0.3,0.9S76.9,28.3,77.2,28.3z"/>
	<path class="st1" d="M82.1,29.1c-0.9,0-1.7-0.3-2.2-0.9S79,26.8,79,25.8c0-1,0.3-1.9,0.8-2.5s1.2-0.9,2.1-0.9
		c0.8,0,1.4,0.3,1.9,0.8s0.7,1.2,0.7,2.1v0.6H80c0,0.8,0.2,1.3,0.6,1.7s0.9,0.6,1.5,0.6c0.7,0,1.4-0.1,2.1-0.4v0.9
		c-0.3,0.1-0.7,0.3-1,0.3S82.5,29.1,82.1,29.1z M81.8,23.2c-0.5,0-0.9,0.2-1.2,0.5s-0.5,0.8-0.5,1.4h3.4c0-0.6-0.1-1.1-0.4-1.4
		S82.4,23.2,81.8,23.2z"/>
	<path class="st1" d="M94.3,29v-4.2c0-0.5-0.1-0.9-0.3-1.2s-0.6-0.4-1-0.4c-0.6,0-1.1,0.2-1.3,0.5s-0.4,0.9-0.4,1.6V29h-1v-4.2
		c0-0.5-0.1-0.9-0.3-1.2s-0.6-0.4-1-0.4c-0.6,0-1.1,0.2-1.3,0.5s-0.4,1-0.4,1.8V29h-1v-6.4h0.8l0.2,0.9h0c0.2-0.3,0.4-0.6,0.8-0.7
		s0.7-0.3,1.1-0.3c1,0,1.7,0.4,2,1.1h0c0.2-0.3,0.5-0.6,0.8-0.8s0.8-0.3,1.2-0.3c0.7,0,1.3,0.2,1.6,0.6s0.5,1,0.5,1.8V29H94.3z"/>
	<path class="st1" d="M97.2,20.8c0-0.2,0.1-0.4,0.2-0.5s0.2-0.2,0.4-0.2c0.2,0,0.3,0.1,0.4,0.2s0.2,0.3,0.2,0.5s-0.1,0.4-0.2,0.5
		s-0.2,0.2-0.4,0.2c-0.2,0-0.3-0.1-0.4-0.2S97.2,21,97.2,20.8z M98.3,29h-1v-6.4h1V29z"/>
	<path class="st1" d="M104.4,29h-4.7v-0.7l3.5-5H100v-0.8h4.4v0.8l-3.5,4.9h3.5V29z"/>
	<path class="st1" d="M111.8,29h-1v-7.7h-2.7v-0.9h6.4v0.9h-2.7V29z"/>
	<path class="st1" d="M115.6,28.3c0-0.3,0.1-0.5,0.2-0.6s0.3-0.2,0.5-0.2c0.2,0,0.4,0.1,0.5,0.2s0.2,0.3,0.2,0.6
		c0,0.3-0.1,0.4-0.2,0.6s-0.3,0.2-0.5,0.2c-0.2,0-0.4-0.1-0.5-0.2S115.6,28.6,115.6,28.3z"/>
	<path class="st1" d="M122.7,21.2c-0.9,0-1.7,0.3-2.2,0.9s-0.8,1.5-0.8,2.6c0,1.1,0.3,2,0.8,2.6s1.3,0.9,2.2,0.9
		c0.6,0,1.3-0.1,2-0.3v0.9c-0.6,0.2-1.3,0.3-2.2,0.3c-1.3,0-2.2-0.4-2.9-1.1s-1-1.9-1-3.3c0-0.9,0.2-1.7,0.5-2.3s0.8-1.2,1.4-1.5
		s1.4-0.5,2.2-0.5c0.9,0,1.7,0.2,2.4,0.5l-0.4,0.9C124,21.3,123.4,21.2,122.7,21.2z"/>
	<path class="st1" d="M126.3,28.3c0-0.3,0.1-0.5,0.2-0.6s0.3-0.2,0.5-0.2c0.2,0,0.4,0.1,0.5,0.2s0.2,0.3,0.2,0.6
		c0,0.3-0.1,0.4-0.2,0.6s-0.3,0.2-0.5,0.2c-0.2,0-0.4-0.1-0.5-0.2S126.3,28.6,126.3,28.3z"/>
	<path class="st1" d="M136.7,24.5h2.9v4.2c-0.5,0.1-0.9,0.3-1.4,0.3s-1,0.1-1.6,0.1c-1.3,0-2.3-0.4-3-1.2s-1.1-1.9-1.1-3.2
		c0-0.9,0.2-1.7,0.5-2.3s0.9-1.2,1.5-1.5s1.5-0.5,2.4-0.5c0.9,0,1.8,0.2,2.6,0.5l-0.4,0.9c-0.8-0.3-1.5-0.5-2.2-0.5
		c-1,0-1.9,0.3-2.4,0.9s-0.9,1.5-0.9,2.6c0,1.2,0.3,2,0.8,2.6s1.4,0.9,2.5,0.9c0.6,0,1.2-0.1,1.7-0.2v-2.6h-1.9V24.5z"/>
	<path class="st1" d="M142.4,22.5v4.2c0,0.5,0.1,0.9,0.4,1.2s0.6,0.4,1.1,0.4c0.7,0,1.2-0.2,1.5-0.6s0.5-1,0.5-1.8v-3.4h1V29H146
		l-0.1-0.9h-0.1c-0.2,0.3-0.5,0.6-0.8,0.7s-0.8,0.3-1.2,0.3c-0.8,0-1.4-0.2-1.8-0.6s-0.6-1-0.6-1.8v-4.2H142.4z M142.5,20.8
		c0-0.2,0.1-0.3,0.2-0.4s0.2-0.1,0.4-0.1c0.1,0,0.3,0,0.4,0.1s0.2,0.2,0.2,0.4c0,0.2-0.1,0.3-0.2,0.4s-0.2,0.1-0.4,0.1
		c-0.1,0-0.3,0-0.4-0.1S142.5,21,142.5,20.8z M144.7,20.8c0-0.2,0.1-0.3,0.2-0.4s0.2-0.1,0.4-0.1s0.3,0,0.4,0.1s0.2,0.2,0.2,0.4
		c0,0.2-0.1,0.3-0.2,0.4s-0.2,0.1-0.4,0.1s-0.3,0-0.4-0.1S144.7,21,144.7,20.8z"/>
	<path class="st1" d="M157.1,29v-4.2c0-0.5-0.1-0.9-0.3-1.2s-0.6-0.4-1-0.4c-0.6,0-1.1,0.2-1.3,0.5s-0.4,0.9-0.4,1.6V29h-1v-4.2
		c0-0.5-0.1-0.9-0.3-1.2s-0.6-0.4-1-0.4c-0.6,0-1.1,0.2-1.3,0.5s-0.4,1-0.4,1.8V29h-1v-6.4h0.8l0.2,0.9h0c0.2-0.3,0.4-0.6,0.8-0.7
		s0.7-0.3,1.1-0.3c1,0,1.7,0.4,2,1.1h0c0.2-0.3,0.5-0.6,0.8-0.8s0.8-0.3,1.2-0.3c0.7,0,1.3,0.2,1.6,0.6s0.5,1,0.5,1.8V29H157.1z"/>
	<path class="st1" d="M163,22.4c0.3,0,0.5,0,0.8,0.1l-0.1,0.9c-0.3-0.1-0.5-0.1-0.7-0.1c-0.5,0-1,0.2-1.3,0.6s-0.6,0.9-0.6,1.6V29
		h-1v-6.4h0.8l0.1,1.2h0c0.2-0.4,0.5-0.7,0.9-1S162.6,22.4,163,22.4z"/>
	<path class="st1" d="M165.8,22.5v4.2c0,0.5,0.1,0.9,0.4,1.2s0.6,0.4,1.1,0.4c0.7,0,1.2-0.2,1.5-0.6s0.5-1,0.5-1.8v-3.4h1V29h-0.8
		l-0.1-0.9h-0.1c-0.2,0.3-0.5,0.6-0.8,0.7s-0.8,0.3-1.2,0.3c-0.8,0-1.4-0.2-1.8-0.6s-0.6-1-0.6-1.8v-4.2H165.8z M165.9,20.8
		c0-0.2,0.1-0.3,0.2-0.4s0.2-0.1,0.4-0.1c0.1,0,0.3,0,0.4,0.1s0.2,0.2,0.2,0.4c0,0.2-0.1,0.3-0.2,0.4s-0.2,0.1-0.4,0.1
		c-0.1,0-0.3,0-0.4-0.1S165.9,21,165.9,20.8z M168.1,20.8c0-0.2,0.1-0.3,0.2-0.4s0.2-0.1,0.4-0.1s0.3,0,0.4,0.1s0.2,0.2,0.2,0.4
		c0,0.2-0.1,0.3-0.2,0.4s-0.2,0.1-0.4,0.1s-0.3,0-0.4-0.1S168.1,21,168.1,20.8z"/>
	<path class="st1" d="M173.3,25.7c0.2-0.2,0.4-0.6,0.8-0.9l2.1-2.2h1.2l-2.6,2.7l2.8,3.7h-1.2l-2.3-3l-0.7,0.6V29h-1v-9.1h1v4.8
		C173.3,24.9,173.2,25.2,173.3,25.7L173.3,25.7z"/>
	<path class="st1" d="M183.1,29l-2.4-6.4h1l1.4,3.8c0.3,0.9,0.5,1.5,0.6,1.7h0c0-0.2,0.2-0.6,0.4-1.3s0.7-2.1,1.5-4.3h1l-2.4,6.4
		H183.1z"/>
	<path class="st1" d="M190.4,29.1c-0.9,0-1.7-0.3-2.2-0.9s-0.8-1.4-0.8-2.4c0-1,0.3-1.9,0.8-2.5s1.2-0.9,2.1-0.9
		c0.8,0,1.4,0.3,1.9,0.8s0.7,1.2,0.7,2.1v0.6h-4.4c0,0.8,0.2,1.3,0.6,1.7s0.9,0.6,1.5,0.6c0.7,0,1.4-0.1,2.1-0.4v0.9
		c-0.3,0.1-0.7,0.3-1,0.3S190.9,29.1,190.4,29.1z M190.2,23.2c-0.5,0-0.9,0.2-1.2,0.5s-0.5,0.8-0.5,1.4h3.4c0-0.6-0.1-1.1-0.4-1.4
		S190.7,23.2,190.2,23.2z"/>
	<path class="st1" d="M200.4,29h-1v-7.7h-2.7v-0.9h6.4v0.9h-2.7V29z"/>
	<path class="st1" d="M204.1,20.8c0-0.2,0.1-0.4,0.2-0.5s0.2-0.2,0.4-0.2c0.2,0,0.3,0.1,0.4,0.2s0.2,0.3,0.2,0.5s-0.1,0.4-0.2,0.5
		s-0.2,0.2-0.4,0.2c-0.2,0-0.3-0.1-0.4-0.2S204.1,21,204.1,20.8z M205.2,29h-1v-6.4h1V29z"/>
	<path class="st1" d="M209.8,29.1c-0.9,0-1.6-0.3-2.2-0.9s-0.8-1.4-0.8-2.4c0-1.1,0.3-1.9,0.8-2.5s1.3-0.9,2.2-0.9
		c0.3,0,0.6,0,0.9,0.1s0.6,0.1,0.7,0.2l-0.3,0.8c-0.2-0.1-0.4-0.2-0.7-0.2s-0.5-0.1-0.7-0.1c-1.3,0-2,0.8-2,2.5
		c0,0.8,0.2,1.4,0.5,1.8s0.8,0.6,1.4,0.6c0.5,0,1.1-0.1,1.6-0.3v0.9C211,29,210.5,29.1,209.8,29.1z"/>
	<path class="st1" d="M216.9,29l-0.2-0.9h0c-0.3,0.4-0.6,0.7-1,0.8s-0.7,0.2-1.2,0.2c-0.6,0-1.1-0.2-1.5-0.5s-0.5-0.8-0.5-1.4
		c0-1.3,1-2,3.1-2l1.1,0v-0.4c0-0.5-0.1-0.9-0.3-1.1s-0.6-0.4-1-0.4c-0.5,0-1.1,0.2-1.8,0.5l-0.3-0.7c0.3-0.2,0.7-0.3,1-0.4
		s0.8-0.1,1.1-0.1c0.8,0,1.3,0.2,1.7,0.5s0.6,0.9,0.6,1.6V29H216.9z M214.7,28.3c0.6,0,1.1-0.2,1.4-0.5s0.5-0.8,0.5-1.4v-0.6l-1,0
		c-0.8,0-1.3,0.1-1.7,0.4s-0.5,0.5-0.5,1c0,0.4,0.1,0.6,0.3,0.8S214.3,28.3,214.7,28.3z"/>
	<path class="st1" d="M222.6,22.4c0.3,0,0.5,0,0.8,0.1l-0.1,0.9c-0.3-0.1-0.5-0.1-0.7-0.1c-0.5,0-1,0.2-1.3,0.6s-0.6,0.9-0.6,1.6V29
		h-1v-6.4h0.8l0.1,1.2h0c0.2-0.4,0.5-0.7,0.9-1S222.2,22.4,222.6,22.4z"/>
	<path class="st1" d="M227.2,29.1c-0.9,0-1.7-0.3-2.2-0.9s-0.8-1.4-0.8-2.4c0-1,0.3-1.9,0.8-2.5s1.2-0.9,2.1-0.9
		c0.8,0,1.4,0.3,1.9,0.8s0.7,1.2,0.7,2.1v0.6h-4.4c0,0.8,0.2,1.3,0.6,1.7s0.9,0.6,1.5,0.6c0.7,0,1.4-0.1,2.1-0.4v0.9
		c-0.3,0.1-0.7,0.3-1,0.3S227.7,29.1,227.2,29.1z M227,23.2c-0.5,0-0.9,0.2-1.2,0.5s-0.5,0.8-0.5,1.4h3.4c0-0.6-0.1-1.1-0.4-1.4
		S227.5,23.2,227,23.2z"/>
	<path class="st1" d="M233.3,28.3c0.2,0,0.3,0,0.5,0s0.3-0.1,0.4-0.1v0.7c-0.1,0.1-0.3,0.1-0.5,0.1s-0.4,0-0.6,0
		c-1.2,0-1.9-0.7-1.9-2v-3.8h-0.9v-0.5l0.9-0.4l0.4-1.4h0.6v1.5h1.9v0.8h-1.9v3.8c0,0.4,0.1,0.7,0.3,0.9S233,28.3,233.3,28.3z"/>
	<path class="st1" d="M238.8,20.4h2.4c1.1,0,2,0.2,2.5,0.5s0.8,0.9,0.8,1.6c0,0.5-0.1,0.9-0.4,1.3s-0.7,0.5-1.2,0.6v0.1
		c1.3,0.2,2,0.9,2,2.1c0,0.8-0.3,1.4-0.8,1.8s-1.2,0.6-2.2,0.6h-3V20.4z M239.8,24.1h1.6c0.7,0,1.2-0.1,1.5-0.3s0.5-0.6,0.5-1.1
		c0-0.5-0.2-0.8-0.5-1s-0.9-0.3-1.6-0.3h-1.5V24.1z M239.8,24.9v3.2h1.8c0.7,0,1.2-0.1,1.6-0.4s0.5-0.7,0.5-1.3
		c0-0.5-0.2-0.9-0.5-1.2s-0.9-0.4-1.6-0.4H239.8z"/>
	<path class="st1" d="M250.3,29l-0.2-0.9h0c-0.3,0.4-0.6,0.7-1,0.8s-0.7,0.2-1.2,0.2c-0.6,0-1.1-0.2-1.5-0.5s-0.5-0.8-0.5-1.4
		c0-1.3,1-2,3.1-2l1.1,0v-0.4c0-0.5-0.1-0.9-0.3-1.1s-0.6-0.4-1-0.4c-0.5,0-1.1,0.2-1.8,0.5l-0.3-0.7c0.3-0.2,0.7-0.3,1-0.4
		s0.8-0.1,1.1-0.1c0.8,0,1.3,0.2,1.7,0.5s0.6,0.9,0.6,1.6V29H250.3z M248.1,28.3c0.6,0,1.1-0.2,1.4-0.5s0.5-0.8,0.5-1.4v-0.6l-1,0
		c-0.8,0-1.3,0.1-1.7,0.4s-0.5,0.5-0.5,1c0,0.4,0.1,0.6,0.3,0.8S247.8,28.3,248.1,28.3z"/>
	<path class="st1" d="M254,25.7c0.2-0.2,0.4-0.6,0.8-0.9l2.1-2.2h1.2l-2.6,2.7l2.8,3.7H257l-2.3-3l-0.7,0.6V29h-1v-9.1h1v4.8
		C254,24.9,254,25.2,254,25.7L254,25.7z"/>
	<path class="st1" d="M263.3,29l-0.2-0.9h0c-0.3,0.4-0.6,0.7-1,0.8s-0.7,0.2-1.2,0.2c-0.6,0-1.1-0.2-1.5-0.5s-0.5-0.8-0.5-1.4
		c0-1.3,1-2,3.1-2l1.1,0v-0.4c0-0.5-0.1-0.9-0.3-1.1s-0.6-0.4-1-0.4c-0.5,0-1.1,0.2-1.8,0.5l-0.3-0.7c0.3-0.2,0.7-0.3,1-0.4
		s0.8-0.1,1.1-0.1c0.8,0,1.3,0.2,1.7,0.5s0.6,0.9,0.6,1.6V29H263.3z M261.1,28.3c0.6,0,1.1-0.2,1.4-0.5s0.5-0.8,0.5-1.4v-0.6l-1,0
		c-0.8,0-1.3,0.1-1.7,0.4s-0.5,0.5-0.5,1c0,0.4,0.1,0.6,0.3,0.8S260.7,28.3,261.1,28.3z"/>
	<path class="st1" d="M270.4,29v-4.2c0-0.5-0.1-0.9-0.4-1.2s-0.6-0.4-1.1-0.4c-0.7,0-1.2,0.2-1.5,0.5s-0.5,1-0.5,1.8V29h-1v-6.4h0.8
		l0.2,0.9h0c0.2-0.3,0.5-0.6,0.8-0.7s0.8-0.3,1.2-0.3c0.8,0,1.4,0.2,1.7,0.6s0.6,1,0.6,1.8V29H270.4z"/>
	<path class="st1" d="M274.4,29h-1v-9.1h1V29z"/>
	<path class="st1" d="M277.4,29h-1v-6.4h1V29z"/>
	<path class="st1" d="M284.7,22.5v0.6l-1.2,0.1c0.1,0.1,0.2,0.3,0.3,0.5s0.1,0.5,0.1,0.7c0,0.6-0.2,1.1-0.6,1.5s-1,0.6-1.8,0.6
		c-0.2,0-0.4,0-0.5,0c-0.4,0.2-0.6,0.5-0.6,0.8c0,0.2,0.1,0.3,0.2,0.4s0.4,0.1,0.7,0.1h1.1c0.7,0,1.2,0.1,1.6,0.4s0.6,0.7,0.6,1.3
		c0,0.7-0.3,1.3-0.9,1.6s-1.4,0.6-2.5,0.6c-0.8,0-1.5-0.2-1.9-0.5s-0.7-0.8-0.7-1.3c0-0.4,0.1-0.7,0.4-1s0.6-0.5,1.1-0.6
		c-0.2-0.1-0.3-0.2-0.4-0.3s-0.2-0.3-0.2-0.5c0-0.2,0.1-0.4,0.2-0.6s0.3-0.3,0.6-0.5c-0.3-0.1-0.6-0.4-0.8-0.7s-0.3-0.7-0.3-1.1
		c0-0.7,0.2-1.2,0.6-1.6s1-0.6,1.8-0.6c0.3,0,0.6,0,0.9,0.1H284.7z M279.6,30c0,0.3,0.1,0.6,0.4,0.8s0.7,0.3,1.3,0.3
		c0.8,0,1.4-0.1,1.8-0.4s0.6-0.6,0.6-1c0-0.3-0.1-0.6-0.3-0.7s-0.6-0.2-1.2-0.2H281c-0.4,0-0.8,0.1-1,0.3S279.6,29.6,279.6,30z
		 M281.7,21.7c-0.5,0-1-0.1-1.3-0.4s-0.5-0.7-0.5-1.2h0.6c0,0.2,0.1,0.3,0.2,0.5s0.2,0.2,0.3,0.2s0.4,0.1,0.7,0.1
		c0.4,0,0.7-0.1,0.9-0.2s0.3-0.3,0.3-0.6h0.6c0,0.5-0.2,0.9-0.5,1.2S282.2,21.7,281.7,21.7z M280.1,24.6c0,0.4,0.1,0.8,0.4,1
		s0.6,0.3,1.1,0.3c0.9,0,1.4-0.5,1.4-1.4c0-1-0.5-1.4-1.4-1.4c-0.5,0-0.8,0.1-1.1,0.4S280.1,24.1,280.1,24.6z"/>
	<path class="st1" d="M287,29h-1v-6.4h1V29z"/>
	<path class="st1" d="M74,50h-7.8V36.4H74v2.4h-4.9v3h4.6v2.4h-4.6v3.5H74V50z"/>
	<path class="st1" d="M82.1,50h-2.9V38.8h-3.7v-2.4h10.2v2.4h-3.7V50z"/>
	<path class="st1" d="M87.9,36.4h4.2c1.9,0,3.3,0.3,4.2,0.8c0.9,0.5,1.3,1.4,1.3,2.6c0,0.8-0.2,1.5-0.6,2c-0.4,0.5-0.9,0.8-1.5,0.9
		v0.1c0.9,0.2,1.5,0.6,1.9,1.1c0.4,0.5,0.6,1.2,0.6,2.1c0,1.2-0.4,2.2-1.3,2.9c-0.9,0.7-2.1,1-3.6,1h-5.1V36.4z M90.7,41.8h1.7
		c0.8,0,1.3-0.1,1.7-0.4c0.3-0.2,0.5-0.6,0.5-1.2c0-0.5-0.2-0.9-0.6-1.1c-0.4-0.2-1-0.3-1.8-0.3h-1.5V41.8z M90.7,44.1v3.5h1.9
		c0.8,0,1.4-0.2,1.8-0.5c0.4-0.3,0.6-0.8,0.6-1.4c0-1.1-0.8-1.7-2.4-1.7H90.7z"/>
	<path class="st1" d="M100.5,33.8c0-0.9,0.5-1.4,1.5-1.4c1,0,1.5,0.5,1.5,1.4c0,0.4-0.1,0.8-0.4,1c-0.3,0.2-0.6,0.4-1.2,0.4
		C101,35.2,100.5,34.7,100.5,33.8z M100.6,50V36.4h2.9V50H100.6z"/>
	<path class="st1" d="M114.9,46.2c0,1.2-0.4,2.2-1.3,2.9c-0.9,0.7-2.1,1.1-3.7,1.1c-1.4,0-2.7-0.3-3.8-0.8v-2.7
		c0.9,0.4,1.7,0.7,2.3,0.9c0.6,0.2,1.2,0.3,1.7,0.3c0.6,0,1.1-0.1,1.5-0.4c0.3-0.2,0.5-0.6,0.5-1.1c0-0.3-0.1-0.5-0.2-0.7
		s-0.4-0.4-0.7-0.6c-0.3-0.2-0.9-0.5-1.8-0.9c-0.8-0.4-1.5-0.8-1.9-1.1c-0.4-0.4-0.7-0.8-1-1.3c-0.2-0.5-0.4-1-0.4-1.7
		c0-1.2,0.4-2.1,1.2-2.8c0.8-0.7,1.9-1,3.4-1c0.7,0,1.4,0.1,2,0.3c0.6,0.2,1.3,0.4,2,0.7l-0.9,2.2c-0.7-0.3-1.3-0.5-1.8-0.6
		c-0.5-0.1-0.9-0.2-1.4-0.2c-0.5,0-1,0.1-1.3,0.4c-0.3,0.3-0.4,0.6-0.4,1c0,0.3,0.1,0.5,0.2,0.7c0.1,0.2,0.3,0.4,0.6,0.5
		c0.3,0.2,0.9,0.5,1.8,1c1.3,0.6,2.1,1.2,2.6,1.8C114.7,44.6,114.9,45.3,114.9,46.2z"/>
	<path class="st1" d="M130.1,46.4c0,1.2-0.4,2.1-1.3,2.8c-0.9,0.7-2,1-3.5,1c-1.6,0-2.8-0.2-3.7-0.6V48c0.6,0.2,1.2,0.4,1.8,0.6
		c0.7,0.1,1.3,0.2,1.9,0.2c1.1,0,1.8-0.2,2.4-0.6c0.5-0.4,0.8-1,0.8-1.7c0-0.5-0.1-0.9-0.3-1.2c-0.2-0.3-0.5-0.6-0.9-0.8
		c-0.4-0.3-1.1-0.5-2-0.9c-1.3-0.5-2.2-1-2.7-1.6c-0.5-0.6-0.8-1.4-0.8-2.4c0-1,0.4-1.9,1.2-2.5c0.8-0.6,1.8-0.9,3.1-0.9
		c1.3,0,2.6,0.2,3.7,0.7l-0.5,1.4c-1.1-0.5-2.2-0.7-3.3-0.7c-0.8,0-1.5,0.2-2,0.5c-0.5,0.4-0.7,0.9-0.7,1.5c0,0.5,0.1,0.9,0.3,1.2
		s0.5,0.6,0.9,0.8c0.4,0.3,1,0.5,1.9,0.8c1.4,0.5,2.4,1.1,2.9,1.6C129.9,44.7,130.1,45.4,130.1,46.4z"/>
	<path class="st1" d="M132.5,37c0-0.4,0.1-0.6,0.3-0.8c0.2-0.2,0.4-0.2,0.6-0.2c0.2,0,0.5,0.1,0.6,0.3c0.2,0.2,0.3,0.4,0.3,0.8
		c0,0.3-0.1,0.6-0.3,0.8c-0.2,0.2-0.4,0.3-0.6,0.3c-0.3,0-0.5-0.1-0.6-0.3S132.5,37.4,132.5,37z M134.2,50h-1.5V39.8h1.5V50z"/>
	<path class="st1" d="M144,47.2c0,0.9-0.4,1.7-1.1,2.2c-0.7,0.5-1.7,0.8-3,0.8c-1.3,0-2.4-0.2-3.2-0.6v-1.4c0.5,0.2,1,0.4,1.6,0.6
		c0.6,0.1,1.1,0.2,1.6,0.2c0.8,0,1.4-0.1,1.9-0.4c0.4-0.3,0.6-0.6,0.6-1.2c0-0.4-0.2-0.7-0.5-1c-0.3-0.3-1-0.6-2-1
		c-0.9-0.4-1.6-0.7-2-0.9c-0.4-0.3-0.7-0.6-0.9-0.9c-0.2-0.3-0.3-0.7-0.3-1.2c0-0.8,0.3-1.5,1-2c0.7-0.5,1.6-0.7,2.8-0.7
		c1.1,0,2.2,0.2,3.2,0.7l-0.5,1.3c-1-0.4-1.9-0.6-2.8-0.6c-0.7,0-1.3,0.1-1.7,0.3s-0.6,0.5-0.6,0.9c0,0.3,0.1,0.5,0.2,0.7
		c0.1,0.2,0.4,0.4,0.7,0.5c0.3,0.2,0.9,0.4,1.8,0.8c1.2,0.4,2,0.9,2.4,1.3C143.8,46,144,46.5,144,47.2z"/>
	<path class="st1" d="M149.8,48.9c0.3,0,0.5,0,0.8-0.1c0.3,0,0.5-0.1,0.6-0.1v1.2c-0.2,0.1-0.4,0.1-0.7,0.2
		c-0.3,0.1-0.6,0.1-0.9,0.1c-2,0-3-1-3-3.1v-6h-1.5v-0.7l1.5-0.6l0.6-2.2h0.9v2.4h3V41h-3v6c0,0.6,0.1,1.1,0.4,1.4
		C148.9,48.7,149.3,48.9,149.8,48.9z"/>
	<path class="st1" d="M157.5,50.2c-1.5,0-2.7-0.5-3.6-1.4s-1.3-2.2-1.3-3.8c0-1.6,0.4-2.9,1.2-3.9c0.8-1,1.9-1.4,3.3-1.4
		c1.3,0,2.3,0.4,3,1.3c0.7,0.8,1.1,1.9,1.1,3.3v1h-7c0,1.2,0.3,2.1,0.9,2.7c0.6,0.6,1.4,0.9,2.4,0.9c1.1,0,2.2-0.2,3.2-0.7v1.4
		c-0.5,0.2-1.1,0.4-1.5,0.5C158.8,50.1,158.2,50.2,157.5,50.2z M157.1,40.9c-0.8,0-1.5,0.3-2,0.8c-0.5,0.5-0.8,1.3-0.9,2.2h5.3
		c0-1-0.2-1.7-0.6-2.2S157.9,40.9,157.1,40.9z"/>
	<path class="st1" d="M176.9,50v-6.6c0-0.8-0.2-1.4-0.5-1.8c-0.3-0.4-0.9-0.6-1.6-0.6c-1,0-1.7,0.3-2.1,0.8s-0.7,1.4-0.7,2.5V50
		h-1.5v-6.6c0-0.8-0.2-1.4-0.5-1.8s-0.9-0.6-1.6-0.6c-1,0-1.7,0.3-2.1,0.9c-0.4,0.6-0.7,1.5-0.7,2.8V50h-1.5V39.8h1.3l0.3,1.4h0.1
		c0.3-0.5,0.7-0.9,1.2-1.2c0.5-0.3,1.1-0.4,1.8-0.4c1.6,0,2.6,0.6,3.1,1.7h0.1c0.3-0.5,0.7-1,1.3-1.3s1.2-0.5,2-0.5
		c1.2,0,2,0.3,2.6,0.9c0.6,0.6,0.9,1.5,0.9,2.8V50H176.9z"/>
	<path class="st1" d="M181.4,37c0-0.4,0.1-0.6,0.3-0.8c0.2-0.2,0.4-0.2,0.6-0.2c0.2,0,0.5,0.1,0.6,0.3c0.2,0.2,0.3,0.4,0.3,0.8
		c0,0.3-0.1,0.6-0.3,0.8c-0.2,0.2-0.4,0.3-0.6,0.3c-0.3,0-0.5-0.1-0.6-0.3S181.4,37.4,181.4,37z M183.1,50h-1.5V39.8h1.5V50z"/>
	<path class="st1" d="M193.3,50v-6.6c0-0.8-0.2-1.4-0.6-1.9c-0.4-0.4-1-0.6-1.8-0.6c-1.1,0-1.8,0.3-2.3,0.9s-0.7,1.5-0.7,2.8V50
		h-1.5V39.8h1.3l0.3,1.4h0.1c0.3-0.5,0.8-0.9,1.3-1.2c0.6-0.3,1.2-0.4,1.9-0.4c1.2,0,2.1,0.3,2.8,0.9c0.6,0.6,0.9,1.5,0.9,2.8V50
		H193.3z"/>
	<path class="st1" d="M202.3,50.2c-1.5,0-2.7-0.5-3.6-1.4s-1.3-2.2-1.3-3.8c0-1.6,0.4-2.9,1.2-3.9c0.8-1,1.9-1.4,3.3-1.4
		c1.3,0,2.3,0.4,3,1.3c0.7,0.8,1.1,1.9,1.1,3.3v1h-7c0,1.2,0.3,2.1,0.9,2.7c0.6,0.6,1.4,0.9,2.4,0.9c1.1,0,2.2-0.2,3.2-0.7v1.4
		c-0.5,0.2-1.1,0.4-1.5,0.5C203.6,50.1,203,50.2,202.3,50.2z M201.9,40.9c-0.8,0-1.5,0.3-2,0.8c-0.5,0.5-0.8,1.3-0.9,2.2h5.3
		c0-1-0.2-1.7-0.6-2.2S202.7,40.9,201.9,40.9z"/>
	<path class="st1" d="M223.7,50h-1.9l-4.9-6.6l-1.4,1.3V50h-1.6V36.4h1.6v6.7l6.2-6.7h1.9l-5.5,5.9L223.7,50z"/>
	<path class="st1" d="M231.6,50l-0.3-1.4h-0.1c-0.5,0.6-1,1.1-1.5,1.3s-1.1,0.3-1.9,0.3c-1,0-1.8-0.3-2.4-0.8
		c-0.6-0.5-0.9-1.3-0.9-2.2c0-2.1,1.6-3.1,4.9-3.2l1.7-0.1v-0.6c0-0.8-0.2-1.4-0.5-1.8c-0.3-0.4-0.9-0.6-1.6-0.6
		c-0.8,0-1.8,0.3-2.9,0.8l-0.5-1.2c0.5-0.3,1-0.5,1.6-0.6c0.6-0.2,1.2-0.2,1.8-0.2c1.2,0,2.1,0.3,2.7,0.8c0.6,0.5,0.9,1.4,0.9,2.6
		V50H231.6z M228.1,48.9c1,0,1.7-0.3,2.3-0.8c0.5-0.5,0.8-1.3,0.8-2.2V45l-1.5,0.1c-1.2,0-2.1,0.2-2.6,0.6c-0.5,0.3-0.8,0.9-0.8,1.6
		c0,0.6,0.2,1,0.5,1.3C227,48.7,227.5,48.9,228.1,48.9z"/>
	<path class="st1" d="M234.3,39.8h1.7l2.2,5.8c0.5,1.3,0.8,2.3,0.9,2.9h0.1c0.1-0.3,0.2-0.9,0.5-1.6c0.3-0.8,1.1-3.1,2.5-7h1.7
		l-4.4,11.6c-0.4,1.1-0.9,2-1.5,2.4c-0.6,0.5-1.3,0.7-2.1,0.7c-0.5,0-0.9-0.1-1.4-0.2v-1.2c0.3,0.1,0.7,0.1,1.1,0.1
		c1.1,0,1.8-0.6,2.3-1.8l0.6-1.4L234.3,39.8z"/>
	<path class="st1" d="M247,50h-1.5V39.8h1.5V50z"/>
	<path class="st1" d="M253.5,48.9c0.3,0,0.5,0,0.8-0.1c0.3,0,0.5-0.1,0.6-0.1v1.2c-0.2,0.1-0.4,0.1-0.7,0.2
		c-0.3,0.1-0.6,0.1-0.9,0.1c-2,0-3-1-3-3.1v-6h-1.5v-0.7l1.5-0.6l0.6-2.2h0.9v2.4h3V41h-3v6c0,0.6,0.1,1.1,0.4,1.4
		C252.6,48.7,253,48.9,253.5,48.9z"/>
	<path class="st1" d="M258.5,50H257V35.5h1.5V50z"/>
	<path class="st1" d="M263.3,50h-1.5V39.8h1.5V50z"/>
	<path class="st1" d="M273.5,48.6L273.5,48.6c-0.8,1-1.9,1.5-3.3,1.5c-1.3,0-2.4-0.5-3.1-1.4c-0.7-0.9-1.1-2.2-1.1-3.9
		c0-1.7,0.4-3,1.1-3.9s1.8-1.4,3.1-1.4c1.4,0,2.4,0.5,3.2,1.5h0.1l-0.1-0.7l0-0.7v-4.1h1.5V50h-1.3L273.5,48.6z M270.4,48.9
		c1.1,0,1.8-0.3,2.3-0.9c0.5-0.6,0.7-1.5,0.7-2.8v-0.3c0-1.4-0.2-2.5-0.7-3.1s-1.2-0.9-2.3-0.9c-0.9,0-1.6,0.4-2.1,1.1
		c-0.5,0.7-0.7,1.7-0.7,3c0,1.3,0.2,2.3,0.7,2.9S269.5,48.9,270.4,48.9z"/>
	<path class="st1" d="M279.8,50h-1.5V39.8h1.5V50z"/>
	<path class="st1" d="M287.7,39.6c0.5,0,0.9,0,1.2,0.1l-0.2,1.4c-0.4-0.1-0.8-0.1-1.1-0.1c-0.8,0-1.5,0.3-2.1,1
		c-0.6,0.7-0.9,1.5-0.9,2.5V50H283V39.8h1.3l0.2,1.9h0.1c0.4-0.7,0.8-1.2,1.4-1.5C286.4,39.8,287,39.6,287.7,39.6z"/>
</g>
</svg>
