<?xml version="1.0" encoding="utf-8"?>
<!-- Generator: Adobe Illustrator 19.0.0, SVG Export Plug-In . SVG Version: 6.00 Build 0)  -->
<svg fill="white" version="1.1" id="Layer_1" xmlns="http://www.w3.org/2000/svg" xmlns:xlink="http://www.w3.org/1999/xlink" x="0px" y="0px"
	 viewBox="-265 327 67.6 64.5" style="enable-background:new -265 327 67.6 64.5;" xml:space="preserve">
<polygon points="-244,391.5 -238.3,385.8 -265,385.8 "/>
<g>
	<polygon points="-261.6,341.2 -257.5,341.2 -257,338.2 -261.6,338.2 -261.6,329.7 -255.4,329.7 -254.9,327 -265,327 -265,351.9
		-261.6,351.9 	"/>
	<path d="M-249.8,327h-3.5l-4.6,24.9h3.3l0.6-3.9h4.7l0.6,3.9h3.4L-249.8,327z M-253.6,345.1l1.8-10.1h0.2l1.7,10.1H-253.6z"/>
	<path d="M-235.4,340.7l-1.9-1.3l1.9-1.3c0.5-0.3,0.5-1,0.5-1.7v-7.3c0-1.3-0.9-2.2-2.2-2.2h-8.2v24.9h8.2c1.3,0,2.2-0.9,2.2-2.2
		v-7.3C-234.9,341.7-234.9,341.1-235.4,340.7z M-241.9,329.8h3.7v7l-1.2,1h-2.5V329.8z M-238.2,349.1h-3.7v-7.9h2.5l1.2,1V349.1z"/>
	<path d="M-233,338.2l4,13.7h3.8l-2.9-10.8h0.4c1.2,0,2.3-0.7,2.3-2.2v-9.6c0-1.2-0.7-2.2-2.3-2.2h-5.3v2.9h4.3v8.4H-233z"/>
	<rect x="-223.7" y="332.2" width="3.2" height="19.7"/>
	<rect x="-223.7" y="327" width="3.2" height="3.3"/>
	<path d="M-201.9,327h-3.5l-3.8,20.7l-4.2-8.4l6.1-12.3h-3.8l-4.5,9.5V327h-3v24.9h3v-9.8l4.6,9.8h4.3l0.6-3.8h4.8l0.6,3.8h3.4
		L-201.9,327z M-205.7,345.2l1.8-10.1h0.2l1.7,10.1H-205.7z"/>
	<polygon points="-258.2,369.5 -258.6,369.5 -262.6,356.4 -265,356.4 -265,381.3 -261.9,381.3 -261.9,367.8 -259,378.9
		-257.9,378.9 -254.9,367.7 -254.9,381.3 -251.8,381.3 -251.8,356.4 -254.1,356.4 	"/>
	<polygon points="-250,359.1 -245.2,359.1 -245.2,367.2 -249.7,367.2 -249.7,369.9 -245.2,369.9 -245.2,378.6 -250.1,378.6
		-250.1,381.3 -242,381.3 -242,356.4 -250,356.4 	"/>
	<path d="M-238.2,356.4h-2v2.7h1.3c1.2,0,2.1,0.8,2.1,2v15.4c0,1.1-0.8,2.1-2.2,2.1h-1.2v2.7h2.1c2.3,0,4.5-1.3,4.5-4v-16.7
		C-233.5,357.7-235.8,356.4-238.2,356.4z"/>
	<polygon points="-225.1,356.4 -227.6,366.8 -230.3,356.4 -233.5,356.4 -229.3,371.9 -229.3,381.3 -226.1,381.3 -226.1,371.9
		-222,356.4 	"/>
	<path d="M-216.9,356.4h-3.3l-4.6,24.9h3.2l0.8-4.8h4.5l0.7,4.8h3.3L-216.9,356.4z M-220.4,373.7l1.7-9.6h0.2l1.6,9.6H-220.4z"/>
</g>
</svg>
