<svg xmlns="http://www.w3.org/2000/svg" viewBox="0 0 130 130"><defs><style>.cls-1{fill:#545556;}.cls-2{fill:#ff8900;opacity:0.6;}</style></defs><title>Asset 2</title><g id="Layer_2" data-name="Layer 2"><g id="katman_1" data-name="katman 1"><g id="_Group_" data-name="&lt;Group&gt;"><path id="_Compound_Path_" data-name="&lt;Compound Path&gt;" class="cls-1" d="M97.73,45.12a3.41,3.41,0,0,0-1.25-.23,3.55,3.55,0,0,0-2.48,1L85.82,54.1,77.5,52.52l-1.58-8.33L84.1,36a3.5,3.5,0,0,0-2.3-6c-.34,0-.69,0-1,0h0A19.18,19.18,0,0,0,63.18,56.94L40.33,79.81l-5.75,5.75C32.17,88,27.15,93,32.11,98a6.49,6.49,0,0,0,4.65,2c3.2,0,5.6-2.41,7.73-4.53l28.6-28.62a19.36,19.36,0,0,0,7.75,1.62,19.08,19.08,0,0,0,13.58-5.63A19.28,19.28,0,0,0,100,48.21,3.51,3.51,0,0,0,97.73,45.12ZM91.94,60.37a15.72,15.72,0,0,1-19.51,2.17L42,93c-1.75,1.75-3.5,3.51-5.25,3.51a3,3,0,0,1-2.18-1c-2.47-2.48,0-5,2.48-7.43L67.48,57.59a15.75,15.75,0,0,1,2.18-19.52A15.58,15.58,0,0,1,80.77,33.5c.28,0,.57,0,.85,0L72.13,43l2.38,12.49L87,57.89l9.49-9.5A15.69,15.69,0,0,1,91.94,60.37Z"/><path id="_Compound_Path_2" data-name="&lt;Compound Path&gt;" class="cls-2" d="M115.64,105.74A65,65,0,0,0,24.26,14.36L24,14.09,14.09,24l.27.27a65,65,0,0,0,91.38,91.38l.27.27L111,111h0l4.94-4.95ZM65,14a51,51,0,0,1,40.65,81.75l-71.4-71.4A50.71,50.71,0,0,1,65,14Zm0,102A51,51,0,0,1,24.35,34.25l71.4,71.4A50.71,50.71,0,0,1,65,116Z"/></g></g></g></svg>