<svg xmlns="http://www.w3.org/2000/svg" viewBox="0 0 130 130"><defs><style>.cls-1{fill:#545556;}.cls-2{fill:#ff8900;opacity:0.6;}</style></defs><title>Asset 1</title><g id="Layer_2" data-name="Layer 2"><g id="katman_1" data-name="katman 1"><g id="_Group_" data-name="&lt;Group&gt;"><path id="_Compound_Path_" data-name="&lt;Compound Path&gt;" class="cls-1" d="M93,58H81L75,47.51a3.49,3.49,0,0,0-3-1.76H51a3.51,3.51,0,0,0-3.37,2.54L44.86,58H37a7,7,0,0,0-7,7v8.75a3.5,3.5,0,0,0,3.5,3.5h3.68a8.75,8.75,0,0,0,17.14,0H75.68a8.75,8.75,0,0,0,17.14,0H96.5a3.5,3.5,0,0,0,3.5-3.5V65A7,7,0,0,0,93,58ZM72,49.25,77,58H65V49.25Zm-21,0H61.5V58h-13Zm-5.25,31.5A5.25,5.25,0,1,1,51,75.5,5.26,5.26,0,0,1,45.75,80.75Zm38.5,0A5.25,5.25,0,1,1,89.5,75.5,5.26,5.26,0,0,1,84.25,80.75ZM94.75,68.5H96.5v5.25H92.82a8.75,8.75,0,0,0-17.14,0H54.32a8.75,8.75,0,0,0-17.14,0H33.5V65A3.5,3.5,0,0,1,37,61.5H93A3.5,3.5,0,0,1,96.5,65H94.75a1.75,1.75,0,0,0,0,3.5Z"/><path id="_Compound_Path_2" data-name="&lt;Compound Path&gt;" class="cls-2" d="M65,0A64.77,64.77,0,0,0,24.26,14.36L24,14.09,14.09,24l.27.27a65,65,0,0,0,91.38,91.38l.27.27L111,111h0l4.94-4.95-.27-.27A65,65,0,0,0,65,0Zm0,116A51,51,0,0,1,24.35,34.25l71.4,71.4A50.71,50.71,0,0,1,65,116ZM34.25,24.35a51,51,0,0,1,71.4,71.4Z"/></g></g></g></svg>