<?xml version="1.0" encoding="utf-8"?>
<!-- Generator: Adobe Illustrator 16.0.0, SVG Export Plug-In . SVG Version: 6.00 Build 0)  -->
<!DOCTYPE svg PUBLIC "-//W3C//DTD SVG 1.1//EN" "http://www.w3.org/Graphics/SVG/1.1/DTD/svg11.dtd">
<svg version="1.1" id="Layer_1" xmlns="http://www.w3.org/2000/svg" xmlns:xlink="http://www.w3.org/1999/xlink" x="0px" y="0px"
	 width="105.832px" height="33.469px" viewBox="0 0 105.832 33.469" enable-background="new 0 0 105.832 33.469"
	 xml:space="preserve">
<g>
	<g>
		<path fill="#6F7072" d="M6.339,32.351v-3.358h0.982c0.334,0,0.592,0.076,0.774,0.229c0.182,0.151,0.272,0.368,0.272,0.647
			c0,0.173-0.041,0.317-0.122,0.433s-0.207,0.204-0.375,0.267c0.245,0.058,0.434,0.162,0.567,0.314
			c0.134,0.151,0.201,0.337,0.201,0.555c0,0.278-0.102,0.5-0.306,0.666c-0.204,0.165-0.48,0.248-0.829,0.248H6.339z M6.814,30.433
			h0.324c0.245,0,0.427-0.044,0.545-0.131c0.119-0.087,0.178-0.222,0.178-0.404c0-0.165-0.047-0.285-0.14-0.36
			c-0.094-0.075-0.243-0.112-0.448-0.112H6.814V30.433z M6.814,30.872v1.042h0.638c0.232,0,0.403-0.041,0.512-0.123
			c0.108-0.081,0.163-0.211,0.163-0.389c0-0.181-0.061-0.314-0.181-0.4c-0.121-0.087-0.311-0.13-0.57-0.13H6.814z"/>
		<path fill="#6F7072" d="M11.794,28.301c0-0.071,0.026-0.134,0.079-0.187s0.114-0.079,0.182-0.079c0.072,0,0.135,0.026,0.188,0.079
			s0.079,0.115,0.079,0.187c0,0.07-0.026,0.133-0.079,0.186c-0.053,0.049-0.115,0.074-0.188,0.074c-0.073,0-0.135-0.025-0.186-0.074
			C11.819,28.437,11.794,28.375,11.794,28.301z M11.816,32.351v-3.358h0.48v3.358H11.816z"/>
		<path fill="#6F7072" d="M15.639,32.351v-3.358h0.984c0.339,0,0.601,0.08,0.785,0.24s0.276,0.387,0.276,0.68
			c0,0.221-0.05,0.398-0.151,0.532c-0.101,0.135-0.26,0.235-0.478,0.303c0.056,0.029,0.109,0.069,0.159,0.122
			c0.043,0.044,0.107,0.128,0.192,0.253l0.816,1.229l-0.582,0.001l-0.576-0.881c-0.171-0.263-0.311-0.432-0.418-0.508
			c-0.108-0.075-0.235-0.112-0.38-0.112h-0.144v1.5H15.639z M16.121,30.447h0.398c0.221,0,0.388-0.044,0.5-0.131
			s0.169-0.219,0.169-0.395c0-0.183-0.053-0.315-0.16-0.397c-0.106-0.083-0.276-0.124-0.51-0.124h-0.398V30.447z"/>
		<path fill="#6F7072" d="M23.184,32.351V29.43H21.95v-0.438h2.945v0.438h-1.234v2.921H23.184z"/>
		<path fill="#6F7072" d="M27.919,32.351v-3.358h0.48v3.358H27.919z"/>
		<path fill="#6F7072" d="M31.763,32.351v-3.358h0.48v1.516l1.403-1.514l0.605-0.002l-1.461,1.575l1.74,1.783l-0.67,0.001
			l-1.617-1.661v1.66H31.763z"/>
		<path fill="#6F7072" d="M37.381,32.351v-3.358h0.475v2.927h1.599v0.432H37.381z"/>
		<path fill="#6F7072" d="M41.996,32.351l1.455-3.358h0.351l1.474,3.358h-0.496l-0.434-0.989h-1.432l-0.426,0.989H41.996z
			 M43.101,30.93h1.047l-0.53-1.213L43.101,30.93z"/>
		<path fill="#6F7072" d="M49.199,30.658c0-0.221,0.045-0.437,0.136-0.648c0.09-0.211,0.22-0.398,0.39-0.563
			c0.17-0.164,0.363-0.29,0.58-0.377c0.217-0.087,0.444-0.131,0.683-0.131c0.245,0,0.476,0.044,0.692,0.131
			c0.217,0.087,0.41,0.214,0.58,0.378c0.169,0.165,0.299,0.353,0.389,0.563c0.09,0.21,0.134,0.437,0.134,0.678
			c0,0.226-0.045,0.444-0.135,0.656c-0.091,0.212-0.22,0.399-0.389,0.561c-0.169,0.162-0.363,0.287-0.582,0.377
			c-0.109,0.043-0.219,0.075-0.33,0.096c-0.111,0.021-0.231,0.031-0.359,0.031c-0.238,0-0.466-0.043-0.684-0.131
			c-0.218-0.087-0.411-0.212-0.58-0.376s-0.298-0.354-0.389-0.568C49.244,31.121,49.199,30.896,49.199,30.658z M49.71,30.675
			c0,0.173,0.032,0.336,0.095,0.49c0.063,0.153,0.156,0.291,0.277,0.413c0.112,0.116,0.249,0.208,0.412,0.274s0.327,0.1,0.493,0.1
			c0.173,0,0.336-0.031,0.49-0.093s0.293-0.155,0.42-0.281c0.119-0.119,0.21-0.256,0.276-0.412c0.065-0.156,0.098-0.319,0.098-0.491
			c0-0.171-0.031-0.333-0.095-0.485c-0.063-0.153-0.156-0.292-0.28-0.417c-0.123-0.125-0.262-0.22-0.417-0.284
			c-0.155-0.065-0.319-0.098-0.492-0.098c-0.168,0-0.329,0.032-0.482,0.098c-0.154,0.064-0.294,0.158-0.422,0.282
			c-0.119,0.113-0.21,0.25-0.276,0.41c-0.032,0.08-0.056,0.16-0.072,0.24S49.71,30.586,49.71,30.675z"/>
		<path fill="#6F7072" d="M56.841,32.351V29.43h-1.234v-0.438h2.945v0.438h-1.234v2.921H56.841z"/>
		<path fill="#6F7072" d="M61.378,30.658c0-0.221,0.045-0.437,0.136-0.648c0.09-0.211,0.22-0.398,0.39-0.563
			c0.17-0.164,0.363-0.29,0.58-0.377c0.217-0.087,0.444-0.131,0.683-0.131c0.245,0,0.476,0.044,0.692,0.131
			c0.217,0.087,0.41,0.214,0.58,0.378c0.169,0.165,0.299,0.353,0.389,0.563c0.09,0.21,0.134,0.437,0.134,0.678
			c0,0.226-0.045,0.444-0.135,0.656c-0.091,0.212-0.22,0.399-0.389,0.561c-0.169,0.162-0.363,0.287-0.582,0.377
			c-0.109,0.043-0.219,0.075-0.33,0.096c-0.111,0.021-0.231,0.031-0.359,0.031c-0.238,0-0.466-0.043-0.684-0.131
			c-0.218-0.087-0.411-0.212-0.58-0.376s-0.298-0.354-0.389-0.568C61.423,31.121,61.378,30.896,61.378,30.658z M61.89,30.675
			c0,0.173,0.032,0.336,0.095,0.49c0.063,0.153,0.156,0.291,0.277,0.413c0.112,0.116,0.249,0.208,0.412,0.274s0.327,0.1,0.493,0.1
			c0.173,0,0.336-0.031,0.49-0.093s0.293-0.155,0.42-0.281c0.119-0.119,0.21-0.256,0.276-0.412c0.065-0.156,0.098-0.319,0.098-0.491
			c0-0.171-0.031-0.333-0.095-0.485c-0.063-0.153-0.156-0.292-0.28-0.417c-0.123-0.125-0.262-0.22-0.417-0.284
			c-0.155-0.065-0.319-0.098-0.492-0.098c-0.168,0-0.329,0.032-0.482,0.098c-0.154,0.064-0.294,0.158-0.422,0.282
			c-0.119,0.113-0.21,0.25-0.276,0.41c-0.032,0.08-0.056,0.16-0.072,0.24S61.89,30.586,61.89,30.675z"/>
		<path fill="#6F7072" d="M69.351,32.351v-3.358h1.047c0.352,0,0.625,0.085,0.822,0.254c0.195,0.168,0.293,0.404,0.293,0.706
			c0,0.297-0.098,0.529-0.295,0.699c-0.197,0.169-0.471,0.254-0.82,0.254h-0.572v1.445H69.351z M69.826,30.479h0.521
			c0.233,0,0.402-0.041,0.508-0.124c0.104-0.082,0.156-0.216,0.156-0.402c0-0.181-0.052-0.313-0.156-0.399
			c-0.105-0.085-0.274-0.128-0.508-0.128h-0.521V30.479z"/>
		<path fill="#6F7072" d="M73.894,32.351l1.454-3.358h0.351l1.474,3.358h-0.496l-0.434-0.989h-1.432l-0.426,0.989H73.894z
			 M74.998,30.93h1.047l-0.529-1.213L74.998,30.93z"/>
		<path fill="#6F7072" d="M80.031,32.351v-3.358h0.984c0.339,0,0.601,0.08,0.785,0.24c0.184,0.16,0.276,0.387,0.276,0.68
			c0,0.221-0.051,0.398-0.151,0.532c-0.102,0.135-0.261,0.235-0.478,0.303c0.056,0.029,0.108,0.069,0.158,0.122
			c0.043,0.044,0.107,0.128,0.191,0.253l0.816,1.229l-0.582,0.001l-0.576-0.881c-0.171-0.263-0.311-0.432-0.418-0.508
			c-0.108-0.075-0.234-0.112-0.38-0.112h-0.145v1.5H80.031z M80.514,30.447h0.398c0.222,0,0.388-0.044,0.501-0.131
			c0.112-0.087,0.169-0.219,0.169-0.395c0-0.183-0.053-0.315-0.159-0.397c-0.106-0.083-0.276-0.124-0.511-0.124h-0.398V30.447z"/>
		<path fill="#6F7072" d="M86.948,32.406c-0.068,0-0.134-0.006-0.194-0.018c-0.061-0.011-0.135-0.028-0.221-0.053
			c-0.173-0.05-0.338-0.125-0.494-0.226c-0.252-0.165-0.446-0.374-0.584-0.628c-0.138-0.253-0.206-0.528-0.206-0.824
			c0-0.226,0.046-0.443,0.137-0.654c0.091-0.21,0.221-0.396,0.389-0.558c0.176-0.167,0.376-0.293,0.601-0.378
			c0.224-0.086,0.471-0.129,0.741-0.129c0.188,0,0.375,0.022,0.563,0.066c0.188,0.044,0.382,0.111,0.582,0.202v0.521
			c-0.21-0.113-0.41-0.198-0.601-0.255c-0.19-0.056-0.372-0.084-0.545-0.084c-0.391,0-0.714,0.122-0.971,0.366
			s-0.386,0.55-0.386,0.918c0,0.362,0.126,0.665,0.379,0.91c0.252,0.245,0.568,0.367,0.949,0.367c0.096,0,0.193-0.008,0.293-0.024
			c0.099-0.016,0.198-0.04,0.299-0.073c0.1-0.032,0.2-0.073,0.302-0.123s0.205-0.109,0.309-0.178v0.539
			c-0.098,0.05-0.194,0.094-0.291,0.132c-0.098,0.038-0.201,0.072-0.312,0.103c-0.091,0.023-0.186,0.043-0.284,0.058
			c-0.099,0.014-0.192,0.021-0.282,0.021v0.201h0.056c0.176,0,0.311,0.036,0.404,0.109c0.094,0.072,0.141,0.178,0.141,0.315
			c0,0.143-0.052,0.251-0.154,0.325s-0.251,0.111-0.446,0.111c-0.078,0-0.165-0.008-0.259-0.023
			c-0.047-0.007-0.098-0.016-0.152-0.028c-0.056-0.012-0.118-0.027-0.188-0.047v-0.213c0.124,0.029,0.237,0.052,0.338,0.066
			c0.042,0.007,0.087,0.013,0.136,0.018s0.089,0.007,0.121,0.007c0.098,0,0.171-0.018,0.219-0.053s0.072-0.085,0.072-0.148
			c0-0.08-0.026-0.141-0.079-0.183c-0.055-0.037-0.14-0.056-0.255-0.056h-0.074h-0.048L86.948,32.406z"/>
		<path fill="#6F7072" d="M90.989,32.351l1.455-3.358h0.351l1.474,3.358h-0.496l-0.434-0.989h-1.432l-0.426,0.989H90.989z
			 M92.095,30.93h1.047l-0.529-1.213L92.095,30.93z"/>
	</g>
	<path fill-rule="evenodd" clip-rule="evenodd" fill="#FF8A00" d="M28.476,5.475c4.464,0,8.083,3.619,8.083,8.083
		c0,4.465-3.619,8.083-8.083,8.083s-8.083-3.618-8.083-8.083C20.393,9.094,24.012,5.475,28.476,5.475"/>
	<path fill-rule="evenodd" clip-rule="evenodd" fill="#FFFFFF" d="M28.476,8.134c2.996,0,5.424,2.428,5.424,5.424
		s-2.428,5.425-5.424,5.425s-5.424-2.429-5.424-5.425S25.479,8.134,28.476,8.134"/>
	<g>
		<path fill="#FF8A00" d="M5.893,6.209c1.157,0,2.122,0.131,2.894,0.395c0.771,0.263,1.39,0.641,1.855,1.131
			c0.464,0.491,0.793,1.088,0.986,1.789c0.193,0.702,0.29,1.482,0.29,2.342v8.155c-0.562,0.123-1.342,0.268-2.341,0.434
			c-1,0.167-2.21,0.25-3.631,0.25c-0.895,0-1.706-0.078-2.433-0.236c-0.728-0.158-1.355-0.417-1.881-0.776
			c-0.526-0.359-0.93-0.828-1.21-1.407C0.14,17.705,0,16.995,0,16.153c0-0.807,0.162-1.49,0.487-2.052
			c0.324-0.562,0.758-1.009,1.302-1.342c0.543-0.333,1.166-0.574,1.868-0.724c0.701-0.149,1.429-0.224,2.184-0.224
			c0.508,0,0.96,0.022,1.355,0.065c0.395,0.044,0.714,0.102,0.96,0.171v-0.368c0-0.666-0.202-1.201-0.605-1.604
			C7.146,9.673,6.445,9.471,5.446,9.471c-0.667,0-1.325,0.049-1.973,0.145c-0.649,0.097-1.21,0.233-1.684,0.408l-0.5-3.157
			c0.228-0.069,0.513-0.145,0.855-0.224c0.342-0.079,0.714-0.148,1.118-0.21c0.403-0.062,0.829-0.114,1.276-0.158
			S5.437,6.209,5.893,6.209z M6.208,17.679c0.386,0,0.754-0.009,1.105-0.026c0.351-0.017,0.631-0.043,0.842-0.078v-2.974
			c-0.158-0.034-0.395-0.069-0.71-0.104c-0.315-0.035-0.605-0.053-0.868-0.053c-0.368,0-0.715,0.021-1.039,0.065
			c-0.325,0.044-0.609,0.128-0.855,0.25c-0.246,0.123-0.438,0.289-0.579,0.5c-0.141,0.21-0.21,0.474-0.21,0.789
			c0,0.614,0.206,1.039,0.618,1.276C4.924,17.561,5.489,17.679,6.208,17.679z"/>
		<path fill="#FF8A00" d="M19.52,20.678c-1.14-0.018-2.065-0.141-2.775-0.368s-1.272-0.548-1.684-0.96
			c-0.413-0.412-0.693-0.912-0.842-1.5c-0.149-0.587-0.223-1.249-0.223-1.986V0.632L17.915,0v15.074
			c0,0.352,0.026,0.667,0.079,0.947c0.053,0.281,0.153,0.518,0.303,0.71c0.148,0.193,0.364,0.352,0.645,0.474
			c0.28,0.123,0.658,0.202,1.131,0.237L19.52,20.678z"/>
	</g>
	<g>
		<path fill="#535456" d="M50.727,13.496c0,1.07-0.131,2.043-0.395,2.92s-0.649,1.631-1.158,2.263s-1.14,1.123-1.894,1.474
			c-0.754,0.351-1.623,0.525-2.604,0.525c-0.544,0-1.052-0.052-1.526-0.157s-0.93-0.254-1.368-0.447v5.209h-3.919V7.051
			c0.351-0.105,0.753-0.206,1.21-0.303c0.456-0.097,0.934-0.18,1.434-0.25c0.5-0.069,1.008-0.127,1.526-0.171
			c0.517-0.044,1.013-0.065,1.486-0.065c1.14,0,2.158,0.171,3.052,0.513c0.895,0.342,1.648,0.824,2.263,1.447
			c0.614,0.622,1.083,1.381,1.407,2.275S50.727,12.391,50.727,13.496z M46.729,13.602c0-1.211-0.272-2.18-0.816-2.907
			s-1.351-1.092-2.42-1.092c-0.351,0-0.676,0.013-0.974,0.039c-0.298,0.026-0.544,0.058-0.737,0.093v7.076
			c0.246,0.158,0.566,0.29,0.96,0.395c0.395,0.105,0.793,0.158,1.197,0.158C45.798,17.363,46.729,16.109,46.729,13.602z"/>
		<path fill="#535456" d="M57.909,6.209c1.157,0,2.122,0.131,2.894,0.395c0.771,0.263,1.39,0.641,1.855,1.131
			c0.464,0.491,0.793,1.088,0.986,1.789c0.193,0.702,0.29,1.482,0.29,2.342v8.155c-0.562,0.123-1.342,0.268-2.341,0.434
			c-1,0.167-2.21,0.25-3.631,0.25c-0.895,0-1.706-0.078-2.433-0.236c-0.728-0.158-1.355-0.417-1.881-0.776
			c-0.526-0.359-0.93-0.828-1.21-1.407c-0.281-0.579-0.421-1.289-0.421-2.131c0-0.807,0.162-1.49,0.487-2.052
			c0.324-0.562,0.758-1.009,1.302-1.342c0.543-0.333,1.166-0.574,1.868-0.724c0.701-0.149,1.429-0.224,2.184-0.224
			c0.508,0,0.96,0.022,1.355,0.065c0.395,0.044,0.714,0.102,0.96,0.171v-0.368c0-0.666-0.202-1.201-0.605-1.604
			c-0.404-0.403-1.105-0.605-2.104-0.605c-0.667,0-1.325,0.049-1.973,0.145c-0.649,0.097-1.21,0.233-1.684,0.408l-0.5-3.157
			c0.228-0.069,0.513-0.145,0.855-0.224c0.342-0.079,0.714-0.148,1.118-0.21c0.403-0.062,0.829-0.114,1.276-0.158
			S57.453,6.209,57.909,6.209z M58.225,17.679c0.386,0,0.754-0.009,1.105-0.026c0.351-0.017,0.631-0.043,0.842-0.078v-2.974
			c-0.158-0.034-0.395-0.069-0.71-0.104c-0.315-0.035-0.605-0.053-0.868-0.053c-0.368,0-0.715,0.021-1.039,0.065
			c-0.325,0.044-0.609,0.128-0.855,0.25c-0.246,0.123-0.438,0.289-0.579,0.5c-0.141,0.21-0.21,0.474-0.21,0.789
			c0,0.614,0.206,1.039,0.618,1.276C56.94,17.561,57.505,17.679,58.225,17.679z"/>
		<path fill="#535456" d="M74.22,10.05c-0.352-0.088-0.763-0.18-1.236-0.276c-0.474-0.096-0.982-0.145-1.526-0.145
			c-0.246,0-0.539,0.022-0.881,0.065c-0.342,0.044-0.602,0.092-0.776,0.145v10.576H65.88V7.313c0.701-0.245,1.53-0.478,2.486-0.697
			c0.956-0.219,2.021-0.328,3.196-0.328c0.211,0,0.465,0.013,0.764,0.039c0.297,0.026,0.596,0.062,0.895,0.105
			c0.297,0.044,0.595,0.097,0.894,0.157c0.299,0.062,0.553,0.137,0.764,0.224L74.22,10.05z"/>
		<path fill="#535456" d="M95.187,6.209c1.158,0,2.122,0.131,2.895,0.395c0.771,0.263,1.39,0.641,1.854,1.131
			c0.465,0.491,0.793,1.088,0.986,1.789c0.193,0.702,0.289,1.482,0.289,2.342v8.155c-0.562,0.123-1.341,0.268-2.341,0.434
			c-1,0.167-2.21,0.25-3.631,0.25c-0.895,0-1.706-0.078-2.434-0.236s-1.354-0.417-1.881-0.776s-0.93-0.828-1.21-1.407
			c-0.281-0.579-0.421-1.289-0.421-2.131c0-0.807,0.162-1.49,0.486-2.052s0.759-1.009,1.303-1.342
			c0.543-0.333,1.166-0.574,1.867-0.724c0.702-0.149,1.43-0.224,2.184-0.224c0.509,0,0.961,0.022,1.355,0.065
			c0.395,0.044,0.714,0.102,0.96,0.171v-0.368c0-0.666-0.202-1.201-0.605-1.604s-1.104-0.605-2.104-0.605
			c-0.666,0-1.324,0.049-1.973,0.145c-0.649,0.097-1.21,0.233-1.684,0.408l-0.5-3.157c0.228-0.069,0.513-0.145,0.854-0.224
			c0.343-0.079,0.715-0.148,1.118-0.21s0.829-0.114,1.276-0.158S94.73,6.209,95.187,6.209z M95.503,17.679
			c0.385,0,0.754-0.009,1.104-0.026c0.351-0.017,0.632-0.043,0.842-0.078v-2.974c-0.158-0.034-0.395-0.069-0.71-0.104
			c-0.316-0.035-0.605-0.053-0.868-0.053c-0.368,0-0.715,0.021-1.039,0.065c-0.325,0.044-0.61,0.128-0.855,0.25
			c-0.246,0.123-0.438,0.289-0.579,0.5c-0.141,0.21-0.21,0.474-0.21,0.789c0,0.614,0.206,1.039,0.618,1.276
			C94.218,17.561,94.783,17.679,95.503,17.679z"/>
	</g>
	<g>
		<path fill="#535456" d="M105.288,18.811c0.176,0,0.31,0.055,0.4,0.166c0.092,0.111,0.138,0.236,0.138,0.377
			s-0.046,0.266-0.138,0.377c-0.091,0.111-0.225,0.167-0.4,0.167c-0.175,0-0.309-0.056-0.4-0.167
			c-0.091-0.111-0.137-0.236-0.137-0.377s0.046-0.266,0.137-0.377C104.979,18.865,105.113,18.811,105.288,18.811z"/>
		<path fill="#535456" d="M104.213,18.372c-0.222,0-0.431-0.036-0.628-0.108c-0.196-0.072-0.368-0.176-0.514-0.313
			c-0.146-0.137-0.263-0.302-0.348-0.497c-0.086-0.194-0.129-0.416-0.129-0.666c0-0.163,0.015-0.313,0.044-0.449
			c0.029-0.137,0.071-0.27,0.126-0.397l0.695,0.181c-0.031,0.082-0.059,0.172-0.082,0.269c-0.023,0.098-0.035,0.207-0.035,0.327
			c0,0.258,0.08,0.449,0.239,0.576c0.16,0.127,0.37,0.189,0.631,0.189c0.277,0,0.491-0.059,0.644-0.178
			c0.151-0.119,0.228-0.326,0.228-0.622c0-0.105-0.01-0.219-0.029-0.339c-0.02-0.121-0.051-0.232-0.094-0.333l0.713-0.123
			c0.043,0.102,0.08,0.228,0.111,0.38c0.031,0.151,0.047,0.319,0.047,0.502c0,0.281-0.042,0.522-0.126,0.725
			c-0.084,0.203-0.197,0.369-0.342,0.5c-0.144,0.131-0.314,0.226-0.511,0.286C104.656,18.342,104.443,18.372,104.213,18.372z"/>
		<path fill="#535456" d="M104.207,12.43c0.242,0,0.463,0.035,0.664,0.105c0.2,0.07,0.371,0.172,0.514,0.304
			c0.143,0.133,0.252,0.291,0.33,0.477c0.078,0.185,0.117,0.393,0.117,0.622c0,0.226-0.039,0.432-0.117,0.616
			c-0.078,0.186-0.188,0.344-0.33,0.477s-0.313,0.235-0.514,0.31c-0.201,0.074-0.422,0.111-0.664,0.111
			c-0.241,0-0.461-0.038-0.66-0.114c-0.198-0.076-0.368-0.181-0.508-0.315c-0.141-0.135-0.249-0.294-0.327-0.479
			c-0.078-0.185-0.117-0.386-0.117-0.604c0-0.222,0.039-0.426,0.117-0.61c0.078-0.186,0.187-0.344,0.327-0.477
			c0.14-0.132,0.31-0.235,0.508-0.31C103.746,12.467,103.966,12.43,104.207,12.43z M104.207,13.318c-0.269,0-0.479,0.054-0.634,0.16
			c-0.153,0.107-0.23,0.261-0.23,0.459c0,0.199,0.077,0.353,0.23,0.462c0.154,0.108,0.365,0.163,0.634,0.163
			c0.27,0,0.482-0.055,0.641-0.163c0.157-0.109,0.236-0.263,0.236-0.462c0-0.198-0.079-0.352-0.236-0.459
			C104.689,13.372,104.477,13.318,104.207,13.318z"/>
		<path fill="#535456" d="M104.12,10.069c-0.281,0-0.479,0.036-0.597,0.108c-0.116,0.072-0.175,0.195-0.175,0.371
			c0,0.055,0.003,0.11,0.009,0.169s0.013,0.115,0.021,0.17h2.372v0.87h-2.968c-0.02-0.074-0.04-0.16-0.062-0.26
			s-0.041-0.204-0.059-0.315s-0.031-0.226-0.041-0.342c-0.01-0.117-0.015-0.231-0.015-0.345c0-0.223,0.028-0.402,0.085-0.541
			c0.057-0.138,0.123-0.252,0.201-0.342c-0.09-0.124-0.159-0.268-0.21-0.429c-0.051-0.162-0.076-0.311-0.076-0.447
			c0-0.245,0.034-0.447,0.103-0.604c0.068-0.158,0.164-0.284,0.289-0.377c0.125-0.094,0.272-0.158,0.444-0.193
			c0.171-0.035,0.362-0.053,0.572-0.053h1.735v0.871h-1.63c-0.281,0-0.479,0.036-0.597,0.108c-0.116,0.071-0.175,0.195-0.175,0.37
			c0,0.047,0.012,0.112,0.035,0.196s0.053,0.153,0.088,0.207c0.089-0.027,0.184-0.044,0.283-0.053
			c0.099-0.007,0.205-0.011,0.318-0.011h1.677v0.87H104.12z"/>
	</g>
	<g>
		<path fill="#535456" d="M76.11,13.497c0-1,0.162-1.942,0.487-2.828c0.324-0.886,0.793-1.657,1.407-2.315
			c0.613-0.657,1.358-1.179,2.236-1.565c0.877-0.385,1.876-0.578,2.999-0.578c0.736,0,1.411,0.065,2.025,0.197
			c0.614,0.131,1.21,0.32,1.789,0.565l-0.815,3.131c-0.368-0.141-0.772-0.264-1.21-0.368c-0.438-0.105-0.93-0.158-1.474-0.158
			c-1.157,0-2.021,0.359-2.591,1.078c-0.57,0.72-0.855,1.667-0.855,2.842c0,1.245,0.268,2.21,0.803,2.894
			c0.534,0.685,1.469,1.026,2.802,1.026c0.474,0,0.981-0.044,1.525-0.132c0.544-0.087,1.044-0.228,1.5-0.421l0.553,3.21
			c-0.457,0.193-1.026,0.359-1.711,0.5c-0.684,0.14-1.438,0.21-2.262,0.21c-1.263,0-2.351-0.188-3.263-0.565
			s-1.662-0.89-2.249-1.539c-0.588-0.648-1.018-1.416-1.289-2.302C76.246,15.492,76.11,14.532,76.11,13.497z"/>
	</g>
	<circle fill="none" stroke="#535456" stroke-width="1.417" stroke-miterlimit="22.926" cx="83.386" cy="21.757" r="1.186"/>
	<polygon fill-rule="evenodd" clip-rule="evenodd" fill="#FF8A00" points="22.837,18.453 26.063,20.798 21.002,22.858 	"/>
	<path fill-rule="evenodd" clip-rule="evenodd" fill="#FF8A00" d="M30.517,10.752c-0.422,0-0.765,0.343-0.765,0.765
		c0,0.423,0.343,0.765,0.765,0.765c0.423,0,0.765-0.342,0.765-0.765C31.282,11.095,30.939,10.752,30.517,10.752"/>
	<path fill-rule="evenodd" clip-rule="evenodd" fill="#FF8A00" d="M30.517,12.793c-0.422,0-0.765,0.343-0.765,0.765
		c0,0.423,0.343,0.765,0.765,0.765c0.423,0,0.765-0.342,0.765-0.765C31.282,13.136,30.939,12.793,30.517,12.793"/>
	<path fill-rule="evenodd" clip-rule="evenodd" fill="#FF8A00" d="M30.517,14.834c-0.422,0-0.765,0.342-0.765,0.765
		c0,0.424,0.343,0.766,0.765,0.766c0.423,0,0.765-0.342,0.765-0.766C31.282,15.176,30.939,14.834,30.517,14.834"/>
	<path fill-rule="evenodd" clip-rule="evenodd" fill="#FF8A00" d="M28.476,10.752c-0.423,0-0.765,0.343-0.765,0.765
		c0,0.423,0.342,0.765,0.765,0.765c0.422,0,0.765-0.342,0.765-0.765C29.241,11.095,28.897,10.752,28.476,10.752"/>
	<path fill-rule="evenodd" clip-rule="evenodd" fill="#FF8A00" d="M28.476,12.793c-0.423,0-0.765,0.343-0.765,0.765
		c0,0.423,0.342,0.765,0.765,0.765c0.422,0,0.765-0.342,0.765-0.765C29.241,13.136,28.897,12.793,28.476,12.793"/>
	<path fill-rule="evenodd" clip-rule="evenodd" fill="#FF8A00" d="M28.476,14.834c-0.423,0-0.765,0.342-0.765,0.765
		c0,0.424,0.342,0.766,0.765,0.766c0.422,0,0.765-0.342,0.765-0.766C29.241,15.176,28.897,14.834,28.476,14.834"/>
	<path fill-rule="evenodd" clip-rule="evenodd" fill="#FF8A00" d="M26.434,10.752c-0.423,0-0.765,0.343-0.765,0.765
		c0,0.423,0.342,0.765,0.765,0.765c0.422,0,0.765-0.342,0.765-0.765C27.199,11.095,26.856,10.752,26.434,10.752"/>
	<path fill-rule="evenodd" clip-rule="evenodd" fill="#FF8A00" d="M26.434,12.793c-0.423,0-0.765,0.343-0.765,0.765
		c0,0.423,0.342,0.765,0.765,0.765c0.422,0,0.765-0.342,0.765-0.765C27.199,13.136,26.856,12.793,26.434,12.793"/>
	<path fill-rule="evenodd" clip-rule="evenodd" fill="#FF8A00" d="M26.434,14.834c-0.423,0-0.765,0.342-0.765,0.765
		c0,0.424,0.342,0.766,0.765,0.766c0.422,0,0.765-0.342,0.765-0.766C27.199,15.176,26.856,14.834,26.434,14.834"/>
</g>
</svg>
