<svg id="katman_1" data-name="katman 1" xmlns="http://www.w3.org/2000/svg" viewBox="0 0 110 39.11"><defs><style>.cls-1{fill:#e30016;}.cls-1,.cls-2{fill-rule:evenodd;}.cls-2{fill:#f49200;}</style></defs><title>mastercard-securecode</title><path class="cls-1" d="M-37.4,643.92a2.13,2.13,0,0,1,2.07-2.17,2.12,2.12,0,0,1,2.07,2.17,2.12,2.12,0,0,1-2.07,2.18,2.13,2.13,0,0,1-2.07-2.18Zm2.07,1.66a1.63,1.63,0,0,0,1.58-1.66,1.62,1.62,0,0,0-1.58-1.65,1.62,1.62,0,0,0-1.58,1.65,1.63,1.63,0,0,0,1.58,1.66Zm-.28-.71H-36V643h.77a.79.79,0,0,1,.47.11.59.59,0,0,1,.23.48.51.51,0,0,1-.31.48l.33.85H-35l-.28-.75h-.31Zm0-1.08h.24a.49.49,0,0,0,.26,0,.26.26,0,0,0,.11-.22.23.23,0,0,0-.11-.19.52.52,0,0,0-.26,0h-.23Zm0,0" transform="translate(141.38 -628.57)"/><path class="cls-1" d="M-67,629.45l-.57,3.69a6.32,6.32,0,0,0-3.1-.91c-2.58,0-4.4,2.62-4.4,6.37,0,2.58,1.23,4.14,3.24,4.14a6.4,6.4,0,0,0,2.94-.88l-.6,3.88a10.27,10.27,0,0,1-3.06.5c-3.73,0-6.06-2.82-6.06-7.34,0-6.08,3.21-10.33,7.8-10.33a5.61,5.61,0,0,1,1.55.18l1.43.37c.42.17.52.19.83.33Zm0,0" transform="translate(141.38 -628.57)"/><path class="cls-1" d="M-78.5,632a2.09,2.09,0,0,0-.36,0c-1.14,0-1.79.6-2.85,2.25l.31-2.1h-3.14l-2.13,13.83h3.48c1.24-8.46,1.56-9.91,3.23-9.91h.25a13.76,13.76,0,0,1,1.31-4Zm0,0" transform="translate(141.38 -628.57)"/><path class="cls-1" d="M-99.25,645.76a7.6,7.6,0,0,1-2.49.46c-1.77,0-2.73-1.08-2.73-3a7.89,7.89,0,0,1,.1-1.24l.22-1.35.16-1.1,1.51-9.44H-99l-.39,2.05h1.77l-.49,3.36h-1.77l-.91,5.77a5.54,5.54,0,0,0-.06.57c0,.71.36,1,1.18,1a2.69,2.69,0,0,0,.93-.13Zm0,0" transform="translate(141.38 -628.57)"/><path class="cls-1" d="M-112.9,636.47a4,4,0,0,0,2.63,3.85c1.39.69,1.62.9,1.62,1.53,0,.86-.62,1.26-2,1.26a9.18,9.18,0,0,1-3.1-.55l-.48,3.19.16,0,.64.13c.21,0,.51.08.9.12.83.08,1.46.11,1.91.11,3.63,0,5.32-1.47,5.32-4.62a3.79,3.79,0,0,0-2.43-3.85c-1.44-.69-1.61-.85-1.61-1.5s.57-1.13,1.68-1.13a19.17,19.17,0,0,1,2.48.2l.49-3.19a21.37,21.37,0,0,0-3-.27c-3.85,0-5.19,2.12-5.18,4.68Zm0,0" transform="translate(141.38 -628.57)"/><path class="cls-1" d="M-39.41,645.93h-3.28l.17-1.36a4,4,0,0,1-3.2,1.54c-2.53,0-4.19-2.28-4.19-5.74,0-4.6,2.58-8.49,5.64-8.49a3.9,3.9,0,0,1,3.32,1.89l.75-4.86h3.41Zm-5.11-3.26c1.62,0,2.75-1.92,2.75-4.66,0-1.76-.65-2.71-1.84-2.71-1.57,0-2.69,1.93-2.69,4.65,0,1.81.6,2.72,1.78,2.72Zm0,0" transform="translate(141.38 -628.57)"/><path class="cls-1" d="M-88.27,645.64a11.55,11.55,0,0,1-3.56.56c-3.86,0-5.88-2.13-5.88-6.19,0-4.75,2.57-8.25,6.06-8.25,2.85,0,4.67,2,4.67,5a15.21,15.21,0,0,1-.43,3.41H-94.3a2.82,2.82,0,0,0,0,.43c0,1.62,1,2.43,3,2.43a7.82,7.82,0,0,0,3.59-.88Zm-1.94-8.23c0-.29,0-.52,0-.7a1.58,1.58,0,0,0-1.64-1.79c-1.1,0-1.88.88-2.21,2.48Zm0,0" transform="translate(141.38 -628.57)"/><path class="cls-1" d="M-126.81,645.93h-3.46l2-13.07-4.43,13.07h-2.37l-.29-13-2.09,13h-3.24l2.7-17h5l.14,10.53,3.37-10.53h5.38Zm0,0" transform="translate(141.38 -628.57)"/><path class="cls-1" d="M-117.89,639.77a5.59,5.59,0,0,0-.77-.06c-2,0-3,.72-3,2.11a1.25,1.25,0,0,0,1.25,1.41c1.41,0,2.43-1.41,2.49-3.46Zm2.52,6.16h-2.87l.06-1.44a4.23,4.23,0,0,1-3.63,1.67c-1.88,0-3.17-1.54-3.17-3.77,0-3.38,2.25-5.34,6.09-5.34a10.39,10.39,0,0,1,1.41.11,3.56,3.56,0,0,0,.14-.9c0-.92-.6-1.26-2.22-1.26a10.34,10.34,0,0,0-2.88.39l-.48.14-.3.09.48-3.1a13.12,13.12,0,0,1,4.15-.74c3,0,4.55,1.4,4.55,4.05a16.5,16.5,0,0,1-.29,2.75l-.73,4.9-.12.88-.09.71-.06.48Zm0,0" transform="translate(141.38 -628.57)"/><path class="cls-1" d="M-61,639.77a5.53,5.53,0,0,0-.77-.06c-2,0-3,.72-3,2.11a1.25,1.25,0,0,0,1.25,1.41c1.42,0,2.42-1.41,2.49-3.46Zm2.52,6.16h-2.87l.07-1.44a4.23,4.23,0,0,1-3.63,1.67c-1.88,0-3.18-1.54-3.18-3.77,0-3.38,2.25-5.34,6.1-5.34a10.38,10.38,0,0,1,1.41.11,3.72,3.72,0,0,0,.14-.9c0-.92-.6-1.26-2.22-1.26a10.21,10.21,0,0,0-2.88.39l-.49.14-.3.09.48-3.1a13.14,13.14,0,0,1,4.14-.74c3,0,4.56,1.4,4.56,4.05a17.55,17.55,0,0,1-.28,2.75l-.73,4.9-.11.88-.1.71-.06.48Zm0,0" transform="translate(141.38 -628.57)"/><path class="cls-1" d="M-48.84,632a1.88,1.88,0,0,0-.35,0c-1.14,0-1.79.6-2.85,2.25l.31-2.1h-3.13L-57,645.93h3.47c1.24-8.46,1.57-9.91,3.23-9.91a1,1,0,0,1,.25,0,13.83,13.83,0,0,1,1.32-4Zm0,0" transform="translate(141.38 -628.57)"/><path class="cls-2" d="M-63.37,659.34c0,3.14-1,5-2.5,5-1.12,0-1.8-1.21-1.8-3.07,0-2.2,1-4.69,2.58-4.69,1.28,0,1.72,1.35,1.72,2.79Zm3.41.06c0-3.48-1.72-6.2-5-6.2-3.72,0-6.14,3.3-6.14,8.15,0,3.48,1.43,6.32,5,6.32S-60,665.16-60,659.4Zm0,0" transform="translate(141.38 -628.57)"/><path class="cls-2" d="M-70,650.75l-.53,3.69a5.71,5.71,0,0,0-2.9-.92c-2.42,0-4.11,2.63-4.11,6.38,0,2.58,1.13,4.15,3,4.15a5.66,5.66,0,0,0,2.75-.88l-.56,3.88a9.06,9.06,0,0,1-2.87.5c-3.49,0-5.66-2.82-5.66-7.34,0-6.09,3-10.34,7.3-10.34a5.53,5.53,0,0,1,1.45.18l1.32.38c.41.16.49.19.78.33Zm0,0" transform="translate(141.38 -628.57)"/><path class="cls-2" d="M-91.38,653.29a1.2,1.2,0,0,0-.33,0c-1.05,0-1.67.6-2.65,2.25l.29-2.1H-97l-2,13.83h3.24c1.16-8.46,1.47-9.92,3-9.92l.24,0a14.65,14.65,0,0,1,1.23-4Zm0,0" transform="translate(141.38 -628.57)"/><path class="cls-2" d="M-49.12,667.09h-3.06l.16-1.35a3.7,3.7,0,0,1-3,1.53c-2.36,0-3.91-2.29-3.91-5.75,0-4.59,2.42-8.49,5.27-8.49a3.59,3.59,0,0,1,3.1,1.91l.71-4.87h3.19Zm-4.78-3.25c1.53,0,2.58-1.92,2.58-4.66,0-1.76-.6-2.71-1.71-2.71-1.47,0-2.52,1.92-2.52,4.65,0,1.8.56,2.72,1.65,2.72Zm0,0" transform="translate(141.38 -628.57)"/><path class="cls-2" d="M-121.71,667a10,10,0,0,1-3.31.56c-3.61,0-5.5-2.13-5.5-6.19,0-4.75,2.4-8.25,5.66-8.25,2.67,0,4.37,2,4.37,5a16.9,16.9,0,0,1-.39,3.41h-6.45c0,.21,0,.31,0,.43,0,1.61,1,2.43,2.84,2.43a6.94,6.94,0,0,0,3.36-.88Zm-1.81-8.23c0-.29,0-.52,0-.7,0-1.13-.57-1.79-1.53-1.79s-1.77.89-2.07,2.48Zm0,0" transform="translate(141.38 -628.57)"/><path class="cls-2" d="M-83.23,667a10,10,0,0,1-3.32.56c-3.62,0-5.5-2.13-5.5-6.19,0-4.75,2.4-8.25,5.66-8.25,2.67,0,4.37,2,4.37,5a16.43,16.43,0,0,1-.41,3.41h-6.44c0,.21,0,.31,0,.43,0,1.61,1,2.43,2.84,2.43a6.94,6.94,0,0,0,3.36-.88ZM-85,658.8c0-.29,0-.52,0-.7,0-1.13-.57-1.79-1.53-1.79s-1.77.89-2.07,2.48Zm0,0" transform="translate(141.38 -628.57)"/><path class="cls-2" d="M-38.08,667a10.07,10.07,0,0,1-3.32.56c-3.61,0-5.5-2.13-5.5-6.19,0-4.75,2.41-8.25,5.66-8.25,2.67,0,4.36,2,4.36,5a16.34,16.34,0,0,1-.4,3.41h-6.44a3.57,3.57,0,0,0,0,.43c0,1.61,1,2.43,2.84,2.43a7,7,0,0,0,3.36-.88Zm-1.82-8.23c0-.29,0-.52,0-.7,0-1.13-.57-1.79-1.53-1.79s-1.77.89-2.07,2.48Zm0,0" transform="translate(141.38 -628.57)"/><path class="cls-2" d="M-131.29,653.91a4.66,4.66,0,0,0-2.7-.8c-1.31,0-2.36.27-2.36,1.66,0,2.45,4.77,1.54,4.77,6.8,0,4.79-3.15,6-6,6a10.05,10.05,0,0,1-3.8-.9l.77-3.52a5,5,0,0,0,3,1c1,0,2.62-.28,2.62-2.06,0-2.79-4.77-1.75-4.77-6.64,0-4.47,2.78-5.81,5.47-5.81a7.28,7.28,0,0,1,3.77.78Zm0,0" transform="translate(141.38 -628.57)"/><path class="cls-2" d="M-112.24,667a6.49,6.49,0,0,1-2.87.53c-2.83,0-4.58-2.83-4.58-6.27,0-4.5,2.54-8.1,6.27-8.1a6.85,6.85,0,0,1,3,.92l-.71,3.3a4,4,0,0,0-2.16-.74c-1.73,0-3,1.58-3,4.42,0,1.64.9,3,2.31,3a3.87,3.87,0,0,0,2.16-.61Zm0,0" transform="translate(141.38 -628.57)"/><path class="cls-2" d="M-100.14,663.56c-.17,1.19-.32,2.35-.41,3.59h-3.12l.26-2.23h0c-1,1.52-2,2.55-3.75,2.55-2,0-3-2.06-3-4.74a17.42,17.42,0,0,1,.26-2.9l.88-6.4h3.47l-.93,6.42a15.68,15.68,0,0,0-.23,2.09c0,.81.37,1.63,1.3,1.58,1.42,0,2.26-1.73,2.5-3.77l1-6.32h3.35Zm0,0" transform="translate(141.38 -628.57)"/><path class="cls-2" d="M-34.85,667h-.52v-2.29h-.76v-.49h2v.49h-.76Zm0,0" transform="translate(141.38 -628.57)"/><path class="cls-2" d="M-31.38,667h-.49v-2.33h0l-.47,2.33h-.51l-.46-2.33h0V667h-.49v-2.79H-33l.45,2.2h0l.45-2.2h.76Zm0,0" transform="translate(141.38 -628.57)"/></svg>