<svg id="katman_1" data-name="katman 1" xmlns="http://www.w3.org/2000/svg" viewBox="0 0 83.62 65.04"><defs><style>.cls-1{fill:#231f20;}.cls-2{fill:#ff5f00;}.cls-3{fill:#eb001b;}.cls-4{fill:#f79e1b;}</style></defs><title>mastercard</title><path class="cls-1" d="M-115.06,588.29V584a2.56,2.56,0,0,0-2.37-2.73h-.33a2.66,2.66,0,0,0-2.41,1.22,2.52,2.52,0,0,0-2.27-1.22,2.27,2.27,0,0,0-2,1v-.85h-1.49v6.86h1.51v-3.78a1.61,1.61,0,0,1,1.38-1.81h.3c1,0,1.49.65,1.49,1.81v3.82h1.51v-3.8a1.61,1.61,0,0,1,1.39-1.81h.29c1,0,1.51.65,1.51,1.81v3.82Zm22.3-6.86h-2.45v-2.08h-1.51v2.08h-1.36v1.36h1.39v3.16c0,1.59.62,2.54,2.38,2.54a3.5,3.5,0,0,0,1.87-.53l-.43-1.28a2.76,2.76,0,0,1-1.32.39c-.72,0-1-.46-1-1.15v-3.13h2.44Zm12.73-.17a2,2,0,0,0-1.81,1v-.83h-1.48v6.86h1.49v-3.85c0-1.13.49-1.77,1.44-1.77a2.43,2.43,0,0,1,.93.17l.46-1.44a3.19,3.19,0,0,0-1.06-.19Zm-19.25.72a5.13,5.13,0,0,0-2.8-.72c-1.74,0-2.87.83-2.87,2.2,0,1.12.83,1.81,2.37,2l.72.1c.82.11,1.21.33,1.21.72s-.55.83-1.56.83a3.65,3.65,0,0,1-2.28-.72l-.72,1.16a5,5,0,0,0,3,.89c2,0,3.13-.93,3.13-2.24s-.9-1.84-2.4-2.05l-.72-.1c-.65-.09-1.16-.22-1.16-.67s.49-.8,1.31-.8a4.42,4.42,0,0,1,2.15.59Zm40-.72a2,2,0,0,0-1.81,1v-.83h-1.48v6.86h1.49v-3.85c0-1.13.49-1.77,1.44-1.77a2.43,2.43,0,0,1,.93.17l.46-1.44a3.19,3.19,0,0,0-1.06-.19Zm-19.24,3.59a3.47,3.47,0,0,0,3.34,3.59h.32a3.59,3.59,0,0,0,2.47-.82l-.72-1.21a3,3,0,0,1-1.79.62,2.2,2.2,0,0,1-2-2.37,2.2,2.2,0,0,1,2-2,3,3,0,0,1,1.79.62l.72-1.21a3.59,3.59,0,0,0-2.47-.82,3.47,3.47,0,0,0-3.66,3.27q0,.16,0,.32Zm14,0v-3.42H-66v.83a2.61,2.61,0,0,0-2.15-1,3.59,3.59,0,0,0-3.59,3.59,3.59,3.59,0,0,0,3.59,3.59,2.61,2.61,0,0,0,2.15-1v.83h1.49Zm-5.56,0a2.07,2.07,0,0,1,2.19-1.95A2.07,2.07,0,0,1-66,585.09,2.07,2.07,0,0,1-68,587a2.06,2.06,0,0,1-2.09-2Q-70.1,584.93-70.1,584.84Zm-18-3.59a3.59,3.59,0,0,0-3.54,3.64A3.59,3.59,0,0,0-88,588.43h0a4.17,4.17,0,0,0,2.85-.93l-.72-1.11a3.27,3.27,0,0,1-2,.72,1.9,1.9,0,0,1-2.05-1.68h5.1v-.57a3.26,3.26,0,0,0-3.26-3.59Zm0,1.34a1.7,1.7,0,0,1,1.74,1.66H-90a1.77,1.77,0,0,1,1.82-1.67Zm37.4,2.27v-6.19h-1.44v3.59a2.61,2.61,0,0,0-2.15-1,3.59,3.59,0,0,0-3.59,3.59,3.59,3.59,0,0,0,3.59,3.59,2.61,2.61,0,0,0,2.15-1v.83h1.44Zm2.49,2.43a.72.72,0,0,1,.27.05.72.72,0,0,1,.22.14.72.72,0,0,1,.15.22.67.67,0,0,1,0,.53.72.72,0,0,1-.15.22.72.72,0,0,1-.22.14.67.67,0,0,1-.27.06.72.72,0,0,1-.65-.42.67.67,0,0,1,0-.53.72.72,0,0,1,.15-.22.72.72,0,0,1,.22-.14.72.72,0,0,1,.29-.05Zm0,1.21a.51.51,0,0,0,.21,0,.54.54,0,0,0,.17-.11.53.53,0,0,0,0-.72.53.53,0,0,0-.17-.11.52.52,0,0,0-.21,0,.54.54,0,0,0-.21,0,.52.52,0,0,0-.17.11.53.53,0,0,0,0,.72.53.53,0,0,0,.17.11.53.53,0,0,0,.23,0Zm0-.85a.29.29,0,0,1,.19.06.18.18,0,0,1,.06.15A.17.17,0,0,1-48,588a.25.25,0,0,1-.15.06l.21.24h-.17l-.19-.24h-.06v.24h-.14v-.63Zm-.16.12v.17h.24a.07.07,0,0,0,0-.06.07.07,0,0,0,0-.06h-.09Zm-7.9-2.91A2.07,2.07,0,0,1-54,582.91a2.07,2.07,0,0,1,1.95,2.19,2.07,2.07,0,0,1-2.06,2,2.06,2.06,0,0,1-2.09-2Q-56.24,584.94-56.23,584.86Zm-50.41,0v-3.43h-1.49v.83a2.61,2.61,0,0,0-2.15-1,3.59,3.59,0,0,0-3.59,3.59,3.59,3.59,0,0,0,3.59,3.59,2.61,2.61,0,0,0,2.15-1v.83h1.49Zm-5.56,0a2.07,2.07,0,0,1,2.19-1.95,2.07,2.07,0,0,1,1.95,2.19,2.07,2.07,0,0,1-2.06,2,2.06,2.06,0,0,1-2.1-2q0-.09,0-.18Z" transform="translate(130.27 -523.61)"/><g id="_Group_" data-name=" Group "><rect class="cls-2" x="30.5" y="5.53" width="22.61" height="40.63"/><path id="_Path_" data-name=" Path " class="cls-3" d="M-98.33,549.46a25.8,25.8,0,0,1,9.87-20.32,25.84,25.84,0,0,0-36.28,4.35,25.84,25.84,0,0,0,4.35,36.28,25.84,25.84,0,0,0,31.93,0A25.8,25.8,0,0,1-98.33,549.46Z" transform="translate(130.27 -523.61)"/><path class="cls-4" d="M-46.66,549.46A25.84,25.84,0,0,1-72.5,575.3a25.84,25.84,0,0,1-16-5.53,25.84,25.84,0,0,0,4.35-36.28,25.84,25.84,0,0,0-4.35-4.35,25.84,25.84,0,0,1,36.28,4.34,25.84,25.84,0,0,1,5.53,16Z" transform="translate(130.27 -523.61)"/><path class="cls-4" d="M-49.13,565.47v-.83h.34v-.17h-.85v.17h.37v.83Zm1.66,0v-1h-.26l-.3.72-.3-.72h-.23v1h.19v-.75l.28.65h.19l.28-.65v.76Z" transform="translate(130.27 -523.61)"/></g></svg>