<?xml version="1.0" encoding="utf-8"?>
<!-- Generator: Adobe Illustrator 16.0.0, SVG Export Plug-In . SVG Version: 6.00 Build 0)  -->
<!DOCTYPE svg PUBLIC "-//W3C//DTD SVG 1.1//EN" "http://www.w3.org/Graphics/SVG/1.1/DTD/svg11.dtd">
<svg version="1.1" id="Layer_1" xmlns="http://www.w3.org/2000/svg" xmlns:xlink="http://www.w3.org/1999/xlink" x="0px" y="0px"
	 width="16px" height="16px" viewBox="0 0 16 16" enable-background="new 0 0 16 16" xml:space="preserve">
<g>
	<defs>
		<rect id="SVGID_1_" width="16" height="16"/>
	</defs>
	<clipPath id="SVGID_2_">
		<use xlink:href="#SVGID_1_"  overflow="visible"/>
	</clipPath>
	<path clip-path="url(#SVGID_2_)" fill-rule="evenodd" clip-rule="evenodd" fill="#FF8A00" d="M8,0c4.418,0,8,3.582,8,8
		c0,4.419-3.582,8-8,8s-8-3.581-8-8C0,3.582,3.582,0,8,0"/>
	<path clip-path="url(#SVGID_2_)" fill-rule="evenodd" clip-rule="evenodd" fill="#FFFFFF" d="M10.546,4.5
		c-0.526,0-0.954,0.428-0.954,0.954c0,0.527,0.428,0.953,0.954,0.953S11.5,5.981,11.5,5.454C11.5,4.928,11.072,4.5,10.546,4.5"/>
	<path clip-path="url(#SVGID_2_)" fill-rule="evenodd" clip-rule="evenodd" fill="#FFFFFF" d="M10.546,7.046
		C10.02,7.046,9.592,7.474,9.592,8c0,0.527,0.428,0.954,0.954,0.954S11.5,8.526,11.5,8C11.5,7.474,11.072,7.046,10.546,7.046"/>
	<path clip-path="url(#SVGID_2_)" fill-rule="evenodd" clip-rule="evenodd" fill="#FFFFFF" d="M10.546,9.591
		c-0.526,0-0.954,0.427-0.954,0.954c0,0.528,0.428,0.955,0.954,0.955s0.954-0.427,0.954-0.955
		C11.5,10.018,11.072,9.591,10.546,9.591"/>
	<path clip-path="url(#SVGID_2_)" fill-rule="evenodd" clip-rule="evenodd" fill="#FFFFFF" d="M8,4.5
		c-0.527,0-0.954,0.428-0.954,0.954c0,0.527,0.427,0.953,0.954,0.953c0.526,0,0.954-0.426,0.954-0.953C8.954,4.928,8.526,4.5,8,4.5"
		/>
	<path clip-path="url(#SVGID_2_)" fill-rule="evenodd" clip-rule="evenodd" fill="#FFFFFF" d="M8,7.046
		C7.473,7.046,7.046,7.474,7.046,8c0,0.527,0.427,0.954,0.954,0.954c0.526,0,0.954-0.427,0.954-0.954
		C8.954,7.474,8.526,7.046,8,7.046"/>
	<path clip-path="url(#SVGID_2_)" fill-rule="evenodd" clip-rule="evenodd" fill="#FFFFFF" d="M8,9.591
		c-0.527,0-0.954,0.427-0.954,0.954C7.046,11.073,7.473,11.5,8,11.5c0.526,0,0.954-0.427,0.954-0.955
		C8.954,10.018,8.526,9.591,8,9.591"/>
	<path clip-path="url(#SVGID_2_)" fill-rule="evenodd" clip-rule="evenodd" fill="#FFFFFF" d="M5.454,4.5
		C4.927,4.5,4.5,4.928,4.5,5.454c0,0.527,0.427,0.953,0.954,0.953c0.527,0,0.954-0.426,0.954-0.953C6.408,4.928,5.981,4.5,5.454,4.5
		"/>
	<path clip-path="url(#SVGID_2_)" fill-rule="evenodd" clip-rule="evenodd" fill="#FFFFFF" d="M5.454,7.046
		C4.927,7.046,4.5,7.474,4.5,8c0,0.527,0.427,0.954,0.954,0.954c0.527,0,0.954-0.427,0.954-0.954
		C6.408,7.474,5.981,7.046,5.454,7.046"/>
	<path clip-path="url(#SVGID_2_)" fill-rule="evenodd" clip-rule="evenodd" fill="#FFFFFF" d="M5.454,9.591
		c-0.527,0-0.954,0.427-0.954,0.954c0,0.528,0.427,0.955,0.954,0.955c0.527,0,0.954-0.427,0.954-0.955
		C6.408,10.018,5.981,9.591,5.454,9.591"/>
</g>
</svg>
