<svg id="katman_1" data-name="katman 1" xmlns="http://www.w3.org/2000/svg" viewBox="0 0 138.7 177.82"><defs><style>.cls-1{fill:#312783;}.cls-1,.cls-2{fill-rule:evenodd;}.cls-2{fill:#ef7d00;}.cls-3,.cls-4{fill:none;stroke-miterlimit:2.61;stroke-width:2.07px;}.cls-3{stroke:#ef7d00;}.cls-4{stroke:#312783;}</style></defs><title>mng-kargo</title><path class="cls-1" d="M352.62,428.58H338.11v15.57s-.64,1.91-2.23,1.91c0,0-2.55,0-2.55-1.91V425.25S335.4,414,345.77,419v-4.93S329,407.29,319.94,423c0,0-6.38,13,4.15,22.88,0,0,4.46,4.77,14,4.77,0,0,8.61.32,14.51-4.29v-17.8Zm-71.27,21.61V414H271l-9.41,13-8.45-13h-11v36.39h5.1V435.41l8.45,13.51,10-13.35v14.62Zm33.8-36.55h-5.26v15.1L300.81,414H284.38V450h4.94V435.26L298.41,450h16.74V413.65Z" transform="translate(-228.03 -332.36)"/><path class="cls-2" d="M341.46,404.11a24.5,24.5,0,0,0-1.91,2.07,303.65,303.65,0,0,1-44.48,1.59c-9.41,3.18-13.87.16-17.38-2.7-3-.16-6.06-.48-9.25-.64-2.23,2.86-6.7,2.86-13.23-.16-2.71-1.11-2.39-2.22.64-3.65,2.39-1,5.58-1.11,12.12,0,.16.32,1.59.79,1.59,1.11,3.83.16,7.17.16,11,.32,6.22-.48,8-5.4,5.26-10.49-2.07-3.81-4.94-5.24-6.54-10.33-4.46-13.35,9.88-15.57,16.42-30.83a4,4,0,0,1,1.59,3c.64,3,0,4.77-.8,7.47-.32,1-.64,2.07-1,3.18,1,.64,2.23-1.27,3.67-3.65.8,2.54.16,5.72-2.07,9.69,1.12-.79,2.23-1.75,3.19-2.54.48,1.91-.48,4.61-2.39,8.26,1.28-.79,2.07-1.27,3.51-2.07a12.21,12.21,0,0,1-2.55,6.36c1.28-.48,2.23-1.75,3.51-2.22a14.5,14.5,0,0,1-2.23,7.63c1.12-1.11,1.43-.79,2.71-1.91-.16,2.38,0,3.5-.64,4.77-1,1.43-1.91,1.27-1.75,3.18.16.79.48,1.27,1.28,1,2.23-1.91,4.15-4,6.54-5.88,3.83-3.18,5.26-3,10.2-2.86,5.58.16,9.88,2.54,15.15,3.18-3.51,3-5.74,2.54-10.2,2.54a29.8,29.8,0,0,0,3.51,1.11,10.56,10.56,0,0,1-7,1.11c.16.79,1.91,1.11,2.23,1.75a9.85,9.85,0,0,1-5.1.64c.32.79.8,1.59,1.12,2.54-2.71.79-3.83.32-4.94-.16a10.26,10.26,0,0,0,.64,2.07,21,21,0,0,1-9.25-1,2,2,0,0,0,.16,1c.16,5.24,12.44,6.67,31.41,6l5.26-.48Z" transform="translate(-228.03 -332.36)"/><path class="cls-2" d="M244.21,484.51V459.57h7.49V471.8l4.94-5.72h8.29l-7,6.83,8,11.6h-8.77L253,478l-1.28,1.27v5.24Zm36.35-8.26a14.87,14.87,0,0,1-2.87,1c-1.75.48-2.71,1.11-2.71,1.91a1.8,1.8,0,0,0,.48,1.27,2.7,2.7,0,0,0,1.59.48,3.33,3.33,0,0,0,3.67-3.65l-.16-.48v-.48Zm.8,8.26-.48-1.75a13,13,0,0,1-3.19,1.91,13.64,13.64,0,0,1-3.67.48,7.63,7.63,0,0,1-4.94-1.43,6,6,0,0,1-1.75-4.45,4.93,4.93,0,0,1,1.75-4c1.12-.79,3.35-1.43,6.38-1.91l1.75-.16c2.23-.32,3.51-.79,3.51-1.91a1.61,1.61,0,0,0-.64-1.11,6.27,6.27,0,0,0-2.07-.32,2.87,2.87,0,0,0-1.75.48c-.48.16-.64.64-.8,1.27h-7.17a5,5,0,0,1,2.55-4.61c1.75-1.11,4.15-1.59,7.49-1.59a33.75,33.75,0,0,1,4.15.32,7.81,7.81,0,0,1,3,1.27,3.71,3.71,0,0,1,1.91,1.91,14.91,14.91,0,0,1,.48,1.43c0,.48.16,1.11.16,1.75v10.33a2,2,0,0,0,.16,1c.16.16.32.48.64.64v.48Zm11,0V466.08h6.86v3.34a6.68,6.68,0,0,1,2.07-2.86,6.82,6.82,0,0,1,3.83-1h.64v7.31H305l-.8-.16a5.27,5.27,0,0,0-3.35,1.11,4.46,4.46,0,0,0-1,3.18v7.47ZM315,475.14a5.67,5.67,0,0,0,.8,3.34,2.26,2.26,0,0,0,2.23,1.11,2.52,2.52,0,0,0,2.39-1.11,5.67,5.67,0,0,0,.8-3.34,4.57,4.57,0,0,0-1-3,2.8,2.8,0,0,0-4.46,0,4.9,4.9,0,0,0-.8,3Zm-6.22,11.44h7.33a2,2,0,0,0,.64,1,4.74,4.74,0,0,0,1.59.32,2.9,2.9,0,0,0,2.23-.79,6.33,6.33,0,0,0,.64-3.18v-1a5.76,5.76,0,0,1-2.39,1.27,7.75,7.75,0,0,1-2.87.48,7.41,7.41,0,0,1-6.06-2.54,9.39,9.39,0,0,1-2.39-6.83,10.81,10.81,0,0,1,2.23-7,6.79,6.79,0,0,1,5.9-2.7,8.61,8.61,0,0,1,3.51.64,6.82,6.82,0,0,1,2.55,2.22v-2.38h6.7v17c0,3.18-.8,5.56-2.39,6.83-1.59,1.43-4.3,2.07-8.13,2.07a12.23,12.23,0,0,1-6.38-1.43,5.88,5.88,0,0,1-2.71-4Zm30.13-11.28a6.9,6.9,0,0,0,.8,3.65,2.42,2.42,0,0,0,2.23,1.11,2.52,2.52,0,0,0,2.39-1.11,8.77,8.77,0,0,0,0-7.31,2.52,2.52,0,0,0-2.39-1.11,2.42,2.42,0,0,0-2.23,1.11,6.9,6.9,0,0,0-.8,3.65Zm-7.49,0a9.56,9.56,0,0,1,2.87-7.31c1.75-1.75,4.46-2.54,7.65-2.54,3.35,0,5.9.79,7.81,2.54a10.74,10.74,0,0,1,0,14.62c-1.91,1.75-4.46,2.54-7.81,2.54a10.87,10.87,0,0,1-7.65-2.54,9.56,9.56,0,0,1-2.87-7.31Z" transform="translate(-228.03 -332.36)"/><path class="cls-3" d="M298.1,333.4c19.93-.16,39.7,5.08,59,15.57,2.87,1.59,5.74,3.18,8.61,4.93V488.64l-8.61,4.77c-19.29,10.49-39.06,15.73-59,15.73-22.8.16-45.92-6.36-69-20.5V353.9c23.12-14.3,46.24-20.82,69-20.5Z" transform="translate(-228.03 -332.36)"/><path class="cls-4" d="M298.1,335.15c19.45-.16,38.42,5.08,57.24,15.41,2.87,1.43,5.58,3,8.45,4.61v132c-2.87,1.75-5.58,3.18-8.45,4.77-18.81,10.33-37.79,15.41-57.24,15.25-22.16.32-44.64-6.2-67.12-20v-132c22.48-13.82,45-20.34,67.12-20Z" transform="translate(-228.03 -332.36)"/></svg>