<?xml version="1.0" encoding="utf-8"?>
<!-- Generator: Adobe Illustrator 19.0.0, SVG Export Plug-In . SVG Version: 6.00 Build 0)  -->
<svg version="1.1" id="OBJECTS" xmlns="http://www.w3.org/2000/svg" xmlns:xlink="http://www.w3.org/1999/xlink" x="0px" y="0px"
	 viewBox="0 0 100 100" style="enable-background:new 0 0 100 100;" xml:space="preserve">
<style type="text/css">
	.st0{fill:#29ABE2;}
	.st1{fill:#FFFFFF;}
</style>
<g>
	<path class="st0" d="M100,50c0,6.5-4.7,12.1-7.1,17.8c-2.4,5.9-3.1,13.1-7.6,17.6c-4.4,4.4-11.7,5.1-17.6,7.6
		C62.1,95.3,56.5,100,50,100c-6.5,0-12.1-4.7-17.8-7.1c-5.9-2.4-13.1-3.1-17.6-7.6S9.5,73.7,7.1,67.8C4.7,62.1,0,56.5,0,50
		s4.7-12.1,7.1-17.8c2.4-5.9,3.1-13.1,7.6-17.6c4.4-4.4,11.7-5.1,17.6-7.6C37.9,4.7,43.5,0,50,0s12.1,4.7,17.8,7.1
		c5.9,2.4,13.1,3.1,17.6,7.6c4.4,4.4,5.1,11.7,7.6,17.6C95.3,37.9,100,43.5,100,50z"/>
	<path class="st1" d="M15.1,56.5c-0.7-0.4-1.3-1-1.7-1.7c-0.4-0.7-0.6-1.6-0.6-2.5v-4c0-0.9,0.2-1.7,0.6-2.5c0.4-0.7,1-1.3,1.7-1.7
		c0.7-0.4,1.6-0.6,2.6-0.6c1,0,1.9,0.2,2.6,0.6c0.7,0.4,1.3,0.9,1.7,1.7c0.4,0.7,0.6,1.5,0.6,2.5v4c0,0.9-0.2,1.8-0.6,2.5
		c-0.4,0.7-1,1.3-1.7,1.7c-0.7,0.4-1.6,0.6-2.6,0.6C16.8,57.1,15.9,56.9,15.1,56.5z M19.4,54.1c0.4-0.4,0.6-1,0.6-1.7v-4.1
		c0-0.7-0.2-1.3-0.6-1.8s-1-0.7-1.7-0.7c-0.7,0-1.2,0.2-1.7,0.7c-0.4,0.4-0.6,1-0.6,1.8v4.1c0,0.7,0.2,1.3,0.6,1.7
		c0.4,0.4,1,0.7,1.7,0.7S19,54.6,19.4,54.1z M31.2,56.6l-2.3-5.1c0-0.1-0.1-0.1-0.1-0.1H27c-0.1,0-0.1,0-0.1,0.1v5
		c0,0.2-0.1,0.3-0.3,0.3h-2c-0.2,0-0.3-0.1-0.3-0.3V44c0-0.2,0.1-0.3,0.3-0.3h5.3c0.8,0,1.5,0.2,2.1,0.5c0.6,0.3,1.1,0.8,1.4,1.4
		c0.3,0.6,0.5,1.3,0.5,2.1c0,0.9-0.2,1.6-0.6,2.2c-0.4,0.6-1,1-1.8,1.3c0,0-0.1,0-0.1,0.1c0,0,0,0.1,0,0.1l2.5,5.2
		c0,0.1,0.1,0.1,0.1,0.2c0,0.1,0,0.1-0.1,0.2c-0.1,0-0.1,0.1-0.2,0.1h-2.1C31.4,56.9,31.3,56.8,31.2,56.6z M26.9,46.1v3.2
		c0,0.1,0,0.1,0.1,0.1h2.4c0.5,0,1-0.2,1.3-0.5c0.3-0.3,0.5-0.7,0.5-1.2c0-0.5-0.2-0.9-0.5-1.2C30.4,46.1,30,46,29.5,46H27
		C26.9,46,26.9,46,26.9,46.1z M35.3,56.6V44c0-0.2,0.1-0.3,0.3-0.3h2c0.2,0,0.3,0.1,0.3,0.3v12.5c0,0.2-0.1,0.3-0.3,0.3h-2
		C35.4,56.9,35.3,56.8,35.3,56.6z M35.8,42.2c-0.2-0.2-0.3-0.5-0.3-0.9c0-0.4,0.1-0.7,0.3-0.9s0.5-0.3,0.9-0.3
		c0.4,0,0.7,0.1,0.9,0.3c0.2,0.2,0.3,0.5,0.3,0.9c0,0.4-0.1,0.7-0.3,0.9c-0.2,0.2-0.5,0.3-0.9,0.3C36.3,42.5,36,42.4,35.8,42.2z
		 M41.3,56.5c-0.7-0.4-1.3-0.9-1.7-1.5c-0.4-0.6-0.6-1.4-0.6-2.2v-0.7c0-0.2,0.1-0.3,0.3-0.3h2c0.2,0,0.3,0.1,0.3,0.3v0.7
		c0,0.6,0.2,1.1,0.6,1.5c0.4,0.4,0.9,0.6,1.5,0.6c0.7,0,1.2-0.2,1.6-0.6c0.4-0.4,0.6-0.9,0.6-1.5V44c0-0.2,0.1-0.3,0.3-0.3h2
		c0.2,0,0.3,0.1,0.3,0.3v8.7c0,0.9-0.2,1.6-0.6,2.2c-0.4,0.6-1,1.1-1.7,1.5c-0.7,0.4-1.6,0.5-2.5,0.5C42.9,57,42,56.8,41.3,56.5z
		 M50.4,56.6V44c0-0.2,0.1-0.3,0.3-0.3h2c0.2,0,0.3,0.1,0.3,0.3v12.5c0,0.2-0.1,0.3-0.3,0.3h-2C50.5,56.9,50.4,56.8,50.4,56.6z
		 M50.9,42.2c-0.2-0.2-0.3-0.5-0.3-0.9c0-0.4,0.1-0.7,0.3-0.9c0.2-0.2,0.5-0.3,0.9-0.3c0.4,0,0.7,0.1,0.9,0.3s0.3,0.5,0.3,0.9
		c0,0.4-0.1,0.7-0.3,0.9s-0.5,0.3-0.9,0.3C51.4,42.5,51.1,42.4,50.9,42.2z M54.9,56.6V44c0-0.2,0.1-0.3,0.3-0.3h1.9
		c0.2,0,0.3,0.1,0.4,0.2l4.7,7.8c0,0.1,0.1,0.1,0.1,0.1c0,0,0,0,0-0.1V44c0-0.2,0.1-0.3,0.3-0.3h2c0.2,0,0.3,0.1,0.3,0.3v12.5
		c0,0.2-0.1,0.3-0.3,0.3h-1.9c-0.2,0-0.3-0.1-0.4-0.2l-4.7-7.9c0,0-0.1-0.1-0.1-0.1c0,0,0,0,0,0.1l0,7.8c0,0.2-0.1,0.3-0.3,0.3h-2
		C55,56.9,54.9,56.8,54.9,56.6z M74.9,56.6l-0.5-1.7c0-0.1-0.1-0.1-0.1-0.1h-4.6c-0.1,0-0.1,0-0.1,0.1L69,56.6
		c-0.1,0.2-0.2,0.3-0.4,0.3h-2.2c-0.1,0-0.2,0-0.2-0.1c-0.1-0.1-0.1-0.2,0-0.3l4-12.5c0.1-0.2,0.2-0.3,0.4-0.3h2.8
		c0.2,0,0.3,0.1,0.4,0.3l4,12.5c0,0,0,0.1,0,0.1c0,0.1,0,0.1-0.1,0.2c-0.1,0-0.1,0.1-0.2,0.1h-2.2C75.1,56.9,75,56.8,74.9,56.6z
		 M70.3,52.7h3.3c0.1,0,0.1,0,0.1-0.1L72,46.9c0-0.1,0-0.1-0.1-0.1s-0.1,0-0.1,0.1l-1.7,5.7C70.2,52.7,70.2,52.7,70.3,52.7z
		 M79,56.6V44c0-0.2,0.1-0.3,0.3-0.3h2c0.2,0,0.3,0.1,0.3,0.3v10.5c0,0.1,0,0.1,0.1,0.1h6c0.2,0,0.3,0.1,0.3,0.3v1.6
		c0,0.2-0.1,0.3-0.3,0.3h-8.5C79.1,56.9,79,56.8,79,56.6z"/>
</g>
</svg>
