<?xml version="1.0" encoding="utf-8"?>
<!-- Generator: Adobe Illustrator 17.0.0, SVG Export Plug-In . SVG Version: 6.00 Build 0)  -->
<!DOCTYPE svg PUBLIC "-//W3C//DTD SVG 1.1//EN" "http://www.w3.org/Graphics/SVG/1.1/DTD/svg11.dtd">
<svg version="1.1" id="Layer_1" xmlns="http://www.w3.org/2000/svg" xmlns:xlink="http://www.w3.org/1999/xlink" x="0px" y="0px"
	 width="47.643px" height="47.643px" viewBox="0 0 47.643 47.643" enable-background="new 0 0 47.643 47.643" xml:space="preserve">
<path fill-rule="evenodd" clip-rule="evenodd" fill="#FFFFFF" d="M23.822,0c13.157,0,23.821,10.665,23.821,23.822
	c0,13.156-10.664,23.821-23.821,23.821C10.666,47.643,0,36.978,0,23.822C0,10.665,10.666,0,23.822,0"/>
<path fill-rule="evenodd" clip-rule="evenodd" fill="#FF8A00" d="M32.786,11.496c-1.855,0-3.359,1.505-3.359,3.36
	c0,1.856,1.504,3.36,3.359,3.36c1.856,0,3.36-1.504,3.36-3.36C36.146,13.001,34.642,11.496,32.786,11.496"/>
<path fill-rule="evenodd" clip-rule="evenodd" fill="#FF8A00" d="M32.786,20.461c-1.855,0-3.359,1.505-3.359,3.36
	c0,1.856,1.504,3.36,3.359,3.36c1.856,0,3.36-1.504,3.36-3.36C36.146,21.966,34.642,20.461,32.786,20.461"/>
<path fill-rule="evenodd" clip-rule="evenodd" fill="#FF8A00" d="M32.786,29.426c-1.855,0-3.359,1.504-3.359,3.36
	c0,1.856,1.504,3.36,3.359,3.36c1.856,0,3.36-1.504,3.36-3.36C36.146,30.93,34.642,29.426,32.786,29.426"/>
<path fill-rule="evenodd" clip-rule="evenodd" fill="#FF8A00" d="M23.822,11.496c-1.856,0-3.36,1.505-3.36,3.36
	c0,1.856,1.504,3.36,3.36,3.36c1.855,0,3.359-1.504,3.359-3.36C27.181,13.001,25.678,11.496,23.822,11.496"/>
<path fill-rule="evenodd" clip-rule="evenodd" fill="#FF8A00" d="M23.822,20.461c-1.856,0-3.36,1.505-3.36,3.36
	c0,1.856,1.504,3.36,3.36,3.36c1.855,0,3.359-1.504,3.359-3.36C27.181,21.966,25.678,20.461,23.822,20.461"/>
<path fill-rule="evenodd" clip-rule="evenodd" fill="#FF8A00" d="M23.822,29.426c-1.856,0-3.36,1.504-3.36,3.36
	c0,1.856,1.504,3.36,3.36,3.36c1.855,0,3.359-1.504,3.359-3.36C27.181,30.93,25.678,29.426,23.822,29.426"/>
<path fill-rule="evenodd" clip-rule="evenodd" fill="#FF8A00" d="M14.858,11.496c-1.856,0-3.36,1.505-3.36,3.36
	c0,1.856,1.504,3.36,3.36,3.36c1.855,0,3.359-1.504,3.359-3.36C18.217,13.001,16.712,11.496,14.858,11.496"/>
<path fill-rule="evenodd" clip-rule="evenodd" fill="#FF8A00" d="M14.858,20.461c-1.856,0-3.36,1.505-3.36,3.36
	c0,1.856,1.504,3.36,3.36,3.36c1.855,0,3.359-1.504,3.359-3.36C18.217,21.966,16.712,20.461,14.858,20.461"/>
<path fill-rule="evenodd" clip-rule="evenodd" fill="#FF8A00" d="M14.858,29.426c-1.856,0-3.36,1.504-3.36,3.36
	c0,1.856,1.504,3.36,3.36,3.36c1.855,0,3.359-1.504,3.359-3.36C18.217,30.93,16.712,29.426,14.858,29.426"/>
</svg>
