<svg id="katman_1" data-name="katman 1" xmlns="http://www.w3.org/2000/svg" viewBox="0 0 546.92 126.41"><defs><style>.cls-1{fill:#774c2b;}.cls-1,.cls-2{fill-rule:evenodd;}.cls-2{fill:#ec501f;}</style></defs><title>rapid-ssl</title><path class="cls-1" d="M144.58,85.7c-13.4,0-19.21,3.18-19.21,3.18v16.06s4.08-4.38,19.21-4.38c10.59,0,10.59,8,10.59,9.69V114a36,36,0,0,0-13.65-2.39c-8.36,0-29.52,1.86-29.52,24.15s20.63,24.95,27,24.95,16.17-6,16.17-5.84v4.55H173V106.8S172.71,85.7,144.58,85.7Zm10.59,52.44c-1.69,3-8,7-13.84,7s-11.72-3-11.72-10.09,4.52-9.38,13.62-9.38,11.93,3.52,11.93,3.52ZM90.31,121.39C91,121,108,116.22,108,94.06c0-8.38-2.66-17.2-7.95-22-8.69-7.82-21.78-8.73-21.78-8.73h-48v96H48.52v-34c0-.18-.12-.51.81-.51H68.23c.53,0,1.24.77,1.24.77l16.85,33.74h21.5S90,123.78,89.78,123,89.64,121.79,90.31,121.39ZM77.17,106.8H48.52V81.19s21.22.13,28.91.13,11.15,6,11.15,13.54A11.7,11.7,0,0,1,77.17,106.8ZM218.94,85.55c-8.23,0-15.49,5.83-15.49,5.83V87.31H185.09v98.25l18.36-9.6v-20.8s4.4,5.52,15.95,5.52,27.2-6.66,27.2-38.55S227.16,85.55,218.94,85.55Zm-2.4,58.18a15.59,15.59,0,0,1-13.09-6.86V109.55a13.38,13.38,0,0,1,11.6-6.63c11.6,0,13.37,12,13.37,21.39S225.56,143.72,216.54,143.72ZM328.3,68.4V91.49A25.26,25.26,0,0,0,312,85.55c-10.06,0-27.66,6.4-27.66,36.92s14.52,38.21,27.54,38.21a24,24,0,0,0,15.32-5.52l1.12.46v3.77h18V59.15Zm0,68.46s-5.12,7-12.21,7-13.49-6.93-13.49-19.53,3-21.51,12.34-21.51a15.62,15.62,0,0,1,13.35,6.86Zm-71.76,22.52h18.25V87.31H256.54Zm9-99.78a10.29,10.29,0,1,0,10.29,10.29A10.29,10.29,0,0,0,265.57,59.6Z" transform="translate(-30.24 -59.15)"/><path class="cls-2" d="M399.18,101.21c-21.72-5.59-20.57-10.06-20.57-12.34s1.37-9.49,14.52-9.49c13.72,0,22.29,9.72,22.29,9.72l13.37-12.8a50.52,50.52,0,0,0-35.54-14.63C371.29,61.66,360,75.38,360,90.58c0,7.47.47,20.93,29.9,27.33,23.6,3.77,22.22,13,22.22,14.16,0,2.51-1.37,10.63-17.14,10.63s-25.83-10.86-25.83-10.86L356,143.72s12.57,16.95,37.83,16.95c19.2,0,37.15-8.26,37.15-28.61S420.89,106.8,399.18,101.21Zm79.43,0C456.9,95.62,458,91.15,458,88.86s1.37-9.49,14.52-9.49c13.71,0,22.29,9.72,22.29,9.72l13.37-12.8a50.53,50.53,0,0,0-35.55-14.63c-21.94,0-33.26,13.72-33.26,28.92,0,7.47.47,20.93,29.9,27.33,23.6,3.77,22.22,13,22.22,14.16,0,2.51-1.37,10.63-17.14,10.63s-25.83-10.86-25.83-10.86l-13.14,11.89s12.57,16.95,37.83,16.95c19.2,0,37.15-8.26,37.15-28.61S500.33,106.8,478.61,101.21ZM566.09,141H543.83V63.37H525v96h52.12Z" transform="translate(-30.24 -59.15)"/></svg>