<svg id="katman_1" data-name="katman 1" xmlns="http://www.w3.org/2000/svg" viewBox="0 0 110 62.3"><defs><style>.cls-1{fill:#01599f;}.cls-1,.cls-2{fill-rule:evenodd;}.cls-2{fill:#f6a31f;}</style></defs><title>verified-by-visa</title><path class="cls-1" d="M-55.68,765.06q-.23,1.84-.6,3.53a9.48,9.48,0,0,0-4-.77c-1,.07-2.22.46-2.24,1.38s1.65,1.62,2.58,2.07c1.68.8,3.48,1.87,3.62,4a5.13,5.13,0,0,1-1.55,4c-2.35,2.22-7.56,2.45-11.11,1q.33-1.78.6-3.62A10.4,10.4,0,0,0-63,777.81c.94-.12,2.1-.67,2.07-1.64,0-1.18-2.25-1.89-3.36-2.5-1.29-.71-2.76-1.9-2.84-3.7a4.73,4.73,0,0,1,1-3.1C-64.27,764.59-59.55,763.78-55.68,765.06Z" transform="translate(149.86 -723.62)"/><polygon class="cls-1" points="51.97 18.38 56.72 18.38 53.79 36.8 49.04 36.8 51.97 18.38 51.97 18.38"/><path class="cls-1" d="M-114.34,742h7.27c4.63,0,5.83,2.66,5.32,5.85a6.17,6.17,0,0,1-4.81,5.06l4.61,7.52h-6l-3.45-7.24-1.15,7.24h-4.75l2.92-18.43Zm4.17,3.66-.73,4.62h1.37a2.92,2.92,0,0,0,2.81-2.31h0a2,2,0,0,0-2-2.31Z" transform="translate(149.86 -723.62)"/><polygon class="cls-1" points="73.65 18.38 78.4 18.38 75.48 36.8 70.73 36.8 73.65 18.38 73.65 18.38"/><polygon class="cls-1" points="82.01 18.37 92.44 18.37 91.8 22.38 86.12 22.38 85.62 25.53 91.02 25.53 90.39 29.54 84.99 29.54 84.47 32.8 90.15 32.8 89.51 36.8 79.09 36.8 82.01 18.37 82.01 18.37"/><polygon class="cls-1" points="22.26 18.37 32.69 18.37 32.05 22.38 26.38 22.38 25.88 25.53 31.27 25.53 30.64 29.54 25.24 29.54 24.72 32.8 30.4 32.8 29.77 36.8 19.34 36.8 22.26 18.37 22.26 18.37"/><polygon class="cls-1" points="60.31 18.37 70.86 18.37 70.22 22.38 64.42 22.38 63.92 25.53 69.19 25.53 68.55 29.54 63.28 29.54 62.13 36.8 57.39 36.8 60.31 18.37 60.31 18.37"/><path class="cls-1" d="M-54.63,742h6.19c7.37,0,9.05,5.58,8.48,9.22a11.21,11.21,0,0,1-11.4,9.21h-6.19L-54.63,742Zm4.11,4h1c3.63,0,5,2.56,4.66,5a6,6,0,0,1-6,5.38h-1.27L-50.51,746Z" transform="translate(149.86 -723.62)"/><path class="cls-1" d="M-149.86,739.48h8.79l1,13.39c5.81-10.06,11.72-19.74,17.67-29.25h2.86C-125.79,735.77-132,748-138,760.42h-6.45l-1.57-14.76c-.39-3.66-1.13-5.22-3.8-5.61v-.56Z" transform="translate(149.86 -723.62)"/><polygon class="cls-2" points="3.33 8.25 10.82 11.43 11.47 19.77 12.02 19.77 18.82 8.26 18.82 7.68 3.33 7.68 3.33 8.25 3.33 8.25"/><path class="cls-1" d="M-111.9,773.62a1.87,1.87,0,0,1,1.72,2.32,2.63,2.63,0,0,1-2.39,2.32,1.87,1.87,0,0,1-1.72-2.32,2.63,2.63,0,0,1,2.39-2.32Zm-3.84-8.87h3.07l-1,7.26a4.52,4.52,0,0,1,3.15-1.37c2.47,0,4.08,2.38,3.65,5.31s-2.76,5.31-5.23,5.31a3,3,0,0,1-2.68-1.47l-.16,1.15H-118l2.31-16.19Z" transform="translate(149.86 -723.62)"/><polygon class="cls-1" points="43.22 47.27 46.91 47.27 48.56 52.42 51.76 47.27 55.33 47.27 45.97 62.3 42.41 62.3 46.35 55.96 43.22 47.27 43.22 47.27"/><polygon class="cls-1" points="73.65 57.32 76.35 41.13 80.77 41.13 78.07 57.32 73.65 57.32 73.65 57.32"/><path class="cls-1" d="M-79.9,764.72c-1.52,3.59-2.82,7.4-4.39,10.94l-.46-2.12v0l.08.38a10,10,0,0,0-1.66-3.14l-.06-.08c-.13-.17-.27-.33-.41-.49l-.26-.29a16.12,16.12,0,0,0-3.74-3l3.93,14h4.74c2.23-5.46,4.64-10.75,6.89-16.19Z" transform="translate(149.86 -723.62)"/><path class="cls-2" d="M-88.24,764.72h-7.23v.35c4.16.81,9.41,4.3,10.78,8.81l-1.55-7.54A1.86,1.86,0,0,0-88.24,764.72Z" transform="translate(149.86 -723.62)"/><path class="cls-1" d="M-40.78,781h-4c-.26-.77-.33-1.73-.6-2.5h-5.51l-1,2.5h-4.65l6-13.87c.27-.61.75-1.44.95-1.81.31-.56,1.49-.6,2-.6h3.34Zm-6.71-11.79-2.25,6h3.64Z" transform="translate(149.86 -723.62)"/></svg>