<svg id="katman_1" data-name="katman 1" xmlns="http://www.w3.org/2000/svg" viewBox="0 0 80 24.58"><defs><style>.cls-1{fill:#01599f;}.cls-2{fill:#f6a31f;}</style></defs><title>visa</title><polygon class="cls-1" points="28.18 24.23 32.23 0.41 38.71 0.41 34.66 24.23 28.18 24.23"/><path class="cls-1" d="M-61.5,445.87a16.69,16.69,0,0,0-5.81-1c-6.4,0-10.91,3.23-10.95,7.86,0,3.42,3.22,5.33,5.68,6.47s3.37,1.91,3.36,3c0,1.6-2,2.32-3.88,2.32a13.55,13.55,0,0,1-6.09-1.25l-.83-.38-.91,5.33a20.43,20.43,0,0,0,7.22,1.27c6.81,0,11.23-3.19,11.28-8.14,0-2.71-1.7-4.77-5.44-6.47-2.26-1.1-3.65-1.84-3.64-3s1.17-2,3.71-2a11.91,11.91,0,0,1,4.84.91l.58.27Z" transform="translate(119.65 -444.87)"/><path class="cls-1" d="M-44.89,445.3h-5a3.22,3.22,0,0,0-3.39,2l-9.62,21.82h6.8s1.11-2.93,1.36-3.58h8.29c.19.83.79,3.57.79,3.57h6Zm-8,15.35c.54-1.37,2.58-6.66,2.58-6.66s.53-1.38.86-2.27l.44,2.05,1.5,6.88Z" transform="translate(119.65 -444.87)"/><path class="cls-1" d="M-96.9,445.3l-6.34,16.24-.68-3.3c-1.18-3.8-4.86-7.93-9-10l5.8,20.83h6.85L-90,445.3Z" transform="translate(119.65 -444.87)"/><path class="cls-2" d="M-109.12,445.28h-10.45l-.08.5c8.12,2,13.5,6.73,15.73,12.46l-2.27-10.94c-.39-1.51-1.53-2-2.94-2" transform="translate(119.65 -444.87)"/></svg>