<svg id="Layer_1" data-name="Layer 1" xmlns="http://www.w3.org/2000/svg" viewBox="0 0 219.43 61.58"><defs><style>.cls-1{fill:#888;}</style></defs><title>app-store</title><path class="cls-1" d="M106.7,78.19H85.92a4.51,4.51,0,0,0-4.51,4.51v46a4.51,4.51,0,0,0,4.51,4.51H106.7a4.51,4.51,0,0,0,4.51-4.51v-46A4.51,4.51,0,0,0,106.7,78.19ZM96.31,129.93a3,3,0,1,1,3-3A3,3,0,0,1,96.31,129.93Zm11.36-7.47H84.95v-34h22.72Z" transform="translate(-81.41 -77.4)"/><path class="cls-1" d="M128.23,86.39,127,90.22h-1.62l4.13-12.16h1.9l4.15,12.16h-1.68l-1.3-3.82Zm4-1.23L131,81.66c-.25-.8-.43-1.52-.61-2.22h-.05c-.16.7-.36,1.46-.6,2.2l-1.19,3.52Z" transform="translate(-81.41 -77.4)"/><path class="cls-1" d="M137.14,81.48l1.71,4.89c.29.81.52,1.53.7,2.25h.05c.2-.72.45-1.44.74-2.25l1.7-4.89h1.66l-3.43,8.73h-1.52l-3.32-8.73Z" transform="translate(-81.41 -77.4)"/><path class="cls-1" d="M151,88.12a14.59,14.59,0,0,0,.13,2.09h-1.43l-.15-1.1h-.05a3.22,3.22,0,0,1-2.67,1.3,2.49,2.49,0,0,1-2.67-2.51c0-2.11,1.88-3.27,5.25-3.25v-.18a1.79,1.79,0,0,0-2-2,4.21,4.21,0,0,0-2.29.65L144.79,82a5.67,5.67,0,0,1,2.89-.76c2.69,0,3.34,1.82,3.34,3.57Zm-1.55-2.37c-1.73,0-3.7.27-3.7,2a1.39,1.39,0,0,0,1.48,1.52,2.21,2.21,0,0,0,2.15-1.46,1.64,1.64,0,0,0,.07-.51Z" transform="translate(-81.41 -77.4)"/><path class="cls-1" d="M154.23,79.88a1,1,0,0,1,0-2,1,1,0,0,1,1,1,1,1,0,0,1-1,1Zm-.76,10.34V81.48h1.59v8.73Z" transform="translate(-81.41 -77.4)"/><path class="cls-1" d="M157.61,77.4h1.59V90.22h-1.59Z" transform="translate(-81.41 -77.4)"/><path class="cls-1" d="M167.89,88.12a14.71,14.71,0,0,0,.13,2.09h-1.43l-.14-1.1h-.05a3.23,3.23,0,0,1-2.67,1.3,2.49,2.49,0,0,1-2.67-2.51c0-2.11,1.88-3.27,5.25-3.25v-.18a1.79,1.79,0,0,0-2-2,4.2,4.2,0,0,0-2.29.65L161.67,82a5.67,5.67,0,0,1,2.89-.76c2.69,0,3.34,1.82,3.34,3.57Zm-1.55-2.37c-1.73,0-3.7.27-3.7,2a1.39,1.39,0,0,0,1.48,1.52,2.21,2.21,0,0,0,2.15-1.46,1.62,1.62,0,0,0,.07-.51Z" transform="translate(-81.41 -77.4)"/><path class="cls-1" d="M170.34,77.4h1.59v5.47h0a3.24,3.24,0,0,1,3-1.59c2.17,0,3.68,1.8,3.68,4.44,0,3.14-2,4.69-3.93,4.69a3.13,3.13,0,0,1-2.92-1.64h0l-.09,1.44h-1.37c.05-.6.07-1.48.07-2.25Zm1.59,9.31a2.86,2.86,0,0,0,.06.58,2.46,2.46,0,0,0,2.38,1.86c1.68,0,2.65-1.35,2.65-3.36,0-1.77-.9-3.26-2.6-3.26a2.64,2.64,0,0,0-2.49,2.62Z" transform="translate(-81.41 -77.4)"/><path class="cls-1" d="M180.52,77.4h1.59V90.22h-1.59Z" transform="translate(-81.41 -77.4)"/><path class="cls-1" d="M185.56,86.12a2.78,2.78,0,0,0,3,3,6,6,0,0,0,2.42-.43l.29,1.12a7.11,7.11,0,0,1-2.92.56A4.07,4.07,0,0,1,184,86c0-2.65,1.57-4.73,4.12-4.73,2.85,0,3.59,2.51,3.59,4.11a4.09,4.09,0,0,1-.05.76ZM190.19,85A2.27,2.27,0,0,0,188,82.4,2.62,2.62,0,0,0,185.57,85Z" transform="translate(-81.41 -77.4)"/><path class="cls-1" d="M200.89,90.42a4.16,4.16,0,0,1-4.19-4.49A4.27,4.27,0,0,1,201,81.28a4.13,4.13,0,0,1,4.2,4.48,4.28,4.28,0,0,1-4.33,4.66Zm.05-1.19c1.52,0,2.65-1.43,2.65-3.41,0-1.48-.74-3.34-2.62-3.34s-2.67,1.73-2.67,3.39c0,1.91,1.08,3.36,2.62,3.36Z" transform="translate(-81.41 -77.4)"/><path class="cls-1" d="M207.16,83.85c0-.92,0-1.64-.08-2.37h1.41l.09,1.43h0a3.24,3.24,0,0,1,2.89-1.62c1.21,0,3.09.72,3.09,3.72v5.21H213v-5c0-1.41-.52-2.6-2-2.6a2.29,2.29,0,0,0-2.13,1.62,2.37,2.37,0,0,0-.11.74v5.27h-1.59Z" transform="translate(-81.41 -77.4)"/><path class="cls-1" d="M222.73,79.39v2.09H225v1.21h-2.27V87.4c0,1.08.31,1.7,1.19,1.7a3,3,0,0,0,.92-.11l.07,1.21a4.31,4.31,0,0,1-1.41.22,2.27,2.27,0,0,1-1.72-.67,3.43,3.43,0,0,1-.61-2.29V82.69h-1.35V81.48h1.35V79.88Z" transform="translate(-81.41 -77.4)"/><path class="cls-1" d="M226.69,77.4h1.59v5.45h0a2.82,2.82,0,0,1,1.14-1.12,3.09,3.09,0,0,1,1.62-.45c1.17,0,3,.72,3,3.74v5.2h-1.59v-5c0-1.43-.52-2.6-2-2.6a2.3,2.3,0,0,0-2.13,1.59,1.92,1.92,0,0,0-.11.76v5.27h-1.59Z" transform="translate(-81.41 -77.4)"/><path class="cls-1" d="M237.52,86.12a2.78,2.78,0,0,0,3,3,6,6,0,0,0,2.42-.43l.29,1.12a7.12,7.12,0,0,1-2.92.56A4.07,4.07,0,0,1,236,86c0-2.65,1.57-4.73,4.11-4.73,2.85,0,3.59,2.51,3.59,4.11a4.09,4.09,0,0,1-.05.76ZM242.16,85A2.27,2.27,0,0,0,240,82.4,2.62,2.62,0,0,0,237.54,85Z" transform="translate(-81.41 -77.4)"/><path class="cls-1" d="M250.06,79.88a1,1,0,0,1,0-2,1,1,0,0,1,1,1,1,1,0,0,1-1,1Zm-.76,10.34V81.48h1.59v8.73Z" transform="translate(-81.41 -77.4)"/><path class="cls-1" d="M253.49,78.22a16.31,16.31,0,0,1,3-.25,5,5,0,0,1,3.41,1A3.28,3.28,0,0,1,261,81.52a3.51,3.51,0,0,1-1,2.6,5,5,0,0,1-3.72,1.34,5.51,5.51,0,0,1-1.26-.11v4.87h-1.57Zm1.57,5.85a5.34,5.34,0,0,0,1.3.13c1.91,0,3-.94,3-2.58s-1.14-2.4-2.87-2.4a7.8,7.8,0,0,0-1.48.13Z" transform="translate(-81.41 -77.4)"/><path class="cls-1" d="M262.85,77.4h1.59v5.45h0a2.83,2.83,0,0,1,1.14-1.12,3.1,3.1,0,0,1,1.62-.45c1.17,0,3,.72,3,3.74v5.2H268.7v-5c0-1.43-.52-2.6-2-2.6a2.3,2.3,0,0,0-2.13,1.59,1.92,1.92,0,0,0-.11.76v5.27h-1.59Z" transform="translate(-81.41 -77.4)"/><path class="cls-1" d="M276.33,90.42a4.16,4.16,0,0,1-4.19-4.49,4.28,4.28,0,0,1,4.33-4.64,4.13,4.13,0,0,1,4.2,4.48,4.28,4.28,0,0,1-4.33,4.66Zm.06-1.19c1.51,0,2.65-1.43,2.65-3.41,0-1.48-.74-3.34-2.62-3.34s-2.67,1.73-2.67,3.39c0,1.91,1.08,3.36,2.62,3.36Z" transform="translate(-81.41 -77.4)"/><path class="cls-1" d="M282.6,83.85c0-.92,0-1.64-.07-2.37h1.41l.09,1.43h0a3.24,3.24,0,0,1,2.89-1.62c1.21,0,3.08.72,3.08,3.72v5.21h-1.59v-5c0-1.41-.52-2.6-2-2.6a2.29,2.29,0,0,0-2.13,1.62,2.34,2.34,0,0,0-.11.74v5.27H282.6Z" transform="translate(-81.41 -77.4)"/><path class="cls-1" d="M293.42,86.12a2.78,2.78,0,0,0,3,3,6,6,0,0,0,2.42-.43l.29,1.12a7.12,7.12,0,0,1-2.92.56,4.07,4.07,0,0,1-4.3-4.4c0-2.65,1.57-4.73,4.11-4.73,2.85,0,3.59,2.51,3.59,4.11a4.11,4.11,0,0,1-.05.76ZM298.06,85a2.27,2.27,0,0,0-2.18-2.58A2.62,2.62,0,0,0,293.44,85Z" transform="translate(-81.41 -77.4)"/><path class="cls-1" d="M135.71,98.46,125,130h4.9l3.19-9.67h10.36l3.28,9.67h5L141,98.46Zm2.54,5.18c.36,1.41.75,2.87,1.25,4.44l2.88,8.35h-8.21L137,108C137.45,106.66,137.86,105.19,138.24,103.63Z" transform="translate(-81.41 -77.4)"/><path class="cls-1" d="M165.63,106.62a8.92,8.92,0,0,0-7.58,3.63l-.19-3.13H153.5l0,.4c.13,2,.18,4.1.18,7.18V139h4.76V127.65a8.37,8.37,0,0,0,6.51,2.8,9.83,9.83,0,0,0,7.22-3.07,13,13,0,0,0,3.19-9.17,12.67,12.67,0,0,0-2.77-8.37A9.06,9.06,0,0,0,165.63,106.62Zm-1.19,3.94c4.25,0,6.15,3.93,6.15,7.83,0,5-2.43,8.15-6.33,8.15a5.78,5.78,0,0,1-5.61-4.42,6.1,6.1,0,0,1-.17-1.54v-3.83a7.13,7.13,0,0,1,.15-1.18c0-.13,0-.26.07-.39A6,6,0,0,1,164.44,110.56Z" transform="translate(-81.41 -77.4)"/><path class="cls-1" d="M190.16,106.62a8.92,8.92,0,0,0-7.58,3.63l-.19-3.13H178l0,.4c.13,2,.18,4.1.18,7.18V139H183V127.65a8.36,8.36,0,0,0,6.51,2.8,9.84,9.84,0,0,0,7.22-3.07,13,13,0,0,0,3.19-9.17,12.68,12.68,0,0,0-2.77-8.37A9.06,9.06,0,0,0,190.16,106.62ZM189,110.56c4.25,0,6.15,3.93,6.15,7.83,0,5-2.43,8.15-6.33,8.15a5.78,5.78,0,0,1-5.61-4.42,6.11,6.11,0,0,1-.17-1.54v-3.83a6.92,6.92,0,0,1,.15-1.18l.07-.38A6,6,0,0,1,189,110.56Z" transform="translate(-81.41 -77.4)"/><path class="cls-1" d="M220.9,111.8c-4.45-1.72-5.87-3.08-5.87-5.58,0-2.11,1.67-4.23,5.42-4.23a10.83,10.83,0,0,1,5.59,1.4l.4.25,1.34-4-.27-.16A13.81,13.81,0,0,0,220.58,98c-6.08,0-10.32,3.59-10.32,8.72,0,4.14,2.66,7,8.36,9.11,4,1.51,5.55,3.06,5.55,5.71,0,3-2.32,4.87-6.06,4.87a13,13,0,0,1-6.87-1.95l-.41-.27-1.28,4.07.23.16a16.31,16.31,0,0,0,8.05,2.07c8.19,0,11.09-5,11.09-9.27S226.61,114.05,220.9,111.8Z" transform="translate(-81.41 -77.4)"/><path class="cls-1" d="M237.52,101.69l-4.67,1.47v4h-3.42v3.81h3.42v11.67c0,2.82.54,4.8,1.65,6a6.11,6.11,0,0,0,4.61,1.81,11.2,11.2,0,0,0,3.68-.57l.27-.09-.23-3.82-.46.14a7.19,7.19,0,0,1-2.22.26c-1.85,0-2.64-1.17-2.64-3.91V110.93h5.75v-3.81h-5.75Z" transform="translate(-81.41 -77.4)"/><path class="cls-1" d="M255.08,106.62c-6.67,0-11.32,5-11.32,12.1,0,6.91,4.51,11.73,11,11.73h0c5.45,0,11.32-3.8,11.32-12.14a12,12,0,0,0-3-8.43A10.6,10.6,0,0,0,255.08,106.62Zm-.14,3.76c4.29,0,6.24,4.18,6.24,8.06,0,4.78-2.66,8.24-6.33,8.24h0c-3.61,0-6.24-3.41-6.24-8.11C248.56,114.5,250.54,110.38,254.94,110.38Z" transform="translate(-81.41 -77.4)"/><path class="cls-1" d="M280.67,106.84l-.29-.07a4.58,4.58,0,0,0-1.19-.15,6.8,6.8,0,0,0-6,3.84l-.14-3.33h-4.28l0,.4c.13,1.89.18,4,.18,6.86L269,130h4.77V117.81a12.46,12.46,0,0,1,.13-1.85c.54-2.92,2.51-4.8,5-4.8a12.25,12.25,0,0,1,1.28.08l.51.05Z" transform="translate(-81.41 -77.4)"/><path class="cls-1" d="M291.39,106.57c-6.34,0-10.78,5.07-10.78,12.33,0,7,4.41,11.51,11.23,11.51a18.29,18.29,0,0,0,7.55-1.45l.29-.13-.91-3.55-.4.16a14.77,14.77,0,0,1-6,1.07c-2.07,0-6.84-.68-7.14-6.91l15.38,0,.06-.3a10.53,10.53,0,0,0,.14-2C300.84,112.38,298.36,106.57,291.39,106.57Zm-.32,3.62a4.7,4.7,0,0,1,3.5,1.33,6.77,6.77,0,0,1,1.64,4.44H285.34C285.78,113.22,287.5,110.2,291.07,110.2Z" transform="translate(-81.41 -77.4)"/></svg>