<svg id="Layer_1" data-name="Layer 1" xmlns="http://www.w3.org/2000/svg" viewBox="0 0 425.28 128.16"><defs><style>.cls-1{fill:#ffc20e;}.cls-1,.cls-2{fill-rule:evenodd;}.cls-2{fill:#231f20;}</style></defs><title>axess</title><polygon class="cls-1" points="190.35 0 105.67 0 148.01 61.18 190.35 0"/><path class="cls-2" d="M127.95,279.41l-15.66,30.17h31.33Zm32,65.47-9.52-18.76H105.68l-9.14,18.76H70.83l52.06-93.75H133l52.52,93.75Z" transform="translate(-70.83 -218.46)"/><polygon class="cls-2" points="171.87 126.43 147.71 95.84 127.17 126.43 101.2 126.43 136.15 78.4 103 32.49 128.15 32.49 148.01 61.18 167.87 32.49 192.86 32.49 159.03 78.4 198.38 126.43 171.87 126.43"/><path class="cls-2" d="M288.44,288.17h46.14q-2.27-20.61-22.81-20.61Q293,267.56,288.44,288.17Zm66.31,16.46H287.68q.6,11.55,8,17.75,7,6,18.8,6,15,0,22.81-7.85l8.46,16.76q-11.55,9.36-34.51,9.36-22,0-34.36-12.91Q264.72,321,264.72,299q0-20.92,12.84-35,13.21-14.73,33.83-14.73,19.79,0,32.32,11.63,12.84,12,12.84,31.64A62.14,62.14,0,0,1,354.74,304.63Z" transform="translate(-70.83 -218.46)"/><path class="cls-2" d="M360.74,338.84l7.78-17.44a35,35,0,0,0,22.2,7.78q12.84,0,12.84-9.14,0-6.34-6.64-10.87-3-2.11-12.23-6-24.32-10-24.32-28.17,0-13,10.5-19.86,9-6,22.58-6A59.94,59.94,0,0,1,421,255.78l-6.34,17.07q-7.18-6.19-20-6.19-11.48,0-11.48,9.14,0,4.83,8,9.14a116.35,116.35,0,0,0,11.93,5.13q23.26,9.14,23.26,28.55,0,14.27-11.33,21.75-9.66,6.27-24.77,6.26A59.1,59.1,0,0,1,374.94,345,73.59,73.59,0,0,1,360.74,338.84Z" transform="translate(-70.83 -218.46)"/><path class="cls-2" d="M430.48,338.84l7.78-17.44a35,35,0,0,0,22.2,7.78q12.84,0,12.84-9.14,0-6.34-6.65-10.87-3-2.11-12.23-6-24.32-10-24.32-28.17,0-13,10.5-19.86,9-6,22.58-6a59.94,59.94,0,0,1,27.57,6.57l-6.34,17.07q-7.18-6.19-20-6.19-11.48,0-11.48,9.14,0,4.83,8,9.14a116.35,116.35,0,0,0,11.93,5.13q23.26,9.14,23.26,28.55,0,14.27-11.33,21.75-9.67,6.27-24.77,6.26A59.1,59.1,0,0,1,444.67,345,73.59,73.59,0,0,1,430.48,338.84Z" transform="translate(-70.83 -218.46)"/></svg>