<svg id="Layer_1" data-name="Layer 1" xmlns="http://www.w3.org/2000/svg" viewBox="0 0 451.72 67.64"><defs><style>.cls-1{fill:#ffd520;}.cls-1,.cls-2{fill-rule:evenodd;}.cls-2{fill:#006b42;}</style></defs><title>bonus-card</title><path class="cls-1" d="M119,273.74H97v-22a2.67,2.67,0,0,0-2.82-2.82H84.63a2.6,2.6,0,0,0-2.82,2.82v22H60a2.6,2.6,0,0,0-2.82,2.83v9.53A2.59,2.59,0,0,0,60,288.92H81.79v21.84a2.59,2.59,0,0,0,2.82,2.82h9.52A2.59,2.59,0,0,0,97,310.76V288.92h22a2.59,2.59,0,0,0,2.82-2.82v-9.53A2.67,2.67,0,0,0,119,273.74Z" transform="translate(-57.14 -248.94)"/><path class="cls-2" d="M170.36,297.12V286.36c0-10.35-7.69-18-17.53-18-4.41,0-7,2-8.2,2-.41,0-.72-.41-.72-1.12V251.72a.92.92,0,0,0-1-1h-9.63c-.72,0-1,.31-1,1v62.51c0,.71.31,1,1,1H142c1.43,0,.82-2,1.74-2,1.23,0,3.59,2,8.2,2C162.57,315.26,170.36,307.88,170.36,297.12Zm-11.78,0a7.14,7.14,0,0,1-7.28,7.38,7.28,7.28,0,0,1-7.38-7.38V286.36a7.33,7.33,0,0,1,14.66,0Z" transform="translate(-57.14 -248.94)"/><path class="cls-2" d="M212.28,298.14V285.43c0-10.86-7.59-18.14-19.06-18.14s-19.16,7.28-19.16,18.14v12.71c0,10.86,7.58,18.14,19.16,18.14S212.28,309,212.28,298.14Zm-11.79,0a7.33,7.33,0,1,1-14.65,0V285.43a7.33,7.33,0,1,1,14.65,0Z" transform="translate(-57.14 -248.94)"/><path class="cls-2" d="M254.6,315.26h-9.73c-.72,0-1-.31-1-1V286.36a7.33,7.33,0,0,0-14.65,0v27.87c0,.71-.31,1-1,1h-9.63c-.72,0-1-.31-1-1V269.35c0-.71.3-1,1-1h8.71c1.54,0,.92,2,1.74,2,1.23,0,3.68-2,8.4-2,10.45,0,18.24,7.37,18.24,18v27.87C255.62,314.95,255.31,315.26,254.6,315.26Z" transform="translate(-57.14 -248.94)"/><path class="cls-2" d="M298.46,315.26h-8.71c-1.43,0-.82-2-1.74-2-1.23,0-3.69,2-8.3,2-10.66,0-18.34-7.38-18.34-18.14V269.35c0-.71.3-1,1-1h9.73a.92.92,0,0,1,1,1v27.77a7.14,7.14,0,0,0,7.27,7.38,7.29,7.29,0,0,0,7.38-7.38V269.35c0-.71.31-1,1-1h9.63a.92.92,0,0,1,1,1v44.89C299.49,314.95,299.18,315.26,298.46,315.26Z" transform="translate(-57.14 -248.94)"/><path class="cls-2" d="M336.89,270.78c3.79,2.77,6,7.17,6,8.4a1,1,0,0,1-.61.82l-8.4,4.1-.51.1c-.41,0-.51-.2-.82-.62-2.16-3.18-3.28-5.84-7.48-5.84h-3c-3.69,0-5.64,1.33-5.64,3.89,0,4.2,5.64,3.28,14,5.53s12.19,6,12.19,12.81c0,9.63-6.87,16.3-17.63,16.3h-3c-5.74,0-10.15-1.65-13.32-5s-4.41-6.15-4.41-7.07c0-.31.2-.51.61-.72l8.41-4.1.51-.11c.3,0,.51.31.81.72,2,3.38,3.38,5.84,7.38,5.84h3c3.69,0,5.94-1.84,5.94-4.41,0-4.1-5.74-3.18-14.14-5.33-8.2-2.06-12-5.94-12-12.92,0-9.33,7.07-15.88,17.22-15.88h3C329.92,267.3,333.71,268.43,336.89,270.78Z" transform="translate(-57.14 -248.94)"/><path class="cls-2" d="M395.05,303.45,386.13,299l-.51-.1c-.51,0-.92.72-1.54,1.95-1.74,3.28-3.59,4.92-6.57,4.92a7.23,7.23,0,0,1-7.39-7.39V285.7a7.23,7.23,0,0,1,7.39-7.39c3,0,4.92,1.64,6.67,4.93.62,1.13.82,1.74,1.43,1.74l.51-.1,8.93-4.41a1,1,0,0,0,.62-.82c0-1.23-2.46-5.74-6.47-8.72-3.18-2.36-7-3.39-11.69-3.39-11.59,0-19.19,7.29-19.19,18.16v12.72c0,10.87,7.59,18.16,19.19,18.16,5.74,0,10.16-1.64,13.13-4.72,3.49-3.69,5-6.46,5-7.59A1,1,0,0,0,395.05,303.45Z" transform="translate(-57.14 -248.94)"/><path class="cls-2" d="M424.13,297.39c-.1,1.13-.1,1.64-.1,1.64-1.33,3.8-3.69,5.75-6.87,5.75h-3.9a2.75,2.75,0,0,1-2.77-3v-1.54a2.85,2.85,0,0,1,2.77-2.87Zm11.69,17.13V285.6c0-10.88-7.59-18.06-19.18-18.06-5.54,0-10,1.44-13,4.41-3.49,3.39-4.93,6.67-4.93,7.49a1,1,0,0,0,.62.72l8.41,4.41.62.2c.82,0,1.23-1.54,2.67-3.38a7.72,7.72,0,0,1,5.64-3.08c4.21,0,7,2.67,7.39,6.87l.1,1.23v.21c0,.61-.41.92-1,.92h-9.85c-8.51,0-14.47,5.64-14.47,13.75v.51c0,7.9,6,13.75,14.47,13.75h3.9c3.69,0,6.05-2,7.18-2,.92,0,.21,2,1.74,2h8.72C435.51,315.55,435.82,315.25,435.82,314.53Z" transform="translate(-57.14 -248.94)"/><path class="cls-2" d="M468.4,280.37v-10c0-1-2.16-1.84-5.75-1.84-2.67,0-5.13,1-7.8,3.08l-.62.31a.94.94,0,0,1-.92-1v-1.44c0-.72-.31-.92-1-.92h-8.72c-.72,0-1,.31-1,1v44.94c0,.72.31,1,1,1h9.64c.72,0,1-.31,1-1v-27.9a7.05,7.05,0,0,1,7.08-7.18c2.87,0,5,2.05,6.36,2.05C468.09,281.49,468.4,281.08,468.4,280.37Z" transform="translate(-57.14 -248.94)"/><path class="cls-2" d="M497.06,297.39a7.34,7.34,0,1,1-14.67,0V286.63a7.34,7.34,0,0,1,14.67,0Zm11.8,17.13V251.95a.92.92,0,0,0-1-1h-9.75c-.72,0-1,.31-1,1v17.54c0,.72-.31,1.13-.72,1.13-1.13,0-3.79-2-8.21-2-9.85,0-17.55,7.69-17.55,18.06v10.77c0,10.77,7.8,18.16,18.47,18.16,4.62,0,7.08-2.05,8.31-2.05,1,0,.2,2.05,1.74,2.05h8.72C508.55,315.55,508.86,315.25,508.86,314.53Z" transform="translate(-57.14 -248.94)"/></svg>