<svg id="Layer_1" data-name="Layer 1" xmlns="http://www.w3.org/2000/svg" viewBox="0 0 721.41 118.76"><defs><style>.cls-1,.cls-2{fill:#0056a2;}.cls-2{fill-rule:evenodd;}</style></defs><title>card-finans</title><path class="cls-1" d="M486.1,338.48h17.51V272.77H486.1Zm22.79,0H525l-.57-44.9h.2l23,44.9h21.75V272.77h-16l.27,44.63h-.19l-22.22-44.63h-22.3ZM597,272.77H618.4l25.32,65.71h-19.2l-4.89-14H595l-5.18,14H572Zm10.73,13.58h-.19L599,312h16.47Zm38.65,52.14h16.1l-.56-44.9H662l23,44.9h21.75V272.77h-16L691,317.4h-.19l-22.2-44.63H646.32Zm64.46-1.7a68.58,68.58,0,0,0,19.58,2.83c14.59,0,28.91-4.61,28.91-21.65,0-23.72-31.07-16.56-31.07-27.2,0-5.75,7.35-6.12,11.75-6.12a34.9,34.9,0,0,1,14.6,3l1.14-13.56a55.58,55.58,0,0,0-17-2.45c-13.18,0-28.62,4.33-28.62,20.15,0,23.91,31.07,16.18,31.07,28.44,0,5.27-5.24,6.39-10.83,6.39a38.43,38.43,0,0,1-18.07-4.34ZM424.9,338.4h22.83V303.52h33.07v-16.4H447.74V268h55.73V251.75H424.9ZM228.83,274.06a36.4,36.4,0,0,0-14.77-2.81c-20,0-34.73,13.46-34.73,33.69,0,20.89,13.84,34.25,34.64,34.25,3.86,0,10-.27,15-2.34l-.56-9.13c-3.29,2-9.59,3.2-14.31,3.2-13.64,0-24.74-10.27-24.74-25.7,0-14.77,10.07-25.7,25.23-25.7a26.28,26.28,0,0,1,13.55,3.69Zm6.09,64h9.88l6.7-16.56h32.18l6.68,16.56h10.26l-27.75-65.69H263Zm45.74-24.28H254.51l13.07-32.58Zm27,24.28H317V308.91h5.65c5,0,8.09,0,11,6.39l10.06,22.78h10.72l-12.4-26.18c-2.08-4-3.49-5.45-6.41-6.57v-.19c7.63-1.32,13.56-7,13.56-15,0-15.72-12.53-17.77-25.52-17.77H307.62ZM317,280.66h9c8.66,0,13.19,3.76,13.19,9.69,0,6.32-5.27,10.26-14.23,10.26h-8Zm45.51,57.41h19.39c21.63,0,35-11.39,35-33.42,0-20.24-15.54-32.27-35-32.27H362.54Zm9.4-57.41h11c13.55,0,24,9,24,24.36,0,17-8.93,24.76-25.13,24.76h-9.89Z" transform="translate(-37.86 -237.82)"/><polygon class="cls-2" points="48.43 32.62 48.4 0.05 70.38 0.05 70.38 32.56 102.94 0 118.52 15.58 85.81 48.29 118.4 48.29 118.4 70.24 85.9 70.24 118.58 102.92 102.88 118.61 70.26 85.99 70.26 118.76 48.37 118.76 48.37 85.99 15.69 118.67 0.23 103.21 33.26 70.18 0 70.18 0 48.29 32.88 48.29 0.14 15.55 15.66 0.03 48.37 32.73 48.43 32.62"/></svg>