<svg id="Layer_1" data-name="Layer 1" xmlns="http://www.w3.org/2000/svg" viewBox="0 0 992.13 942.52"><defs><style>.cls-1{fill:#585251;}</style></defs><title>fabrika-medya</title><polygon class="cls-1" points="308.54 942.52 391.22 859.84 0 859.84 308.54 942.52"/><path class="cls-1" d="M434.28,201.73,407.14,182.6l27.15-19.09c7-5,8-14.59,8-24.66V31.69c0-19.11-13-31.69-32.69-31.69H289.41V365.2H409.63c19.64,0,32.7-12.55,32.7-31.67V226.38C442.33,216.3,441.32,206.77,434.28,201.73ZM338.7,41.24H393V143.36l-17.59,14.1H338.7ZM393,324H338.71V207.77h36.7L393,221.84Z"/><path class="cls-1" d="M468.91,164.76,528.06,365.2h56L541.45,206.59h6.07c18.11,0,33.25-10.59,33.25-32.75V32.25C580.77,14.62,570.67,0,547,0h-78.1V41.81h62.46v123Z"/><polygon class="cls-1" points="49.38 207.87 109.8 207.87 117.75 165.06 49.38 165.06 49.38 39.59 141.08 39.59 148.44 0 0 0 0 365.2 49.38 365.2 49.38 207.87"/><path class="cls-1" d="M222.46,0H170.78L102.89,365.2h48.46l9.27-57.06h69.51L239,365.2h50.42ZM167.66,265.31l26.71-148.13h3.52l25.17,148.13Z"/><rect class="cls-1" x="605.89" y="75.67" width="46.89" height="289.53"/><path class="cls-1" d="M925.2,0h-52L816.76,303.67l-61.3-123.29L845.4,0H789.31L723.72,139.57V0H679.34V365.2h44.38v-144l67.47,144H854L863,309.63H932.9l8.61,55.57h50.62ZM870.1,266.6l26.84-148.85h3.55L925.78,266.6Z"/><path class="cls-1" d="M705.75,431H657.44L589.55,796.31h46.38l11.49-70.77h66l11,70.77h48.31ZM654.1,684.9l25.35-140.55h3.37L706.69,684.9Z"/><polygon class="cls-1" points="100.39 623.22 93.71 623.22 35.87 431.02 0 431.02 0 796.29 45.42 796.29 45.42 598.35 88.46 761.89 103.77 761.89 148.21 596.91 148.21 796.29 193.64 796.29 193.64 431.02 159.21 431.02 100.39 623.22"/><polygon class="cls-1" points="220.29 470.69 291.06 470.69 291.06 589.26 224.62 589.26 224.62 629.43 291.06 629.43 291.06 756.6 218.87 756.6 218.87 796.29 337.92 796.29 337.92 430.99 220.29 430.99 220.29 470.69"/><polygon class="cls-1" points="585.06 431.02 548.71 584.02 509.54 431.02 461.72 431.02 523.39 658.14 523.39 796.31 570.24 796.31 570.24 658.14 631.44 431.02 585.06 431.02"/><path class="cls-1" d="M393.79,431H364.51v39.68h19.73c18.17,0,30.6,12,30.6,29.67V726c0,16.73-11,30.58-32.53,30.58h-17.8v39.69h31.22c33.47,0,66-18.63,66-58.79V492.21C461.68,450.13,428.24,431,393.79,431Z"/><rect class="cls-1" x="605.89" width="46.86" height="48.58"/></svg>