<svg id="Layer_1" data-name="Layer 1" xmlns="http://www.w3.org/2000/svg" xmlns:xlink="http://www.w3.org/1999/xlink" viewBox="0 0 223 56.92"><defs><style>.cls-1{fill:none;}.cls-2{fill:#333;}.cls-3{fill:#888;}.cls-4{clip-path:url(#clip-path);}.cls-5{fill:url(#linear-gradient);}.cls-6{fill:url(#linear-gradient-2);}.cls-7{fill:url(#linear-gradient-3);}.cls-8{fill:url(#linear-gradient-4);}</style><clipPath id="clip-path" transform="translate(-97 -80.34)"><path class="cls-1" d="M133.15,101.22l-11.5-6.64L99.46,81.76C98.23,81.05,97,81.48,97,83v52.2c0,1.11.88,1.6,1.95,1L121.65,123l11.5-6.64L144.21,110c1.3-.75,1.17-1.78.08-2.37S133.15,101.22,133.15,101.22Z"/></clipPath><linearGradient id="linear-gradient" x1="14.25" y1="0.21" x2="14.25" y2="56.72" gradientUnits="userSpaceOnUse"><stop offset="0" stop-color="#2079b0"/><stop offset="0.32" stop-color="#4a98b5"/><stop offset="0.78" stop-color="#81bfbc"/><stop offset="1" stop-color="#97cfbf"/></linearGradient><linearGradient id="linear-gradient-2" y1="14.23" x2="36.15" y2="14.23" gradientUnits="userSpaceOnUse"><stop offset="0" stop-color="#5abcab"/><stop offset="1" stop-color="#e6e99a"/></linearGradient><linearGradient id="linear-gradient-3" x1="18.08" y1="28.46" x2="18.08" y2="56.92" gradientUnits="userSpaceOnUse"><stop offset="0" stop-color="#e53432"/><stop offset="0.18" stop-color="#d43745"/><stop offset="0.73" stop-color="#a33e7c"/><stop offset="1" stop-color="#904192"/></linearGradient><linearGradient id="linear-gradient-4" x1="38.9" y1="20.87" x2="38.9" y2="36.05" gradientUnits="userSpaceOnUse"><stop offset="0" stop-color="#f18779"/><stop offset="0.64" stop-color="#f9b575"/><stop offset="1" stop-color="#fdcb73"/></linearGradient></defs><title>google-play</title><path class="cls-2" d="M159.64,87.64h-1.69a11.22,11.22,0,0,0-.48-2H155a10.23,10.23,0,0,0-.5,2h-1.59q0-.21,1.24-3.39a26.6,26.6,0,0,0,1.24-3.51h2a29.2,29.2,0,0,0,1.12,3.46A30.3,30.3,0,0,1,159.64,87.64Zm-2.45-3a29.86,29.86,0,0,1-.91-3h-.08q0,.21-.94,3Z" transform="translate(-97 -80.34)"/><path class="cls-2" d="M166.47,87.64h-1.31a12.93,12.93,0,0,0-1.46-2.29,12.63,12.63,0,0,1-1.74-3h-.08a18.69,18.69,0,0,1,.13,2.1q0,1.31.07,3.19h-1.3q.08-1.64.08-3.61t-.08-3.29h1.57A10,10,0,0,0,163.67,83a13.2,13.2,0,0,1,1.6,2.82h.08a20,20,0,0,1-.13-2.12q0-1.43-.07-2.94h1.32q-.07,1.31-.07,3.29T166.47,87.64Z" transform="translate(-97 -80.34)"/><path class="cls-2" d="M174.14,84a3.91,3.91,0,0,1-1,2.63,3.37,3.37,0,0,1-2.7,1.12q-.78,0-2.16-.06.07-1.6.07-3.61t-.07-3.29h.93l.68,0,.59,0a3.57,3.57,0,0,1,2.77,1A3.3,3.3,0,0,1,174.14,84Zm-1.45.23a2.55,2.55,0,0,0-.59-1.71,2.25,2.25,0,0,0-1.81-.7,5.56,5.56,0,0,0-.62,0q.05,1.06.05,2.21t.05,2.51a3.5,3.5,0,0,0,.69.07,2,2,0,0,0,1.69-.71A2.73,2.73,0,0,0,172.7,84.18Z" transform="translate(-97 -80.34)"/><path class="cls-2" d="M181.22,87.64h-1.57a10.41,10.41,0,0,0-.94-2.31,1.24,1.24,0,0,0-1.06-.44h-.59q0,1.36,0,2.75h-1.47q.07-1.6.07-3.61t-.07-3.29h.92l.66,0,.93,0q2.43,0,2.43,1.66a1.86,1.86,0,0,1-1.39,1.84v.08a1.65,1.65,0,0,1,.94.83A18.41,18.41,0,0,1,181.22,87.64Zm-2-4.87q0-1.05-1.36-1.05a4.66,4.66,0,0,0-.88.07q.06.82.06,2.14h.49Q179.23,83.94,179.23,82.77Z" transform="translate(-97 -80.34)"/><path class="cls-2" d="M188.81,84.06a3.8,3.8,0,0,1-1,2.7,3.23,3.23,0,0,1-2.46,1.07,3.11,3.11,0,0,1-2.34-1,3.46,3.46,0,0,1-.94-2.5,3.8,3.8,0,0,1,1-2.7,3.23,3.23,0,0,1,2.46-1.07,3.12,3.12,0,0,1,2.34,1A3.46,3.46,0,0,1,188.81,84.06Zm-1.46.15a2.73,2.73,0,0,0-.57-1.8,1.75,1.75,0,0,0-1.4-.69,1.62,1.62,0,0,0-1.31.69,2.77,2.77,0,0,0-.54,1.75A2.73,2.73,0,0,0,184.1,86a1.74,1.74,0,0,0,1.4.69,1.61,1.61,0,0,0,1.31-.7A2.77,2.77,0,0,0,187.35,84.22Z" transform="translate(-97 -80.34)"/><path class="cls-2" d="M191.8,87.64h-1.5q.07-1.64.07-3.61t-.07-3.29h1.5q-.07,1.33-.07,3.29T191.8,87.64Z" transform="translate(-97 -80.34)"/><path class="cls-2" d="M199.48,84a3.91,3.91,0,0,1-1,2.63,3.37,3.37,0,0,1-2.7,1.12q-.78,0-2.16-.06.07-1.6.07-3.61t-.07-3.29h.93l.68,0,.59,0a3.57,3.57,0,0,1,2.77,1A3.3,3.3,0,0,1,199.48,84Zm-1.45.23a2.55,2.55,0,0,0-.59-1.71,2.25,2.25,0,0,0-1.81-.7,5.55,5.55,0,0,0-.62,0q.05,1.06.05,2.21t.05,2.51a3.5,3.5,0,0,0,.69.07,2,2,0,0,0,1.69-.71A2.73,2.73,0,0,0,198,84.18Z" transform="translate(-97 -80.34)"/><path class="cls-2" d="M209.66,87.64H208a11.19,11.19,0,0,0-.48-2H205a10.24,10.24,0,0,0-.5,2h-1.59q0-.21,1.24-3.39a26.55,26.55,0,0,0,1.24-3.51h2a29.22,29.22,0,0,0,1.12,3.46A30.34,30.34,0,0,1,209.66,87.64Zm-2.45-3a29.94,29.94,0,0,1-.91-3h-.08q0,.21-.94,3Z" transform="translate(-97 -80.34)"/><path class="cls-2" d="M215.84,82.55a2.06,2.06,0,0,1-.94,1.87,4.18,4.18,0,0,1-2.31.6h-.35q0,1,.06,2.63h-1.49q.07-1.53.07-3.61,0-1.91-.07-3.29h.92l.75,0,1,0a3,3,0,0,1,1.7.46A1.54,1.54,0,0,1,215.84,82.55Zm-1.37.29q0-1.13-1.5-1.13a4.26,4.26,0,0,0-.79.08q.06,1,.06,2.27h.31Q214.47,84.06,214.47,82.84Z" transform="translate(-97 -80.34)"/><path class="cls-2" d="M222.19,82.55a2.06,2.06,0,0,1-.94,1.87,4.18,4.18,0,0,1-2.31.6h-.35q0,1,.06,2.63h-1.49q.07-1.53.07-3.61,0-1.91-.07-3.29h.92l.75,0,1,0a3,3,0,0,1,1.7.46A1.54,1.54,0,0,1,222.19,82.55Zm-1.37.29q0-1.13-1.5-1.13a4.26,4.26,0,0,0-.79.08q.06,1,.06,2.27h.31Q220.82,84.06,220.82,82.84Z" transform="translate(-97 -80.34)"/><path class="cls-2" d="M232.57,84.06a3.8,3.8,0,0,1-1,2.7,3.23,3.23,0,0,1-2.46,1.07,3.11,3.11,0,0,1-2.34-1,3.46,3.46,0,0,1-.94-2.5,3.8,3.8,0,0,1,1-2.7,3.23,3.23,0,0,1,2.46-1.07,3.12,3.12,0,0,1,2.34,1A3.46,3.46,0,0,1,232.57,84.06Zm-1.46.15a2.73,2.73,0,0,0-.57-1.8,1.75,1.75,0,0,0-1.4-.69,1.62,1.62,0,0,0-1.31.69,2.77,2.77,0,0,0-.54,1.75,2.73,2.73,0,0,0,.57,1.79,1.74,1.74,0,0,0,1.39.69,1.61,1.61,0,0,0,1.31-.7A2.77,2.77,0,0,0,231.11,84.22Z" transform="translate(-97 -80.34)"/><path class="cls-2" d="M239.75,87.64h-1.31A12.92,12.92,0,0,0,237,85.35a12.63,12.63,0,0,1-1.74-3h-.08a18.69,18.69,0,0,1,.13,2.1q0,1.31.07,3.19h-1.3q.08-1.64.08-3.61t-.08-3.29h1.57A10,10,0,0,0,236.95,83a13.18,13.18,0,0,1,1.6,2.82h.08a20,20,0,0,1-.13-2.12q0-1.43-.07-2.94h1.32q-.07,1.31-.07,3.29T239.75,87.64Z" transform="translate(-97 -80.34)"/><path class="cls-3" d="M176.28,109.73a11,11,0,0,1-3,8.18,11.87,11.87,0,0,1-9,3.63,12.8,12.8,0,1,1,0-25.6,12.63,12.63,0,0,1,5,1,10.08,10.08,0,0,1,3.83,2.74l-2.16,2.16a8.27,8.27,0,0,0-6.71-2.91,9.79,9.79,0,1,0,6.84,16.84,7.69,7.69,0,0,0,2.05-5h-8.9v-2.94h11.87A10.57,10.57,0,0,1,176.28,109.73Z" transform="translate(-97 -80.34)"/><path class="cls-3" d="M180,106.22a8.8,8.8,0,0,1,12.39,0,9.6,9.6,0,0,1,0,12.76A8.8,8.8,0,0,1,180,119a9.6,9.6,0,0,1,0-12.76ZM182.36,117a5.29,5.29,0,0,0,7.7,0,6.76,6.76,0,0,0,0-8.79,5.3,5.3,0,0,0-7.7,0,6.76,6.76,0,0,0,0,8.79Z" transform="translate(-97 -80.34)"/><path class="cls-3" d="M198.32,106.22a8.8,8.8,0,0,1,12.39,0,9.6,9.6,0,0,1,0,12.76,8.8,8.8,0,0,1-12.39,0,9.6,9.6,0,0,1,0-12.76ZM200.66,117a5.29,5.29,0,0,0,7.7,0,6.76,6.76,0,0,0,0-8.79,5.3,5.3,0,0,0-7.7,0,6.76,6.76,0,0,0,0,8.79Z" transform="translate(-97 -80.34)"/><path class="cls-3" d="M222.44,128.92a7.6,7.6,0,0,1-4.86-1.49,8.74,8.74,0,0,1-2.7-3.41l2.87-1.2a4.71,4.71,0,0,0,1.76,2.29,4.87,4.87,0,0,0,2.93.92,5.39,5.39,0,0,0,4.09-1.56,5.86,5.86,0,0,0,1.49-4.23v-1.61h-.14a6.42,6.42,0,0,1-2.33,2.05,7,7,0,0,1-3.39.82,7.38,7.38,0,0,1-5.61-2.57,9.76,9.76,0,0,1,0-12.73,7.38,7.38,0,0,1,5.61-2.57,7,7,0,0,1,3.39.82,6.42,6.42,0,0,1,2.33,2.05H228v-2.33h3v15.91q0,4.31-2.5,6.55A8.8,8.8,0,0,1,222.44,128.92Zm.24-10.27a5,5,0,0,0,3.78-1.64,7,7,0,0,0,0-8.83,5.14,5.14,0,0,0-7.55,0,6.93,6.93,0,0,0,0,8.79A5,5,0,0,0,222.68,118.66Z" transform="translate(-97 -80.34)"/><path class="cls-3" d="M237.16,121H234V96.48h3.15Z" transform="translate(-97 -80.34)"/><path class="cls-3" d="M247.56,121.53a8.08,8.08,0,0,1-6.18-2.53,9,9,0,0,1-2.38-6.4,9.23,9.23,0,0,1,2.31-6.3,7.5,7.5,0,0,1,5.9-2.63,7.73,7.73,0,0,1,6,2.43,9.21,9.21,0,0,1,2.24,6.5l0,.58H242.15a5.69,5.69,0,0,0,1.69,4,5.14,5.14,0,0,0,3.64,1.47,4.52,4.52,0,0,0,4.59-2.87l2.8,1.16a7.51,7.51,0,0,1-2.7,3.27A7.86,7.86,0,0,1,247.56,121.53Zm4.52-11a4.47,4.47,0,0,0-1.32-2.74,4.71,4.71,0,0,0-3.61-1.3,4.51,4.51,0,0,0-3,1.09,5.59,5.59,0,0,0-1.76,2.94Z" transform="translate(-97 -80.34)"/><path class="cls-3" d="M267.82,121h-3.15V96.48H273a7.75,7.75,0,0,1,5.39,2.07,7.12,7.12,0,0,1,0,10.44,7.74,7.74,0,0,1-5.39,2.07h-5.2Zm0-12.93h5.27a4.07,4.07,0,0,0,3.18-1.34,4.21,4.21,0,0,0,0-5.88,4.07,4.07,0,0,0-3.18-1.34h-5.27Z" transform="translate(-97 -80.34)"/><path class="cls-3" d="M285.88,121h-3.15V96.48h3.15Z" transform="translate(-97 -80.34)"/><path class="cls-3" d="M294,121.53a6.62,6.62,0,0,1-4.46-1.54,5.1,5.1,0,0,1-1.8-4.07,5,5,0,0,1,2.12-4.29,8.61,8.61,0,0,1,5.23-1.56,9,9,0,0,1,4.55,1v-.48a3.74,3.74,0,0,0-1.27-3,4.55,4.55,0,0,0-3.11-1.11,4.83,4.83,0,0,0-2.48.65,3.35,3.35,0,0,0-1.52,1.78l-2.87-1.23a6.52,6.52,0,0,1,2.29-2.79,7.34,7.34,0,0,1,4.52-1.28,7.75,7.75,0,0,1,5.34,1.88,6.72,6.72,0,0,1,2.12,5.3V121h-3v-2.33h-.14A6.18,6.18,0,0,1,294,121.53Zm.51-2.87A5.13,5.13,0,0,0,298,117.2a4.51,4.51,0,0,0,1.59-3.44,6.2,6.2,0,0,0-4-1.09,5.21,5.21,0,0,0-3.46,1A3,3,0,0,0,291,116a2.24,2.24,0,0,0,1.06,2A4.23,4.23,0,0,0,294.51,118.66Z" transform="translate(-97 -80.34)"/><path class="cls-3" d="M309.5,128.38h-3.25l3.9-8.45-6.91-15.71h3.42l5,12h.07l4.86-12H320Z" transform="translate(-97 -80.34)"/><g id="PLAY"><g class="cls-4"><polygon class="cls-5" points="0 0.21 0 28.46 0 56.72 28.5 28.46 0 0.21"/><polygon class="cls-6" points="36.15 20.87 24.65 14.23 0 0 0 0.21 28.5 28.46 36.15 20.87"/><polygon class="cls-7" points="0 56.72 0 56.92 24.65 42.69 36.15 36.05 28.5 28.46 0 56.72"/><polygon class="cls-8" points="36.15 20.87 28.5 28.46 36.15 36.05 49.3 28.46 36.15 20.87"/></g></g></svg>