<?xml version="1.0" encoding="UTF-8" standalone="no"?>
<svg
   xmlns:dc="http://purl.org/dc/elements/1.1/"
   xmlns:cc="http://creativecommons.org/ns#"
   xmlns:rdf="http://www.w3.org/1999/02/22-rdf-syntax-ns#"
   xmlns:svg="http://www.w3.org/2000/svg"
   xmlns="http://www.w3.org/2000/svg"
   viewBox="0 0 793.33331 1122.6667"
   height="1122.6667"
   width="793.33331"
   xml:space="preserve"
   id="svg2"
   version="1.1"><metadata
     id="metadata8"><rdf:RDF><cc:Work
         rdf:about=""><dc:format>image/svg+xml</dc:format><dc:type
           rdf:resource="http://purl.org/dc/dcmitype/StillImage" /></cc:Work></rdf:RDF></metadata><defs
     id="defs6"><clipPath
       id="clipPath20"
       clipPathUnits="userSpaceOnUse"><path
         id="path18"
         d="m 25.84198,0 h 543.3098 V 841.9975 H 25.84198 Z" /></clipPath></defs><g
     transform="matrix(1.3333333,0,0,-1.3333333,0,1122.6667)"
     id="g10"><g
       id="g12" /><g
       id="g14"><g
         clip-path="url(#clipPath20)"
         id="g16"><path
           id="path22"
           style="fill:#ffffff;fill-opacity:1;fill-rule:nonzero;stroke:none"
           d="m 66.3382,439.7753 c -5.05891,0 -9.34528,-4.2739 -9.34528,-9.3453 V 40.49498 c 0,-5.07137 4.28637,-9.34528 9.34528,-9.34528 h 462.3174 c 5.0713,0 9.3452,4.27391 9.3452,9.34528 V 430.43 c 0,5.0714 -4.2739,9.3453 -9.3452,9.3453 z M 528.6556,-0.00124604 H 66.3382 c -22.32899,0 -40.49622,18.16722604 -40.49622,40.49622604 V 430.43 c 0,22.329 18.16723,40.4962 40.49622,40.4962 h 462.3174 c 22.329,0 40.4962,-18.1672 40.4962,-40.4962 V 40.49498 c 0,-22.329 -18.1672,-40.49622604 -40.4962,-40.49622604" /><path
           id="path24"
           style="fill:#ffffff;fill-opacity:1;fill-rule:nonzero;stroke:none"
           d="m 479.0633,443.2978 c -8.5977,0 -15.5755,6.9779 -15.5755,15.5755 v 200.9485 c 0.0748,1.6199 3.3892,62.277 -37.2316,105.5394 -28.3474,30.1915 -71.6721,45.4928 -128.7905,45.4928 -57.2803,0 -100.6798,-15.3885 -129.0022,-45.7295 -40.6583,-43.5615 -37.0198,-103.633 -36.9949,-104.2436 l 0.0374,-202.0076 c 0,-8.5976 -6.9654,-15.5755 -15.5755,-15.5755 -8.5977,0 -15.5755,6.9779 -15.5755,15.5755 v 200.9485 c -0.162,1.9314 -4.46078,73.2047 45.3309,126.5601 34.4529,36.9076 85.5155,55.6231 151.7798,55.6231 66.2519,0 117.3269,-18.7155 151.7799,-55.6231 49.8166,-53.3429 45.5676,-124.6163 45.3558,-127.6317 l 0.0373,-199.8769 c 0,-8.5976 -6.9778,-15.5755 -15.5754,-15.5755" /><path
           id="path26"
           style="fill:#ffffff;fill-opacity:1;fill-rule:nonzero;stroke:none"
           d="m 337.314,265.6826 c 0,-21.9925 -17.8308,-39.8109 -39.8109,-39.8109 -21.9926,0 -39.8233,17.8184 -39.8233,39.8109 0,21.9926 17.8307,39.811 39.8233,39.811 21.9801,0 39.8109,-17.8184 39.8109,-39.811" /><path
           id="path28"
           style="fill:#ffffff;fill-opacity:1;fill-rule:nonzero;stroke:none"
           d="m 297.4994,149.8522 c -8.5977,0 -15.5755,6.9778 -15.5755,15.5755 v 90.3751 c 0,8.5977 6.9778,15.5755 15.5755,15.5755 8.6101,0 15.5754,-6.9778 15.5754,-15.5755 v -90.3751 c 0,-8.5977 -6.9653,-15.5755 -15.5754,-15.5755" /></g></g></g></svg>
