<?xml version="1.0" encoding="UTF-8" standalone="no"?>
<svg
   xmlns:dc="http://purl.org/dc/elements/1.1/"
   xmlns:cc="http://creativecommons.org/ns#"
   xmlns:rdf="http://www.w3.org/1999/02/22-rdf-syntax-ns#"
   xmlns:svg="http://www.w3.org/2000/svg"
   xmlns="http://www.w3.org/2000/svg"
   viewBox="0 0 90.106529 82.743065"
   xml:space="preserve"
   id="svg2"
   version="1.1"><metadata
     id="metadata8"><rdf:RDF><cc:Work
         rdf:about=""><dc:format>image/svg+xml</dc:format><dc:type
           rdf:resource="http://purl.org/dc/dcmitype/StillImage" /></cc:Work></rdf:RDF></metadata><defs
     id="defs6"><clipPath
       id="clipPath18"
       clipPathUnits="userSpaceOnUse"><path
         id="path16"
         d="M 0,62.057 H 67.58 V 0 H 0 Z" /></clipPath></defs><g
     transform="matrix(1.3333333,0,0,-1.3333333,0,82.743067)"
     id="g10"><g
       id="g12"><g
         clip-path="url(#clipPath18)"
         id="g14"><g
           transform="translate(2.5003,11.3183)"
           id="g20"><path
             id="path22"
             style="fill:#ffffff;fill-opacity:1;fill-rule:nonzero;stroke:none"
             d="M 0,0 30.026,-8.42 V 30.109 L 0,38.53 Z m 31.276,-11.318 c -0.112,0 -0.226,0.015 -0.337,0.047 L -1.587,-2.15 C -2.127,-2 -2.5,-1.508 -2.5,-0.947 v 41.126 c 0,0.391 0.183,0.76 0.495,0.996 0.312,0.237 0.716,0.313 1.092,0.207 L 31.614,32.26 c 0.539,-0.151 0.912,-0.643 0.912,-1.203 v -41.125 c 0,-0.392 -0.183,-0.76 -0.494,-0.996 -0.22,-0.167 -0.486,-0.254 -0.756,-0.254" /></g><g
           transform="translate(35.0531,41.4277)"
           id="g24"><path
             id="path26"
             style="fill:#ffffff;fill-opacity:1;fill-rule:nonzero;stroke:none"
             d="m 0,0 v -38.529 l 30.026,8.42 v 38.53 z m -1.25,-41.428 c -0.27,0 -0.536,0.087 -0.755,0.254 -0.312,0.236 -0.495,0.605 -0.495,0.996 V 0.947 c 0,0.561 0.373,1.053 0.913,1.203 l 32.526,9.122 c 0.375,0.107 0.781,0.031 1.093,-0.207 0.311,-0.236 0.494,-0.604 0.494,-0.996 v -41.126 c 0,-0.56 -0.373,-1.052 -0.912,-1.203 l -32.527,-9.121 c -0.11,-0.031 -0.224,-0.047 -0.337,-0.047" /></g><g
           transform="translate(1.2498,50.247)"
           id="g28"><path
             id="path30"
             style="fill:#ffffff;fill-opacity:1;fill-rule:nonzero;stroke:none"
             d="m 0,0 c -0.539,0 -1.037,0.352 -1.198,0.895 -0.197,0.661 0.181,1.357 0.843,1.553 l 31.358,9.311 c 0.225,0.065 0.463,0.069 0.688,0.007 L 65.412,2.455 C 66.078,2.271 66.468,1.583 66.285,0.917 66.101,0.252 65.413,-0.135 64.747,0.045 L 31.372,9.261 0.356,0.052 C 0.238,0.017 0.118,0 0,0" /></g><g
           transform="translate(12.3275,6.0146)"
           id="g32"><path
             id="path34"
             style="fill:#ffffff;fill-opacity:1;fill-rule:nonzero;stroke:none"
             d="m 0,0 c -0.69,0 -1.25,0.56 -1.25,1.25 v 41.125 c 0,0.545 0.353,1.027 0.872,1.191 l 30.398,9.625 c 0.66,0.209 1.361,-0.155 1.569,-0.814 0.208,-0.658 -0.156,-1.36 -0.814,-1.568 L 1.25,41.46 V 1.25 C 1.25,0.56 0.69,0 0,0" /></g><g
           transform="translate(21.5824,3.7343)"
           id="g36"><path
             id="path38"
             style="fill:#ffffff;fill-opacity:1;fill-rule:nonzero;stroke:none"
             d="m 0,0 c -0.691,0 -1.25,0.56 -1.25,1.25 v 39.985 c 0,0.553 0.363,1.04 0.892,1.198 l 33.044,9.877 c 0.66,0.201 1.357,-0.177 1.556,-0.839 0.197,-0.662 -0.179,-1.359 -0.84,-1.556 L 1.25,40.305 V 1.25 C 1.25,0.56 0.69,0 0,0" /></g></g></g></g></svg>
