<svg id="BACKGROUND_1" data-name="BACKGROUND 1" xmlns="http://www.w3.org/2000/svg" viewBox="0 0 99.12 120.47"><defs><style>.cls-1{fill:#ce1b31;}</style></defs><title>indirim</title><path class="cls-1" d="M97.8,46.74,63.63,21.52a15.36,15.36,0,0,0-18.22,0L11.19,46.66A15.36,15.36,0,0,0,4.93,59v64.54a15.29,15.29,0,0,0,15.26,15.37l68.39.06A15.43,15.43,0,0,0,104,123.65V59.11A15.36,15.36,0,0,0,97.8,46.74Zm-43.3-8.62a6.6,6.6,0,1,1,6.6-6.59A6.6,6.6,0,0,1,54.51,38.12Z" transform="translate(-4.93 -18.52)"/></svg>