<?xml version="1.0" encoding="UTF-8" standalone="no"?>
<svg
   xmlns:dc="http://purl.org/dc/elements/1.1/"
   xmlns:cc="http://creativecommons.org/ns#"
   xmlns:rdf="http://www.w3.org/1999/02/22-rdf-syntax-ns#"
   xmlns:svg="http://www.w3.org/2000/svg"
   xmlns="http://www.w3.org/2000/svg"
   viewBox="0 0 793.33331 1122.6667"
   height="1122.6667"
   width="793.33331"
   xml:space="preserve"
   id="svg2"
   version="1.1"><metadata
     id="metadata8"><rdf:RDF><cc:Work
         rdf:about=""><dc:format>image/svg+xml</dc:format><dc:type
           rdf:resource="http://purl.org/dc/dcmitype/StillImage" /></cc:Work></rdf:RDF></metadata><defs
     id="defs6"><clipPath
       id="clipPath20"
       clipPathUnits="userSpaceOnUse"><path
         id="path18"
         d="m 51.98267,0 h 491.0347 V 841.9938 H 51.98267 Z" /></clipPath></defs><g
     transform="matrix(1.3333333,0,0,-1.3333333,0,1122.6667)"
     id="g10"><g
       id="g12" /><g
       id="g14"><g
         clip-path="url(#clipPath20)"
         id="g16"><path
           id="path22"
           style="fill:#ffffff;fill-opacity:1;fill-rule:nonzero;stroke:none"
           d="m 512.199,86.88181 c 0,-5.65824 -5.1158,-11.35347 -10.7494,-11.96984 L 90.27137,30.86641 C 88.15106,30.64452 86.25266,31.16227 84.89665,32.395 83.52831,33.62773 82.801,35.4152 82.801,37.57248 V 804.4066 c 0,2.1696 0.72731,3.957 2.09565,5.1898 1.35601,1.2204 3.25441,1.7135 5.37472,1.5286 L 501.4496,767.0671 c 5.6336,-0.6164 10.7494,-6.3116 10.7494,-11.9699 z M 504.741,797.7005 93.55044,841.7584 C 82.77635,842.9665 72.12553,839.5518 64.29768,832.5129 56.46982,825.4863 51.98267,815.2423 51.98267,804.4066 V 37.57248 c 0,-10.8234 4.48715,-21.07974 12.31501,-28.106321 6.81701,-6.114357 15.77898,-9.46739173 25.09845,-9.46739173 1.36833,0 2.76132,0.073964 4.15431,0.22189203 L 504.741,44.27855 c 21.4618,2.29288 38.2763,21.00577 38.2763,42.60326 V 755.0972 c 0,21.5975 -16.8145,40.3104 -38.2763,42.6033" /><path
           id="path24"
           style="fill:#ffffff;fill-opacity:1;fill-rule:nonzero;stroke:none"
           d="m 472.7897,420.9994 c 0,-16.3461 -13.2518,-29.6103 -29.6102,-29.6103 -16.3461,0 -29.5979,13.2642 -29.5979,29.6103 0,16.346 13.2518,29.6102 29.5979,29.6102 16.3584,0 29.6102,-13.2642 29.6102,-29.6102" /></g></g></g></svg>
