<svg id="Layer_1" data-name="Layer 1" xmlns="http://www.w3.org/2000/svg" viewBox="0 0 443.22 114.22"><defs><style>.cls-1{fill:#ec008c;fill-rule:evenodd;}</style></defs><title>maximum</title><path class="cls-1" d="M61.39,315.54s6-40.75,6.55-44.33,3.43-10.13,8-13.75a27.32,27.32,0,0,1,17.33-6.13c7,0,11.12,1.71,13.48,3a17,17,0,0,1,3.88,2.93,19.16,19.16,0,0,1,5.75-3.47,27.64,27.64,0,0,1,12.61-2.51c6.17,0,11.92,2,14.43,4.46s3.35,4,4.3,8.26a28,28,0,0,1-.15,7.62c-.65,4.49-6.4,43.91-6.4,43.91H124.87s5.67-38.84,6-41.09,1-6.93-.61-9-4.38-2.59-6.51-2.44-6.55.8-7.73,7.84-6.74,44.67-6.74,44.67H93.07S99,275.17,99.28,273s.65-7.16-2.21-9-8-1.41-10.09,1.49-2.55,4.3-3.27,8.72-6.06,41.28-6.06,41.28Zm124.53-30.85s-3.58.23-6.17.46a41.64,41.64,0,0,0-11.65,2.51,10.16,10.16,0,0,0-7.08,10c0,3.81,2.13,8.07,9,8.53s13.25-4,13.25-4Zm-26.73-27.42S164,253.85,176,252s16.3.46,21.63,4.42,5.33,10.82,4.72,15.16-5.26,35.87-5.26,35.87l-4.11,3.2c-5.1,3.73-12.11,5.79-20.56,6.55s-19.35-1.45-23.46-10.74-1.68-21.1,9.75-26.89,28.64-5.48,28.64-5.48,1.29-5.18-1.52-7.69c-3.14-2.8-6.4-1.9-13.48-.76a76.09,76.09,0,0,0-15,4.53Zm64.74-18.51c1.38-6.56,6.29-11.88,11-11.88s7.37,5.32,6,11.88-6.29,11.88-11,11.88S222.55,245.33,223.92,238.76Zm-23.61,68.93s18.93-26,19.31-26.54a3.37,3.37,0,0,0,0-3c-.53-1-12-20.64-12.6-21.74s-1.29-3.27-.27-7.62,3.73-5.64,5-5.83,2.4.27,3.81,2.44,12.95,19.46,13.44,20.22,1.29,1,1.94.08S255,232.48,256.1,230.92s4-4.68,6.82-5.1,4.87-.08,6.82,1.37a8.72,8.72,0,0,1,3.28,7.58c-.34,3.12-2.06,5.83-4.8,9.29s-27.46,33.55-28.1,34.27a3.46,3.46,0,0,0-.53,2.82c.15,1,1.71,3,2.28,3.85s15.42,22.93,15.42,22.93l7.92-54.69h15.39l-9.1,62.34h-9l8,11.84-15.69,12.45s-25.44-44.37-25.82-45-1-1.56-2.21,0-21,26-21,26Zm77.08,7.84s6-40.75,6.55-44.33,3.43-10.13,8-13.75a27.32,27.32,0,0,1,17.33-6.13c7,0,11.12,1.71,13.48,3a17,17,0,0,1,3.88,2.93,19.15,19.15,0,0,1,5.75-3.47,27.63,27.63,0,0,1,12.6-2.51c6.17,0,11.92,2,14.43,4.46s3.35,4,4.3,8.26a28,28,0,0,1-.15,7.62c-.65,4.49-6.4,43.91-6.4,43.91H340.87s5.67-38.84,6-41.09,1-6.93-.61-9-4.38-2.59-6.51-2.44-6.55.8-7.73,7.84-6.74,44.67-6.74,44.67H309.07s5.94-40.37,6.21-42.5.65-7.16-2.21-9-8-1.41-10.09,1.49-2.55,4.3-3.28,8.72-6.05,41.28-6.05,41.28Zm94.94-62.23h16.15s-6,40.82-6.44,43.87-.15,7.84,2.67,9.22,7.39,1.14,9.29-.53,3.66-3.35,4.65-8.68,6.63-43.95,6.63-43.95h15.92s-5.41,37.62-6,42.19-2.82,12.26-7.69,16.15-10.13,5.86-22.85,5.86-17.67-7.62-18.43-12.57-.23-9.67.84-16.38S372.33,253.31,372.33,253.31Zm45.81,62.23s6-40.75,6.55-44.33,3.43-10.13,8-13.75A27.32,27.32,0,0,1,450,251.33c7,0,11.12,1.71,13.48,3a17,17,0,0,1,3.88,2.93,19.15,19.15,0,0,1,5.75-3.47,27.64,27.64,0,0,1,12.61-2.51c6.17,0,11.92,2,14.43,4.46s3.35,4,4.3,8.26a28,28,0,0,1-.15,7.62c-.65,4.49-6.4,43.91-6.4,43.91H481.62s5.67-38.84,6-41.09,1-6.93-.61-9-4.38-2.59-6.51-2.44-6.55.8-7.73,7.84S466,315.54,466,315.54H449.82s5.94-40.37,6.21-42.5.65-7.16-2.21-9-8-1.41-10.09,1.49-2.55,4.3-3.28,8.72-6.05,41.28-6.05,41.28Z" transform="translate(-61.39 -225.65)"/></svg>