<svg id="Paraf_Logo_Pantone_801C" data-name="Paraf Logo Pantone 801C" xmlns="http://www.w3.org/2000/svg" viewBox="0 0 500 317.51"><defs><style>.cls-1{fill:#00a6d4;}</style></defs><title>paraf</title><path class="cls-1" d="M365.69,178.32c-3.76-15.33-14.95-28.39-29.94-34.93a53.09,53.09,0,0,0-47.33,2.25c-36.2,20-56.21,72.56-67.22,122-16.06-10.37-27.36-27.28-32.88-49l-17.36,10.86c8.18,26.27,24.32,46.78,46.16,58.43A635.89,635.89,0,0,0,208,367.22l-.06,1.25c-.42,8.5-1.35,27.82-.5,48.87l19.31-12.08c-.2-15.62.45-29.16.78-35.84l.06-1.26a596,596,0,0,1,8.19-72.83c30.62,8.23,65.33.22,94.73-22.34C358.54,251.48,373.65,210.79,365.69,178.32Zm-47.1,79.14c-24.92,19.13-54,25.85-79,18.59,10.6-49.3,28.93-97,58.35-113.29a33.64,33.64,0,0,1,30-1.44A32.52,32.52,0,0,1,346.64,183C352.67,207.55,340.08,241,318.59,257.46ZM659,278.06c9.39-19,14.81-49,8.31-67.81-4.56-13.14-14.92-20.32-28-19.87-25,.77-34.72,32.08-39.38,47.12-11.56,37.36-18.45,78.08-20.82,123l-2.28,1.68c-4.33,3.24-14.24,10.65-18.21,10.92-.44-.75-1.38-2.93-1.8-8-.49-5.89.09-21.17.55-33.45.29-7.54.53-14,.52-17.87h0s0-.07,0-.1c-.2-15.58-9.5-25.65-23.7-25.65-11.38,0-25.1,6.7-35.81,17.49C486.92,317,477.75,331,472.58,344.77a69.3,69.3,0,0,0-4.74,21.84c-1.88,1.45-3.7,2.82-4.85,3.59-13.75,9.21-17.68,6-19,5-6.25-5-.25-20.41,5-34,4.94-12.66,9.61-24.6,7.39-34.59a9.5,9.5,0,0,0-14-6.14c-4.13,2.39-17.5,5.37-25.37,5.7q.33-1.66.58-3.19c.9-5.63,3-18.8-7.2-28.75-6.83-6.65-17.85-7.24-26.79-1.43-9.91,6.43-13.74,18.34-9.54,29.64,2.56,6.91,7.93,14.63,19,19.06-7.63,22-20.88,47.15-33.39,56.61-1.66-5.95-3.31-20.79-1.13-57.86.16-2.86.28-4.93.3-6,.4-5.58.2-13.56-5.53-19.75-2.61-2.82-7.35-6.19-15.13-6.19a41.24,41.24,0,0,0-14.79,3.21,77.74,77.74,0,0,0-13.2,6.5c-17,10.71-33.24,30.3-40.43,48.76-5.65,14.52-4.89,29.22,2,39.3a26,26,0,0,0,21.72,11.5h0c8.86,0,18.34-4.18,27.39-12.08a112.53,112.53,0,0,0,18.11-19.38c1.21,17.36,4.75,26.58,11.06,30.66a13.89,13.89,0,0,0,7.58,2.25,16,16,0,0,0,7.42-1.91c20.4-10.65,37.83-45,46.77-72q2.24.08,4.64,0a103.88,103.88,0,0,0,19.21-2.66c-1.28,3.88-2.92,8.07-4.4,11.85-7.27,18.62-16.31,41.8.69,55.55,10.48,8.47,24.1,7.34,40.5-3.33a22.35,22.35,0,0,0,19.64,10.87c16.77,0,33.08-15.49,34.88-17.25A105.78,105.78,0,0,0,538,367.59c.49,5.42,2.18,18.11,12.68,22.83a18.17,18.17,0,0,0,7.51,1.59c6.73,0,13.61-3.4,20.06-7.62q-.56,34.35,2.21,72l18.3-11.45c-1.6-26-2-50.83-1.15-74.33q21.07-14.32,37.15-18.29L642.85,332c-13,.73-27.52,5.75-43.85,15.3,2.89-37.73,9.21-72.3,19.09-104.2,3.09-10,10.34-33.41,21.91-33.78,4.07-.15,7.28,1,9.42,7.14,4.33,12.48.43,33.51-4.85,47.58ZM340,313.1a51.43,51.43,0,0,1-2.38,11.21C331,344.7,326,356,308.5,371.21c-5.47,4.78-10.77,7.4-14.91,7.4h0a6.91,6.91,0,0,1-6.06-3.25c-2.48-3.62-4-11.5,0-21.74,5.66-14.51,19.48-31.17,32.86-39.6a58.63,58.63,0,0,1,9.93-4.85c4.12-1.6,6.6-1.94,7.94-1.94.77,0,1.18.12,1.19.09C339.66,307.55,340.32,308.64,340,313.1ZM398.89,300c-.15,1-.34,2-.55,3a13.27,13.27,0,0,1-6.45-7.13c-1-2.72-.6-4.87,1.27-6.56a5.89,5.89,0,0,1,3.59-1.57,1.1,1.1,0,0,1,.41.06C399.19,289.76,400.11,292.4,398.89,300Zm140.06,13.86a38.61,38.61,0,0,1-.89,8.06,86.45,86.45,0,0,1-24.26,44.74c-5.94,5.82-15.64,11.84-21.59,11.84-1.53,0-2.81-.23-4.16-3-1.83-3.84-2.19-12.16,2.29-24,4.26-11.35,11.92-23,21.56-32.66,8.1-8.17,17.25-11.88,22.32-11.88,2.17,0,4.64,0,4.73,7Zm112.61,62.76V396h19.39V376.63Z" transform="translate(-170.95 -138.89)"/></svg>