<svg id="Ñëîé_1" data-name="Ñëîé 1" xmlns="http://www.w3.org/2000/svg" viewBox="0 0 669.94 114.92"><defs><style>.cls-1{fill:#fab200;}.cls-2{fill:#dadada;}</style></defs><title>rating</title><polygon class="cls-1" points="472.24 89.99 509.58 114.92 497.42 71.7 532.66 43.89 487.8 42.11 472.24 0 456.69 42.11 411.83 43.89 447.07 71.7 434.9 114.92 472.24 89.99"/><polygon class="cls-2" points="609.52 89.99 646.86 114.92 634.69 71.7 669.94 43.89 625.08 42.11 609.52 0 593.96 42.11 549.1 43.89 584.35 71.7 572.18 114.92 609.52 89.99"/><polygon class="cls-1" points="197.69 89.99 235.03 114.92 222.87 71.7 258.11 43.89 213.25 42.11 197.69 0 182.13 42.11 137.28 43.89 172.52 71.7 160.35 114.92 197.69 89.99"/><polygon class="cls-1" points="334.97 89.99 372.31 114.92 360.14 71.7 395.38 43.89 350.52 42.11 334.97 0 319.41 42.11 274.55 43.89 309.8 71.7 297.63 114.92 334.97 89.99"/><polygon class="cls-1" points="60.42 89.99 97.75 114.92 85.59 71.7 120.83 43.89 75.97 42.11 60.42 0 44.86 42.11 0 43.89 35.24 71.7 23.08 114.92 60.42 89.99"/></svg>