<?xml version="1.0" encoding="UTF-8" standalone="no"?>
<svg
   xmlns:dc="http://purl.org/dc/elements/1.1/"
   xmlns:cc="http://creativecommons.org/ns#"
   xmlns:rdf="http://www.w3.org/1999/02/22-rdf-syntax-ns#"
   xmlns:svg="http://www.w3.org/2000/svg"
   xmlns="http://www.w3.org/2000/svg"
   viewBox="0 0 793.33331 1122.6667"
   height="1122.6667"
   width="793.33331"
   xml:space="preserve"
   id="svg2"
   version="1.1"><metadata
     id="metadata8"><rdf:RDF><cc:Work
         rdf:about=""><dc:format>image/svg+xml</dc:format><dc:type
           rdf:resource="http://purl.org/dc/dcmitype/StillImage" /></cc:Work></rdf:RDF></metadata><defs
     id="defs6"><clipPath
       id="clipPath20"
       clipPathUnits="userSpaceOnUse"><path
         id="path18"
         d="m 29.62764,0 h 535.7412 V 841.9965 H 29.62764 Z" /></clipPath></defs><g
     transform="matrix(1.3333333,0,0,-1.3333333,0,1122.6667)"
     id="g10"><g
       id="g12" /><g
       id="g14"><g
         clip-path="url(#clipPath20)"
         id="g16"><path
           id="path22"
           style="fill:#ffffff;fill-opacity:1;fill-rule:nonzero;stroke:none"
           d="M 405.7985,0 H 132.5669 c -8.1032,0 -14.6798,6.576538 -14.6798,14.67977 V 83.43982 C 95.09237,86.17613 76.16134,95.47724 61.49331,111.2257 25.7099,149.5927 29.65582,212.34 29.84372,214.9941 l -0.03523,229.1218 c 0,1.8086 0.32883,3.5937 0.97474,5.2848 0.92776,2.384 23.19404,58.86 85.89427,108.9591 6.3417,5.0851 15.5841,4.0281 20.6339,-2.3018 5.0616,-6.3299 4.0281,-15.5723 -2.3018,-20.6339 C 85.32151,495.73 63.7951,451.6437 59.16803,441.1682 V 213.9724 c -0.07046,-1.5267 -3.20606,-53.8689 23.87518,-82.8174 12.09614,-12.93 28.30259,-19.2129 49.52369,-19.2129 8.1032,0 14.6798,-6.5648 14.6798,-14.6798 V 29.35954 h 243.8721 v 65.4483 c 0,8.11496 6.5765,14.67976 14.6797,14.67976 50.6629,0 53.5166,69.5704 53.6106,72.5298 l -0.0118,66.4231 c 0,8.1149 6.5766,14.6797 14.6798,14.6797 8.115,0 14.6798,-6.5648 14.6798,-14.6797 V 181.5712 C 487.8409,149.0995 472.0807,90.75622 420.4783,81.40814 V 14.67977 C 420.4783,6.576538 413.9018,0 405.7985,0" /><path
           id="path24"
           style="fill:#ffffff;fill-opacity:1;fill-rule:nonzero;stroke:none"
           d="m 280.0916,144.8142 c -1.8438,0 -3.7228,0.3406 -5.5431,1.0922 -7.5043,3.0416 -11.1097,11.6146 -8.0563,19.1306 46.5877,114.3378 -28.514,181.1367 -31.7435,183.9317 -3.0182,2.6071 -4.862,6.3652 -5.0616,10.3581 -0.2114,3.9811 1.1979,7.9035 3.9224,10.8043 l 80.9502,86.4227 c 20.9509,26.6937 21.9257,40.939 16.3708,57.8031 -2.5014,7.5982 -7.0463,13.1531 -12.8242,15.6193 -5.3552,2.29 -11.6029,1.8672 -18.0737,-1.1979 -12.4367,-5.9306 -22.0197,-14.9734 -35.255,-27.4805 -7.058,-6.6705 -15.0556,-14.2218 -24.8616,-22.5951 L 135.8657,381.4286 c -5.9071,-5.5431 -15.2082,-5.226 -20.7396,0.7046 -5.543,5.9189 -5.2259,15.2083 0.6929,20.7514 l 104.5435,97.7085 c 9.7356,8.3264 17.4396,15.6193 24.251,22.0432 14.621,13.8225 26.1769,24.7207 42.8062,32.6595 14.1161,6.7058 29.1364,7.2812 42.2542,1.6794 13.6229,-5.8484 23.9809,-17.7214 29.1482,-33.4464 9.6182,-29.2186 3.3587,-54.0215 -21.5969,-85.6476 -0.2583,-0.3171 -0.5284,-0.646 -0.8103,-0.9396 l -71.8722,-76.7223 c 23.1354,-26.6467 72.3889,-100.1278 29.1364,-206.2684 -2.3135,-5.684 -7.7978,-9.1367 -13.5875,-9.1367" /><path
           id="path26"
           style="fill:#ffffff;fill-opacity:1;fill-rule:nonzero;stroke:none"
           d="M 522.114,248.0541 H 299.3338 c -8.1032,0 -14.6798,6.5765 -14.6798,14.6798 0,8.1032 6.5766,14.6797 14.6798,14.6797 H 522.114 c 7.657,0 13.9047,6.2477 13.9047,13.9282 v 507.3681 c 0,7.6805 -6.2477,13.9282 -13.9047,13.9282 H 156.3646 c -7.5513,0 -13.9282,-6.3769 -13.9282,-13.9282 V 404.6461 c 0,-8.1032 -6.5648,-14.6797 -14.6798,-14.6797 -8.1032,0 -14.6797,6.5765 -14.6797,14.6797 v 394.0638 c 0,23.8752 19.4242,43.2878 43.2877,43.2878 H 522.114 c 23.8517,0 43.2642,-19.4126 43.2642,-43.2878 V 291.3418 c 0,-23.8752 -19.4125,-43.2877 -43.2642,-43.2877" /><path
           id="path28"
           style="fill:#ffffff;fill-opacity:1;fill-rule:nonzero;stroke:none"
           d="m 245.3651,502.909 c -8.1032,0 -14.6798,6.5766 -14.6798,14.6798 v 309.7314 c 0,8.1033 6.5766,14.6798 14.6798,14.6798 8.1032,0 14.6798,-6.5765 14.6798,-14.6798 V 517.5888 c 0,-8.1032 -6.5766,-14.6798 -14.6798,-14.6798" /><path
           id="path30"
           style="fill:#ffffff;fill-opacity:1;fill-rule:nonzero;stroke:none"
           d="m 477.6613,656.4735 c -8.1032,0 -14.6798,6.5648 -14.6798,14.6798 v 79.6701 c 0,8.1149 6.5766,14.6797 14.6798,14.6797 8.115,0 14.6798,-6.5648 14.6798,-14.6797 v -79.6701 c 0,-8.115 -6.5648,-14.6798 -14.6798,-14.6798" /><path
           id="path32"
           style="fill:#ffffff;fill-opacity:1;fill-rule:nonzero;stroke:none"
           d="m 416.7638,656.4735 c -8.1033,0 -14.6798,6.5648 -14.6798,14.6798 v 79.6701 c 0,8.1149 6.5765,14.6797 14.6798,14.6797 8.1032,0 14.6797,-6.5648 14.6797,-14.6797 v -79.6701 c 0,-8.115 -6.5765,-14.6798 -14.6797,-14.6798" /></g></g></g></svg>
