<svg id="_·_ÀÌ_î_1" data-name="·¹ÀÌ¾î_1" xmlns="http://www.w3.org/2000/svg" viewBox="0 0 79.22 80.34"><defs><style>.cls-1{fill:#fff;}</style></defs><title>telefon</title><path class="cls-1" d="M876.88,575.94a38.07,38.07,0,0,1-9.36-1.63l-.44-.12a44.43,44.43,0,0,1-10.8-4.29c-.33-.19-.66-.36-1-.53s-.8-.41-1.18-.64a48.36,48.36,0,0,1-18.18-18.18c-.23-.38-.43-.78-.64-1.18s-.34-.67-.53-1a44.42,44.42,0,0,1-4.29-10.8l-.12-.44c-1.44-5.48-3.22-12.3,1-17h0c2.95-3.27,6.31-4.35,10.26-3.28,3.45.93,6.39,3.59,8.31,5.5,5.1,5.1,7,9,5.71,11.89-1.18,2.71-4.68,3.47-6.92,3.68,3,6.69,7.28,11.73,12.66,15l.34.21c1,.59,2.95,1.81,5,2.8.21-2.24,1-5.72,3.68-6.9,2.91-1.26,6.79.61,11.9,5.71,1.92,1.92,4.58,4.87,5.5,8.31,1.07,4,0,7.31-3.28,10.26A11,11,0,0,1,876.88,575.94Zm-38.08-57a7.31,7.31,0,0,0-5.56,2.85h0c-3.36,3.74-1.83,9.58-.48,14.73l.11.44a41.94,41.94,0,0,0,4,10.19c.21.36.4.73.59,1.1s.37.71.57,1.06a46,46,0,0,0,17.29,17.29c.35.2.71.39,1.06.57s.74.38,1.1.59a42,42,0,0,0,10.19,4l.44.11c5.16,1.35,11,2.88,14.73-.48,2.58-2.32,3.36-4.71,2.54-7.75-.77-2.87-3.14-5.48-4.86-7.19-5.55-5.55-8.1-5.63-9.13-5.19-2,.85-2.29,5.05-2.25,6.46a1.25,1.25,0,0,1-1.71,1.2,50.22,50.22,0,0,1-7-3.72l-.32-.2c-6.29-3.8-11.13-9.8-14.39-17.84a1.25,1.25,0,0,1,1.2-1.72c1.4,0,5.61-.28,6.46-2.24.44-1,.36-3.58-5.19-9.13-1.71-1.72-4.33-4.09-7.19-4.86A8.39,8.39,0,0,0,838.8,518.92Zm-6.49,2h0Z" transform="translate(-828.72 -495.6)"/><rect class="cls-1" x="875.01" y="515.29" width="4.64" height="4.47" transform="translate(-472.54 897.1) rotate(-89.76)"/><rect class="cls-1" x="884.09" y="515.32" width="4.63" height="4.47" transform="translate(-463.46 906.25) rotate(-89.77)"/><rect class="cls-1" x="893.16" y="515.36" width="4.63" height="4.47" transform="translate(-454.55 915.31) rotate(-89.76)"/><path class="cls-1" d="M867.42,539.75a1.25,1.25,0,0,1-1.23-1.49l1.9-9.81a21.53,21.53,0,1,1,34.27,3.15h0a21.65,21.65,0,0,1-25,5.1l-9.62,3A1.24,1.24,0,0,1,867.42,539.75Zm19-41.65a19,19,0,0,0-15.94,29.42,1.25,1.25,0,0,1,.18.92l-1.6,8.24,8.09-2.52a1.24,1.24,0,0,1,.92.07,19.13,19.13,0,0,0,22.45-4.31h0a19,19,0,0,0-14.1-31.83Z" transform="translate(-828.72 -495.6)"/></svg>