<?xml version="1.0" encoding="UTF-8" standalone="no"?>
<svg
   xmlns:dc="http://purl.org/dc/elements/1.1/"
   xmlns:cc="http://creativecommons.org/ns#"
   xmlns:rdf="http://www.w3.org/1999/02/22-rdf-syntax-ns#"
   xmlns:svg="http://www.w3.org/2000/svg"
   xmlns="http://www.w3.org/2000/svg"
   viewBox="0 0 793.33331 1122.6667"
   height="1122.6667"
   width="793.33331"
   xml:space="preserve"
   id="svg2"
   version="1.1"><metadata
     id="metadata8"><rdf:RDF><cc:Work
         rdf:about=""><dc:format>image/svg+xml</dc:format><dc:type
           rdf:resource="http://purl.org/dc/dcmitype/StillImage" /></cc:Work></rdf:RDF></metadata><defs
     id="defs6"><clipPath
       id="clipPath20"
       clipPathUnits="userSpaceOnUse"><path
         id="path18"
         d="m 0,207.375 h 594.9977 v 427.25 H 0 Z" /></clipPath></defs><g
     transform="matrix(1.3333333,0,0,-1.3333333,0,1122.6667)"
     id="g10"><g
       id="g12" /><g
       id="g14"><g
         clip-path="url(#clipPath20)"
         id="g16"><path
           id="path22"
           style="fill:#ffffff;fill-opacity:1;fill-rule:nonzero;stroke:none"
           d="m 542.9245,375.125 h -40.0712 c -5.3356,0 -9.666,4.3226 -9.666,9.6659 v 85.8647 c 0,5.3356 4.3304,9.6659 9.666,9.6659 h 40.0712 c 5.3356,0 9.6659,-4.3303 9.6659,-9.6659 0,-5.3434 -4.3303,-9.666 -9.6659,-9.666 h -30.4053 v -66.5327 h 30.4053 c 5.3356,0 9.6659,-4.3304 9.6659,-9.666 0,-5.3433 -4.3303,-9.6659 -9.6659,-9.6659" /><path
           id="path24"
           style="fill:#ffffff;fill-opacity:1;fill-rule:nonzero;stroke:none"
           d="m 569.8685,259.9941 h -53.0313 c -5.3433,0 -9.666,4.3304 -9.666,9.666 0,5.3356 4.3227,9.666 9.666,9.666 h 53.0313 c 3.1395,0 5.7996,2.66 5.7996,5.7995 v 51.4925 c 0,3.1395 -2.6601,5.7996 -5.7996,5.7996 h -6.6347 c -13.8571,0 -25.1315,11.2744 -25.1315,25.1315 v 129.8795 c 0,3.1473 -2.6601,5.7996 -5.7996,5.7996 H 368.3836 c -3.1395,0 -5.7996,-2.6523 -5.7996,-5.7996 v -99.281 c 0,-5.3356 -4.3226,-9.6659 -9.666,-9.6659 H 26.35559 c -3.03125,0 -5.42067,-0.3944 -7.02136,-0.8197 V 280.1457 c 1.60069,-0.4253 3.99011,-0.8196 7.02136,-0.8196 h 53.1705 c 5.3356,0 9.66595,-4.3304 9.66595,-9.666 0,-5.3356 -4.33035,-9.666 -9.66595,-9.666 h -53.1705 c -15.75938,0 -26.35327017,6.4724 -26.35327017,16.0997 v 115.6203 c 0,9.6273 10.59389017,16.0996 26.35327017,16.0996 H 343.2521 v 89.615 c 0,13.8571 11.2743,25.1315 25.1315,25.1315 h 163.9191 c 13.8571,0 25.1315,-11.2744 25.1315,-25.1315 V 367.5492 c 0,-3.1395 2.6524,-5.7996 5.7996,-5.7996 h 6.6347 c 13.8571,0 25.1315,-11.2744 25.1315,-25.1315 v -51.4925 c 0,-13.8571 -11.2744,-25.1315 -25.1315,-25.1315" /><path
           id="path26"
           style="fill:#ffffff;fill-opacity:1;fill-rule:nonzero;stroke:none"
           d="M 386.2981,259.9941 H 201.8097 c -5.3433,0 -9.6659,4.3304 -9.6659,9.666 0,5.3356 4.3226,9.666 9.6659,9.666 h 184.4884 c 5.3356,0 9.6659,-4.3304 9.6659,-9.666 0,-5.3356 -4.3303,-9.666 -9.6659,-9.666" /><path
           id="path28"
           style="fill:#ffffff;fill-opacity:1;fill-rule:nonzero;stroke:none"
           d="m 453.6582,312.6133 c -23.6777,0 -42.9555,-19.2701 -42.9555,-42.9555 0,-23.6777 19.2778,-42.9478 42.9555,-42.9478 23.6854,0 42.9555,19.2701 42.9555,42.9478 0,23.6854 -19.2701,42.9555 -42.9555,42.9555 m 0,-105.2352 c -34.3412,0 -62.2874,27.9385 -62.2874,62.2797 0,34.3489 27.9462,62.2874 62.2874,62.2874 34.3412,0 62.2874,-27.9385 62.2874,-62.2874 0,-34.3412 -27.9462,-62.2797 -62.2874,-62.2797" /><path
           id="path30"
           style="fill:#ffffff;fill-opacity:1;fill-rule:nonzero;stroke:none"
           d="m 144.1055,312.6133 c -23.6855,0 -42.9555,-19.2701 -42.9555,-42.9555 0,-23.6777 19.27,-42.9478 42.9555,-42.9478 23.6855,0 42.9555,19.2701 42.9555,42.9478 0,23.6854 -19.27,42.9555 -42.9555,42.9555 m 0,-105.2352 c -34.3412,0 -62.28742,27.9385 -62.28742,62.2797 0,34.3489 27.94622,62.2874 62.28742,62.2874 34.3412,0 62.2874,-27.9385 62.2874,-62.2874 0,-34.3412 -27.9462,-62.2797 -62.2874,-62.2797" /><path
           id="path32"
           style="fill:#ffffff;fill-opacity:1;fill-rule:nonzero;stroke:none"
           d="M 41.04552,407.816 H 313.3935 V 615.2939 H 41.04552 Z M 323.0518,388.4841 H 31.37956 c -5.34334,0 -9.66595,4.3226 -9.66595,9.666 v 226.8097 c 0,5.3356 4.32261,9.666 9.66595,9.666 H 323.0518 c 5.3433,0 9.6659,-4.3304 9.6659,-9.666 V 398.1501 c 0,-5.3434 -4.3226,-9.666 -9.6659,-9.666" /><path
           id="path34"
           style="fill:#ffffff;fill-opacity:1;fill-rule:nonzero;stroke:none"
           d="m 224.4768,394.2906 c -5.3356,0 -9.666,4.3227 -9.666,9.666 v 213.2697 c 0,5.3356 4.3304,9.6659 9.666,9.6659 5.3356,0 9.6659,-4.3303 9.6659,-9.6659 V 403.9566 c 0,-5.3433 -4.3303,-9.666 -9.6659,-9.666" /><path
           id="path36"
           style="fill:#ffffff;fill-opacity:1;fill-rule:nonzero;stroke:none"
           d="m 137.0671,394.2906 c -5.3356,0 -9.6659,4.3227 -9.6659,9.666 v 213.2697 c 0,5.3356 4.3303,9.6659 9.6659,9.6659 5.3357,0 9.666,-4.3303 9.666,-9.6659 V 403.9566 c 0,-5.3433 -4.3303,-9.666 -9.666,-9.666" /><path
           id="path38"
           style="fill:#ffffff;fill-opacity:1;fill-rule:nonzero;stroke:none"
           d="M 396.8626,350.1288 H 17.24561 c -5.3356,0 -9.665953,4.3304 -9.665953,9.666 0,5.3356 4.330353,9.6659 9.665953,9.6659 H 396.8626 c 5.3356,0 9.6659,-4.3303 9.6659,-9.6659 0,-5.3356 -4.3303,-9.666 -9.6659,-9.666" /></g></g></g></svg>
