<svg id="Layer_1" data-name="Layer 1" xmlns="http://www.w3.org/2000/svg" viewBox="0 0 175.7 176.49"><defs><style>.cls-1{fill:#fff;}</style></defs><title>Vector Smart Object</title><g id="logo"><path class="cls-1" d="M363.13,358.24A87.49,87.49,0,0,0,225.44,463.76L213,509.08l46.38-12.16a87.44,87.44,0,0,0,41.81,10.64h0a87.49,87.49,0,0,0,61.88-149.33ZM301.25,492.79h0a72.62,72.62,0,0,1-37-10.13l-2.66-1.58L234,488.3l7.35-26.82-1.73-2.75a72.72,72.72,0,1,1,61.6,34.06Zm39.88-54.44c-2.19-1.09-12.93-6.38-14.94-7.11s-3.46-1.09-4.92,1.09-5.65,7.11-6.92,8.57-2.55,1.64-4.74.55A59.7,59.7,0,0,1,292,430.6a65.86,65.86,0,0,1-12.16-15.14c-1.27-2.19-.14-3.37,1-4.46s2.19-2.55,3.28-3.83a14.91,14.91,0,0,0,2.19-3.65,4,4,0,0,0-.18-3.83c-.55-1.09-4.92-11.85-6.74-16.23s-3.58-3.68-4.92-3.75-2.73-.08-4.19-.08a8,8,0,0,0-5.83,2.73c-2,2.19-7.65,7.47-7.65,18.23s7.83,21.15,8.93,22.6,15.41,23.53,37.34,33a125.46,125.46,0,0,0,12.46,4.6,30,30,0,0,0,13.77.87c4.2-.63,12.93-5.29,14.75-10.39s1.82-9.48,1.28-10.39S343.32,439.45,341.14,438.35Z" transform="translate(-213.03 -332.59)"/></g></svg>