<svg id="Layer_1" data-name="Layer 1" xmlns="http://www.w3.org/2000/svg" viewBox="0 0 183.46 28.06"><defs><style>.cls-1{fill:#782b90;}</style></defs><title>world</title><path class="cls-1" d="M102.8,99.3V94.45a.22.22,0,0,1,.07-.18.24.24,0,0,1,.16-.07c1.32,0,2.68,0,4,0s2.53,0,3.73.06c1.64,0,2.42.78,2.42,2.37,0,2-.79,2.87-2.5,2.92-1.2,0-2.43.05-3.65.05s-2.7,0-4,0C102.8,99.38,102.8,99.3,102.8,99.3Zm23.32,13.52a98.81,98.81,0,0,0-9.09-8.06l-.43-.34.54-.09a9,9,0,0,0,7.22-8.65c0-3.77-.91-7.21-5.61-8.59-4.17-1.22-26.19-.51-26.19-.51a.49.49,0,0,0-.45.47v26.12a.48.48,0,0,0,.48.48h9.75a.47.47,0,0,0,.47-.47v-8.44a.26.26,0,0,1,.12-.21.24.24,0,0,1,.29,0s6.81,5.83,9.55,8.95a.44.44,0,0,0,.33.15h12.69a.48.48,0,0,0,.34-.84ZM88.69,100.24c0,5.38-.9,10.66-5.72,12.58-2.26.9-6.22,1.47-11.64,1.47s-9.42-.56-11.68-1.47c-4.82-1.92-5.73-7.2-5.73-12.58s.91-10.62,5.73-12.54c2.26-.9,6.25-1.47,11.68-1.47s9.38.57,11.64,1.47C87.79,89.61,88.69,94.85,88.69,100.24Zm-11.53.19c0-4.11-.94-5.46-5.8-5.46s-5.84,1.35-5.84,5.46,1,5.46,5.84,5.46S77.17,104.53,77.17,100.42Zm92.53,4.13V96.17a.24.24,0,0,1,.22-.25c1.28-.1,3.12-.17,4.79-.17,5.16,0,5.54,1,5.54,4.67s-.38,4.67-5.54,4.67c-1.73,0-4.62-.17-4.62-.17C169.71,104.92,169.69,104.77,169.69,104.55Zm21.81-4.28c0-5.39-.94-10.29-5.72-12.32-3.19-1.35-8.67-1.5-11.45-1.46-9.34.15-14.82.71-14.82.71a.48.48,0,0,0-.44.49v25.14a.49.49,0,0,0,.38.47,140.31,140.31,0,0,0,14.88.75c2.78,0,8.66-.38,11.45-1.51C190.6,110.63,191.5,105.66,191.5,100.27ZM129,87.32a.49.49,0,0,1,.49-.5h9.73a.49.49,0,0,1,.49.5v16.9a.24.24,0,0,0,.24.23h15.89a.49.49,0,0,1,.48.5v8.22a.48.48,0,0,1-.49.47H129.52a.49.49,0,0,1-.48-.48Zm-76.6-.5a.48.48,0,0,1,.46.62L46,113.27a.54.54,0,0,1-.49.38H34.13a.5.5,0,0,1-.48-.38l-3-11.94c-.09-.36-.27-.36-.37,0l-2.88,11.94a.49.49,0,0,1-.48.38H15.37a.5.5,0,0,1-.49-.38L8.05,87.41a.48.48,0,0,1,.48-.58H19.85a.47.47,0,0,1,.47.41l2.38,12.71c.06.32.33.32.39,0l2.54-12.71a.49.49,0,0,1,.48-.4H35a.48.48,0,0,1,.47.39l2.41,12.73c.06.32.3.32.36,0l2.58-12.73a.5.5,0,0,1,.47-.38Z" transform="translate(-8.04 -86.22)"/></svg>