<?xml version="1.0" encoding="utf-8"?>
<!-- Generator: Adobe Illustrator 22.0.1, SVG Export Plug-In . SVG Version: 6.00 Build 0)  -->
<svg version="1.1" id="Layer_1" xmlns="http://www.w3.org/2000/svg" xmlns:xlink="http://www.w3.org/1999/xlink" x="0px" y="0px"
	 viewBox="0 0 475 130" style="enable-background:new 0 0 475 130;" xml:space="preserve">
<style type="text/css">
	.st0{fill:#1D1D1B;}
	.st1{fill:#A73439;}
	.st2{fill:#E1251B;}
	.st3{fill:#E30918;}
	.st4{opacity:0.3;}
	.st5{fill-rule:evenodd;clip-rule:evenodd;fill:#272C30;}
	.st6{fill:#272C30;}
</style>
<symbol  id="ZiraatBankası_Extra" viewBox="-170.9 -29.7 341.8 72.3">
	<g>
		<g>
			<path class="st0" d="M-92.7-9.8h-17.9l17.8,29.5c0,0,0,0,0,0.1v5c0,0.1-0.1,0.2-0.1,0.2h-23.5c-0.1,0-0.1,0-0.1-0.1l-1.4-5.3
				c0,0,0-0.1,0-0.1c0,0,0.1-0.1,0.1-0.1h17.2l-18.2-29.7c0,0,0-0.1,0-0.1v-4.9c0-0.1,0.1-0.1,0.1-0.1h24.4c0.1,0,0.1,0,0.1,0.1
				l1.6,5.3c0,0,0,0.1,0,0.1C-92.6-9.8-92.7-9.8-92.7-9.8z"/>
			<path class="st0" d="M-85.7,25.2c-2.5,0-4.4-2-4.4-4.4c0-2.4,1.9-4.4,4.3-4.4c2.4,0,4.4,2,4.4,4.4
				C-81.4,23.2-83.3,25.2-85.7,25.2z"/>
			<path class="st0" d="M-82.6,14.9L-82.6,14.9l-6.4-1.2c-0.1,0-0.1-0.1-0.1-0.2v-28.9c0-0.1,0.1-0.1,0.1-0.1h6.4
				c0.1,0,0.2,0.1,0.2,0.1v30.1C-82.4,14.8-82.4,14.9-82.6,14.9C-82.5,14.9-82.5,14.9-82.6,14.9z"/>
			<path class="st0" d="M2.9-10.8C2.9-10.8,2.8-10.8,2.9-10.8c-0.1,0-0.1,0-0.1,0c-1.1-0.4-1.9-0.6-2.7-0.6c-2.7,0-3.4,1-3.4,4.5
				v17.1h5.2c0.1,0,0.1,0,0.1,0.1l1.7,4.4c0,0,0,0.1,0,0.1c0,0-0.1,0.1-0.1,0.1h-6.9v7.9c0,0,0,0.1-0.1,0.1c0,0-0.1,0-0.1,0h0
				l-6.3-1.1c-0.1,0-0.1-0.1-0.1-0.1v-6.8H-13c-0.1,0-0.1-0.1-0.1-0.1v-4.4c0-0.1,0.1-0.1,0.1-0.1h3.1V-8.5c0-3.5,1.4-7.7,7.8-7.7
				c2,0,3.9,0.4,5.8,1.3c0.1,0,0.1,0.1,0.1,0.2L2.9-10.8C2.9-10.9,2.9-10.8,2.9-10.8z"/>
			<path class="st0" d="M-41.2,10c-1.3,3.2-4.4,5-9.1,5c-3,0-5.7-0.6-8.5-1.8c0,0-0.1-0.1-0.1-0.1L-60,6.8c0-0.1,0-0.1,0.1-0.2
				c0,0,0.1,0,0.1,0c0.1,0,0.1,0,0.1,0c0.1,0.1,4.5,3.3,8.6,3.3c3.3,0,3.9-1.6,3.9-5V3h-1.8c-9.6,0-14.6-3.6-14.6-10.3
				c0-5.7,3.6-9,9.9-9c2.5,0,4.6,0.6,6.4,2v-1.8c0-0.1,0.1-0.1,0.2-0.1h6.4c0.1,0,0.2,0.1,0.2,0.1V2.7C-40.7,7.2-40.7,8.7-41.2,10z
				 M-47.5-8.4c-1.3-1.9-3.2-3-5.1-3c-2.4,0-3.9,1.6-3.9,4.4c0,3.2,1.4,5.4,8.1,5.4c0.3,0,0.7,0,0.9,0V-8.4z"/>
			<path class="st0" d="M-15.7,10c-1.3,3.2-4.4,5-9.1,5c-3,0-5.7-0.6-8.5-1.8c0,0-0.1-0.1-0.1-0.1l-1.2-6.8c0-0.1,0-0.1,0.1-0.1
				c0,0,0,0,0.1,0c0,0,0.1,0,0.1,0c0,0,4.5,3.3,8.7,3.3c3.3,0,3.9-1.6,3.9-5V3h-1.8c-9.6,0-14.6-3.6-14.6-10.3c0-5.7,3.6-9,9.9-9
				c2.5,0,4.6,0.6,6.4,2v-1.8c0-0.1,0.1-0.1,0.1-0.1h6.4c0.1,0,0.1,0.1,0.1,0.1V2.7C-15.2,7.2-15.2,8.7-15.7,10z M-22-8.4
				c-1.3-1.9-3.2-3-5.1-3c-2.4,0-3.9,1.6-3.9,4.4c0,3.2,1.4,5.4,8.1,5.4c0.3,0,0.7,0,0.9,0V-8.4z"/>
			<path class="st0" d="M-63,7.4L-63,7.4c0.1,0,0.1,0,0.1,0c0.1,0,0.1,0.1,0.1,0.1l1.1,6c0,0.1,0,0.1-0.1,0.2
				c-0.7,0.3-1.3,0.4-2.2,0.4c-2.8,0-5-1.4-7.3-4.4v5.1c0,0,0,0.1-0.1,0.1c0,0-0.1,0-0.1,0l0,0l-5.9-1c-0.1,0-0.1-0.1-0.1-0.2v-29
				c0-0.1,0.1-0.1,0.1-0.1h6.4c0.1,0,0.1,0.1,0.1,0.1l0,19.1c0.6,2.4,2.9,4.2,5.4,4.2c0.6,0,1.6-0.4,2.2-0.6L-63,7.4z"/>
		</g>
		<g>
			<path class="st0" d="M37.3,4.1c-1.2,0.9-3,1.7-4.7,2c1.9,0.7,3.2,1.6,3.9,2.3c2.3,2.1,2.8,4.7,2.8,6.4c0,3.1-1.6,6.1-4.3,8
				c-3.3,2.2-7.4,2.2-11,2.2h-9.4c-0.1,0-0.1-0.1-0.1-0.1v-40.1c0-0.1,0.1-0.2,0.1-0.2h10.3c5.7,0,9.7,0.2,12.8,3.2
				c2,1.9,3.2,4.8,3.2,7.9C40.9-0.7,39.6,2.4,37.3,4.1z M19.3,20.9h5.5l1.1,0c1.7,0,3.7-0.1,5.4-1.5c1.5-1.2,2.3-3.1,2.3-5.1
				c0-2-0.7-3.8-2-4.9c-1.8-1.5-4.1-1.5-5.2-1.5h-7.1V20.9z M33.6-9.4c-1.6-1.5-4-1.7-5.9-1.7h-8.4V3.6h6.9c2.3,0,4.9,0,6.8-1.4
				c1-0.7,2.6-2.5,2.6-6.2C35.6-7.2,34.3-8.8,33.6-9.4z"/>
			<path class="st0" d="M81.8,14.7c-1.7,0-3.3-0.4-5-1.3c-1.5-0.8-2.8-1.8-4-3v4.3c0,0,0,0.1-0.1,0.1c0,0-0.1,0-0.1,0h0l-4.5-0.8
				c-0.1,0-0.1-0.1-0.1-0.1v-29.1c0-0.1,0.1-0.2,0.1-0.2h4.6c0.1,0,0.1,0.1,0.1,0.2V6.5c1,1.1,2.2,2,3.7,2.7c1.6,0.8,3,1.3,4.2,1.3
				c1.3,0,2.4-0.4,3.1-1.2c1-1.1,1-2.8,1-4.5v-19.9c0-0.1,0.1-0.2,0.2-0.2h4.6c0.1,0,0.2,0.1,0.2,0.2V6.9c0,0.8,0,1.8-0.7,3.5
				C88,12.4,85.6,14.7,81.8,14.7z"/>
			<path class="st0" d="M103.9,1.3l12,13.3c0,0,0,0.1,0,0.2c0,0.1-0.1,0.1-0.1,0.1H110c0,0-0.1,0-0.1,0L98.3,1.5v23.4
				c0,0,0,0.1-0.1,0.1c0,0-0.1,0-0.1,0h-0.1l-4.6-0.8c-0.1,0-0.1-0.1-0.1-0.1v-39.3c0-0.1,0.1-0.2,0.1-0.2h4.6
				c0.1,0,0.1,0.1,0.1,0.2V1.1l13.3-16.4c0,0,0.1-0.1,0.1-0.1h6.1c0.1,0,0.1,0,0.1,0.1c0,0.1,0,0.1,0,0.2L103.9,1.3z"/>
			<path class="st0" d="M55.6,14.8c-2.1,0-4.3-0.4-6.4-1.1c-0.8-0.3-1.7-0.6-2.6-1.1c0,0-0.1-0.1-0.1-0.1l-0.9-5.1
				c0-0.1,0-0.1,0.1-0.1c0,0,0.1,0,0.1,0c0,0,0.1,0,0.1,0c1.3,1,2.5,1.7,4,2.3c0.7,0.3,2.9,1.1,5.1,1.1c1.1,0,2.6-0.2,3.7-1.4
				c0.9-1.1,1-2.3,1-3.4V2.9c-0.5,0-1.1,0-1.8,0c-3.3,0-8-0.5-11.4-2.7c-2.8-1.9-4.2-4.5-4.2-7.9c0-5.3,3.5-8.4,9.5-8.4
				c1.9,0,4.7,0.3,7.7,3.1v-3c0-0.1,0.1-0.1,0.1-0.1h4.5c0.1,0,0.1,0.1,0.1,0.1V5.1c0,0.3,0,0.6,0,0.9c0,1.4,0,3-0.4,4.3
				C63.3,11.9,61.4,14.8,55.6,14.8z M59.5-7.9c-1.7-3.2-4.7-4.4-7-4.4c-1.5,0-2.7,0.5-3.6,1.3c-0.6,0.6-1.2,1.7-1.2,3.8
				c0,2,0.6,3.6,1.8,4.7c1.9,1.8,5.8,2.1,8,2.1c0.6,0,1.1,0,1.6-0.1l0.5,0V-7.9z"/>
			<path class="st0" d="M130.2,14.8c-2.1,0-4.3-0.4-6.4-1.1c-0.8-0.3-1.7-0.6-2.6-1.1c0,0-0.1-0.1-0.1-0.1l-0.9-5.1
				c0-0.1,0-0.1,0.1-0.1c0,0,0,0,0,0c0.1,0,0.1,0,0.1,0c1.3,1,2.5,1.7,4.1,2.3c0.7,0.3,2.9,1.1,5.1,1.1c1.1,0,2.6-0.2,3.7-1.4
				c0.9-1.1,1-2.3,1-3.4V2.9c-0.5,0-1.1,0-1.8,0c-3.3,0-8-0.5-11.4-2.7c-2.8-1.9-4.2-4.5-4.2-7.9c0-5.3,3.6-8.4,9.5-8.4
				c1.9,0,4.7,0.3,7.8,3.1v-3c0-0.1,0.1-0.1,0.1-0.1h4.5c0.1,0,0.1,0.1,0.1,0.1V5.1c0,0.3,0,0.6,0,0.9c0,1.4,0,3-0.4,4.3
				C137.9,11.9,136,14.8,130.2,14.8z M134.1-7.9c-1.7-3.2-4.7-4.4-7-4.4c-1.5,0-2.7,0.5-3.6,1.3c-0.6,0.6-1.2,1.7-1.2,3.8
				c0,2,0.6,3.6,1.8,4.7c1.9,1.8,5.8,2.1,8,2.1c0.6,0,1.1,0,1.6-0.1l0.4,0V-7.9z"/>
			<path class="st0" d="M156.3,1.6l-3.8,0.9c-3,0.7-4.2,1.9-4.2,4.1c0,2.7,2.1,4.5,5.2,4.5c2.1,0,4.1-0.6,6.9-2c0,0,0,0,0,0
				c0,0,0.1,0,0.1,0c0.1,0,0.1,0,0.1,0.1l1.6,3.3c0,0.1,0,0.1-0.1,0.2c-2.6,1.4-5.7,2.2-8.9,2.2c-6.2,0-10.4-3.6-10.4-8.9
				c0-4.3,2.4-7,7-7.9l3.5-0.7c3.4-0.6,5-2.2,5-4.7c0-2.9-2.2-4.9-5.6-4.9c-2.7,0-5.8,0.9-9.2,2.8c0,0,0,0,0,0s-0.1,0-0.1,0
				c0,0-0.1,0-0.1-0.1l-1.7-3.3c0-0.1,0-0.2,0.1-0.2c3.3-1.9,7.1-2.9,10.5-2.9c6.8,0,11.3,3.9,11.3,9.6
				C163.7-2.3,161.2,0.5,156.3,1.6z"/>
			<path class="st0" d="M170.9,14.8C170.8,14.8,170.8,14.8,170.9,14.8c-0.1,0-0.1,0-0.1,0l-4.6-0.8c-0.1,0-0.1-0.1-0.1-0.1v-29.1
				c0-0.1,0.1-0.2,0.2-0.2h4.6c0.1,0,0.1,0.1,0.1,0.2v29.9C170.9,14.7,170.9,14.8,170.9,14.8z"/>
		</g>
	</g>
	<g>
		<path class="st1" d="M-156.1,5.3c0.8,0.7,0.4,1.6-0.1,2.2c-0.3,0.3-0.5,0.6-0.6,0.6l-3.3-2.8l2-1.7L-156.1,5.3z"/>
		<path class="st2" d="M-156.4-9.1c0.1-0.1,0.2-0.2,0.3-0.2c0.1,0,0.2-0.1,0.4-0.1c0.1,0,0.3,0,0.4,0.1c0.1,0,0.2,0.1,0.3,0.2
			c0.1,0.1,0.2,0.2,0.2,0.3c0,0.1,0.1,0.2,0.1,0.4v3.7V-1c0,0.5-0.1,1.1-0.3,1.5c-0.2,0.5-0.5,0.9-0.8,1.2L-169.3,13
			c-0.1,0.1-0.2,0.2-0.3,0.2c-0.1,0-0.2,0.1-0.4,0.1c-0.1,0-0.3,0-0.4-0.1c-0.1,0-0.2-0.1-0.3-0.2c-0.1-0.1-0.2-0.2-0.2-0.3
			c0-0.1-0.1-0.2-0.1-0.4V4.9c0-0.5,0.1-1,0.3-1.5c0.2-0.5,0.5-0.9,0.8-1.2L-156.4-9.1z"/>
		<path class="st1" d="M-166.8-0.3L-166.8-0.3l-2.7-2.3c-0.3-0.3-0.4-0.5-0.4-0.8l0,0c0,0,0-0.1,0-0.1l0,0c0,0,0-0.1,0-0.1
			c0,0,0-0.1,0-0.1c0-0.1,0-0.2,0.1-0.2c0,0,0,0,0,0c0-0.1,0.1-0.2,0.1-0.2l0,0c0-0.1,0.1-0.2,0.1-0.2c0,0,0,0,0,0
			c0.1-0.1,0.1-0.2,0.2-0.2c0.1-0.1,0.1-0.1,0.2-0.2c0,0,0,0,0,0c0.1-0.1,0.1-0.1,0.2-0.2c0.1-0.1,0.2-0.2,0.3-0.3l4,3.4v0
			L-166.8-0.3z"/>
		<path class="st2" d="M-155.1-17.5c-0.2,0.5-0.5,0.9-0.8,1.2l-13,10.9c0,0-0.1,0.1-0.2,0.2l0,0c0,0-0.1,0.1-0.1,0.1c0,0,0,0,0,0
			c-0.1,0.1-0.1,0.1-0.2,0.2c-0.1,0.1-0.1,0.2-0.2,0.2c0,0,0,0,0,0c-0.1,0.1-0.1,0.2-0.1,0.2l0,0c0,0.1-0.1,0.2-0.1,0.2c0,0,0,0,0,0
			c0,0.1,0,0.2-0.1,0.2l0,0c0,0,0,0,0,0c0,0,0,0,0,0.1l0,0.1c0,0,0,0.1,0,0.1l0,0c0,0.3,0.1,0.6,0.4,0.8l-0.1-0.1c0,0,0,0-0.1-0.1
			c-0.2-0.2-0.4-0.4-0.6-0.9l0,0c-0.2-0.5-0.5-1.3-0.5-2.3c0-0.1,0-0.3,0-0.4c0-0.1,0-0.3,0-0.4c0,0,0-8.8,0-8.8
			c0-0.5,0.1-1,0.3-1.5c0.2-0.5,0.5-0.9,0.8-1.2l13.4-11.2c0.1-0.1,0.2-0.2,0.3-0.2c0.1,0,0.2-0.1,0.4-0.1c0.1,0,0.3,0,0.4,0.1
			c0.1,0,0.2,0.1,0.3,0.2c0.1,0.1,0.2,0.2,0.2,0.3c0,0.1,0.1,0.2,0.1,0.4v9.7C-154.7-18.5-154.9-18-155.1-17.5z"/>
		<path class="st2" d="M-155.1,19.7c-0.2,0.5-0.5,0.9-0.8,1.2l-13.4,11.2c-0.1,0.1-0.2,0.2-0.3,0.2c-0.1,0-0.2,0.1-0.4,0.1
			c-0.1,0-0.3,0-0.4-0.1c-0.1,0-0.2-0.1-0.3-0.2c-0.1-0.1-0.2-0.2-0.2-0.3c0-0.1-0.1-0.2-0.1-0.4v-4.9v-4.9c0-0.5,0.1-1,0.3-1.5
			c0.2-0.5,0.5-0.9,0.8-1.2l13-10.9c0,0,0.1-0.1,0.2-0.2c0.1-0.1,0.2-0.3,0.4-0.4c0.2-0.3,0.4-0.7,0.5-1.1c0.1-0.4,0-0.8-0.4-1.1
			c0,0,0.4,0.3,0.7,1l0,0c0.2,0.5,0.5,1.2,0.5,2.3c0,0.1,0,0.2,0,0.4c0,0.1,0,0.3,0,0.4c0,0,0,2.2,0,4.4c0,2.2,0,4.3,0,4.3
			C-154.7,18.7-154.9,19.2-155.1,19.7z"/>
		<g>
			<path class="st1" d="M-150.7-9.3v-6.8l2.6,2.2v6.8l-0.2-0.1l-2.2-1.9C-150.5-9.2-150.6-9.2-150.7-9.3z"/>
			<path class="st1" d="M-148,9.8l-0.1-0.1l-2.2-1.9c-0.1-0.1-0.1-0.1-0.2-0.2l0,0V2l2.6,2.2V9.8z"/>
			<path class="st2" d="M-136.4,7.4c0.3,0.4,0.5,0.9,0.5,1.6v22.5c0,0.1,0,0.3-0.1,0.4c0,0.1-0.1,0.2-0.2,0.3
				c-0.1,0.1-0.2,0.2-0.3,0.2c-0.1,0.1-0.2,0.1-0.4,0.1c-0.1,0-0.3,0-0.4-0.1c-0.1,0-0.2-0.1-0.3-0.2L-150.9,21
				c-0.3-0.4-0.6-0.8-0.8-1.2c-0.2-0.5-0.3-1-0.3-1.5V8.5c0-0.1,0-0.3,0.1-0.4c0-0.1,0.1-0.2,0.2-0.3c0.1-0.1,0.2-0.2,0.3-0.2
				c0.1,0,0.2-0.1,0.4-0.1c0.1,0,0.3,0,0.4,0.1c0,0,0.1,0,0.1,0c0.1,0,0.2,0.1,0.2,0.2l2.2,1.9l8,6.7c0.1,0.1,0.2,0.2,0.3,0.2
				c0.1,0.1,0.2,0.1,0.4,0.1c0.1,0,0.3,0,0.4-0.1c0.1-0.1,0.2-0.1,0.3-0.2c0.1-0.1,0.2-0.2,0.2-0.3c0-0.1,0.1-0.2,0.1-0.4V14
				c0-0.5-0.1-1.1-0.3-1.5c-0.2-0.5-0.5-0.9-0.8-1.2l-8.3-7v0l-2.6-2.2l0,0l-0.3-0.2c-0.3-0.4-0.6-0.8-0.8-1.2
				c-0.2-0.5-0.3-1-0.3-1.5v-7.5c0-0.1,0-0.3,0.1-0.4c0-0.1,0.1-0.2,0.2-0.3c0.1-0.1,0.2-0.2,0.3-0.2c0.1-0.1,0.2-0.1,0.4-0.1
				c0.1,0,0.3,0,0.4,0.1c0,0,0,0,0.1,0c0.1,0,0.2,0.1,0.2,0.2l2.2,1.9l8,6.7c0.1,0.1,0.2,0.2,0.3,0.2c0.1,0.1,0.2,0.1,0.4,0.1
				c0.1,0,0.3,0,0.4-0.1c0.1,0,0.2-0.1,0.3-0.2c0.1-0.1,0.2-0.2,0.2-0.3c0-0.1,0.1-0.2,0.1-0.4v-3c0-0.5-0.1-1-0.3-1.5
				c-0.2-0.5-0.5-0.9-0.8-1.2l-11.2-9.4c-0.3-0.3-0.6-0.8-0.8-1.2c-0.2-0.5-0.3-1-0.3-1.5v-9.7c0-0.1,0-0.3,0.1-0.4
				c0-0.1,0.1-0.2,0.2-0.3c0.1-0.1,0.2-0.2,0.3-0.2c0.1,0,0.2-0.1,0.4-0.1c0.1,0,0.3,0,0.4,0.1c0.1,0,0.2,0.1,0.3,0.2l13.4,11.3
				c0.4,0.4,0.6,0.8,0.8,1.2c0.2,0.5,0.3,1,0.3,1.5V5.7c0,0.1,0,0.2-0.1,0.3c0,0.1-0.1,0.2-0.2,0.3c-0.1,0.1-0.2,0.2-0.3,0.2
				c-0.1,0-0.2,0.1-0.4,0.1c-0.1,0-0.3,0-0.4-0.1c-0.1,0-0.2-0.1-0.2-0.1C-137,6.7-136.7,7-136.4,7.4z"/>
		</g>
		<path class="st2" d="M-154.8,37c0,0.1-0.1,0.1-0.1,0.1l-6.3,5.2c0,0-0.1,0.1-0.1,0.1c0,0-0.1,0-0.1,0c0,0-0.1,0-0.1,0
			c0,0-0.1,0-0.1,0c-0.1-0.1-0.2-0.1-0.2-0.2c0-0.1-0.1-0.2-0.1-0.2v-3.9c0-0.1,0-0.1,0-0.2c0-0.1,0.1-0.1,0.1-0.2l2-1.6v-3.7
			l-0.7,0.6c0,0-0.1,0.1-0.1,0.1c0,0-0.1,0-0.2,0c0,0-0.1,0-0.1,0c0,0-0.1,0-0.1,0c-0.1-0.1-0.2-0.1-0.2-0.2c0-0.1-0.1-0.2-0.1-0.2
			v-3.7c0-0.1,0-0.1,0-0.2c0-0.1,0.1-0.1,0.1-0.2l4.5-3.8c0,0,0.1-0.1,0.1-0.1c0.1,0,0.1,0,0.2,0c0,0,0.1,0,0.1,0c0,0,0.1,0,0.1,0
			c0.1,0,0.1,0.1,0.2,0.2c0,0.1,0.1,0.1,0.1,0.2V29c0,0.1,0,0.1,0,0.2c0,0.1-0.1,0.1-0.1,0.2l-0.9,0.7v3.6l1.4-1.2
			c0,0,0.1-0.1,0.1-0.1c0,0,0.1,0,0.2,0c0,0,0.1,0,0.1,0c0,0,0.1,0,0.1,0c0.1,0,0.1,0.1,0.2,0.2c0,0.1,0.1,0.2,0.1,0.2v4
			C-154.7,36.9-154.8,37-154.8,37z"/>
		<path class="st2" d="M-145.1,37.7c0,0,0.1,0.1,0.1,0.2c0,0.1,0,0.1,0,0.2v4c0,0.1,0,0.2-0.1,0.2c0,0.1-0.1,0.1-0.2,0.2
			c0,0-0.1,0-0.1,0c0,0-0.1,0-0.1,0c0,0-0.1,0-0.1,0c0,0-0.1,0-0.1-0.1l-6.2-5.2c-0.1,0-0.1-0.1-0.1-0.2c0-0.1,0-0.1,0-0.2V24.4
			c0-0.1,0-0.2,0.1-0.2c0-0.1,0.1-0.1,0.2-0.2c0,0,0.1,0,0.1,0c0,0,0.1,0,0.1,0c0.1,0,0.1,0,0.2,0c0.1,0,0.1,0,0.1,0.1l6.2,5.2
			c0,0,0.1,0.1,0.1,0.2c0,0.1,0,0.1,0,0.2v3.7c0,0.1,0,0.2-0.1,0.2c0,0.1-0.1,0.1-0.2,0.2c0,0-0.1,0-0.1,0c0,0-0.1,0-0.1,0
			c0,0-0.1,0-0.1,0c0,0-0.1,0-0.1-0.1l-3.4-2.9v3.6L-145.1,37.7z"/>
	</g>
</symbol>
<g>
	<path class="st3" d="M52.6,97.3c0,6.4-0.3,11.3-0.8,14.5c-0.9,5.2-2.7,9.2-5.5,12.1c-3.8,3.8-8.9,5.7-15.3,5.7
		c-6.4,0-11.7-2.2-15.7-6.6v5.9H0V51.5h15.7v20c3.8-4.2,8.8-6.3,15.2-6.3c6.4,0,11.5,1.9,15.3,5.7c2.8,2.8,4.7,6.8,5.5,12.1
		C52.3,86.1,52.6,90.9,52.6,97.3z M36.9,97.3c0-5.9-0.6-10.2-1.8-12.8c-1.5-3.5-4.5-5.2-8.8-5.2S19,81,17.5,84.5
		c-1.2,2.6-1.8,6.8-1.8,12.8c0,6,0.6,10.3,1.8,12.9c1.5,3.5,4.5,5.2,8.8,5.2s7.3-1.7,8.8-5.2C36.3,107.6,36.9,103.3,36.9,97.3z
		 M180.2,128.7h-15.7v-38c0-3.9-1.1-6.9-3.4-8.9c-1.9-1.7-4.2-2.5-7-2.5c-2.9,0-5.3,0.8-7.1,2.5c-2.3,2-3.4,5-3.4,8.9v38H128V65.9
		h15.3v5.8c4.1-4.3,9.3-6.5,15.7-6.5c6.2,0,11.1,1.8,14.8,5.5c4.3,4.3,6.4,10.2,6.4,17.8V128.7z M102,65.9h15.5v62.8H102v-7.4
		c-5.1,5.4-10.6,8.1-16.5,8.1c-7.4,0-13.6-3-18.4-9.1c-4.8-6.2-7.2-14-7.2-23.2c0-9.1,2.4-16.7,7.2-22.8c4.8-6.1,10.9-8.8,18.1-9.1
		c9.3-0.4,14.4,3.2,16.8,8.7V65.9z M101.2,97.3c0-5.9-0.7-10.2-2.2-12.8c-1.9-3.5-5.4-5.2-10.7-5.2s-8.9,1.7-10.7,5.2
		c-1.5,2.6-2.2,6.8-2.2,12.8c0,6,0.7,10.3,2.2,12.9c1.9,3.5,5.4,5.2,10.7,5.2s8.9-1.7,10.7-5.2C100.4,107.6,101.2,103.3,101.2,97.3z
		 M461.9,128.7h-8.6c-5.9,0-10.6-1.9-13.9-5.7c-2.9-3.3-4.3-7.4-4.3-12.3V79.6h-9.2l2.6-13.7h6.6V51.4h15.7v14.4h11.1v13.7h-11.1
		v30.1c0,3.8,1.8,5.7,5.4,5.7h5.7V128.7z M421.2,65.5c-1.6-0.2-3.1-0.4-4.7-0.4c-6.8,0-12,2.3-15.8,6.8v-6h-15.3v62.8h15.7V90.8
		c0-3.7,1.1-6.6,3.3-8.8c1.9-1.8,3.7-2.7,6.9-2.8l6.9,0.1C419.1,74.7,419.7,70,421.2,65.5z M359.2,65.9h15.5v62.8h-15.5v-7.4
		c-5.1,5.4-10.6,8.1-16.5,8.1c-7.4,0-13.6-3-18.4-9.1c-4.8-6.2-7.2-14-7.2-23.2c0-9.1,2.4-16.7,7.2-22.8c4.8-6.1,10.9-8.8,18.1-9.1
		c9.3-0.4,14.4,3.2,16.8,8.7V65.9z M358.4,97.3c0-5.9-0.7-10.2-2.2-12.8c-1.9-3.5-5.4-5.2-10.7-5.2c-5.3,0-8.9,1.7-10.7,5.2
		c-1.5,2.6-2.2,6.8-2.2,12.8c0,6,0.7,10.3,2.2,12.9c1.9,3.5,5.4,5.2,10.7,5.2c5.3,0,8.9-1.7,10.7-5.2
		C357.7,107.6,358.4,103.3,358.4,97.3z M245.6,51.4l-42,42V66.2l-14.4,0v62.7l77.5-77.5L245.6,51.4z M314.8,51.4l-42,42V66.2
		l-14.4,0v62.7l77.5-77.5L314.8,51.4z M285.6,110.3l11.5,18.4h18.6l-18.9-29.6L285.6,110.3z M216.2,110.3l11.5,18.4h18.6l-18.9-29.6
		L216.2,110.3z"/>

		<use xlink:href="#ZiraatBankası_Extra"  width="341.8" height="72.3" id="XMLID_3_" x="-170.9" y="-29.7" transform="matrix(0.6434 0 0 -0.6434 129.2282 27.8569)" style="overflow:visible;"/>
</g>
</svg>
