<?xml version="1.0" encoding="utf-8"?>
<!-- Generator: Adobe Illustrator 20.1.0, SVG Export Plug-In . SVG Version: 6.00 Build 0)  -->
<svg version="1.1" id="Layer_1" xmlns="http://www.w3.org/2000/svg" xmlns:xlink="http://www.w3.org/1999/xlink" x="0px" y="0px"
	 viewBox="4 -5 107 60" style="enable-background:new 4 -5 107 60;" xml:space="preserve">
<style type="text/css">
	.st0{fill:#E21D38;}
	.st1{fill:#6D6F71;}
</style>
<g>
	<path class="st0" d="M79.1,36.5H73l4.1,4.6c-7.3-0.9-11.3,2.3-11.3,6.4c0,4.1,4.5,7.5,10,7.5c5.5,0,10.2-3.4,10-7.5
		c-0.1-1.3-0.5-2.6-1-3.4L79.1,36.5z M75.8,51.5c-2.7,0-4.9-1.7-4.9-3.7s2.2-3.7,4.9-3.7c2.7,0,4.9,1.7,4.9,3.7S78.5,51.5,75.8,51.5
		z"/>
	<rect x="86.8" y="41.1" class="st0" width="5" height="13.6"/>
	<path class="st0" d="M60,48.7c0,1.7-1.9,2.8-3.3,2.8c-1.4,0-3.1-0.9-3.1-2.8h0v-7.6h-5v7.6c0,5.3,4.8,6.3,8.1,6.3c3.3,0,8-1,8-6.3
		v-7.6H60V48.7z"/>
	<path class="st0" d="M32.3,36.5l1.6,1.7L23.2,54.6h5.9l2.1-3.2h11.1l2,3.2h5.7L38.6,36.5H32.3z M33.3,48.2l3.5-5.4l3.4,5.4H33.3z"
		/>
</g>
<path class="st1" d="M107.5,23.3c-6.7,6-16.2,6.9-24.5,0.7c-9.7,7.1-18.5,4.3-24.6,0.2c-9.8,6.5-16.9,5.3-24.6,0.1
	C16,37-4.6,18.7,7.8-1.4L8.4-1C-2.3,14.9,18.8,35.6,35.9,22c7,5.4,16.2,6.7,24.5-0.2C71,29.9,81,25.5,84.8,21.6
	c6.4,5.1,15.4,6.6,22.1,1.5C107.4,23.4,107.1,23,107.5,23.3L107.5,23.3z M107.1,18.8c12.7-16-8.1-31.2-20.2-19.9l0.4,0.4
	c9.3-6.4,28.3,2.7,19.3,19.2L107.1,18.8L107.1,18.8z M85.2,15.1l-1-1.2c1-3,0.2-6.4-1.1-8.1l1.4-3.3C87.6,7.1,86.5,12.5,85.2,15.1
	L85.2,15.1z M60.7,15.2l-1-1.2c1-3.1,0.2-6.4-1.1-8.1l1.5-3.3C63.2,7.1,62.1,12.5,60.7,15.2L60.7,15.2z M36.3,15.3l-1-1.2
	c1.1-3.1,0.2-6.4-1.1-8.1l1.5-3.3C38.8,7.2,37.7,12.6,36.3,15.3L36.3,15.3z M82.4,18.6c-5.2-6.5-4-14.6-0.5-19.8
	c-6.9-5.4-14.8-3.3-19.1-0.1C62.8-1,62.9-0.8,63-0.5C68.8-3.1,75.2-3.3,79.4,1c-4.2,7.4-3.3,13.1,0.5,19.2
	C80.8,19.7,81.6,19.1,82.4,18.6L82.4,18.6z M57.9,18.7c-5.1-6.5-4-14.6-0.5-19.8c-6.9-5.5-14.7-3.4-19.1-0.1
	c0.1,0.3,0.2,0.5,0.3,0.8C44.4-3,50.8-3.3,55,1.1c-4.2,7.4-3.2,13.1,0.5,19.2C56.3,19.7,57.2,19.2,57.9,18.7L57.9,18.7z M33.5,18.7
	c-5.2-6.5-4-14.6-0.5-19.8c-6.9-5.4-14.7-3.4-19.1-0.1l0.4,0.7c5.8-2.6,12.1-2.7,16.3,1.6c-4.2,7.4-3.3,13.1,0.5,19.2
	C31.9,19.8,32.8,19.3,33.5,18.7L33.5,18.7z"/>
</svg>
