<?xml version="1.0" encoding="utf-8"?>
<!-- Generator: Adobe Illustrator 20.1.0, SVG Export Plug-In . SVG Version: 6.00 Build 0)  -->
<svg version="1.1" id="Layer_1" xmlns="http://www.w3.org/2000/svg" xmlns:xlink="http://www.w3.org/1999/xlink" x="0px" y="0px"
	 viewBox="-14 -10 70 70" style="enable-background:new -14 -10 70 70;" xml:space="preserve">
<style type="text/css">
	.st0{fill:#010101;}
	.st1{fill:#1676C3;}
</style>
<g>
	<path class="st0" d="M21-10C1.7-10-14,5.7-14,25S1.7,60,21,60c19.3,0,35-15.7,35-35S40.3-10,21-10z M21,59.4
		C2,59.4-13.4,44-13.4,25S2-9.4,21-9.4S55.4,6,55.4,25S40,59.4,21,59.4z"/>
	<path class="st0" d="M0.8,11.1c0,0,0.1,0.1,0.1,0.1c0,0,0,0,0,0C1.6,10.3,2.3,9.4,3,8.5c0.3-0.3,0.5-0.6,0.8-0.9
		C4,7.3,4.1,6.9,3.9,6.5c-0.2-0.4-0.6-0.6-1-0.6C2.5,5.9,2.3,6.1,2,6.3C1.7,6.7,1.4,7.1,1.1,7.5C0.5,8.3-0.1,9.1-0.8,9.8
		c0.3,0.3,0.7,0.5,1,0.8C0.4,10.8,0.6,10.9,0.8,11.1z"/>
	<path class="st0" d="M0.7,5c0.1-0.3,0-0.7-0.2-1C0.2,3.7-0.3,3.6-0.7,3.8C-1,3.9-1.2,4.2-1.4,4.4c-0.7,0.9-1.5,1.9-2.2,2.8
		c0,0-0.2,0.2-0.2,0.2c0.2,0.1,0.3,0.2,0.5,0.4c0.4,0.3,0.8,0.6,1.2,1c0.4-0.5,0.8-1,1.2-1.5c0.4-0.5,0.8-1,1.2-1.5
		C0.4,5.6,0.6,5.3,0.7,5z"/>
	<path class="st0" d="M21-8.9C2.3-8.9-12.9,6.3-12.9,25S2.3,58.9,21,58.9c18.7,0,33.9-15.2,33.9-33.9S39.7-8.9,21-8.9z M15.5-6.8
		l3.2-0.4L21-0.4l2.3-6.7l3.2,0.4l0.4,9.5l-2.5-0.4l-0.2-6.4l-2.2,6.4h-1.8l-2.2-6.4l-0.2,6.4l-2.5,0.4L15.5-6.8z M-5.9,8.9
		c-0.3-0.2-0.5-0.4-0.8-0.6c0,0-0.1-0.1-0.1-0.1c0-0.1,0.1-0.1,0.1-0.2c0.7-0.8,1.3-1.6,2-2.5c0.8-1,1.5-1.9,2.3-2.9
		C-2.2,2.5-2,2.4-1.9,2.2c0.3-0.3,0.6-0.6,1-0.7C0,1.2,0.9,1.4,1.5,2c0.3,0.3,0.5,0.7,0.6,1.1c0.1,0.4,0.1,0.9-0.1,1.3
		c0.1,0,0.1-0.1,0.2-0.1C3,3.7,4,3.5,4.8,3.9c0.8,0.4,1.4,1.1,1.5,2c0,0.3,0,0.7-0.1,1c-0.2,0.6-0.6,1.1-1,1.6c-0.8,1-1.6,2-2.4,3
		c-0.7,0.8-1.3,1.6-2,2.5c0,0.1-0.1,0.1-0.1,0.2c0,0-0.1,0-0.1-0.1c-0.2-0.2-0.5-0.4-0.7-0.6C-1,12.8-2,12-3,11.2
		C-3.9,10.5-4.9,9.7-5.9,8.9z M21,46.2C9.3,46.2-0.2,36.7-0.2,25S9.3,3.8,21,3.8S42.2,13.3,42.2,25C42.2,36.7,32.7,46.2,21,46.2z
		 M41.2,14.1L40,12l4.2-5.5l-6.3,2.9l-1.8-1.6l5.7-7.5l1.8,1.6l-3.3,4.3l5.3-2.4l1.5,1.9l-3.5,4.6l5-2.3l1.2,2.1L41.2,14.1z"/>
	<path class="st1" d="M0.9,25H21V4.9C10,5.2,1.2,14,0.9,25z"/>
	<path class="st1" d="M21,45.1C32,44.8,40.8,36,41.1,25H21V45.1z"/>
</g>
</svg>
