<?xml version="1.0" encoding="utf-8"?>
<!-- Generator: Adobe Illustrator 20.1.0, SVG Export Plug-In . SVG Version: 6.00 Build 0)  -->
<svg version="1.1" id="Layer_1" xmlns="http://www.w3.org/2000/svg" xmlns:xlink="http://www.w3.org/1999/xlink" x="0px" y="0px"
	 viewBox="-17 6 65 40" style="enable-background:new -17 6 65 40;" xml:space="preserve">
<style type="text/css">
	.st0{fill:#A80230;}
</style>
<g id="Warstwa_x0020_1">
	<g id="_217956912">
		<polygon id="_217961256" class="st0" points="-17,6 -15.7,46 -9.4,46 -9.5,29.4 -4.3,29.4 -4.3,24.2 -9.5,24.2 -9.5,11.2 
			-2.6,11.2 -2.7,6 		"/>
		<polygon id="_217958256" class="st0" points="-0.2,6 0.6,46 7.1,46 7.2,6 		"/>
		<polygon id="_217960584" class="st0" points="30.3,6 30.3,11 35.4,11 35.3,46 41.6,46 42.9,11 48,11 48,6 		"/>
		<path id="_217960752" class="st0" d="M17.1,24.5l0.1-13.6h3.6c1.6,3,2.7,7,3.5,13.6H17.1z M11.3,46h0.6h4.7h0.7l0.1-16.5h7.2
			c0.6,2.9,0.7,11.9,0.7,16.5h0.6h4.7h0.5c0.6-20.4-1.2-32-5.9-40H10.7L11.3,46L11.3,46z"/>
	</g>
</g>
</svg>
