<?xml version="1.0" encoding="utf-8"?>
<!-- Generator: Adobe Illustrator 20.1.0, SVG Export Plug-In . SVG Version: 6.00 Build 0)  -->
<svg version="1.1" id="Layer_1" xmlns="http://www.w3.org/2000/svg" xmlns:xlink="http://www.w3.org/1999/xlink" x="0px" y="0px"
	 viewBox="9 3 117 45" style="enable-background:new 9 3 117 45;" xml:space="preserve">
<style type="text/css">
	.st0{fill:#38418E;}
</style>
<g>
	<path class="st0" d="M108.9,9.6C97.4,5.2,83.6,3,67.4,3c-16.2,0-30,2.4-41.4,7C14.6,14.6,9,20,9,26c0,6,5.8,11.2,17.2,15.6
		C37.6,45.9,51.5,48,67.6,48c16.1,0,29.9-2.3,41.3-6.8c11.4-4.5,17.1-9.8,17.1-15.8C126,19.3,120.3,14.1,108.9,9.6z M106,40.5
		c-10.6,4.3-23.4,6.5-38.4,6.5c-15,0-27.9-2-38.6-6.2C18.4,36.7,13,31.7,13,26c0-5.8,5.3-10.9,15.8-15.3C39.5,6.2,52.3,4,67.4,4
		c15.1,0,27.9,2.1,38.6,6.4c10.6,4.2,16,9.3,15.9,15.1C122,31.1,116.6,36.2,106,40.5z"/>
	<path class="st0" d="M120.4,23.1c-0.3-1.4-1-2.7-1.9-3.8c-1.2-1.4-2.4-2.5-3.9-3.5c-1.8-1.2-3.8-2.3-5.8-3.2
		c-2.3-1-4.7-1.9-7.1-2.7c-2.8-0.9-5.7-1.7-8.6-2.3c-1.9-0.4-3.7-0.8-5.6-1.1c-3-0.3-6-0.6-9.1-0.8c-3.5-0.2-7.1-0.3-10.8-0.4
		c-1.7,0-3.5,0-5.2,0.1c-1.9,0.1-3.7,0.3-5.5,0.5c-3.3,0.4-6.7,0.8-10,1.3c-3,0.5-6,1.2-9,1.9c-2.7,0.7-5.3,1.5-7.9,2.5
		c-2.2,0.9-4.4,1.9-6.5,3.1c-1.8,1-3.4,2.2-4.9,3.5c-1.1,1-2.2,2.2-3.1,3.5c-0.4,0.6-0.7,1.3-0.9,2c-0.2,0.7-0.2,1.4-0.2,2
		c0,0.7,0.1,1.3,0.2,2c0.2,0.7,0.5,1.4,0.9,1.9c0.9,1.4,2,2.6,3.2,3.6c1.5,1.4,3.2,2.5,4.9,3.5c2.1,1.2,4.3,2.1,6.5,2.9
		c2.6,1,5.2,1.8,7.9,2.5c3,0.8,6,1.4,9,1.8c3.4,0.5,6.7,1,10,1.3c1.8,0.1,3.7,0.3,5.5,0.3c5.4,0.1,10.7,0,16-0.5c3-0.3,6-0.6,9-1
		c1.9-0.3,3.8-0.7,5.6-1.1c2.9-0.6,5.7-1.4,8.6-2.4c2.4-0.8,4.8-1.7,7.1-2.8c2-1,4-2.1,5.8-3.4c1.4-1,2.7-2.2,3.8-3.6
		c0.9-1.1,1.5-2.4,1.9-3.8C120.7,25.6,120.7,24.4,120.4,23.1z M47.9,34.2c-0.9,1-1.9,1.8-3,2.4c-1,0.6-2,1-2.9,1.3
		c-0.9,0.3-1.9,0.2-3-0.2c-1.1-0.4-1.8-0.8-2.3-1.2c-0.4-0.4-0.9-1-1.3-1.7c-0.4-0.7-0.6-1.7-0.6-3c0.1-1.2,0.4-2.5,0.9-3.8
		c0.3-0.7,0.7-1.3,1.2-1.9c0.6-0.6,1.2-1.3,1.8-1.9l0.5-0.3l0.7,0.1l0.4,0.2l0.3,0.4c0.1,0.2,0,0.5-0.1,0.9
		c-0.5,0.6-1.1,1.2-1.6,1.8c-0.3,0.3-0.5,0.6-0.7,0.9c-0.2,0.3-0.4,0.6-0.5,1l-0.2,0.9l0.1,0.9c0.1,0.6,0.3,1.1,0.6,1.5
		c0.3,0.4,0.5,0.7,0.8,0.9c0.9,0.4,1.8,0.5,2.7,0.1c1-0.3,1.9-0.8,2.9-1.5c1-0.7,1.9-1.7,2.9-3c0.7-0.9,1.5-1.9,2.1-2.9
		c0.7-1,1.4-2,2-3.1c-0.3,0.2-0.6,0.3-1,0.4L50,23.9l-0.9,0.3l-0.8,0.3h-0.5l-0.2-0.3l0.4-0.8c0.9-0.4,1.7-0.8,2.5-1.2
		c0.4-0.2,0.9-0.4,1.3-0.5c0.5-0.1,1-0.2,1.5-0.3c1.2-1.5,2.4-2.9,3.6-4.3c1.4-1.5,2.7-2.9,4.2-4.4c-1.4-0.3-2.9-0.6-4.3-0.9
		c-1.3-0.2-2.6-0.3-3.8-0.2c-1.2,0.1-2.3,0.3-3.4,0.7c-1.1,0.5-2.1,1.1-3,1.8c-0.6,0.5-1.1,1.2-1.4,2c-0.2,0.3-0.2,0.7-0.1,1.2
		c0,0.4,0.2,0.7,0.4,0.9c0.4,0.3,0.8,0.5,1.2,0.5c0.5,0,1-0.1,1.4-0.4c1.1-0.8,2.1-1.5,3.1-2.4h0.6c0.2,0.3,0.1,0.6-0.1,1
		c-0.5,1-1.1,1.9-1.7,2.7c-0.6,0.7-1.2,1.4-2,1.9c-0.7,0.5-1.5,0.7-2.3,0.7c-0.8,0.1-1.6-0.2-2.3-0.7c-0.6-0.5-1-1.1-1.3-1.9
		c-0.2-0.9-0.2-1.7,0-2.6c0.2-1,0.6-2,1.2-2.8c0.8-1.1,1.8-1.9,2.8-2.6c1-0.6,2.1-1,3.2-1.4c1.3-0.3,2.5-0.5,3.9-0.5
		c1.5-0.1,3.1,0,4.6,0.2c1.6,0.2,3.1,0.5,4.7,0.8c1.9,0.3,3.9,0.6,5.8,0.7c3.3,0.2,6.5,0.2,9.7,0.1c1.7-0.1,3.4-0.2,5.2-0.3l0.8,0.2
		l0.3,0.3c0.1,0.2,0,0.5-0.3,0.8c-0.7,0.8-1.5,1.3-2.4,1.7c-1.2,0.6-2.4,1-3.7,1.1c-1.6,0.2-3.3,0.2-5,0c-2-0.3-4.1-0.7-6.2-1.2
		c-1.2-0.4-2.3-0.7-3.5-1.1l-0.7,0.6c-1,1-1.9,2-2.8,3c-1.1,1.4-2.1,2.8-3.1,4.2c0.7-0.1,1.3-0.1,2-0.2c0.3,0,0.7,0,1,0.1
		c0.4,0,0.7,0,1,0.1c0-0.7,0.1-1.4,0.2-2.1l0.2-0.7c0.2-0.4,0.4-0.7,0.6-0.9l0.7-0.4l0.2,0l0.5,0l0.6,0.2l0.6,0.5l0.2,0.5l-0.1,0.7
		c-0.3,0.8-0.6,1.4-1,2.1c-0.2,0.4-0.5,0.6-0.8,0.8l0.1,0.4l0.2,0.2l0.1,0.4l-0.1,0.2l-0.2,0.3l-0.4,0l-0.3-0.1l-0.3-0.3l-0.2-0.4
		l-0.2-0.3c-0.4,0-0.9,0-1.4,0c-0.5,0.1-1,0.1-1.5,0.1c-0.4,0-0.9,0.1-1.3,0.2c-0.5,0.1-0.9,0.1-1.4,0.1c-1.6,3-3.4,6-5.2,8.9
		C49.6,32.3,48.8,33.3,47.9,34.2z M97.2,34c-0.9,1.1-2,2-3.1,2.8c-0.8,0.5-1.6,0.8-2.4,0.7c-0.7,0-1.3-0.2-1.8-0.7
		c-0.3-0.2-0.5-0.5-0.7-1l-1.4,1.1c-0.6,0.2-1.2,0.4-1.8,0.4c-0.9,0.1-1.8-0.2-2.5-0.8c-0.7-0.4-1.1-1-1.3-1.8
		c-0.2-0.9-0.3-1.8-0.2-2.8c-0.8,0.4-1.6,0.6-2.3,0.9c-0.6,0.2-1.3,0.2-1.9,0c-0.6-0.1-1.2-0.3-1.7-0.7l-0.5-0.4L75,31.1l-0.2-0.8
		l-0.5,0.9c-1.1,2.1-2.3,4.3-3.5,6.5l-3.1,0c1.5-2.8,2.9-5.6,4.3-8.5c0.3-0.6,0.5-1.2,0.6-1.9v-0.7l-0.5-0.2c-0.4,0.3-0.8,0.6-1.2,1
		c-0.8,0.8-1.5,1.5-2.1,2.4c-1,1.2-1.9,2.4-2.9,3.5c-0.9,1.1-1.8,2.2-2.7,3.1c-0.5,0.5-1.1,0.8-1.6,1.1c-0.6,0.2-1.1,0.4-1.7,0.4
		c-0.6,0-1.2-0.1-1.7-0.3l-0.9-0.5l-0.6-0.6L56,35.8l-0.4-0.8l-0.5,0.3l-0.4,0.5l-0.5,0.4l-0.5,0.2l-0.5,0.1l-0.7-0.4
		c-0.2-0.4-0.1-0.8,0.2-1.1c0.5-0.6,1.1-1.2,1.6-1.8c0.5-0.7,0.9-1.5,1.3-2.2c0.3-0.6,0.6-1.2,0.9-1.7c0.3-0.7,0.8-1.3,1.2-1.8
		c0.6-0.6,1.2-1.2,1.9-1.7c0.8-0.5,1.5-1,2.4-1.4l0.8-0.3h0.3c0.3,0.1,0.6,0.3,0.6,0.7l0,0.5l-0.2,0.4L63.1,26l-0.4,0.3l-0.1,0.1
		c-1,0.9-1.9,1.9-2.7,3c-0.6,0.7-0.9,1.5-1.1,2.4c-0.2,0.6-0.1,1.1,0.1,1.7c0.1,0.4,0.3,0.8,0.6,1.1c0.5,0.2,0.9,0.3,1.4,0.1
		c0.6-0.3,1.1-0.6,1.4-0.8l0.6-0.5c0.2-0.3,0.5-0.7,0.7-1.1c0.3-0.4,0.4-0.8,0.6-1.3c0.2-0.5,0.3-1,0.4-1.6c0.1-0.6,0.2-1.1,0.3-1.7
		c0-0.8,0.1-1.5,0.2-2.2l0.2-0.5l0.4-0.4h0.3h0.3l0.4,0.2l0.3,0.3l0.1,0.5l0.1,0.7l0,0.9v0.7v0.8c1.3-1.3,2.7-2.6,4.1-3.8
		c0.5-0.4,1-0.7,1.6-0.8c0.5-0.1,1,0.1,1.5,0.3c0.3,0.2,0.5,0.5,0.7,0.9c0.2,0.4,0.4,0.8,0.5,1.2c0.4-0.5,0.8-0.9,1.3-1.3l0.7-0.5
		c0.4-0.2,0.7-0.3,1-0.2c0.6,0,1.1,0.1,1.6,0.2c0.4,0.2,0.7,0.5,1,0.9c0.2,0.3,0.3,0.7,0.3,1.2c0,0.5-0.1,1-0.4,1.4l-0.7,0.8
		c-0.2,0-0.6,0-0.9,0l-0.8-0.5l-0.3-0.9v-0.4L77.7,27h-0.3c-0.3,0.4-0.4,0.7-0.6,1c-0.2,0.4-0.2,0.8-0.2,1.2
		c0.2,0.6,0.5,1.1,0.9,1.3c0.6,0.4,1.3,0.5,2,0.2c0.8-0.2,1.5-0.5,2.2-1c0.5-0.3,0.9-0.6,1.3-1c0.4-0.3,0.8-0.7,1.1-1.1
		c0.8-0.7,1.6-1.4,2.5-2l0.6-0.4c0.2-0.1,0.5-0.2,0.9-0.4c0.4-0.2,0.9-0.3,1.5-0.2c0.6,0,1,0.1,1.4,0.3c0.3,0.2,0.6,0.5,0.8,0.8
		c0.3,0.3,0.5,0.6,0.7,0.9l5.2-8.6l3.5,0l-9.1,15.5l-0.2,0.8v0.5l0.1,0.3l0.3,0.5c0.3,0.1,0.6,0.1,0.9,0c0.5-0.4,1-0.7,1.5-1.1
		c0.3-0.2,0.7-0.5,1-0.9l0.8-0.9l0.6-0.8c0.2-0.4,0.5-0.7,0.8-0.9l0.4-0.4l0.3,0.1l0.3,0.2l0.2,0.4C98.6,32.2,97.9,33.1,97.2,34z"/>
	<path class="st0" d="M89.5,27.5c-0.2-0.1-0.5-0.1-0.9-0.1c-0.4,0-0.7,0.1-1.1,0.5l-0.5,0.4l-0.1,0.1l-0.2,0.3
		c-0.6,0.8-1.1,1.7-1.5,2.6c-0.2,0.6-0.4,1.2-0.5,1.8l0.2,0.7c0.2,0.3,0.5,0.6,0.8,0.7c0.3,0.1,0.7,0.1,1,0l0.8-0.4
		c0.6-0.7,1.2-1.5,1.7-2.3c0.4-0.7,0.7-1.4,0.9-2c0.2-0.7,0.2-1.3,0-1.8L89.5,27.5z"/>
	<path class="st0" d="M63.5,18.8c0.3-1.2-2.4-2.1-1.6,1.6C61.9,20.5,63.2,20,63.5,18.8z"/>
</g>
</svg>
