<?xml version="1.0" encoding="utf-8"?>
<!-- Generator: Adobe Illustrator 20.1.0, SVG Export Plug-In . SVG Version: 6.00 Build 0)  -->
<svg version="1.1" id="Layer_1" xmlns="http://www.w3.org/2000/svg" xmlns:xlink="http://www.w3.org/1999/xlink" x="0px" y="0px"
	 viewBox="6.2 -20 74.4 56.8" style="enable-background:new 6.2 -20 74.4 56.8;" xml:space="preserve">
<style type="text/css">
	.st0{fill:#DDDDDD;}
</style>
<path class="st0" d="M71.8,9.7c0.1-0.4,0.1-0.9,0.1-1.3C71.9-7.3,59.1-20,43.4-20c-13.4,0-24.6,9.3-27.6,21.7L6.2,1.8v5.1L15,7.3
	C15,7.6,15,8,15,8.4c0,15.7,12.7,28.4,28.4,28.4c13.4,0,24.5-9.2,27.6-21.5l9.6-0.1v-5L71.8,9.7z M43.4,33.5
	c-13.9,0-25.2-11.3-25.2-25.1c0-0.3,0-0.6,0-1L37,8.2l-9.7,7.5l40.4-0.4C64.7,25.8,55,33.5,43.4,33.5z M68.6,9.6L49.9,8.8l10-7.6
	L19.2,1.7c3-10.6,12.7-18.4,24.2-18.4c13.9,0,25.2,11.3,25.2,25.1C68.6,8.8,68.6,9.2,68.6,9.6z"/>
</svg>
