<?xml version="1.0" encoding="utf-8"?>
<!-- Generator: Adobe Illustrator 20.1.0, SVG Export Plug-In . SVG Version: 6.00 Build 0)  -->
<svg version="1.1" id="Layer_1" xmlns="http://www.w3.org/2000/svg" xmlns:xlink="http://www.w3.org/1999/xlink" x="0px" y="0px"
	 viewBox="4 -15 108 80" style="enable-background:new 4 -15 108 80;" xml:space="preserve">
<style type="text/css">
	.st0{fill:#E00019;}
</style>
<g>
	<path class="st0" d="M88.1-12.7c-6.1-1.5-23.5-3.1-42.1-1.9C27.7-13.4,27.3-4.9,26.6,1.2c-0.8,6.1,0.6,37.4,0.6,37.4
		s18.4,2.5,30,2.4c11.6-0.1,30.1,1.8,31.9-11.6C90.9,15.5,88.1-12.7,88.1-12.7z M33-9.3c5.3-3.1,19.2-5.7,52.6-1.5
		c0,0,0.4,10.7,0.4,11.4c0,0-24.9-2.1-29.4-1.8c-3.2,0.3-1.7,2,0,2.2c0,0,25,4.1,29.4,5.1v4.4c0,0-39.3-7.8-57.1-9.2
		C28.8,1.4,28.7-6.8,33-9.3z M86,14.6c0,0,0,3.1,0,4c0,0-44.8-10.1-57.1-11.3l-0.2-2.9C28.7,4.5,72.7,11.3,86,14.6z M82.6,34.8
		c-6.5,4.1-31.1,4-53.1,1.3c0,0-0.6-10.5,0-15.6c0,0,24.3,1.8,29.6,2.5c3,0.4,3-1.1,1.1-2.3c0,0-23.5-6.5-31.1-7.4l-0.2-2.7
		c0,0,43.1,6.7,57.1,12.2C86,22.8,87.1,31.9,82.6,34.8z"/>
	<g>
		<polygon class="st0" points="54.6,54.3 54.6,52 32.2,52 32.2,64.9 54.6,64.9 54.6,62.7 37.5,62.7 37.5,59.6 53.7,59.6 53.7,57.3 
			37.5,57.3 37.5,54.3 		"/>
		<path class="st0" d="M23.6,57.7c0,0-10.3-0.4-11.9-0.4s-2.6-0.4-2.6-1.9c0-1,1.4-1.1,2.7-1.1v0h14.7V52H9.2c0,0-5.2-0.2-5.2,3.6
			c0,3.1,1.8,3.9,4.7,3.9S18.7,60,20,60c0,0,1.8,0.2,1.8,1.4c0,0.8-0.5,1.2-1.3,1.2H4.2v2.3c0,0,17.7,0,18.7,0s4-0.5,4-3.6
			C26.9,58.4,25.3,57.9,23.6,57.7z"/>
		<polygon class="st0" points="112,52 88.9,52 88.9,54.7 97.9,54.7 97.9,64.9 102.8,64.9 102.8,54.7 112,54.7 		"/>
		<path class="st0" d="M65.3,52c-2.5,0-4.8,1.7-4.8,3.7l0,9.3H65v-4.9h13.7v4.9h4.6V52H65.3z M65,57.8v-1c0-1,0.9-2.4,2.7-2.4h11
			v3.3L65,57.8z"/>
	</g>
</g>
</svg>
