<?xml version="1.0" encoding="utf-8"?>
<!-- Generator: Adobe Illustrator 20.1.0, SVG Export Plug-In . SVG Version: 6.00 Build 0)  -->
<svg version="1.1" id="Layer_1" xmlns="http://www.w3.org/2000/svg" xmlns:xlink="http://www.w3.org/1999/xlink" x="0px" y="0px"
	 viewBox="-14 -10 70 70" style="enable-background:new -14 -10 70 70;" xml:space="preserve">
<style type="text/css">
	.st0{fill:#3777BE;}
</style>
<g>
	<path class="st0" d="M27.7-0.4c-2.2-0.6-4.4-0.9-6.7-0.9c-2.3,0-4.5,0.3-6.6,0.8L21.1,18L27.7-0.4z"/>
	<path class="st0" d="M-5.2,25c0,9.9,5.5,18.5,13.6,23L-3.7,16.3C-4.7,19-5.2,21.9-5.2,25z"/>
	<path class="st0" d="M20.8,32.2L14,49.7l0,0.5c2.2,0.6,4.6,0.9,7,0.9c2.3,0,4.5-0.3,6.6-0.8l-0.1-0.7L20.8,32.2z"/>
	<path class="st0" d="M45.6,15.7L33.1,48.3c8.4-4.4,14.1-13.2,14.1-23.3C47.2,21.7,46.7,18.6,45.6,15.7z"/>
	<path class="st0" d="M21-10C1.7-10-14,5.7-14,25c0,19.2,15.7,35,35,35s35-15.7,35-35C56,5.7,40.3-10,21-10z M21,55.5
		C4.2,55.5-9.5,41.8-9.5,25C-9.5,8.2,4.2-5.6,21-5.6S51.6,8.2,51.6,25C51.6,41.8,37.8,55.5,21,55.5z"/>
	<path class="st0" d="M34.2,2.3l-7.7,21.2h-3.4h-4h-3.4L8,2.2C5.1,3.9,2.6,6,0.6,8.6l11,28.4l4-10.4h3.1H23h3.1l4,10.4L41.1,8.2
		C39.2,5.9,36.8,3.9,34.2,2.3z"/>
</g>
</svg>
