<svg id="Icons" xmlns="http://www.w3.org/2000/svg" viewBox="0 0 111.54 111.54"><defs><style>.cls-1{fill:#525355;fill-rule:evenodd;}</style></defs><title>24-saatte-kargo</title><path class="cls-1" d="M782.22,716.57H766.79l.26-1c.73-3,3.46-5.26,6.27-7.6,3.06-2.55,6.21-5.19,6.4-8.58a4.35,4.35,0,0,0-2.81-4.34,6.5,6.5,0,0,0-2.26-.51,6.41,6.41,0,0,0-2.32.31,5.14,5.14,0,0,0-3.53,4.94l-1.69-.08a6.76,6.76,0,0,1,4.69-6.47,8.1,8.1,0,0,1,2.93-.4,8.2,8.2,0,0,1,2.86.65,6,6,0,0,1,3.83,6c-.23,4.14-3.67,7-7,9.79-2.21,1.84-4.37,3.65-5.33,5.65h13.14v1.7ZM767.1,648.2a55.77,55.77,0,1,0,39.43,16.33A55.6,55.6,0,0,0,767.1,648.2Zm38.23,17.54A54.07,54.07,0,1,0,821.17,704a53.9,53.9,0,0,0-15.84-38.23Zm-12.39,57-1.49-.82a28.78,28.78,0,1,1-25.21-42.67q1.41,0,2.72.12l1.16.13-12.66,13.07,1.22,1.18,14.47-14.93.71-.74-.86-.56L755.86,666.2l-.93,1.42,15.48,10.18-1.28-.15q-1.45-.14-2.87-.14a30.48,30.48,0,1,0,26.7,45.19Zm8.61-12h-4l0,6.54h-1.69l0-6.54H783.81l1-1.34,11.38-16,1.54.35L797.61,709h3.95v1.7ZM787.11,709,796,696.5,795.91,709Z" transform="translate(-711.33 -648.2)"/></svg>