<svg id="Icons" xmlns="http://www.w3.org/2000/svg" viewBox="0 0 111.54 111.54"><defs><style>.cls-1{fill:#525355;fill-rule:evenodd;}</style></defs><title>9-taksit-imkani</title><path class="cls-1" d="M922.79,705.43h8.33v9.18h-9.18v-9.18ZM946.08,647a55.77,55.77,0,1,0,39.43,16.33A55.59,55.59,0,0,0,946.08,647Zm38.23,17.54a54.07,54.07,0,1,0,15.84,38.23,53.9,53.9,0,0,0-15.84-38.23Zm-61.69,30.27h-8.69v36.57h55.6V710.71h8.69V674.14h-55.6v20.64ZM969.53,709h7V684.8h-52.2v10h45.21V709Zm7-25.91h-52.2v-7.26h52.2v7.26Zm-55,37.4h33.6v1.7h-33.6v-1.7Zm46.29-24h-52.2v33.17h52.2V696.48Zm-38.41,10.66h-5.78v5.78h5.78Z" transform="translate(-890.31 -646.97)"/></svg>