<svg id="black_arrow_set" data-name="black arrow set" xmlns="http://www.w3.org/2000/svg" viewBox="0 0 33 19"><defs><style>.cls-1{fill:#999999;}</style></defs><title>dot-arrow</title><path class="cls-1" d="M337.5,191a2.5,2.5,0,1,0,2.5,2.5A2.5,2.5,0,0,0,337.5,191Zm-7-7a2.5,2.5,0,1,0,2.5,2.5A2.5,2.5,0,0,0,330.5,184Zm0,7a2.5,2.5,0,1,0,2.5,2.5A2.5,2.5,0,0,0,330.5,191Zm0,7a2.5,2.5,0,1,0,2.5,2.5A2.5,2.5,0,0,0,330.5,198Zm-7-7a2.5,2.5,0,1,0,2.5,2.5A2.5,2.5,0,0,0,323.5,191Zm-7,0a2.5,2.5,0,1,0,2.5,2.5A2.5,2.5,0,0,0,316.5,191Zm-7,0a2.5,2.5,0,1,0,2.5,2.5A2.5,2.5,0,0,0,309.5,191Z" transform="translate(-307 -184)"/></svg>