<svg id="Layer_1" data-name="Layer 1" xmlns="http://www.w3.org/2000/svg" viewBox="0 0 27 32"><defs><style>.cls-1{fill:#14171c;}</style></defs><title>filtre</title><rect x="23" y="10" width="1" height="22"/><rect x="23" width="1" height="4"/><rect x="13" y="28" width="1" height="4"/><rect x="13" width="1" height="22"/><rect x="3" y="16" width="1" height="16"/><rect x="3" width="1" height="10"/><path class="cls-1" d="M-30,272a3.5,3.5,0,0,1-3.5-3.5A3.5,3.5,0,0,1-30,265a3.5,3.5,0,0,1,3.5,3.5A3.5,3.5,0,0,1-30,272Zm0-6a2.5,2.5,0,0,0-2.5,2.5A2.5,2.5,0,0,0-30,271a2.5,2.5,0,0,0,2.5-2.5A2.5,2.5,0,0,0-30,266Z" transform="translate(53.5 -261.5)"/><path class="cls-1" d="M-40,290a3.5,3.5,0,0,1-3.5-3.5A3.5,3.5,0,0,1-40,283a3.5,3.5,0,0,1,3.5,3.5A3.5,3.5,0,0,1-40,290Zm0-6a2.5,2.5,0,0,0-2.5,2.5A2.5,2.5,0,0,0-40,289a2.5,2.5,0,0,0,2.5-2.5A2.5,2.5,0,0,0-40,284Z" transform="translate(53.5 -261.5)"/><path class="cls-1" d="M-50,278a3.5,3.5,0,0,1-3.5-3.5A3.5,3.5,0,0,1-50,271a3.5,3.5,0,0,1,3.5,3.5A3.5,3.5,0,0,1-50,278Zm0-6a2.5,2.5,0,0,0-2.5,2.5A2.5,2.5,0,0,0-50,277a2.5,2.5,0,0,0,2.5-2.5A2.5,2.5,0,0,0-50,272Z" transform="translate(53.5 -261.5)"/></svg>