<svg id="Icons" xmlns="http://www.w3.org/2000/svg" viewBox="0 0 111.54 111.54"><defs><style>.cls-1{fill:#525355;fill-rule:evenodd;}</style></defs><title>garantili-urun</title><path class="cls-1" d="M191.82,534.34h19.55v20.4H191v-20.4Zm22.63-47.2a55.77,55.77,0,1,0,39.43,16.33,55.6,55.6,0,0,0-39.43-16.33Zm38.23,17.54a54.07,54.07,0,1,0,15.84,38.23,53.9,53.9,0,0,0-15.84-38.23Zm-31,11.38h-7.75v3.77h-1.7v-3.77H206v3.77h-1.7v-3.77H198v3.77h-1.7v-3.77H190.1v3.77h-1.7v-3.77h-7.75v53.22h41V516.06Zm-41.89-1.7H179V571h44.44V560.54h11.56a6.66,6.66,0,0,0,1.9,3.87h0a6.68,6.68,0,0,0,9.45,0h0a6.66,6.66,0,0,0,1.9-3.87h8.92l.08-.77c.07-.69.1-1.38.11-2.06a16.74,16.74,0,0,0-3.37-10.81c-2.33-2.89-5.85-4.84-10.63-5.31q-1-.09-2-.1a5,5,0,0,1-1.66-.23h0a3,3,0,0,1-1.23-.94h0l-8-9.67h0a13.11,13.11,0,0,0-3.22-2.82,10.51,10.51,0,0,0-3.76-1.36V514.36h-9.45V510h-1.7v4.34H206V510h-1.7v4.34H198V510h-1.7v4.34H190.1V510h-1.7v4.34Zm43.59,13.81a8.79,8.79,0,0,1,2.89,1.09,11.51,11.51,0,0,1,2.8,2.47h0l8,9.67h0a4.58,4.58,0,0,0,1.93,1.44h0a6.55,6.55,0,0,0,2.22.34h0q1,0,1.85.1a13.3,13.3,0,0,1,9.47,4.68,15.08,15.08,0,0,1,3,9.74q0,.56,0,1.14h-7.37a6.67,6.67,0,0,0-1.9-3.87h0a6.68,6.68,0,0,0-9.45,0h0a6.66,6.66,0,0,0-1.9,3.87H223.39V528.17ZM196.4,540l5,7.4L208.61,536H192.67v17h17v-15.5l-7.48,11.9-.69,1.1-.73-1.07L195,541l1.4-1Zm45.18,14.66a5,5,0,0,1,3.52,1.46h0a5,5,0,0,1,0,7h0a5,5,0,0,1-7,0h0a5,5,0,0,1,0-7h0A5,5,0,0,1,241.58,554.71Z" transform="translate(-158.68 -487.14)"/></svg>