<svg id="Icons" xmlns="http://www.w3.org/2000/svg" viewBox="0 0 111.54 111.54"><defs><style>.cls-1{fill:#525355;fill-rule:evenodd;}</style></defs><title>guvenli-alisveris</title><path class="cls-1" d="M172,546.07v5.24c8.93.26,16.75,4.61,22.38,11a37.49,37.49,0,0,1,9.27,24.16v.13H202v-.13a6.85,6.85,0,0,0-2-4.76,7.09,7.09,0,0,0-5-2.06h0a7.07,7.07,0,0,0-7.07,7.07h-1.7a7.07,7.07,0,0,0-14.13,0h0v22.09h0a6.38,6.38,0,0,1-3.94,6.27,7.23,7.23,0,0,1-2.78.55h0a7.23,7.23,0,0,1-2.78-.55,6.38,6.38,0,0,1-3.94-6.27h0V605.2h1.7v3.66h0a4.76,4.76,0,0,0,2.9,4.7,5.54,5.54,0,0,0,2.13.42h0a5.54,5.54,0,0,0,2.13-.42,4.75,4.75,0,0,0,2.89-4.7h0V586.68a7.07,7.07,0,0,0-14.13.09h-1.7a7.07,7.07,0,0,0-7.07-7.07h0a7.08,7.08,0,0,0-5,2.06,6.86,6.86,0,0,0-2,4.59v.3h-1.7v0h0a37.47,37.47,0,0,1,9.27-24.27c5.63-6.43,13.45-10.78,22.38-11v-5.24Zm-.85-21.39A55.77,55.77,0,1,0,210.6,541a55.6,55.6,0,0,0-39.43-16.33Zm38.23,17.54a54.07,54.07,0,1,0,15.84,38.23,53.9,53.9,0,0,0-15.84-38.23Zm-39.95,38.35a8.81,8.81,0,0,1,1.72,2.43A8.77,8.77,0,0,1,187,583a8.78,8.78,0,0,1,7.92-5h0a8.78,8.78,0,0,1,6.16,2.55l.35.37a36.16,36.16,0,0,0-8.35-17.46c-5.5-6.29-13.19-10.47-21.95-10.47h0c-8.76,0-16.45,4.19-22,10.47a36.17,36.17,0,0,0-8.34,17.46l.35-.37a8.78,8.78,0,0,1,6.15-2.55h0a8.78,8.78,0,0,1,7.92,5,8.77,8.77,0,0,1,14.12-2.43Z" transform="translate(-115.4 -524.69)"/></svg>