<svg id="Icons" xmlns="http://www.w3.org/2000/svg" viewBox="0 0 111.54 111.54"><defs><style>.cls-1{fill:#525355;fill-rule:evenodd;}</style></defs><title>kolay-iade</title><path class="cls-1" d="M650.42,779.07A55.77,55.77,0,1,1,611,795.41a55.59,55.59,0,0,1,39.43-16.33Zm-27.57,34,20.93,14.69,12.37-3.64-23.25-13.27-10.05,2.21Zm34.38,12.51-12.75,3.75v35.9l36-12.29V818.71l-11.81,3.47v11.53l-.56.2-9.76,3.55-1.14.41V825.56Zm-14.45,3.56-21.31-15v30.07l21.31,20.19V829.12Zm39.42-11.54V817l-.52-.22-28.37-12-.25-.11-.26.06-32.36,7.13-.67.15v33l.27.25,23,21.81.37.35.48-.17,37.72-12.87.58-.2V817.58Zm-3.36-.15-25.94-11-8.75,1.93,24.07,11.78.48.23v0l10.14-3Zm-37.35-8.49-6.12,1.35,23.13,13.2.43.25v11.72l8.06-2.93v-11.1l-25.5-12.49Zm47.16-12.34a54.07,54.07,0,1,0,15.84,38.23A53.9,53.9,0,0,0,688.66,796.61Z" transform="translate(-594.66 -779.07)"/></svg>