<svg id="Layer_3" data-name="Layer 3" xmlns="http://www.w3.org/2000/svg" viewBox="0 0 22.79 22.98"><defs><style>.cls-1{fill:#525355;}</style></defs><title>list-style-1</title><path class="cls-1" d="M1024.87,1186.74h-5.19a.5.5,0,0,0-.5.5v5.19a.5.5,0,0,0,.5.5h5.19a.5.5,0,0,0,.5-.5v-5.19A.5.5,0,0,0,1024.87,1186.74Zm-.5,5.19h-4.19v-4.19h4.19Z" transform="translate(-1019.18 -1186.74)"/><path class="cls-1" d="M1033.17,1186.74H1028a.5.5,0,0,0-.5.5v5.19a.5.5,0,0,0,.5.5h5.19a.5.5,0,0,0,.5-.5v-5.19A.5.5,0,0,0,1033.17,1186.74Zm-.5,5.19h-4.19v-4.19h4.19Z" transform="translate(-1019.18 -1186.74)"/><path class="cls-1" d="M1041.47,1186.74h-5.19a.5.5,0,0,0-.5.5v5.19a.5.5,0,0,0,.5.5h5.19a.5.5,0,0,0,.5-.5v-5.19A.5.5,0,0,0,1041.47,1186.74Zm-.5,5.19h-4.19v-4.19H1041Z" transform="translate(-1019.18 -1186.74)"/><path class="cls-1" d="M1024.87,1195.13h-5.19a.5.5,0,0,0-.5.5v5.19a.5.5,0,0,0,.5.5h5.19a.5.5,0,0,0,.5-.5v-5.19A.5.5,0,0,0,1024.87,1195.13Zm-.5,5.19h-4.19v-4.19h4.19Z" transform="translate(-1019.18 -1186.74)"/><path class="cls-1" d="M1033.17,1195.13H1028a.5.5,0,0,0-.5.5v5.19a.5.5,0,0,0,.5.5h5.19a.5.5,0,0,0,.5-.5v-5.19A.5.5,0,0,0,1033.17,1195.13Zm-.5,5.19h-4.19v-4.19h4.19Z" transform="translate(-1019.18 -1186.74)"/><path class="cls-1" d="M1041.47,1195.13h-5.19a.5.5,0,0,0-.5.5v5.19a.5.5,0,0,0,.5.5h5.19a.5.5,0,0,0,.5-.5v-5.19A.5.5,0,0,0,1041.47,1195.13Zm-.5,5.19h-4.19v-4.19H1041Z" transform="translate(-1019.18 -1186.74)"/><path class="cls-1" d="M1024.87,1203.53h-5.19a.5.5,0,0,0-.5.5v5.19a.5.5,0,0,0,.5.5h5.19a.5.5,0,0,0,.5-.5V1204A.5.5,0,0,0,1024.87,1203.53Zm-.5,5.19h-4.19v-4.19h4.19Z" transform="translate(-1019.18 -1186.74)"/><path class="cls-1" d="M1033.17,1203.53H1028a.5.5,0,0,0-.5.5v5.19a.5.5,0,0,0,.5.5h5.19a.5.5,0,0,0,.5-.5V1204A.5.5,0,0,0,1033.17,1203.53Zm-.5,5.19h-4.19v-4.19h4.19Z" transform="translate(-1019.18 -1186.74)"/><path class="cls-1" d="M1041.47,1203.53h-5.19a.5.5,0,0,0-.5.5v5.19a.5.5,0,0,0,.5.5h5.19a.5.5,0,0,0,.5-.5V1204A.5.5,0,0,0,1041.47,1203.53Zm-.5,5.19h-4.19v-4.19H1041Z" transform="translate(-1019.18 -1186.74)"/></svg>