<svg id="Layer_3" data-name="Layer 3" xmlns="http://www.w3.org/2000/svg" viewBox="0 0 22.79 22.98"><defs><style>.cls-1{fill:#525355;}</style></defs><title>list-style-2</title><path class="cls-1" d="M1071.07,1204.52h-21.79a.5.5,0,0,0-.5.5v5.19a.5.5,0,0,0,.5.5h21.79a.5.5,0,0,0,.5-.5V1205A.5.5,0,0,0,1071.07,1204.52Zm-.5,5.19h-20.79v-4.19h20.79Z" transform="translate(-1048.78 -1187.73)"/><path class="cls-1" d="M1071.07,1196.12h-21.79a.5.5,0,0,0-.5.5v5.19a.5.5,0,0,0,.5.5h21.79a.5.5,0,0,0,.5-.5v-5.19A.5.5,0,0,0,1071.07,1196.12Zm-.5,5.19h-20.79v-4.19h20.79Z" transform="translate(-1048.78 -1187.73)"/><path class="cls-1" d="M1071.07,1187.73h-21.79a.5.5,0,0,0-.5.5v5.19a.5.5,0,0,0,.5.5h21.79a.5.5,0,0,0,.5-.5v-5.19A.5.5,0,0,0,1071.07,1187.73Zm-.5,5.19h-20.79v-4.19h20.79Z" transform="translate(-1048.78 -1187.73)"/></svg>