<svg id="Layer_1" data-name="Layer 1" xmlns="http://www.w3.org/2000/svg" viewBox="0 0 26.71 33"><defs><style>.cls-1{fill:#14171c;}</style></defs><title>sort</title><rect class="cls-1" x="8.34" y="11.5" width="1" height="21"/><path class="cls-1" d="M-84.51,294a1.49,1.49,0,0,1-1.06-.44l-7.78-7.78.71-.71,7.78,7.78a.5.5,0,0,0,.71,0l7.78-7.78.71.71-7.78,7.78A1.49,1.49,0,0,1-84.51,294Z" transform="translate(93.35 -261)"/><rect class="cls-1" x="17.37" y="0.5" width="1" height="21"/><path class="cls-1" d="M-67.35,269.92l-7.78-7.78a.5.5,0,0,0-.71,0l-7.78,7.78-.71-.71,7.78-7.78a1.5,1.5,0,0,1,2.12,0l7.78,7.78Z" transform="translate(93.35 -261)"/></svg>