<?xml version="1.0" encoding="utf-8"?>
<!-- Generator: Adobe Illustrator 19.0.0, SVG Export Plug-In . SVG Version: 6.00 Build 0)  -->
<svg version="1.1" id="background" xmlns="http://www.w3.org/2000/svg" xmlns:xlink="http://www.w3.org/1999/xlink" x="0px" y="0px"
	 viewBox="0 0 360 156.6" style="enable-background:new 0 0 360 156.6;" xml:space="preserve">
<style type="text/css">
	.st0{fill:#ff8900;}
</style>
<path class="st0" d="M96.3,94.9h15.5v27.2H96.3v32.3H61v-32.3H2.1L0,100.6L61,2.4V2.1h35.3V94.9z M33.6,94.9H61V48l-2.2,3.6
	L33.6,94.9z M233.1,92.2c0,20.6-4.6,36.5-13.9,47.6c-9.2,11.2-22.3,16.7-39.1,16.7c-17,0-30.1-5.6-39.3-16.8
	c-9.3-11.2-13.9-27.1-13.9-47.5V64.4c0-20.6,4.6-36.5,13.9-47.6C149.9,5.6,163,0,179.9,0c16.9,0,30,5.6,39.2,16.8
	c9.3,11.2,13.9,27.1,13.9,47.6V92.2z M197.8,59.9c0-11-1.4-19.1-4.3-24.5c-2.9-5.4-7.4-8.1-13.6-8.1c-6.1,0-10.5,2.5-13.2,7.5
	c-2.8,5-4.2,12.6-4.4,22.8v38.9c0,11.4,1.4,19.7,4.3,25c2.9,5.3,7.4,7.9,13.6,7.9c6,0,10.4-2.6,13.3-7.7c2.9-5.1,4.3-13.2,4.4-24.1
	V59.9z M344.5,94.9H360v27.2h-15.5v32.3h-35.3v-32.3h-58.9l-2.1-21.6l61-98.2V2.1h35.3V94.9z M281.8,94.9h27.4V48l-2.2,3.6
	L281.8,94.9z"/>
</svg>
