<?xml version="1.0" encoding="utf-8"?>
<!-- Generator: Adobe Illustrator 23.0.6, SVG Export Plug-In . SVG Version: 6.00 Build 0)  -->
<svg version="1.1" id="background" xmlns="http://www.w3.org/2000/svg" xmlns:xlink="http://www.w3.org/1999/xlink" x="0px" y="0px"
	 viewBox="0 0 360 156.6" style="enable-background:new 0 0 360 156.6;" xml:space="preserve">
<style type="text/css">
	.st0{fill:#FF8900;}
</style>
<path class="st0" d="M8.6,87.4l8.8-85.3h89.1v27.4H46l-3.9,31.7c2.9-2,6.5-3.7,10.9-4.9c4.4-1.3,9.2-1.9,14.5-2.1
	c14.1-0.3,25,4.1,32.7,13c7.6,9,11.4,21.6,11.4,38.1c0,14.7-4.3,26.9-12.7,36.6c-8.5,9.7-21.9,14.6-40.1,14.6
	c-14.5,0-27.1-3.8-37.8-11.4c-10.7-7.6-15.8-17.7-15.4-30.3l0.1-0.6l34.6-2.1c0,5.4,1.7,9.6,5.1,12.6c3.4,3.1,7.9,4.6,13.4,4.6
	c6.5,0,11.1-2,13.7-6c2.6-4,3.9-9.9,3.9-17.9c0-8.4-1.5-14.9-4.5-19.7c-3-4.8-7.7-7.2-14.2-7.2c-4.7,0-8.4,1-11.3,3
	c-2.9,2-4.9,4.6-6,7.6L8.6,87.4z M235.1,92.2V64.4c0-20.5-4.6-36.4-13.9-47.6C212,5.6,198.9,0,182,0c-16.9,0-30,5.6-39.1,16.8
	c-9.3,11.1-13.9,27-13.9,47.6v27.8c0,20.4,4.6,36.3,13.9,47.5c9.2,11.2,22.3,16.8,39.3,16.8c16.8,0,29.9-5.5,39.1-16.7
	C230.6,128.7,235.2,112.8,235.1,92.2L235.1,92.2z M200,97.6c-0.1,10.9-1.5,19-4.4,24.1c-2.9,5.1-7.3,7.7-13.3,7.7
	c-6.2,0-10.7-2.6-13.6-7.9c-2.9-5.3-4.3-13.6-4.3-25V57.6c0.2-10.2,1.6-17.8,4.4-22.8c2.7-5,7.1-7.5,13.2-7.5
	c6.2,0,10.7,2.7,13.6,8.1c2.9,5.4,4.3,13.5,4.3,24.5h0.1V97.6z M358.7,92.2V64.4c0-20.5-4.6-36.4-13.9-47.6
	C335.6,5.6,322.5,0,305.6,0c-16.9,0-30,5.6-39.1,16.8c-9.3,11.1-13.9,27-13.9,47.6v27.8c0,20.4,4.6,36.3,13.9,47.5
	c9.2,11.2,22.3,16.8,39.3,16.8c16.8,0,29.9-5.5,39.1-16.7C354.2,128.7,358.8,112.8,358.7,92.2L358.7,92.2z M323.6,97.6
	c-0.1,10.9-1.5,19-4.4,24.1c-2.9,5.1-7.3,7.7-13.3,7.7c-6.2,0-10.7-2.6-13.6-7.9c-2.9-5.3-4.3-13.6-4.3-25V57.6
	c0.2-10.2,1.6-17.8,4.4-22.8c2.7-5,7.1-7.5,13.2-7.5c6.2,0,10.7,2.7,13.6,8.1c2.9,5.4,4.3,13.5,4.3,24.5h0.1V97.6z"/>
</svg>
