<?xml version="1.0" encoding="utf-8"?>
<!-- Generator: Adobe Illustrator 17.0.0, SVG Export Plug-In . SVG Version: 6.00 Build 0)  -->
<!DOCTYPE svg PUBLIC "-//W3C//DTD SVG 1.1//EN" "http://www.w3.org/Graphics/SVG/1.1/DTD/svg11.dtd">
<svg version="1.1" id="Layer_1" xmlns="http://www.w3.org/2000/svg" xmlns:xlink="http://www.w3.org/1999/xlink" x="0px" y="0px"
	 width="200px" height="200px" viewBox="0 0 200 200" enable-background="new 0 0 200 200" xml:space="preserve">
<g>
	<polygon fill-rule="evenodd" clip-rule="evenodd" fill="#FFFFFF" points="0,0 200,0 200,200 0,200 0,0 	"/>
	<polygon fill-rule="evenodd" clip-rule="evenodd" points="197.059,197.059 2.941,197.059 2.941,2.941 197.059,2.941 
		197.059,197.059 	"/>
	<polygon fill-rule="evenodd" clip-rule="evenodd" fill="#FFFFFF" points="190.384,190.384 190.384,9.616 9.616,9.616 
		9.616,190.384 190.384,190.384 	"/>
	<path fill-rule="evenodd" clip-rule="evenodd" d="M32.528,178.387h-6.134c-0.902-0.09-1.534-0.451-1.804-1.263l-6.134-15.605
		c-0.18-0.361-0.18-0.812,0.09-0.992c0.18-0.271,0.361-0.451,0.992-0.451h4.691l5.232,13.982l5.232-13.982h4.691
		c0.721,0,0.812,0.09,1.082,0.451c0.18,0.18,0.18,0.541,0.09,0.992l-6.134,15.605C34.061,177.936,33.43,178.296,32.528,178.387
		L32.528,178.387z"/>
	<path fill-rule="evenodd" clip-rule="evenodd" d="M70.684,178.928c-5.503-0.09-9.381-2.075-9.471-8.028v-9.742
		c0-0.631,0.451-1.083,1.173-1.083h4.781V170.9c0,1.985,0.631,3.428,3.518,3.428c2.526,0,3.428-1.443,3.428-3.428v-10.824h4.871
		c0.722,0,1.083,0.451,1.083,1.083v9.742C80.065,176.944,76.096,178.928,70.684,178.928L70.684,178.928z"/>
	<path fill-rule="evenodd" clip-rule="evenodd" d="M102.526,176.763c0.18,0.181,0.361,0.451,0.361,0.722
		c0,0.541-0.361,0.812-0.902,0.812h-5.592l-4.691-5.593l-4.6,5.593h-5.683c-0.541,0-0.902-0.271-0.902-0.812
		c0-0.271,0.181-0.451,0.271-0.631l7.126-8.299l-5.683-6.946c-0.18-0.271-0.271-0.451-0.271-0.722c0-0.451,0.361-0.812,0.902-0.812
		h5.502l3.338,4.33l3.428-4.33c0,0,5.322,0,5.412,0c0.631,0,0.902,0.361,0.902,0.812c0,0.271-0.09,0.541-0.271,0.722l-5.592,6.946
		L102.526,176.763L102.526,176.763z"/>
	<path fill-rule="evenodd" clip-rule="evenodd" d="M123.814,177.304c0,0.722-0.271,0.992-1.082,0.992h-4.781v-7.216h-7.307v7.216
		h-4.781c-0.721,0-1.082-0.361-1.082-0.992v-16.146c0-0.722,0.451-1.083,1.173-1.083h4.691v6.404h7.307v-6.404h4.781
		c0.902,0,1.082,0.451,1.082,1.173V177.304L123.814,177.304z"/>
	<path fill-rule="evenodd" clip-rule="evenodd" d="M151.055,160.075h4.691v13.711h8.93v3.518c0,0.631-0.361,0.992-1.083,1.083
		h-12.268c-0.812-0.09-1.443-0.541-1.443-1.443v-15.786C149.882,160.436,150.243,160.075,151.055,160.075L151.055,160.075z"/>
	<path fill-rule="evenodd" clip-rule="evenodd" d="M168.013,160.075h4.691v13.711h8.93v3.518c0,0.631-0.361,0.992-1.083,1.083
		h-12.268c-0.902-0.09-1.443-0.541-1.443-1.443v-15.786C166.841,160.436,167.201,160.075,168.013,160.075L168.013,160.075z"/>
	<path fill-rule="evenodd" clip-rule="evenodd" d="M100,152.589c-36.532,0-66.209-29.948-66.209-66.931
		c0-36.984,29.677-66.931,66.209-66.931c36.533,0,66.209,29.948,66.209,66.931C166.209,122.641,136.532,152.589,100,152.589
		L100,152.589z"/>
	<path fill-rule="evenodd" clip-rule="evenodd" fill="#FFFFFF" d="M99.279,83.313c0.09,0-6.404-8.569-5.232-15.605
		c0.631-3.699,4.871-4.24,6.945-2.796c0.18-1.894,0-2.526-3.066-3.608l0.631-0.812c3.608,1.353,5.682,2.345,6.224,4.51
		c3.067-5.232,2.526-8.659-3.698-9.922c-0.09-1.804-0.361-2.436-2.165-2.796c-1.173-0.181-3.879-0.541-5.863-0.631
		c-0.271-0.09-0.361-0.181-0.451-0.361c-0.181-0.541-0.541-1.984-0.812-4.691c-3.067,3.157-5.593,5.773-7.036,8.569
		c-3.067,0.271-5.142,2.255-6.856,4.961c2.165-0.812,3.338-0.631,4.51-0.631c-0.271,0.271-0.361,0.631-0.541,0.992
		c-4.42,0.992-6.314,2.977-9.201,7.216c1.533-0.992,4.33-1.714,6.495-1.804c-0.181,0.361-0.361,0.812-0.451,1.082
		c-2.796,1.083-7.126,4.781-9.291,9.291c2.526-1.263,4.6-1.263,5.773-1.443c-0.992,2.976-2.075,4.871-4.781,4.871
		c-3.338,0-9.111,0.451-14.252,0.09c-2.796-0.09-3.428-1.714-4.239-2.616c0.271-2.345,0.812-4.601,1.443-6.675
		c0.902-2.887,1.984-5.683,3.157-8.389c6.765-0.722,11.546-0.902,17.77-0.902c1.714-3.157,7.036-11.817,9.201-15.244
		c-6.404-0.451-17.229,0-22.371,1.443c-4.961,5.232-9.201,13.892-11.726,22.731c-0.631,1.984-1.082,4.059-1.533,6.134
		c-0.812,0.271-1.714,0.902-3.338,1.804l1.353,2.887c-0.361,0.541-0.631,1.082-0.721,1.804c-0.271,1.173-0.181,2.616,0.271,4.33
		c-0.271,1.263-1.353,2.796-1.353,2.796c1.082,0.451,2.165,0.722,3.067,0.812c0.541,4.961,2.165,11.275,3.698,15.154
		c-0.721,1.173-1.263,2.436-1.443,2.977c0.902,0.722,1.443,0.992,2.526,1.443c-0.181,2.075,1.443,4.781,3.337,5.773
		c-0.18,0.541-0.361,1.714-0.541,2.796c1.443-0.18,2.345-0.271,3.067-0.451c1.173,1.714,2.526,3.247,3.878,4.781
		c4.601,5.051,10.193,9.201,16.507,11.907c7.036-1.534,35.63-1.894,44.47,0.18c6.134-3.698,13.711-8.479,17.951-15.154
		c5.953-9.472,0.451-19.574,0.902-24.264c0.541-4.601,5.051-3.608,4.961-0.902c3.337-2.706,1.894-5.954,0.18-5.593
		c0.09-0.271,0.451-0.812,0.451-0.812s1.353-0.812,2.526,0.271c0.812,0.722,0.992,1.804,0.451,3.428
		c-0.902,2.977,1.624,6.404,5.232,4.24c-2.075-1.443-0.271-3.969,0.451-5.954c1.173-3.518-0.631-6.495-3.608-7.758
		c-1.624-0.631-3.698-0.721-5.773,0c-1.624,0.631-3.247,1.714-4.691,3.518c-3.067,3.608-3.879,10.915-3.067,17.228
		c0.451,3.247,0.721,7.036-0.451,9.291c-1.443-5.773-6.044-9.111-11.005-11.366c-5.863-2.525-10.374-2.796-17.049-6.945
		c15.425,0.181,24.265,0,27.963-8.93c-3.157,1.714-10.103,2.526-13.801,2.075l1.173-0.992c5.863-0.271,10.734-1.443,14.432-3.879
		c4.33-2.796,6.946-7.396,7.126-14.072c-2.526,5.773-8.569,10.013-15.425,10.374l0.631-1.263
		c9.923-2.075,17.229-10.464,13.982-20.927c-0.632-1.894-3.067-5.412-4.961-6.856c1.082,5.773,0.09,15.786-7.758,19.664
		l-0.271-1.082c3.518-2.706,5.593-7.126,6.044-11.185c1.353-10.824-4.961-20.206-15.876-22.461
		c9.381,6.494,10.464,20.115,6.314,27.963l-1.082-0.902c3.698-20.656-9.201-34.909-29.947-31.751
		c15.244,4.059,24.535,17.68,23.092,29.857l-1.443-0.181c-0.631-6.224-1.984-12.719-10.644-20.476
		c-9.561-9.291-25.888-10.103-35.81-0.18c9.922-1.894,30.939,0.18,38.066,18.672C115.515,67.346,111.456,76.728,99.279,83.313
		L99.279,83.313z"/>
	<path fill-rule="evenodd" clip-rule="evenodd" d="M65.362,59.048l-3.608-9.561l3.879-0.631l2.796,6.224l3.969-6.675h4.781
		c-1.985,2.886-4.871,7.487-6.405,10.464C68.429,58.867,67.256,58.867,65.362,59.048L65.362,59.048z"/>
	<path fill-rule="evenodd" clip-rule="evenodd" d="M98.647,56.161c-1.443,0.992-2.255-0.721-3.879-1.082
		c0.541-1.263,1.985-0.812,3.157-0.361c0.361,0.181,0.902,0.361,1.353,0.361c0.541,0.09,0.721,0.361,0.271,0.631
		C99.279,55.801,98.918,55.981,98.647,56.161L98.647,56.161z"/>
	<path fill-rule="evenodd" clip-rule="evenodd" d="M51.561,89.807l1.082-0.451c0.361,1.714,4.059,4.239,5.503,4.33
		c-0.361-1.353-0.451-2.706-0.722-3.879h1.443c0.631,1.804,3.428,4.42,6.043,4.51c-0.361-0.631-1.173-3.247-1.263-4.24l1.804,0.09
		c0.451,2.165,3.518,5.683,6.585,5.773c-0.541-1.714-0.812-4.239-0.812-5.592h1.714c0.361,1.624,1.082,4.239,1.804,6.404
		c-3.247,1.714-6.946,4.329-11.366,6.494c-3.338,1.624-6.314,1.624-8.569,0.541c-0.541-1.533-1.082-3.067-1.534-4.51
		C52.463,96.212,51.922,93.054,51.561,89.807L51.561,89.807z"/>
	<path fill-rule="evenodd" clip-rule="evenodd" d="M61.213,115.425l0.631-0.902c2.075,1.714,5.502,2.345,7.757,1.624
		c-0.902-0.631-2.526-2.526-2.796-3.428l1.263-0.541c0.992,1.443,5.412,2.526,8.389,1.624c-1.353-0.902-2.706-2.165-3.428-3.428
		l1.353-0.631c2.436,2.345,5.322,2.977,8.389,1.804c-1.082-0.722-2.886-3.067-3.067-3.879l1.173-0.631
		c5.593,5.051,9.471,5.683,24.986,5.322c10.734-0.18,14.523,4.691,13.711,10.644c-10.824-1.534-33.465-2.255-49.973,1.173
		c-1.443-1.173-2.796-2.345-4.059-3.699C63.919,118.943,62.476,117.229,61.213,115.425L61.213,115.425z"/>
	<path fill-rule="evenodd" clip-rule="evenodd" d="M50.118,175.41h-4.42l-1.082,2.977h-4.781c-0.541-0.09-0.722-0.181-0.992-0.451
		c-0.09-0.271-0.18-0.541-0.09-0.992l6.224-15.605c0.361-0.902,0.902-1.263,1.894-1.263h6.044c0.902,0,1.534,0.451,1.804,1.263
		l6.224,15.605c0.09,0.451,0,0.721-0.09,0.992c-0.18,0.181-0.361,0.361-0.992,0.451h-4.781l-1.082-2.977H50.118L50.118,175.41z"/>
	<polygon fill-rule="evenodd" clip-rule="evenodd" fill="#FFFFFF" points="47.321,170.81 52.373,170.81 49.847,163.864 
		47.321,170.81 	"/>
	<path fill-rule="evenodd" clip-rule="evenodd" d="M137.074,175.41h-4.33l-1.173,3.067l-4.691-0.09
		c-0.631,0-0.812-0.181-0.992-0.451c-0.18-0.18-0.271-0.541-0.09-0.992l6.134-15.605c0.361-0.902,0.992-1.263,1.894-1.263h6.043
		c0.902,0,1.534,0.451,1.894,1.263l6.134,15.695c0.09,0.361,0.09,0.722-0.09,0.902c-0.18,0.271-0.361,0.451-0.992,0.451l-4.781,0.09
		l-1.082-3.067H137.074L137.074,175.41z"/>
	<polygon fill-rule="evenodd" clip-rule="evenodd" fill="#FFFFFF" points="134.367,170.9 139.329,170.9 136.803,163.864 
		134.367,170.9 	"/>
</g>
</svg>
