<?xml version="1.0" encoding="utf-8"?>
<!-- Generator: Adobe Illustrator 17.0.0, SVG Export Plug-In . SVG Version: 6.00 Build 0)  -->
<!DOCTYPE svg PUBLIC "-//W3C//DTD SVG 1.1//EN" "http://www.w3.org/Graphics/SVG/1.1/DTD/svg11.dtd">
<svg version="1.1" id="Layer_1" xmlns="http://www.w3.org/2000/svg" xmlns:xlink="http://www.w3.org/1999/xlink" x="0px" y="0px"
	 width="230px" height="25.397px" viewBox="0 0 230 25.397" enable-background="new 0 0 230 25.397" xml:space="preserve">
<g>
	<path fill-rule="evenodd" clip-rule="evenodd" fill="#3C3C3B" d="M7.705,0h22.129c4.037,0,7.339,3.303,7.339,7.339v0
		c0,2.714-0.77,4.557-1.817,5.81c1.087,0.665,1.817,1.864,1.817,3.226v2.032v6.989h-7.556v-6.989v-2.032
		c0-0.192,0.015-0.382,0.043-0.567l-0.043,0.001l-21.912,0v9.588H0V7.34v0V0L7.705,0L7.705,0L7.705,0z M13.827,5.079h5.401h7.856
		c1.394,0,2.533,1.14,2.533,2.533v0c0,1.394-1.14,2.533-2.533,2.533h-7.856h-5.401H6.772V5.079H13.827L13.827,5.079z"/>
	<path fill-rule="evenodd" clip-rule="evenodd" fill="#3C3C3B" d="M200.532,0h22.129C226.698,0,230,3.303,230,7.34v0
		c0,2.714-0.77,4.557-1.817,5.81c1.087,0.665,1.817,1.864,1.817,3.226v2.032v6.989h-7.556v-6.989v-2.032
		c0-0.192,0.015-0.382,0.043-0.567l-0.043,0.001l-21.912,0v9.588h-7.705V7.34v0V0L200.532,0L200.532,0L200.532,0z M206.654,5.079
		h5.401h7.856c1.394,0,2.533,1.14,2.533,2.533v0c0,1.394-1.14,2.533-2.533,2.533h-7.856h-5.401h-7.055V5.079H206.654L206.654,5.079z
		"/>
	<path fill-rule="evenodd" clip-rule="evenodd" fill="#3C3C3B" d="M44.708,0h27.432c2.794,0,5.079,2.286,5.079,5.079v20.317h-5.079
		h-1.91v-9.588H46.995v9.588h-2.287h-5.079V5.079C39.628,2.286,41.914,0,44.708,0L44.708,0z M46.995,5.079H70.23v5.067H46.995V5.079
		L46.995,5.079z"/>
	<polygon fill-rule="evenodd" clip-rule="evenodd" fill="#3C3C3B" points="106.779,0 114.601,0 114.601,25.397 106.779,25.397 
		88.171,8.58 88.171,25.397 80.35,25.397 80.35,0 88.171,0 88.171,0 106.779,17.137 106.779,0 	"/>
	<path fill-rule="evenodd" clip-rule="evenodd" fill="#3C3C3B" d="M122.228,0l31.683,0v4.924v0.155h-28.249v3.854v1.213v9.542h4.535
		h7.451h8.812v-4.665h-8.812v-4.877h16.262v10.327c0,2.708-2.216,4.924-4.924,4.924h-26.759c-2.708,0-4.924-2.216-4.924-4.924V4.925
		C117.304,2.216,119.52,0,122.228,0L122.228,0z"/>
	<polygon fill-rule="evenodd" clip-rule="evenodd" fill="#3C3C3B" points="156.567,0 164.666,0 190.777,0 190.777,5.079 
		164.666,5.079 164.666,10.146 188.315,10.146 188.315,15.226 164.666,15.226 164.666,20.318 190.777,20.318 190.777,25.397 
		164.666,25.397 156.567,25.397 156.567,20.318 156.567,15.226 156.567,10.146 156.567,5.079 156.567,0 	"/>
</g>
</svg>
