<?xml version="1.0" standalone="no"?>
<!DOCTYPE svg PUBLIC "-//W3C//DTD SVG 20010904//EN"
 "http://www.w3.org/TR/2001/REC-SVG-20010904/DTD/svg10.dtd">
<svg version="1.0" xmlns="http://www.w3.org/2000/svg"
 width="300.000000pt" height="206.000000pt" viewBox="0 0 300.000000 206.000000"
 preserveAspectRatio="xMidYMid meet">
<metadata>
Created by potrace 1.10, written by Peter Selinger 2001-2011
</metadata>
<g transform="translate(0.000000,206.000000) scale(0.100000,-0.100000)"
fill="#000000" stroke="none">
<path d="M1273 1588 c-81 -90 -201 -223 -266 -295 l-119 -133 -41 6 c-267 37
-385 72 -450 132 -43 41 -37 76 19 111 81 52 368 129 548 148 42 4 67 13 88
31 34 29 131 142 126 148 -7 6 -256 -27 -398 -52 -375 -68 -616 -177 -651
-295 -43 -142 173 -285 534 -354 45 -9 92 -18 105 -21 21 -4 18 -9 -40 -74
-95 -107 -99 -100 49 -100 l129 0 64 65 64 65 392 2 393 3 -62 72 -62 72 -262
1 c-241 0 -286 4 -253 25 5 3 77 89 160 190 l151 185 117 -138 c65 -75 191
-224 281 -329 l163 -193 136 0 c128 0 134 1 121 18 -8 9 -36 42 -62 73 -48 58
-50 69 -11 69 32 0 252 65 342 100 86 35 198 107 226 146 24 34 32 96 16 134
-16 40 -84 99 -158 138 -150 80 -478 160 -769 188 -91 8 -93 1 -20 -89 l52
-65 110 -16 c316 -49 525 -132 525 -210 0 -48 -125 -116 -296 -161 -171 -44
-132 -69 -429 270 l-259 295 -77 0 -78 0 -148 -162z m546 -148 c140 -160 262
-295 271 -300 35 -19 235 29 354 84 100 46 136 79 136 123 0 93 -198 178 -532
229 l-109 17 -46 54 c-25 29 -44 55 -42 58 3 2 56 -3 119 -10 435 -54 778
-180 830 -304 52 -126 -156 -258 -542 -344 l-97 -22 54 -65 c30 -36 54 -67 54
-70 1 -3 -48 -3 -109 0 l-109 5 -276 325 c-152 179 -279 326 -283 327 -4 1
-88 -98 -188 -220 l-181 -222 281 -3 281 -4 44 -51 45 -52 -374 -3 -375 -2
-65 -65 -66 -66 -103 3 -103 3 75 80 74 80 -119 21 c-296 55 -502 146 -554
245 -7 15 -14 46 -14 68 0 109 204 216 544 285 138 29 411 69 427 64 5 -2 -14
-29 -43 -61 l-53 -58 -98 -14 c-225 -33 -448 -97 -530 -150 -54 -37 -64 -64
-40 -111 37 -71 189 -130 418 -160 l123 -17 38 44 c113 127 233 260 357 397
l139 152 67 0 66 0 254 -290z"/>
<path d="M728 663 l-68 -4 0 -187 0 -187 70 0 70 0 0 68 0 67 110 0 110 0 0
-62 0 -63 65 3 65 4 0 179 0 179 -65 0 -65 0 0 -70 0 -70 -107 0 -108 0 3 75
c2 41 0 74 -5 73 -4 -1 -38 -3 -75 -5z m52 -82 c0 -81 14 -91 137 -91 112 0
123 8 123 86 l0 54 40 0 40 0 0 -155 0 -155 -40 0 -40 0 0 49 c0 74 -12 81
-132 81 -125 0 -138 -8 -138 -87 l0 -53 -40 0 -40 0 0 165 0 165 45 0 45 0 0
-59z"/>
<path d="M180 615 l-40 -41 0 -95 0 -95 38 -37 38 -37 192 0 192 0 0 40 0 40
-160 0 -160 0 0 85 0 85 160 0 160 0 0 48 0 47 -190 0 -191 0 -39 -40z m398
-7 c-3 -22 -6 -23 -147 -26 -86 -1 -150 -7 -158 -14 -17 -14 -18 -169 -1 -186
8 -8 57 -12 155 -12 113 0 143 -3 143 -14 0 -15 -105 -26 -253 -26 -88 0 -90
1 -123 34 l-33 33 4 89 c5 79 8 91 32 116 l27 28 179 0 178 0 -3 -22z"/>
<path d="M1237 632 c-26 -28 -27 -31 -27 -158 0 -184 -12 -175 249 -177 l201
-2 0 43 0 42 -160 0 -160 0 0 25 0 25 145 0 145 0 0 43 0 42 -145 -3 -145 -3
0 30 0 31 160 0 160 0 0 45 0 45 -198 0 -198 0 -27 -28z m393 -18 c0 -11 -22
-14 -107 -15 -60 -1 -122 0 -139 1 -38 2 -64 -22 -64 -59 0 -47 13 -51 157
-51 112 0 133 -2 133 -15 0 -13 -21 -15 -129 -15 -140 0 -161 -7 -161 -54 0
-40 19 -45 169 -47 126 -1 142 -3 139 -17 -3 -15 -25 -17 -174 -20 -160 -2
-172 -1 -197 18 -26 21 -27 24 -27 134 0 164 -10 156 218 155 150 0 182 -3
182 -15z"/>
<path d="M1720 473 l0 -183 70 0 70 0 0 65 0 65 59 0 59 0 61 -65 60 -65 88 0
88 1 -72 69 c-61 58 -69 70 -53 75 37 12 70 63 70 108 0 45 -18 74 -62 102
-25 15 -51 17 -233 14 l-205 -4 0 -182z m450 132 c16 -17 23 -36 23 -67 0 -36
-5 -46 -37 -72 -20 -17 -36 -37 -36 -43 0 -7 16 -30 35 -52 19 -21 35 -41 35
-45 0 -3 -19 -6 -42 -6 -37 0 -48 6 -107 63 l-66 63 -65 -6 -65 -5 -5 -55 -5
-55 -42 -3 -43 -3 0 149 c0 82 3 152 7 155 3 4 93 7 198 7 191 0 192 0 215
-25z"/>
<path d="M1853 582 c-16 -17 -17 -64 -1 -80 8 -8 49 -12 119 -12 119 0 133 6
127 62 l-3 33 -114 5 c-87 4 -118 2 -128 -8z m227 -42 l0 -30 -110 0 -110 0 0
30 0 30 110 0 110 0 0 -30z"/>
<path d="M2321 553 l109 -107 0 -78 0 -78 85 0 85 0 0 67 0 68 117 117 118
118 -90 0 -90 0 -66 -72 -67 -73 -74 73 -73 72 -81 0 -81 0 108 -107z m118 13
c37 -36 73 -66 82 -66 8 0 44 29 79 65 64 64 65 65 119 65 l55 0 -102 -104
-102 -103 0 -52 0 -51 -55 0 -55 0 0 61 0 62 -85 86 c-47 48 -85 93 -85 99 0
8 14 11 41 8 35 -3 51 -14 108 -70z"/>
</g>
</svg>
