<?xml version="1.0" encoding="utf-8"?>
<!-- Generator: Adobe Illustrator 17.0.0, SVG Export Plug-In . SVG Version: 6.00 Build 0)  -->
<!DOCTYPE svg PUBLIC "-//W3C//DTD SVG 1.1//EN" "http://www.w3.org/Graphics/SVG/1.1/DTD/svg11.dtd">
<svg version="1.1" id="Layer_1" xmlns="http://www.w3.org/2000/svg" xmlns:xlink="http://www.w3.org/1999/xlink" x="0px" y="0px"
	 width="300px" height="60.67px" viewBox="0 0 300 60.67" enable-background="new 0 0 300 60.67" xml:space="preserve">
<g>
	<path fill-rule="evenodd" clip-rule="evenodd" fill="#E3051E" d="M0,16.685C0,6.734,6.187,0,17.893,0c10.491,0,76.008,0,76.008,0
		V14.13c0,0-72.108,0-73.719,0c-2.065,0-3.899,1.056-3.899,4.17c0,4.034,0,20.586,0,23.546c0,2.868,1.206,4.703,4.971,4.703
		c3.772,0,48.7,0,51.926,0c2.74,0,4.845-0.985,4.845-4.574c0-3.225,0-5.512,0-5.512H47.62V23.01h46.281c0,0,0,11.302,0,21.657
		c0,10.357-7.531,16.003-19.373,16.003c-11.842,0-45.062,0-56.499,0C6.592,60.67,0,54.492,0,44.126C0,33.771,0,23.412,0,16.685
		L0,16.685z"/>
	<polygon fill-rule="evenodd" clip-rule="evenodd" fill="#E3051E" points="161.702,60.67 187.666,14.667 187.666,60.67 
		203.949,60.67 203.949,0 178.92,0 154.164,43.595 129.418,0 104.392,0 104.392,60.67 120.675,60.67 120.675,14.667 146.636,60.67 
		161.702,60.67 	"/>
	<path fill-rule="evenodd" clip-rule="evenodd" fill="#E3051E" d="M300,60.67c-11.841,0-56.635,0-68.072,0
		c-11.437,0-18.029-6.178-18.029-16.544c0-10.356,0-20.714,0-27.441c0-9.95,6.187-16.685,17.893-16.685C242.284,0,300,0,300,0
		v15.255c0,0-64.308,0-65.919,0c-2.065,0-3.909,1.058-3.909,4.172c0,4.033,0,18.33,0,21.292c0,2.867,1.215,4.708,4.981,4.708
		c3.772,0,61.616,0,64.847,0V60.67L300,60.67z"/>
</g>
</svg>
