<?xml version="1.0" encoding="utf-8"?>
<!-- Generator: Adobe Illustrator 16.0.0, SVG Export Plug-In . SVG Version: 6.00 Build 0)  -->
<!DOCTYPE svg PUBLIC "-//W3C//DTD SVG 1.1//EN" "http://www.w3.org/Graphics/SVG/1.1/DTD/svg11.dtd">
<svg version="1.1" id="Layer_1" xmlns="http://www.w3.org/2000/svg" xmlns:xlink="http://www.w3.org/1999/xlink" x="0px" y="0px"
	 width="176px" height="19px" viewBox="0 0 176 19" enable-background="new 0 0 176 19" xml:space="preserve">
<g>
	<polygon points="15.922,7.49 10.729,7.49 10.729,0.223 0,0.223 0,19.223 10.729,19.223 10.729,11.869 15.922,11.869 15.922,19.223 
		26.651,19.223 26.651,0.223 15.922,0.223 	"/>
	<path d="M44.301,12.919c0,1.313-0.778,2.802-2.683,2.802c-1.903,0-2.683-1.488-2.683-2.802V0.223H28.206v12.873
		c0,1.926,1.644,6.127,7.788,6.127h11.247c6.145,0,7.79-4.201,7.79-6.127V0.223h-10.73V12.919L44.301,12.919z"/>
	<polygon points="72.94,7.927 68.701,0.223 56.415,0.223 56.415,19.223 66.278,19.223 66.278,11.081 70.692,19.223 75.192,19.223 
		79.604,11.081 79.604,19.223 89.471,19.223 89.471,0.223 77.183,0.223 	"/>
	<polygon points="107.38,7.927 103.141,0.223 90.854,0.223 90.854,19.223 100.719,19.223 100.719,11.081 105.132,19.223 
		109.632,19.223 114.041,11.081 114.041,19.223 123.906,19.223 123.906,0.223 111.621,0.223 	"/>
	<polygon points="125.121,19.223 146.061,19.223 146.061,13.971 136.197,13.971 136.197,11.869 146.061,11.869 146.061,7.49 
		136.197,7.49 136.197,5.476 146.061,5.476 146.061,0.223 125.121,0.223 	"/>
	<path d="M174.443,6.527c0-2.364-1.471-6.305-5.625-6.305h-21.375v19h10.731v-5.518l4.587,5.518H176l-5.626-6.742
		C172.628,12.568,174.443,8.891,174.443,6.527L174.443,6.527z M161.115,8.979h-2.939V4.688h3.285
		C164.146,4.688,163.887,8.979,161.115,8.979L161.115,8.979z"/>
</g>
</svg>
