<?xml version="1.0" encoding="utf-8"?>
<!-- Generator: Adobe Illustrator 17.0.0, SVG Export Plug-In . SVG Version: 6.00 Build 0)  -->
<!DOCTYPE svg PUBLIC "-//W3C//DTD SVG 1.1//EN" "http://www.w3.org/Graphics/SVG/1.1/DTD/svg11.dtd">
<svg version="1.1" id="Layer_1" xmlns="http://www.w3.org/2000/svg" xmlns:xlink="http://www.w3.org/1999/xlink" x="0px" y="0px"
	 width="150px" height="67.154px" viewBox="0 0 150 67.154" enable-background="new 0 0 150 67.154" xml:space="preserve">
<g>
	<path fill-rule="evenodd" clip-rule="evenodd" d="M73.42,55.837c-1.109-1.027-2.938-1.6-4.739-1.6
		c-4.409,0-7.319,2.508-7.319,5.689c0,2.941,2.744,5.45,7.319,5.45c2.246,0,3.963-0.711,5.128-1.876l2.245,1.202
		c-0.581,0.576-2.939,2.452-7.429,2.452c-6.238,0-10.091-3.715-10.091-7.228c0-4.346,4.186-7.466,10.229-7.466
		c2.579,0,5.296,0.692,6.875,2.171L73.42,55.837L73.42,55.837z"/>
	<path fill-rule="evenodd" clip-rule="evenodd" d="M97.123,67.154c5.582,0,9.534-3.2,9.534-7.348s-3.952-7.347-9.534-7.347
		c-5.581,0-9.531,3.199-9.531,7.347S91.542,67.154,97.123,67.154L97.123,67.154z M97.123,65.376c-4.187,0-6.898-2.509-6.898-5.569
		c0-3.062,2.711-5.569,6.898-5.569c4.188,0,6.899,2.508,6.899,5.569C104.021,62.866,101.31,65.376,97.123,65.376L97.123,65.376z"/>
	<polygon fill-rule="evenodd" clip-rule="evenodd" points="0,52.815 2.025,52.815 2.025,65.02 8.879,65.02 8.879,66.798 0,66.798 
		0,52.815 	"/>
	<polygon fill-rule="evenodd" clip-rule="evenodd" points="20.965,52.815 22.989,52.815 22.989,66.798 20.965,66.798 20.965,52.815 
			"/>
	<polygon fill-rule="evenodd" clip-rule="evenodd" points="33.278,52.815 36.668,52.815 47.159,64.309 47.214,64.309 47.214,52.815 
		49.795,52.815 49.795,66.798 46.514,66.798 35.915,55.303 35.861,55.303 35.861,66.798 33.278,66.798 33.278,52.815 	"/>
	<polygon fill-rule="evenodd" clip-rule="evenodd" points="116.083,52.815 118.109,52.815 118.109,65.02 124.962,65.02 
		124.962,66.798 116.083,66.798 116.083,52.815 	"/>
	<polygon fill-rule="evenodd" clip-rule="evenodd" points="137.051,52.815 139.708,52.815 147.932,64.309 147.974,64.309 
		147.974,52.815 150,52.815 150,66.798 147.427,66.798 139.119,55.303 139.072,55.303 139.072,66.798 137.051,66.798 
		137.051,52.815 	"/>
	<path fill-rule="evenodd" clip-rule="evenodd" d="M63.952,37.146c-0.741-5.189-0.926-11.702-0.948-15.089
		c1.071,0.109,2.172,0.205,3.126,0.253c0.023,6.267,0.254,11.35,0.47,14.837H63.952h6.684h-2.648
		c0.217-3.486,0.447-8.569,0.472-14.837c0.953-0.048,2.052-0.144,3.125-0.253c-0.021,3.387-0.209,9.9-0.949,15.089H63.952
		L63.952,37.146z M63.952,5.233H66.6c-0.216,3.485-0.447,8.572-0.47,14.838c-0.954,0.047-2.055,0.143-3.126,0.253
		C63.026,16.937,63.211,10.423,63.952,5.233L63.952,5.233z M70.636,5.233c0.739,5.191,0.928,11.705,0.949,15.091
		c-1.073-0.11-2.172-0.206-3.125-0.253c-0.024-6.266-0.254-11.353-0.472-14.838H70.636L70.636,5.233z M73.067,20.485
		c-0.023-5.331-0.325-11.349-1.17-16.887c0,0-1.755-0.208-4.035-0.241C67.704,1.186,67.578,0,67.578,0h-0.566
		c0,0-0.128,1.186-0.285,3.357c-2.281,0.033-4.035,0.241-4.035,0.241c-0.846,5.538-1.147,11.556-1.171,16.887
		c-1.876,0.216-3.372,0.43-3.372,0.43v0.549c0,0,1.496,0.214,3.372,0.432c0.024,5.332,0.325,11.348,1.171,16.885
		c0,0,1.754,0.211,4.035,0.244c0.158,2.168,0.285,3.354,0.285,3.354h0.566c0,0,0.126-1.186,0.284-3.354
		c2.279-0.033,4.035-0.244,4.035-0.244c0.844-5.538,1.146-11.554,1.17-16.885c1.877-0.218,3.372-0.432,3.372-0.432v-0.549
		C76.438,20.915,74.944,20.701,73.067,20.485L73.067,20.485z"/>
</g>
</svg>
