<?xml version="1.0" encoding="utf-8"?>
<!-- Generator: Adobe Illustrator 17.0.0, SVG Export Plug-In . SVG Version: 6.00 Build 0)  -->
<!DOCTYPE svg PUBLIC "-//W3C//DTD SVG 1.1//EN" "http://www.w3.org/Graphics/SVG/1.1/DTD/svg11.dtd">
<svg version="1.1" id="Layer_1" xmlns="http://www.w3.org/2000/svg" xmlns:xlink="http://www.w3.org/1999/xlink" x="0px" y="0px"
	 width="175px" height="89.216px" viewBox="0 0 175 89.216" enable-background="new 0 0 175 89.216" xml:space="preserve">
<g>
	<path fill-rule="evenodd" clip-rule="evenodd" fill="#FFFFFF" d="M0.375,44.608c0-24.429,38.871-44.232,87.125-44.232
		s87.125,19.803,87.125,44.232c0,24.429-38.871,44.233-87.125,44.233S0.375,69.037,0.375,44.608L0.375,44.608z"/>
	<path fill-rule="evenodd" clip-rule="evenodd" d="M87.5,0.751c-48.301,0-86.749,19.82-86.749,43.857
		c0,24.037,38.448,43.857,86.749,43.857s86.749-19.82,86.749-43.857C174.249,20.571,135.801,0.751,87.5,0.751L87.5,0.751z M87.5,0
		C135.707,0,175,19.787,175,44.608s-39.293,44.608-87.5,44.608S0,69.429,0,44.608S39.293,0,87.5,0L87.5,0z"/>
	<path fill-rule="evenodd" clip-rule="evenodd" d="M166.207,44.608c0-15.645-29.406-35.815-78.707-35.815S8.793,28.963,8.793,44.608
		c0,15.645,29.407,35.815,78.707,35.815S166.207,60.253,166.207,44.608L166.207,44.608z M166.958,44.608
		c0,16.422-30.238,36.566-79.458,36.566S8.042,61.03,8.042,44.608c0-16.422,30.238-36.565,79.458-36.565
		S166.958,28.186,166.958,44.608L166.958,44.608z"/>
	<path fill-rule="evenodd" clip-rule="evenodd" d="M89.511,4.397c0,1.11-0.9,2.011-2.011,2.011c-1.11,0-2.011-0.9-2.011-2.011
		c0-1.111,0.9-2.011,2.011-2.011C88.61,2.386,89.511,3.286,89.511,4.397L89.511,4.397z"/>
	<path fill-rule="evenodd" clip-rule="evenodd" d="M82.87,4.452c0.039,1.11-0.83,2.041-1.939,2.079
		c-1.11,0.039-2.041-0.83-2.079-1.939c-0.039-1.11,0.83-2.041,1.939-2.08C81.9,2.474,82.831,3.343,82.87,4.452L82.87,4.452z"/>
	<path fill-rule="evenodd" clip-rule="evenodd" d="M76.236,4.764c0.078,1.108-0.758,2.068-1.865,2.146
		c-1.108,0.077-2.069-0.758-2.146-1.865c-0.078-1.108,0.758-2.068,1.865-2.146C75.198,2.821,76.159,3.656,76.236,4.764L76.236,4.764
		z"/>
	<path fill-rule="evenodd" clip-rule="evenodd" d="M69.617,5.309c0.135,1.102-0.648,2.105-1.751,2.241
		c-1.102,0.135-2.105-0.648-2.241-1.751c-0.135-1.102,0.648-2.105,1.751-2.241C68.479,3.424,69.482,4.207,69.617,5.309L69.617,5.309
		z"/>
	<path fill-rule="evenodd" clip-rule="evenodd" d="M63.033,6.172c0.174,1.097-0.575,2.127-1.671,2.3
		c-1.097,0.174-2.127-0.574-2.3-1.671c-0.174-1.097,0.575-2.127,1.671-2.3C61.829,4.327,62.859,5.076,63.033,6.172L63.033,6.172z"/>
	<path fill-rule="evenodd" clip-rule="evenodd" d="M56.487,7.296c0.231,1.086-0.463,2.154-1.549,2.385
		c-1.086,0.231-2.154-0.463-2.385-1.548c-0.231-1.086,0.462-2.154,1.548-2.385C55.189,5.517,56.257,6.21,56.487,7.296L56.487,7.296z
		"/>
	<path fill-rule="evenodd" clip-rule="evenodd" d="M50.004,8.737c0.288,1.073-0.349,2.175-1.422,2.462
		c-1.073,0.287-2.175-0.349-2.462-1.422c-0.287-1.073,0.349-2.175,1.422-2.462S49.717,7.664,50.004,8.737L50.004,8.737z"/>
	<path fill-rule="evenodd" clip-rule="evenodd" d="M43.607,10.52c0.343,1.056-0.235,2.19-1.291,2.534
		c-1.056,0.343-2.19-0.235-2.534-1.291c-0.343-1.056,0.235-2.19,1.291-2.534C42.13,8.886,43.264,9.464,43.607,10.52L43.607,10.52z"
		/>
	<path fill-rule="evenodd" clip-rule="evenodd" d="M37.328,12.679c0.398,1.037-0.12,2.2-1.156,2.598
		c-1.037,0.398-2.2-0.12-2.598-1.157c-0.398-1.036,0.12-2.199,1.156-2.597C35.767,11.125,36.93,11.642,37.328,12.679L37.328,12.679z
		"/>
	<path fill-rule="evenodd" clip-rule="evenodd" d="M31.178,15.188c0.487,0.998,0.072,2.202-0.926,2.688
		c-0.998,0.487-2.202,0.072-2.688-0.926c-0.487-0.998-0.072-2.202,0.926-2.689C29.488,13.775,30.692,14.19,31.178,15.188
		L31.178,15.188z"/>
	<path fill-rule="evenodd" clip-rule="evenodd" d="M25.243,18.17c0.572,0.952,0.264,2.187-0.688,2.759
		c-0.952,0.572-2.187,0.264-2.759-0.688c-0.572-0.952-0.264-2.187,0.688-2.759C23.436,16.91,24.671,17.218,25.243,18.17
		L25.243,18.17z"/>
	<path fill-rule="evenodd" clip-rule="evenodd" d="M19.618,21.699c0.653,0.898,0.454,2.156-0.445,2.808
		c-0.898,0.653-2.156,0.453-2.808-0.445c-0.653-0.898-0.454-2.156,0.445-2.808C17.709,20.601,18.966,20.801,19.618,21.699
		L19.618,21.699z"/>
	<path fill-rule="evenodd" clip-rule="evenodd" d="M14.365,25.766c0.785,0.785,0.785,2.058,0,2.843
		c-0.785,0.785-2.058,0.785-2.843,0c-0.785-0.785-0.785-2.058,0-2.843C12.307,24.981,13.58,24.981,14.365,25.766L14.365,25.766z"/>
	<path fill-rule="evenodd" clip-rule="evenodd" d="M9.803,30.594c0.91,0.637,1.13,1.891,0.494,2.8
		c-0.637,0.91-1.891,1.131-2.8,0.494c-0.91-0.637-1.13-1.891-0.494-2.8C7.639,30.178,8.893,29.957,9.803,30.594L9.803,30.594z"/>
	<path fill-rule="evenodd" clip-rule="evenodd" d="M6.227,36.203c1.05,0.362,1.608,1.506,1.246,2.556
		c-0.361,1.05-1.506,1.608-2.556,1.246C3.868,39.644,3.31,38.5,3.671,37.45C4.033,36.4,5.177,35.842,6.227,36.203L6.227,36.203z"/>
	<path fill-rule="evenodd" clip-rule="evenodd" d="M89.514,84.819c0,1.11-0.9,2.011-2.011,2.011c-1.11,0-2.011-0.9-2.011-2.011
		c0-1.11,0.9-2.011,2.011-2.011C88.613,82.809,89.514,83.709,89.514,84.819L89.514,84.819z"/>
	<path fill-rule="evenodd" clip-rule="evenodd" d="M82.872,84.764c-0.039,1.11-0.97,1.978-2.079,1.939
		c-1.11-0.039-1.978-0.97-1.939-2.079c0.039-1.11,0.97-1.978,2.08-1.939C82.043,82.723,82.911,83.654,82.872,84.764L82.872,84.764z"
		/>
	<path fill-rule="evenodd" clip-rule="evenodd" d="M76.238,84.452c-0.078,1.108-1.038,1.943-2.146,1.865
		c-1.108-0.077-1.943-1.038-1.865-2.146c0.078-1.108,1.038-1.943,2.146-1.865C75.481,82.384,76.316,83.345,76.238,84.452
		L76.238,84.452z"/>
	<path fill-rule="evenodd" clip-rule="evenodd" d="M69.62,83.906c-0.136,1.102-1.139,1.886-2.241,1.751
		c-1.102-0.135-1.886-1.139-1.751-2.241c0.135-1.102,1.139-1.886,2.241-1.751C68.971,81.801,69.755,82.804,69.62,83.906
		L69.62,83.906z"/>
	<path fill-rule="evenodd" clip-rule="evenodd" d="M63.034,83.043c-0.174,1.097-1.204,1.845-2.3,1.672
		c-1.097-0.174-1.845-1.204-1.671-2.3c0.174-1.097,1.204-1.845,2.3-1.671C62.46,80.917,63.208,81.947,63.034,83.043L63.034,83.043z"
		/>
	<path fill-rule="evenodd" clip-rule="evenodd" d="M56.489,81.92c-0.231,1.086-1.298,1.779-2.385,1.548
		c-1.086-0.231-1.779-1.298-1.548-2.385c0.231-1.086,1.298-1.78,2.385-1.549C56.027,79.766,56.72,80.833,56.489,81.92L56.489,81.92z
		"/>
	<path fill-rule="evenodd" clip-rule="evenodd" d="M50.005,80.479c-0.287,1.073-1.39,1.709-2.462,1.422
		c-1.073-0.287-1.709-1.39-1.422-2.462c0.287-1.073,1.39-1.709,2.462-1.422C49.656,78.304,50.293,79.406,50.005,80.479
		L50.005,80.479z"/>
	<path fill-rule="evenodd" clip-rule="evenodd" d="M43.608,78.696c-0.343,1.056-1.477,1.634-2.533,1.291
		c-1.056-0.343-1.634-1.477-1.291-2.534c0.343-1.056,1.478-1.634,2.534-1.291C43.373,76.505,43.951,77.64,43.608,78.696
		L43.608,78.696z"/>
	<path fill-rule="evenodd" clip-rule="evenodd" d="M37.328,76.537c-0.398,1.037-1.561,1.554-2.598,1.157
		c-1.037-0.398-1.555-1.561-1.157-2.598c0.398-1.036,1.561-1.554,2.598-1.156C37.208,74.337,37.726,75.5,37.328,76.537
		L37.328,76.537z"/>
	<path fill-rule="evenodd" clip-rule="evenodd" d="M31.178,74.028c-0.487,0.998-1.69,1.412-2.688,0.926
		c-0.998-0.487-1.412-1.69-0.926-2.688c0.487-0.998,1.69-1.413,2.689-0.926C31.25,71.827,31.665,73.03,31.178,74.028L31.178,74.028z
		"/>
	<path fill-rule="evenodd" clip-rule="evenodd" d="M25.243,71.046c-0.572,0.952-1.807,1.26-2.759,0.688
		c-0.952-0.572-1.26-1.807-0.688-2.759c0.572-0.952,1.807-1.26,2.759-0.688C25.507,68.859,25.814,70.094,25.243,71.046
		L25.243,71.046z"/>
	<path fill-rule="evenodd" clip-rule="evenodd" d="M19.617,67.517c-0.653,0.898-1.91,1.098-2.808,0.445
		c-0.898-0.653-1.097-1.91-0.445-2.808c0.653-0.898,1.91-1.098,2.808-0.445C20.071,65.361,20.27,66.619,19.617,67.517L19.617,67.517
		z"/>
	<path fill-rule="evenodd" clip-rule="evenodd" d="M14.364,63.45c-0.785,0.785-2.058,0.785-2.843,0
		c-0.785-0.785-0.785-2.058,0-2.843c0.785-0.785,2.058-0.785,2.843,0C15.149,61.392,15.149,62.665,14.364,63.45L14.364,63.45z"/>
	<path fill-rule="evenodd" clip-rule="evenodd" d="M9.801,58.622c-0.909,0.637-2.163,0.416-2.8-0.494
		c-0.637-0.91-0.416-2.164,0.494-2.8c0.91-0.637,2.163-0.416,2.8,0.494C10.931,56.731,10.71,57.985,9.801,58.622L9.801,58.622z"/>
	<path fill-rule="evenodd" clip-rule="evenodd" d="M6.224,53.013c-1.05,0.362-2.194-0.196-2.556-1.246
		c-0.362-1.05,0.196-2.194,1.246-2.556c1.05-0.362,2.194,0.196,2.556,1.246C7.832,51.507,7.274,52.651,6.224,53.013L6.224,53.013z"
		/>
	<path fill-rule="evenodd" clip-rule="evenodd" d="M4.467,46.617c-1.11,0.039-2.041-0.83-2.079-1.939
		c-0.039-1.109,0.829-2.04,1.939-2.079c1.11-0.039,2.041,0.829,2.079,1.939C6.445,45.647,5.577,46.579,4.467,46.617L4.467,46.617z"
		/>
	<path fill-rule="evenodd" clip-rule="evenodd" d="M170.677,42.599c1.11,0.039,1.978,0.97,1.939,2.079
		c-0.039,1.11-0.97,1.978-2.079,1.939c-1.11-0.039-1.978-0.97-1.939-2.08C168.636,43.428,169.567,42.56,170.677,42.599
		L170.677,42.599z"/>
	<path fill-rule="evenodd" clip-rule="evenodd" d="M170.088,49.211c1.05,0.362,1.608,1.506,1.246,2.556
		c-0.362,1.05-1.506,1.608-2.556,1.246c-1.05-0.362-1.608-1.506-1.247-2.556C167.894,49.407,169.038,48.849,170.088,49.211
		L170.088,49.211z"/>
	<path fill-rule="evenodd" clip-rule="evenodd" d="M167.509,55.328c0.91,0.637,1.131,1.891,0.494,2.8
		c-0.637,0.909-1.891,1.131-2.8,0.494c-0.909-0.637-1.131-1.891-0.494-2.8C165.345,54.912,166.599,54.691,167.509,55.328
		L167.509,55.328z"/>
	<path fill-rule="evenodd" clip-rule="evenodd" d="M163.483,60.607c0.785,0.785,0.785,2.058,0,2.843
		c-0.785,0.785-2.058,0.785-2.843,0c-0.785-0.785-0.785-2.058,0-2.843C161.425,59.822,162.698,59.822,163.483,60.607L163.483,60.607
		z"/>
	<path fill-rule="evenodd" clip-rule="evenodd" d="M158.639,65.154c0.653,0.898,0.454,2.156-0.445,2.808
		c-0.898,0.653-2.156,0.453-2.808-0.445c-0.653-0.898-0.453-2.156,0.445-2.808C156.729,64.056,157.986,64.255,158.639,65.154
		L158.639,65.154z"/>
	<path fill-rule="evenodd" clip-rule="evenodd" d="M153.207,68.975c0.572,0.952,0.264,2.187-0.688,2.759
		c-0.952,0.572-2.187,0.264-2.759-0.688c-0.572-0.952-0.264-2.187,0.688-2.759C151.4,67.715,152.635,68.023,153.207,68.975
		L153.207,68.975z"/>
	<path fill-rule="evenodd" clip-rule="evenodd" d="M147.439,72.266c0.487,0.998,0.073,2.202-0.926,2.688
		c-0.998,0.487-2.202,0.073-2.689-0.926c-0.487-0.998-0.072-2.202,0.926-2.689C145.748,70.853,146.952,71.267,147.439,72.266
		L147.439,72.266z"/>
	<path fill-rule="evenodd" clip-rule="evenodd" d="M141.429,75.095c0.398,1.037-0.12,2.2-1.157,2.598
		c-1.036,0.398-2.199-0.12-2.597-1.157c-0.398-1.037,0.12-2.2,1.156-2.597C139.868,73.541,141.031,74.059,141.429,75.095
		L141.429,75.095z"/>
	<path fill-rule="evenodd" clip-rule="evenodd" d="M135.219,77.453c0.343,1.056-0.235,2.19-1.291,2.534
		c-1.056,0.343-2.19-0.235-2.534-1.291c-0.343-1.056,0.235-2.19,1.291-2.534C133.742,75.819,134.876,76.397,135.219,77.453
		L135.219,77.453z"/>
	<path fill-rule="evenodd" clip-rule="evenodd" d="M128.882,79.438c0.287,1.073-0.349,2.175-1.422,2.462
		c-1.073,0.288-2.175-0.349-2.462-1.422c-0.287-1.073,0.349-2.175,1.422-2.462C127.492,77.729,128.594,78.366,128.882,79.438
		L128.882,79.438z"/>
	<path fill-rule="evenodd" clip-rule="evenodd" d="M122.447,81.084c0.231,1.086-0.462,2.154-1.548,2.385
		c-1.086,0.231-2.154-0.462-2.385-1.548c-0.231-1.086,0.463-2.154,1.549-2.385C121.149,79.304,122.217,79.997,122.447,81.084
		L122.447,81.084z"/>
	<path fill-rule="evenodd" clip-rule="evenodd" d="M115.94,82.414c0.174,1.097-0.574,2.127-1.671,2.3
		c-1.097,0.174-2.127-0.574-2.3-1.672c-0.174-1.096,0.575-2.126,1.672-2.3C114.737,80.569,115.766,81.318,115.94,82.414
		L115.94,82.414z"/>
	<path fill-rule="evenodd" clip-rule="evenodd" d="M109.375,83.416c0.135,1.102-0.648,2.105-1.751,2.241
		c-1.102,0.135-2.105-0.648-2.241-1.751c-0.135-1.102,0.648-2.105,1.751-2.241C108.236,81.531,109.24,82.314,109.375,83.416
		L109.375,83.416z"/>
	<path fill-rule="evenodd" clip-rule="evenodd" d="M102.776,84.172c0.078,1.108-0.758,2.069-1.865,2.146
		c-1.108,0.078-2.068-0.758-2.146-1.865c-0.078-1.108,0.758-2.068,1.865-2.146C101.738,82.229,102.698,83.064,102.776,84.172
		L102.776,84.172z"/>
	<path fill-rule="evenodd" clip-rule="evenodd" d="M96.149,84.623c0.039,1.11-0.829,2.041-1.939,2.079
		c-1.11,0.039-2.041-0.829-2.08-1.939c-0.039-1.11,0.83-2.041,1.939-2.08C95.18,82.645,96.111,83.514,96.149,84.623L96.149,84.623z"
		/>
	<path fill-rule="evenodd" clip-rule="evenodd" d="M92.133,4.452c0.039-1.11,0.97-1.978,2.079-1.939
		c1.11,0.039,1.978,0.97,1.939,2.08c-0.039,1.11-0.97,1.978-2.079,1.939C92.963,6.493,92.095,5.562,92.133,4.452L92.133,4.452z"/>
	<path fill-rule="evenodd" clip-rule="evenodd" d="M98.767,4.764c0.077-1.108,1.038-1.943,2.146-1.865
		c1.108,0.077,1.943,1.038,1.865,2.146c-0.077,1.108-1.038,1.943-2.146,1.865C99.525,6.832,98.69,5.871,98.767,4.764L98.767,4.764z"
		/>
	<path fill-rule="evenodd" clip-rule="evenodd" d="M105.386,5.309c0.135-1.102,1.138-1.886,2.241-1.75
		c1.102,0.135,1.885,1.138,1.75,2.241c-0.135,1.102-1.138,1.886-2.241,1.751C106.034,7.415,105.25,6.412,105.386,5.309
		L105.386,5.309z"/>
	<path fill-rule="evenodd" clip-rule="evenodd" d="M111.97,6.172c0.174-1.097,1.204-1.845,2.3-1.671
		c1.097,0.174,1.845,1.204,1.671,2.3c-0.174,1.097-1.204,1.845-2.3,1.671C112.545,8.299,111.796,7.269,111.97,6.172L111.97,6.172z"
		/>
	<path fill-rule="evenodd" clip-rule="evenodd" d="M118.515,7.296c0.231-1.086,1.299-1.78,2.385-1.549
		c1.086,0.231,1.779,1.299,1.548,2.385c-0.231,1.086-1.298,1.779-2.385,1.548C118.978,9.45,118.284,8.382,118.515,7.296
		L118.515,7.296z"/>
	<path fill-rule="evenodd" clip-rule="evenodd" d="M124.999,8.737c0.288-1.073,1.39-1.709,2.462-1.422
		c1.073,0.287,1.709,1.39,1.422,2.462c-0.287,1.073-1.39,1.709-2.462,1.422C125.348,10.912,124.711,9.809,124.999,8.737
		L124.999,8.737z"/>
	<path fill-rule="evenodd" clip-rule="evenodd" d="M131.396,10.52c0.343-1.056,1.477-1.634,2.533-1.291
		c1.056,0.343,1.634,1.477,1.291,2.534c-0.343,1.056-1.477,1.634-2.534,1.291S131.053,11.576,131.396,10.52L131.396,10.52z"/>
	<path fill-rule="evenodd" clip-rule="evenodd" d="M137.675,12.679c0.398-1.037,1.561-1.554,2.597-1.156
		c1.037,0.398,1.555,1.561,1.157,2.597c-0.398,1.037-1.561,1.555-2.598,1.157C137.795,14.879,137.277,13.716,137.675,12.679
		L137.675,12.679z"/>
	<path fill-rule="evenodd" clip-rule="evenodd" d="M143.825,15.188c0.487-0.998,1.69-1.413,2.689-0.926
		c0.998,0.487,1.412,1.69,0.926,2.689c-0.487,0.998-1.69,1.412-2.688,0.926C143.752,17.389,143.338,16.186,143.825,15.188
		L143.825,15.188z"/>
	<path fill-rule="evenodd" clip-rule="evenodd" d="M149.76,18.17c0.572-0.952,1.807-1.26,2.759-0.688
		c0.952,0.572,1.26,1.807,0.688,2.759c-0.572,0.952-1.807,1.26-2.759,0.688C149.496,20.357,149.188,19.122,149.76,18.17
		L149.76,18.17z"/>
	<path fill-rule="evenodd" clip-rule="evenodd" d="M155.384,21.699c0.653-0.898,1.91-1.098,2.808-0.445
		c0.898,0.653,1.097,1.91,0.445,2.808c-0.653,0.898-1.91,1.098-2.808,0.445C154.931,23.855,154.732,22.597,155.384,21.699
		L155.384,21.699z"/>
	<path fill-rule="evenodd" clip-rule="evenodd" d="M160.638,25.766c0.785-0.785,2.058-0.785,2.843,0
		c0.785,0.785,0.785,2.058,0,2.843c-0.785,0.785-2.058,0.785-2.843,0C159.853,27.824,159.853,26.551,160.638,25.766L160.638,25.766z
		"/>
	<path fill-rule="evenodd" clip-rule="evenodd" d="M165.2,30.594c0.909-0.637,2.163-0.416,2.8,0.494
		c0.637,0.909,0.416,2.163-0.494,2.8c-0.909,0.637-2.163,0.416-2.8-0.494C164.07,32.485,164.291,31.231,165.2,30.594L165.2,30.594z"
		/>
	<path fill-rule="evenodd" clip-rule="evenodd" d="M168.776,36.203c1.05-0.361,2.194,0.197,2.556,1.247
		c0.362,1.05-0.196,2.194-1.246,2.555c-1.05,0.362-2.194-0.196-2.556-1.246C167.168,37.709,167.726,36.565,168.776,36.203
		L168.776,36.203z"/>
	<path fill-rule="evenodd" clip-rule="evenodd" d="M34.432,34.083c0.821,0.474,1.344,0.989,1.546,1.173
		c0.371,0.338,1.011,0.925,1.591,1.58c0.504,0.569,0.917,1.102,1.206,1.53c0.865,1.282,1.268,2.784,1.268,4.011
		c0,1.704-0.905,4.211-2.435,5.309l1.047,1.047c1.188,1.111,2.05,2.814,2.05,5.224c0,3.329-2.661,7.493-6.617,7.493h-9.264
		l-2.409-2.403V33.162h8.602C32.378,33.162,33.511,33.515,34.432,34.083L34.432,34.083z M30.117,49.871v5.09h0.238
		c1.679,0,2.647-1.845,2.647-3.746c0-0.471-0.068-0.925-0.189-1.343L30.117,49.871L30.117,49.871z M30.117,39.653v3.701
		c1.417-0.183,2.223-1.304,2.223-3.039c0-0.232-0.016-0.45-0.047-0.656l-0.19-0.007H30.117L30.117,39.653z M26.957,55.712v-8.995
		h3.398c1.994,0,3.398,2.285,3.398,4.498c0,1.987-1.038,4.498-3.398,4.498H26.957L26.957,55.712z M26.957,44.131v-7.633h2.736
		c1.814,0,3.398,1.387,3.398,3.816c0,2.201-1.198,3.816-3.398,3.816H26.957L26.957,44.131z M37.545,51.555
		c0-2.924-1.368-4.628-2.917-5.471l-1.144-0.623l1.112-0.678c1.353-0.824,2.287-3.177,2.287-4.808c0-2.486-1.805-6.061-5.866-6.061
		h-7.852v24.384h8.513C35.069,58.297,37.545,54.638,37.545,51.555L37.545,51.555z"/>
	<path fill-rule="evenodd" clip-rule="evenodd" d="M48.615,33.162l2.409,2.403l0.001,18.608l0.005,0.169l0.231,0.008
		c1.572,0,2.647-1.182,2.647-2.581V33.162h5.293l2.409,2.403v18.608c0,4.341-3.654,7.895-7.94,7.895
		c-1.854,0-3.778-0.769-5.68-2.189c-1.327-0.991-2.642-2.686-2.886-3.169c-1.11-1.355-1.784-3.075-1.784-4.941V33.162H48.615
		L48.615,33.162z M54.66,33.913V51.77c0,1.805-1.403,3.332-3.398,3.332c-1.995,0-3.397-1.527-3.397-3.332l-0.001-17.857h-3.792
		V51.77c0,3.917,3.309,7.145,7.19,7.145c3.881,0,7.19-3.227,7.19-7.145V33.913H54.66L54.66,33.913z"/>
	<path fill-rule="evenodd" clip-rule="evenodd" d="M76.826,33.336c0.664,0.302,1.235,0.669,1.754,1.062
		c0.655,0.504,1.353,1.081,2.068,1.916c0.653,0.762,1.128,1.508,1.461,2.12c0.664,1.222,0.988,2.718,0.988,4.409v0.536h-4.632
		l-2.409-2.403V40.44c0-0.196-0.015-0.386-0.043-0.569c-0.254-0.068-0.522-0.106-0.804-0.082c-1.582,0.139-2.699,1.486-2.699,3.054
		v11.332c0,0.153,0.014,0.306,0.04,0.457c0.082,0.014,0.165,0.025,0.25,0.032c1.876,0.165,3.188-0.97,3.254-2.753H75.79
		l-2.409-2.403v-4.085l7.307,0.001l2.409,2.403v6.346c0,4.708-2.502,7.896-7.889,7.896c-1.956,0-3.814-0.757-5.732-2.189
		c-1.316-0.983-2.602-2.673-2.939-3.26c-1.076-1.341-1.73-3.026-1.73-4.85V40.44c0-4.341,3.706-7.896,7.992-7.896
		C74.39,32.545,75.729,32.823,76.826,33.336L76.826,33.336z M76.802,40.226h3.133c-0.073-4.217-2.291-6.93-7.136-6.93
		c-3.887,0-7.242,3.234-7.242,7.145v11.33c0,3.911,3.355,7.147,7.242,7.147c4.927,0,7.138-2.807,7.138-7.147v-5.595l-5.805-0.001
		v2.583h2.675v3.013c0,2.324-1.729,3.849-4.073,3.643c-1.983-0.174-3.384-1.867-3.384-3.641V40.44c0-1.943,1.381-3.626,3.384-3.802
		C75.056,36.435,76.7,38.063,76.802,40.226L76.802,40.226z"/>
	<path fill-rule="evenodd" clip-rule="evenodd" d="M96.168,45.155l-1.036,4.583h1.966L96.168,45.155L96.168,45.155z M98.506,56.683
		h-4.944l-1.078,4.769h-5.49l-2.409-2.403l6.617-25.886h7.279l2.409,2.403l6.17,25.886h-5.665l-2.409-2.403L98.506,56.683
		L98.506,56.683z M95.507,38.122l2.508,12.367H91.24l2.799-12.384L95.507,38.122L95.507,38.122z M91.785,33.913l-6.233,24.384h3.923
		l1.078-4.768h8.08l0.967,4.768h3.894l-5.61-24.384H91.785L91.785,33.913z"/>
	<path fill-rule="evenodd" clip-rule="evenodd" d="M110.814,40.334h-2.884l-2.409-2.403v-4.768h15.881l2.409,2.403v4.768h-5.294
		V61.5h-5.293l-2.409-2.403V40.334L110.814,40.334z M111.565,58.346h3.792V37.18h5.294v-3.267h-14.379v3.267h5.294V58.346
		L111.565,58.346z"/>
	<path fill-rule="evenodd" clip-rule="evenodd" d="M140.773,33.162l2.409,2.403v4.768h-5.294V61.5h-5.294l-2.409-2.403V40.334
		h-2.884l-2.409-2.403v-4.768H140.773L140.773,33.162z M130.937,58.346h3.792V37.18h5.294v-3.267h-14.379v3.267h5.294V58.346
		L130.937,58.346z"/>
	<path fill-rule="evenodd" clip-rule="evenodd" d="M150.143,33.162l2.409,2.403v25.886h-5.294l-2.409-2.403V33.162H150.143
		L150.143,33.162z M149.392,33.913H145.6v24.384h3.792V33.913L149.392,33.913z"/>
	<path fill-rule="evenodd" clip-rule="evenodd" d="M83.176,21.782v1.025h-2.602v-1.025v-3.075v-1.025h2.602v1.025h2.484V15.04
		h-6.258v1.301h-2.602l0-1.301v-2.602h16.488c2.58,0,4.672,2.092,4.672,4.672c0,1.18-0.437,2.257-1.158,3.079
		c0.863,0.884,1.394,2.094,1.394,3.427c0,2.711-2.198,4.909-4.909,4.909H76.802l0-2.602V24.62h2.602v1.301h6.258v-4.14H83.176
		L83.176,21.782z M93.289,18.706c1.14,0,1.833-0.821,1.833-1.833c0-1.013-0.694-1.834-1.833-1.834h-4.199v3.667H93.289
		L93.289,18.706z M93.289,25.921c1.295,0,2.07-0.927,2.07-2.07c0-1.143-0.775-2.07-2.07-2.07h-4.199v4.14H93.289L93.289,25.921z"/>
</g>
</svg>
