<?xml version="1.0" encoding="utf-8"?>
<!-- Generator: Adobe Illustrator 21.1.0, SVG Export Plug-In . SVG Version: 6.00 Build 0)  -->
<svg version="1.1" id="Calque_1" xmlns="http://www.w3.org/2000/svg" xmlns:xlink="http://www.w3.org/1999/xlink" x="0px" y="0px"
	 viewBox="0 0 47 69" style="enable-background:new 0 0 47 69;" xml:space="preserve" width="47px" height="69px">
<style type="text/css">
	.st0{fill:#E2001A;}
	.st1{fill:#929496;}
	.st2{fill:url(#SVGID_1_);}
	.st3{fill:url(#SVGID_2_);}
	.st4{fill:url(#SVGID_3_);}
	.st5{fill:url(#SVGID_4_);}
	.st6{fill:url(#SVGID_5_);}
	.st7{fill:url(#SVGID_6_);}
	.st8{fill:url(#SVGID_7_);}
	.st9{fill:url(#SVGID_8_);}
	.st10{fill:url(#SVGID_9_);}
</style>
<path class="st0" d="M0,0.1h46.9v51.1H0V0.1z"/>
<path d="M3,56.1v2.6c0,0.7,0.1,0.8,0.6,0.8h0.2V60H0v-0.6h0.2c0.5,0,0.6-0.1,0.6-0.8v-4.8c0-0.7-0.1-0.8-0.6-0.8H0v-0.6h4.6
	c0.6,0,1,0,1.2,0.2c0.5,0.3,0.7,0.8,0.7,1.6c0,1.2-0.4,1.9-1.2,1.9H5.2l1.4,2.7c0.3,0.5,0.3,0.5,0.6,0.5h0.1V60H4.8L3,56.1z M3,55.7
	h0.3c0.7,0,1-0.3,1-1.3c0-1.1-0.2-1.4-0.9-1.4H3V55.7z M12.6,57.2h-1v-0.3c0-0.5-0.1-0.6-0.5-0.6h-0.2c-0.3,0-0.3,0.1-0.3,0.3v2.2
	c0,0.6,0.1,0.6,0.8,0.6h0.3c0.6,0,0.8-0.1,0.9-0.3c0.1-0.2,0.1-0.3,0.1-0.9v-0.5h1.2V60H7.4v-0.6h0.2c0.5,0,0.6-0.1,0.6-0.8v-4.8
	c0-0.7-0.1-0.8-0.6-0.8H7.4v-0.6h6.2v1.9h-1.2v-0.4c0-0.8-0.2-1-1-1h-0.2c-0.6,0-0.7,0.1-0.7,0.7v1.5c0,0.4,0,0.4,0.4,0.4h0.2
	c0.4,0,0.5-0.1,0.5-0.6v-0.3h1V57.2L12.6,57.2z M18.3,60l-2.6-4.9v3.5c0,0.7,0.1,0.8,0.6,0.8h0.2V60H14v-0.6h0.2
	c0.5,0,0.6-0.1,0.6-0.8v-4.8c0-0.7-0.1-0.8-0.6-0.8H14v-0.6h2.8l2.8,5.1v-3.7c0-0.7-0.1-0.8-0.6-0.8h-0.2v-0.6h2.4V53H21
	c-0.6,0-0.6,0.1-0.6,0.8V60C20.4,60,18.3,60,18.3,60z M28,58.9c0.1,0.4,0.2,0.5,0.6,0.5h0.2V60H25v-0.6h0.2c0.3,0,0.4-0.1,0.4-0.3
	c0-0.1,0-0.1-0.1-0.3l-0.3-1.2c-0.1-0.3-0.1-0.3-0.4-0.3h-1.4c-0.1,0-0.2,0.1-0.2,0.3L22.8,59v0.2c0,0.2,0.1,0.3,0.3,0.3h0.3V60H21
	v-0.6h0.2c0.4,0,0.5-0.1,0.6-0.7l1.5-5c0.1-0.2,0.1-0.2,0.1-0.3c0-0.3-0.1-0.4-0.5-0.4h-0.2v-0.6H26C26,52.4,28,58.9,28,58.9z
	 M23.4,56.3L23.4,56.3c0,0.2,0.1,0.2,0.2,0.2h1c0.2,0,0.2,0,0.2-0.1v-0.1l-0.7-2.6L23.4,56.3z M34.4,58.1c0,1.4-0.8,2-2.6,2
	c-2,0-3-0.7-3-2.1v-4.3c0-0.7-0.1-0.8-0.6-0.8H28v-0.6h3.8V53h-0.2c-0.5,0-0.6,0.1-0.6,0.8v4.3c0,0.6,0,0.7,0.3,0.9
	c0.2,0.2,0.5,0.3,1,0.3c0.8,0,1.3-0.4,1.3-1.2v-4.3c0-0.7-0.1-0.8-0.6-0.8h-0.2v-0.6h2.4V53H35c-0.5,0-0.6,0.1-0.6,0.8
	C34.4,53.8,34.4,58.1,34.4,58.1z M41.4,60h-6.1v-0.6h0.2c0.6,0,0.6-0.1,0.6-0.8v-4.8c0-0.7-0.1-0.8-0.6-0.8h-0.2v-0.6h3.8V53H39
	c-0.5,0-0.6,0.1-0.6,0.8v4.8c0,0.8,0.1,0.9,0.6,0.8h0.3c0.7,0,0.9-0.3,0.9-1.1v-0.6h1.2V60z"/>
<path d="M47,52.5v2.2h-1.2v-0.3c0-0.6,0-0.8-0.2-1.1c-0.1-0.1-0.3-0.3-0.5-0.3s-0.3,0.1-0.3,0.4v5.2c0,0.7,0.1,0.8,0.6,0.8h0.2V60
	h-3.8v-0.6H42c0.5,0,0.6-0.1,0.6-0.8v-5.2c0-0.3-0.1-0.4-0.3-0.4c-0.5,0-0.6,0.4-0.6,1.3v0.4h-1.2v-2.2C40.5,52.5,47,52.5,47,52.5z
	 M9,61.2v2.3H7.8v-0.3c0-0.6-0.1-0.9-0.2-1.1c-0.1-0.2-0.3-0.3-0.5-0.3s-0.3,0.1-0.3,0.4v5.2c0,0.7,0.1,0.8,0.6,0.8h0.2v0.6H3.8
	v-0.6H4c0.5,0,0.6-0.1,0.6-0.8v-5.2c0-0.3,0-0.4-0.3-0.4c-0.5,0-0.6,0.4-0.6,1.3v0.4H2.5v-2.3H9z M12.1,64.8v2.5
	c0,0.7,0.1,0.8,0.6,0.8h0.2v0.6H9.1v-0.6h0.1c0.6,0,0.6-0.1,0.6-0.8v-4.8c0-0.7-0.1-0.8-0.6-0.8H9.1v-0.6h4.6c0.6,0,1,0.1,1.2,0.2
	c0.5,0.3,0.7,0.8,0.7,1.6c0,1.2-0.4,1.9-1.2,1.9h-0.1l1.4,2.7C15.9,68,16,68,16.3,68h0.1v0.6h-2.6C13.8,68.6,12.1,64.8,12.1,64.8z
	 M12.1,64.4h0.3c0.7,0,1-0.3,1-1.3c0-1.1-0.2-1.4-0.9-1.4h-0.4C12.1,61.7,12.1,64.4,12.1,64.4z M22.9,66.8c0,1.4-0.8,2-2.6,2
	c-2,0-3-0.7-3-2.1v-4.3c0-0.7-0.1-0.8-0.6-0.8h-0.1V61h3.8v0.6h-0.2c-0.5,0-0.6,0.1-0.6,0.8v4.3c0,0.6,0,0.7,0.3,0.9
	c0.2,0.2,0.5,0.3,1,0.3c0.8,0,1.3-0.4,1.3-1.2v-4.3c0-0.7-0.1-0.8-0.6-0.8h-0.2V61h2.3v0.6h-0.2c-0.5,0-0.6,0.1-0.6,0.8
	C22.9,62.4,22.9,66.8,22.9,66.8z M30,63.3h-1.2v-0.4c0-0.9-0.4-1.4-1.2-1.4c-0.6,0-1,0.3-1.2,1c-0.1,0.4-0.1,1.2-0.1,2.5
	c0,0.8,0,1.6,0.1,2c0.1,1,0.5,1.4,1.2,1.4c0.8,0,1.2-0.5,1.2-1.6v-0.5H30v2.1c-0.7,0.3-1.6,0.5-2.6,0.5c-1.4,0-2.3-0.3-2.8-1
	c-0.5-0.6-0.6-1.5-0.6-3.1c0-2.9,0.8-3.8,3.5-3.8c0.9,0,1.3,0.1,2.3,0.3c0.1,0,0.1,0,0.2,0.1C30,61.4,30,63.3,30,63.3z M37.1,67.7
	c0.1,0.3,0.3,0.4,0.5,0.4h0.1v0.6H35l-1.3-3.1l-0.4,0.5v1.2c0,0.7,0.1,0.8,0.6,0.8H34v0.6h-3.8v-0.6h0.2c0.5,0,0.6-0.1,0.6-0.8v-4.8
	c0-0.7-0.1-0.8-0.6-0.8h-0.2v-0.6H34v0.6c-0.5,0-0.6,0.1-0.6,0.8v2.3l1.9-2.5l0.1-0.1c0.1-0.1,0.1-0.2,0.1-0.2
	c0-0.1-0.1-0.1-0.2-0.1H35v-0.6h2.3v0.6h-0.1c-0.5,0-0.5,0.1-0.9,0.6l-0.9,1.2C35.4,63.7,37.1,67.7,37.1,67.7z M43.4,63.2h-1.2V63
	c0-1-0.4-1.4-1.1-1.4c-0.6,0-1,0.3-1,1c0,0.6,0.2,0.8,1,1.1l0.4,0.1c1.7,0.6,2.2,1.2,2.2,2.5c0,0.8-0.2,1.4-0.6,1.8
	c-0.6,0.5-1.4,0.8-2.4,0.8c-0.7,0-1.2-0.1-2.4-0.5L38,68.3v-2h1.2v0.4c0,1.1,0.4,1.6,1.2,1.6c0.7,0,1.1-0.4,1.1-1.2
	c0-0.8-0.2-1-1.6-1.5c-1.6-0.6-2-1-2-2.3c0-1.7,0.8-2.4,2.8-2.4c0.8,0,1.7,0.1,2.5,0.4v1.9L43.4,63.2z"/>
<path class="st1" d="M37.6,25.5V26l-9.7,17.4h-8.3L9.4,26.1v-0.9L19,7.5h8.3L37,24.9v0.6H37.6z M28.8,25.5l-5.4-10.8L18,25.5
	l5.4,10.7L28.8,25.5z"/>
<linearGradient id="SVGID_1_" gradientUnits="userSpaceOnUse" x1="10.0985" y1="36.8459" x2="36.4505" y2="52.0609" gradientTransform="matrix(1 0 0 -1 0 70)">
	<stop  offset="0" style="stop-color:#221F20"/>
	<stop  offset="1" style="stop-color:#FFFFFF"/>
</linearGradient>
<path class="st2" d="M37.9,25.5c0,0.2-0.1,0.5-0.2,0.7L28,43.6c-0.1,0.2-0.3,0.3-0.5,0.3h-8.2c-0.3,0-0.5-0.1-0.6-0.3L9.2,26.2
	C9,26,8.9,25.8,8.9,25.5c0-0.3,0.1-0.5,0.2-0.7l9.6-17.4c0.1-0.2,0.3-0.3,0.6-0.3h8.2c0.2,0,0.4,0.1,0.5,0.3l9.7,17.4
	C37.8,25,37.9,25.3,37.9,25.5z M28,25.5L23.4,16l-4.6,9.5l4.6,9.4C23.4,34.9,28,25.5,28,25.5z"/>
<linearGradient id="SVGID_2_" gradientUnits="userSpaceOnUse" x1="23.0465" y1="48.1368" x2="29.1615" y2="51.6678" gradientTransform="matrix(1 0 0 -1 0 70)">
	<stop  offset="0" style="stop-color:#221F20"/>
	<stop  offset="1" style="stop-color:#A6A8AA"/>
</linearGradient>
<path class="st3" d="M28.8,25.5H28L23.4,16v-1.3L28.8,25.5z"/>
<linearGradient id="SVGID_3_" gradientUnits="userSpaceOnUse" x1="17.4561" y1="56.7946" x2="28.2731" y2="50.5506" gradientTransform="matrix(1 0 0 -1 0 70)">
	<stop  offset="0" style="stop-color:#221F20"/>
	<stop  offset="1" style="stop-color:#FFFFFF"/>
</linearGradient>
<path class="st4" d="M28,7.4c-1.3,2.3-2.7,4.6-4.6,8.7L22,19l-3.1,6.5H18l5.4-10.7c1.4-2.5,2.8-5.1,4.3-7.6
	C27.8,7.2,27.9,7.2,28,7.4z"/>
<linearGradient id="SVGID_4_" gradientUnits="userSpaceOnUse" x1="10.7759" y1="57.923" x2="26.0299" y2="49.116" gradientTransform="matrix(1 0 0 -1 0 70)">
	<stop  offset="0" style="stop-color:#808183"/>
	<stop  offset="1" style="stop-color:#FFFFFF"/>
</linearGradient>
<path class="st5" d="M9.2,25.5v-0.4l9.7-17.6c0.1-0.1,0.2-0.1,0.3-0.1h8.3c-1.4,2.4-3,5.1-4.3,7.5L18,25.5H9.2z"/>
<linearGradient id="SVGID_5_" gradientUnits="userSpaceOnUse" x1="24.7399" y1="48.804" x2="37.4109" y2="56.12" gradientTransform="matrix(1 0 0 -1 0 70)">
	<stop  offset="0" style="stop-color:#D0D2D3"/>
	<stop  offset="1" style="stop-color:#FFFFFF"/>
</linearGradient>
<path class="st6" d="M28.8,25.5h8.8c0-0.2-0.1-0.4-0.2-0.6L27.8,7.7c-1.2,2-2.5,4.2-4.1,7.7L28.8,25.5z"/>
<linearGradient id="SVGID_6_" gradientUnits="userSpaceOnUse" x1="23.2549" y1="35.5033" x2="19.0379" y2="42.8093" gradientTransform="matrix(1 0 0 -1 0 70)">
	<stop  offset="0" style="stop-color:#929496"/>
	<stop  offset="1" style="stop-color:#FFFFFF"/>
</linearGradient>
<path class="st7" d="M18,25.5h0.9l4.5,9.4v1.3L18,25.5z"/>
<linearGradient id="SVGID_7_" gradientUnits="userSpaceOnUse" x1="21.8451" y1="28.3917" x2="25.5111" y2="42.0717" gradientTransform="matrix(1 0 0 -1 0 70)">
	<stop  offset="0" style="stop-color:#221F20"/>
	<stop  offset="1" style="stop-color:#A6A8AA"/>
</linearGradient>
<path class="st8" d="M18.8,43.6c1.3-2.3,2.7-4.6,4.6-8.7l1.4-3l3.1-6.5h0.8l-5.4,10.7c-1.4,2.5-2.8,5.1-4.3,7.6
	C19,43.8,18.9,43.7,18.8,43.6z"/>
<linearGradient id="SVGID_8_" gradientUnits="userSpaceOnUse" x1="21.8071" y1="39.2642" x2="34.8821" y2="31.7152" gradientTransform="matrix(1 0 0 -1 0 70)">
	<stop  offset="0" style="stop-color:#404041"/>
	<stop  offset="1" style="stop-color:#FFFFFF"/>
</linearGradient>
<path class="st9" d="M37.6,25.5V26l-9.7,17.6c-0.1,0.1-0.2,0.1-0.3,0.1h-8.2c1.4-2.4,3-5.1,4.3-7.5l5.4-10.7
	C29.1,25.5,37.6,25.5,37.6,25.5z"/>
<linearGradient id="SVGID_9_" gradientUnits="userSpaceOnUse" x1="9.1417" y1="32.7374" x2="21.8137" y2="40.0534" gradientTransform="matrix(1 0 0 -1 0 70)">
	<stop  offset="0" style="stop-color:#221F20"/>
	<stop  offset="1" style="stop-color:#D0D2D3"/>
</linearGradient>
<path class="st10" d="M18,25.5H9.2c0,0.2,0.1,0.4,0.2,0.6L19,43.3c1.2-2,2.5-4.2,4.1-7.7L18,25.5z"/>
</svg>
