<?xml version="1.0" encoding="utf-8"?>
<!-- Generator: Adobe Illustrator 16.0.0, SVG Export Plug-In . SVG Version: 6.00 Build 0)  -->
<!DOCTYPE svg PUBLIC "-//W3C//DTD SVG 1.1//EN" "http://www.w3.org/Graphics/SVG/1.1/DTD/svg11.dtd">
<svg version="1.1" id="Layer_1" xmlns="http://www.w3.org/2000/svg" xmlns:xlink="http://www.w3.org/1999/xlink" x="0px" y="0px"
	 width="180px" height="18px" viewBox="0 0 180 18" enable-background="new 0 0 180 18" xml:space="preserve">
<g>
	<path fill="#B0B0B0" d="M92.424,1.827l-2.578,4.502c0.794,0.68,1.324,1.702,1.324,2.818c0,2.05-1.695,3.712-3.784,3.712
		c-0.397,0-0.78-0.061-1.141-0.172l-2.516,4.524c1.116,0.488,2.354,0.761,3.656,0.761c4.969,0,8.994-3.951,8.994-8.826
		C96.38,6.095,94.823,3.412,92.424,1.827z"/>
	<path fill="#B0B0B0" d="M88.254,5.536l2.574-4.544c-1.061-0.43-2.224-0.67-3.442-0.67c-4.969,0-8.995,3.952-8.995,8.826
		c0,2.965,1.51,5.586,3.797,7.188l2.546-4.43l0.055-0.057c-0.731-0.678-1.188-1.638-1.188-2.702c0-2.051,1.694-3.713,3.785-3.713
		C87.68,5.434,87.979,5.474,88.254,5.536z"/>
	<path fill="#B0B0B0" d="M126.17,1.827l-2.578,4.502c0.793,0.68,1.323,1.702,1.323,2.818c0,2.05-1.694,3.712-3.784,3.712
		c-0.396,0-0.781-0.061-1.14-0.172l-2.517,4.524c1.117,0.488,2.354,0.761,3.655,0.761c4.968,0,8.995-3.951,8.995-8.826
		C130.126,6.095,128.568,3.412,126.17,1.827z"/>
	<path fill="#B0B0B0" d="M122,5.536l2.574-4.544c-1.063-0.43-2.225-0.67-3.443-0.67c-4.968,0-8.994,3.952-8.994,8.826
		c0,2.965,1.51,5.586,3.797,7.188l2.545-4.43l0.056-0.057c-0.729-0.678-1.188-1.638-1.188-2.702c0-2.051,1.694-3.713,3.785-3.713
		C121.425,5.434,121.727,5.474,122,5.536z"/>
	<polygon fill="#B0B0B0" points="97.295,0.719 111.188,0.719 111.188,6.119 106.843,6.119 106.843,17.51 101.639,17.51 
		101.639,6.119 97.295,6.119 	"/>
	<path fill="#B0B0B0" d="M144.173,10c0.818,0.887,1.136,2.044,1.136,3.123c0,2.424-2.002,4.389-4.473,4.389h-0.061h-8.988v-5.137
		h5.85c0.315,0,0.569-0.059,0.569-0.368c0-0.177-0.083-0.335-0.213-0.437l-4.709-3.078c-0.992-0.805-1.626-2.023-1.626-3.385
		c0-2.424,2.003-4.388,4.474-4.388h8.257v4.713H139.1c-0.315,0-0.57,0.06-0.57,0.368c0,0.133,0.047,0.254,0.125,0.351L144.173,10z"
		/>
	<polygon fill="#B0B0B0" points="157.895,5.477 151.141,17.51 145.034,17.51 154.883,0 	"/>
	<polygon fill="#B0B0B0" points="158.73,6.952 164.73,17.51 158.754,17.51 155.872,12.068 	"/>
	<polygon fill="#B0B0B0" points="170.408,17.51 165.204,17.51 165.204,0 174.666,7.3 174.666,0.719 180,0.719 180,17.975 
		170.408,10.676 	"/>
</g>
<g>
	<polygon fill="#105192" points="0,17.706 5.494,17.706 5.494,10.809 12.257,10.809 12.257,7.27 5.494,7.27 5.494,4.408 
		13.331,4.408 13.331,0.573 0,0.573 	"/>
	<path fill="#105192" d="M55.614,17.706V0.573h6.672c6.384,0,9.636,1.866,9.636,8.492c0,6.408-3.383,8.641-9.636,8.641H55.614z
		 M61.107,4.407v9.463h1.892c2.186,0,3.575-1.32,3.575-4.732c0-3.412-0.908-4.731-3.575-4.731H61.107z"/>
	<path fill="#105192" d="M36.749,17.706V0.573h9.158c4.519,0,6.511,1.821,6.511,4.767c0,2.284-1.518,4.103-4,4.619
		c1.654,0.441,2.069,0.998,3.034,3.084l2.482,4.664h-5.959l-1.742-3.42c-1.515-2.857-2.247-3.354-3.278-3.354h-0.771v6.773
		L36.749,17.706L36.749,17.706z M42.184,3.813V7.69h1.047c1.655,0,3.752-0.049,3.752-1.988c0-1.594-1.793-1.889-3.752-1.889H42.184z
		"/>
	<path fill="#105192" d="M15.513,9.139c0-5.498,3.151-8.861,9.194-8.861c6.042,0,9.194,3.363,9.194,8.861
		c0,5.45-3.206,8.861-9.194,8.861C18.716,18,15.513,14.588,15.513,9.139z M20.929,9.139c0,2.57,1.076,4.982,3.778,4.982
		c2.7,0,3.776-2.412,3.776-4.982c0-2.703-1.076-4.98-3.776-4.98C22.005,4.158,20.929,6.436,20.929,9.139z"/>
</g>
</svg>
