<?xml version="1.0" standalone="no"?>
<!DOCTYPE svg PUBLIC "-//W3C//DTD SVG 20010904//EN"
 "http://www.w3.org/TR/2001/REC-SVG-20010904/DTD/svg10.dtd">
<svg version="1.0" xmlns="http://www.w3.org/2000/svg"
 width="192.000000pt" height="28.000000pt" viewBox="0 0 192.000000 28.000000"
 preserveAspectRatio="xMidYMid meet">

<g transform="translate(0.000000,28.000000) scale(0.100000,-0.100000)"
fill="#000000" stroke="none">
<path d="M55 258 c-12 -38 -26 -131 -21 -144 4 -11 27 -14 102 -14 54 0 94 -3
90 -7 -4 -4 -46 -8 -94 -9 -117 -2 -115 -1 -109 -23 2 -10 0 -26 -5 -35 -8
-14 4 -16 130 -16 100 0 142 4 150 13 5 6 13 39 17 73 5 46 3 63 -7 72 -8 6
-54 13 -104 15 l-89 3 102 2 c56 1 104 5 106 10 3 4 8 22 12 40 l7 32 -142 0
c-104 0 -142 -3 -145 -12z"/>
<path d="M370 263 c0 -11 -29 -192 -36 -226 -5 -22 -2 -27 14 -27 17 0 22 13
35 87 15 83 16 48 1 -44 -5 -36 -4 -43 10 -43 14 0 21 14 28 65 3 18 12 20 82
23 l79 3 -5 -46 -6 -45 39 0 c44 0 42 -5 59 125 6 44 13 92 16 108 5 26 4 27
-34 27 -39 0 -40 0 -46 -45 l-7 -45 -81 0 -80 0 6 45 c6 37 4 45 -8 45 -9 0
-18 -10 -20 -22 -12 -55 -15 -60 -12 -20 4 36 1 42 -15 42 -10 0 -19 -3 -19
-7z m260 -123 c0 -5 -5 -10 -11 -10 -5 0 -7 5 -4 10 3 6 8 10 11 10 2 0 4 -4
4 -10z"/>
<path d="M715 248 c-12 -54 -34 -222 -29 -230 3 -4 65 -8 139 -8 l134 0 -2 38
-2 37 -95 6 -95 5 103 2 c92 2 103 4 100 20 -1 9 1 23 6 30 15 24 -7 31 -99
35 l-90 3 92 2 c97 2 104 6 110 54 l3 28 -135 0 c-131 0 -135 -1 -140 -22z
m32 -75 c-3 -10 -5 -4 -5 12 0 17 2 24 5 18 2 -7 2 -21 0 -30z m3 -30 c0 -5
-5 -15 -10 -23 -8 -12 -10 -11 -10 8 0 12 5 22 10 22 6 0 10 -3 10 -7z m-23
-85 c-3 -8 -6 -5 -6 6 -1 11 2 17 5 13 3 -3 4 -12 1 -19z"/>
<path d="M1020 268 c0 -2 -9 -57 -20 -122 -10 -66 -17 -123 -14 -128 3 -4 64
-8 136 -8 125 0 130 1 125 20 -3 11 -1 23 4 26 26 16 0 24 -80 24 -50 0 -92 4
-96 9 -3 5 1 48 8 95 l14 86 -38 0 c-22 0 -39 -1 -39 -2z"/>
<path d="M1291 196 c-6 -41 -14 -100 -17 -130 l-7 -57 144 3 144 3 18 115 c9
63 15 120 13 127 -4 10 -41 13 -144 13 l-140 0 -11 -74z m259 22 c0 -13 -5
-58 -12 -100 l-11 -78 -116 2 -116 2 113 3 112 4 2 27 c1 15 2 37 2 49 1 11 4
25 9 29 4 4 7 23 7 42 l0 34 -104 -4 c-57 -1 -102 0 -99 5 2 4 51 7 109 7 101
0 104 -1 104 -22z m-72 -35 c-21 -2 -55 -2 -75 0 -21 2 -4 4 37 4 41 0 58 -2
38 -4z m-139 -45 c1 -5 -3 -8 -9 -8 -5 0 -10 12 -9 28 0 24 1 25 9 7 5 -11 9
-23 9 -27z m151 -48 c0 -6 -28 -10 -64 -10 -36 0 -68 5 -71 10 -4 6 20 10 64
10 41 0 71 -4 71 -10z"/>
<path d="M1615 248 c-3 -13 -7 -50 -8 -83 l-2 -60 95 -6 95 -5 -80 -2 c-95 -3
-125 -9 -125 -29 0 -12 21 -14 120 -11 66 2 120 0 120 -4 0 -5 -56 -8 -125 -8
-105 0 -125 -2 -125 -15 0 -13 20 -15 142 -13 l143 3 17 105 c24 153 25 148
-22 148 -37 1 -40 -1 -40 -28 0 -54 -7 -60 -69 -60 -32 0 -60 2 -63 5 -3 3 -2
23 2 45 l7 40 -38 0 c-32 0 -40 -4 -44 -22z m232 -110 c-3 -7 -5 -2 -5 12 0
14 2 19 5 13 2 -7 2 -19 0 -25z"/>
</g>
</svg>
