<?xml version="1.0" encoding="utf-8"?>
<!-- Generator: Adobe Illustrator 16.0.0, SVG Export Plug-In . SVG Version: 6.00 Build 0)  -->
<!DOCTYPE svg PUBLIC "-//W3C//DTD SVG 1.1//EN" "http://www.w3.org/Graphics/SVG/1.1/DTD/svg11.dtd">
<svg version="1.1" id="Layer_1" xmlns="http://www.w3.org/2000/svg" xmlns:xlink="http://www.w3.org/1999/xlink" x="0px" y="0px"
	 width="108px" height="80px" viewBox="0 0 108 80" enable-background="new 0 0 108 80" xml:space="preserve">
<g>
	<path d="M58.889,13.283v27.225h3.658V18.172c0-1.223,0.992-2.217,2.212-2.217l10.748,0.02v-4.102l-15.192-0.021
		C59.529,11.852,58.889,12.494,58.889,13.283L58.889,13.283z"/>
	<path d="M49.65,5.822H31.212v4.477h15.192c1.633,0,2.977,1.346,2.977,2.984v27.225h3.203V8.766
		C52.584,7.129,51.281,5.822,49.65,5.822L49.65,5.822z"/>
	<path d="M57.068,5.822c-1.61,0-2.935,1.307-2.935,2.943v31.742h3.203l0.021-27.225c0-1.639,1.304-2.984,2.957-2.984h15.191V5.822
		H57.068L57.068,5.822z"/>
	<path d="M46.404,11.852H31.212v4.104h10.749c1.219,0,2.19,0.994,2.19,2.217V40.51h3.679V13.283
		C47.83,12.494,47.189,11.852,46.404,11.852L46.404,11.852z"/>
	<polygon points="75.507,0 31.212,0 31.212,4.455 75.507,4.477 	"/>
	<polygon points="25.094,50.682 23.295,56.398 15.214,56.398 8.744,76.25 1.613,76.25 8.083,56.398 0,56.398 1.799,50.66 	"/>
	<path d="M32.328,55.924c0.621-0.188,1.302-0.291,2.006-0.291c3.326,0,4.814,1.969,4.443,5.904
		c-0.207,2.301-1.033,4.436-2.459,6.383c-1.158,1.617-2.502,2.652-3.99,3.107v5.533c3.639-0.519,6.76-1.97,9.342-4.33
		c3.164-2.881,5.004-6.65,5.479-11.273c0.433-4.082-0.765-7.023-3.618-8.848c-2.046-1.303-4.754-1.967-8.144-1.967
		c-1.054,0-2.088,0.063-3.06,0.207L32.328,55.924L32.328,55.924z M28.277,58.99c1.157-1.576,2.501-2.611,4.051-3.066V50.35
		c-3.556,0.498-6.655,1.926-9.26,4.269c-3.225,2.881-5.064,6.508-5.52,10.838c-0.062,0.519-0.082,0.994-0.103,1.472v0.27
		c0.041,2.734,0.889,4.932,2.563,6.588c2.025,1.99,5.063,3.006,9.095,3.006c1.116,0,2.191-0.084,3.225-0.229v-5.533
		c-0.6,0.166-1.199,0.27-1.84,0.27c-1.716,0-2.977-0.578-3.781-1.697c-0.725-0.996-1.014-2.363-0.848-4.104
		C26.086,63.072,26.893,60.896,28.277,58.99L28.277,58.99z"/>
	<polygon points="40.079,76.25 48.348,50.682 67.445,50.682 65.605,56.422 53.66,56.422 52.088,61.27 63.479,61.27 61.823,66.428 
		50.414,66.428 47.211,76.25 	"/>
	<path d="M73.668,56.959l0.766,9.221h-3.494v4.621l3.679,0.02l0.579,5.431h7.256l-1.984-25.567h-9.527v10.256l2.646-3.979
		L73.668,56.959L73.668,56.959z M70.939,66.18h-3.474l3.474-5.242V50.682h-0.166L53.763,76.25h7.709l3.245-5.492l6.222,0.043V66.18
		L70.939,66.18z"/>
	<path d="M107.896,57.83c0.414-2.963-0.414-5.139-2.459-6.547c-1.758-1.203-4.301-1.824-7.607-1.824
		c-3.143,0-5.85,0.662-8.082,1.988c-2.563,1.492-3.988,3.627-4.258,6.383c-0.311,3.045,1.592,5.262,5.705,6.65
		c1.509,0.436,3.039,0.871,4.588,1.285c1.592,0.58,2.357,1.43,2.232,2.506c-0.166,1.721-1.652,2.569-4.466,2.569
		c-1.797,0-3.059-0.271-3.803-0.81c-0.808-0.559-1.156-1.532-1.013-2.881h-7.358c-0.331,2.965,0.476,5.285,2.42,6.922
		c1.011,0.828,2.272,1.449,3.761,1.822L86.338,80h6.573l1.114-3.709c2.979-0.27,5.479-1.057,7.504-2.402
		c2.336-1.555,3.639-3.543,3.887-5.969c0.395-3.854-2.148-6.486-7.646-7.873c-2.213-0.58-3.516-0.975-3.908-1.16
		c-0.723-0.311-1.031-0.83-0.971-1.555c0.082-0.746,0.537-1.326,1.385-1.76c0.724-0.373,1.57-0.561,2.584-0.561
		c2.646,0,3.865,0.934,3.68,2.817L107.896,57.83L107.896,57.83z"/>
</g>
</svg>
