<?xml version="1.0" encoding="utf-8"?>
<!-- Generator: Adobe Illustrator 17.0.0, SVG Export Plug-In . SVG Version: 6.00 Build 0)  -->
<!DOCTYPE svg PUBLIC "-//W3C//DTD SVG 1.1//EN" "http://www.w3.org/Graphics/SVG/1.1/DTD/svg11.dtd">
<svg version="1.1" id="Livello_1" xmlns="http://www.w3.org/2000/svg" xmlns:xlink="http://www.w3.org/1999/xlink" x="0px" y="0px"
	 width="175px" height="176.426px" viewBox="0 0 175 176.426" enable-background="new 0 0 175 176.426" xml:space="preserve">
<g>
	<path fill="#E6E7E8" d="M86.87,176.344c-1.777-0.669-14.725-6.976-18.219-8.875c-24.163-13.13-40.241-28.909-53.345-52.352
		C6.452,99.275,1.733,82.385,0.185,60.981c-0.35-4.818-0.175-20.722,0.288-26.333l0.202-2.449l3.521-2.692
		c12.817-9.798,28.051-18.159,41.455-22.751c7.665-2.627,16.853-4.731,26.216-6.004c6.882-0.935,23.464-1.015,30.161-0.145
		c16.087,2.09,28.376,5.699,41.949,12.319c10.269,5.009,21.125,11.914,29.337,18.66l1.118,0.919l0.349,6.277
		c0.434,7.76,0.191,22.809-0.46,28.581c-1.072,9.512-2.382,15.93-5.114,25.076c-2.322,7.773-3.744,11.372-7.175,18.147
		c-6.835,13.501-14.201,23.757-24.31,33.85c-11.795,11.776-23.116,19.39-42.485,28.574C88.052,176.416,87.571,176.608,86.87,176.344
		L86.87,176.344z M24.776,114.353c-0.34-0.557-1.59-2.956-2.777-5.332C15.451,95.918,11.53,82.447,9.848,67.258
		C9.261,61.956,8.939,45.67,9.321,40.619l0.267-3.522L8.73,35.904c-1.066-1.482-1.066-1.597,0.01-1.812
		c0.478-0.096,1.546-0.702,2.373-1.348c3.997-3.119,12.04-8.399,16.328-10.718c7.51-4.062,8.086-4.27,24.524-8.824
		c6.563-1.819,12.148-3.175,16.381-3.979c2.78-0.527,4.052-1.061,2.53-1.061c-0.445,0-0.9-0.148-1.011-0.327
		c-0.32-0.518,0.732-1.108,3.534-1.979c1.432-0.446,2.726-0.928,2.877-1.072c0.557-0.532-1.474-0.67-4.986-0.336
		c-18.007,1.709-37.702,9.111-54.996,20.669c-2.527,1.688-6.221,4.158-8.21,5.489l-3.616,2.42l1.245,1.149
		c1.138,1.05,1.224,1.237,1.013,2.189c-0.36,1.618-0.22,19.813,0.189,24.772c0.885,10.709,2.468,18.803,5.748,29.395
		c2.917,9.416,7.631,19.166,11.574,23.938C25.35,115.817,25.634,115.756,24.776,114.353L24.776,114.353z M157.535,107.371
		c4.121-8.175,6.064-13.206,7.751-20.056c0.858-3.493,1.523-8.487,1.073-8.074c-0.116,0.106-0.814,2.518-1.552,5.359
		c-2.935,11.291-5.121,17.369-9.241,25.68c-1.252,2.526-1.998,4.249-1.657,3.828C154.247,113.686,155.88,110.654,157.535,107.371
		L157.535,107.371z M36.96,48.287c0-0.164,0.263-0.439,0.585-0.611c0.322-0.172,0.905-0.831,1.294-1.466
		c0.391-0.633,1.758-2.323,3.04-3.754c6.539-7.305,12.684-11.952,20.696-15.656c3.614-1.671,5.889-2.469,10.822-3.796
		c2.274-0.612,4.265-1.239,4.425-1.394c0.159-0.155,0.642-0.291,1.072-0.301c0.747-0.019,0.737-0.041-0.24-0.527
		c-0.964-0.479-1.198-0.47-4.287,0.167c-11.532,2.38-22.85,8.619-30.888,17.027c-3.017,3.157-6.466,7.603-7.512,9.686
		c-0.381,0.757-0.886,1.619-1.122,1.914c-0.29,0.361-0.315,0.536-0.077,0.536c0.194,0,0.354,0.227,0.354,0.505
		c0,0.299,0.374-0.01,0.919-0.763C36.546,49.157,36.96,48.451,36.96,48.287L36.96,48.287z"/>
	<path fill="#ACAFB2" d="M82.278,173.703c-11.619-5.479-18.82-9.414-25.875-14.136c-17.95-12.015-31.566-27.375-42.21-47.615
		C8.512,101.145,4.296,88.057,2.206,74.739c-1.464-9.33-1.781-14.988-1.558-27.842c0.11-6.4,0.28-12.231,0.377-12.959
		c0.166-1.237,0.369-1.475,3.13-3.673C18.22,19.063,36.524,9.645,53.009,5.128c11.762-3.222,22.358-4.654,34.473-4.655
		c11.317-0.001,20.82,1.194,32.304,4.063c17.874,4.465,37.337,14.607,53.934,28.105c0.954,0.776,1.162,24.24,0.294,33.086
		c-0.99,10.1-2.366,17.007-5.394,27.089c-3.487,11.614-7.713,20.37-15.441,32.007c-5.266,7.928-9.199,12.754-15.608,19.153
		c-10.553,10.537-21.203,17.995-36.887,25.837c-6.792,3.395-12.741,6.147-13.263,6.136
		C87.204,175.946,84.888,174.935,82.278,173.703L82.278,173.703z M95.209,169.142c8.265-4.18,11.515-6.082,13.371-7.824
		l10.129-5.533l16.932-12.372l22.658-30.648l11.93-33.331l2.166-27.146l-1.248-18.01l-17.825-13.437l-21.919-10.377
		c-6.15-2.814-19.417-6.191-30.141-7.674c-5.517-0.762-19.493-0.94-25.626-0.326C62.9,3.739,51.037,6.584,41.493,10.652
		c-11.591,4.94-17.916,8.408-29.488,16.164c-7.944,5.324-8.276,5.585-8.479,6.687c-0.115,0.63-0.303,4.728-0.418,9.108
		C2.43,68.453,6.776,90.513,16.286,109.502c14.999,28.7,40.127,52.223,70.962,63.075C88.114,172.588,90.046,171.754,95.209,169.142
		L95.209,169.142z"/>
	<path fill="#01336B" d="M81.972,161.534c-16.3-8.462-25.98-15.205-35.539-24.754c-8.84-8.831-14.64-16.583-20.773-27.763
		C15.201,89.951,11.176,68.749,12.977,42.203l0.194-2.857l2.939-2.217c13.621-10.279,28.009-17.559,41.825-21.162
		c10.537-2.748,17.849-3.664,29.242-3.664c10.504,0,16.184,0.621,26.18,2.865c12.52,2.81,26.099,8.834,38.276,16.98
		c5.016,3.355,9.793,6.987,10.077,7.657c0.153,0.363,0.291,6.31,0.305,13.214c0.026,11.457-0.032,12.996-0.666,17.607
		c-2.586,18.797-7.809,32.728-18.021,48.073c-10.244,15.392-23.476,27.68-40.075,37.21c-3.256,1.869-14.691,7.964-15.463,8.241
		C87.537,164.243,84.918,163.065,81.972,161.534L81.972,161.534z"/>
	<path fill="#E6E7E8" d="M94.154,142.872c11.136-1.213,21.847-5.391,30.768-12.003c3.063-2.27,8.501-7.516,11.029-10.637
		c6.391-7.897,10.82-17.253,12.977-27.405c0.794-3.743,0.846-4.446,0.853-11.789c0.007-6.804-0.077-8.26-0.666-11.329
		c-3.545-18.489-14.639-33.987-31.058-43.385c-5.756-3.296-13.173-5.912-20.316-7.166c-4.767-0.836-14.129-1.002-18.679-0.329
		c-15.487,2.29-29.15,9.664-38.96,21.026C26.094,56.08,21.39,77.54,27.32,98.185c4.817,16.774,17.176,31.324,33.065,38.927
		c5.76,2.757,13.705,5.033,20.057,5.747C83.807,143.237,90.743,143.244,94.154,142.872L94.154,142.872z M78.297,135.09
		c-18.968-3.199-35.441-16.361-42.272-33.774c-2.632-6.709-3.643-11.587-3.88-18.704c-0.193-5.842,0.208-9.99,1.442-14.894
		c5.365-21.313,21.828-37.079,42.98-41.161c4.698-0.907,5.027-0.878,5.598,0.489c1.283,3.071,2.457,9.432,3.632,19.694
		c0.494,0.936-0.129,8.025,1.924,7.161c0.388-0.244,0.589-0.973,0.762-2.749c1.239-12.798,3.236-23.411,4.685-24.908
		c0.376-0.388,0.828-0.38,3.573,0.063c11.282,1.821,21.572,7.162,29.935,15.539c4.385,4.392,7.152,8.125,9.781,13.192
		c4.76,9.177,6.733,17.741,6.36,27.604c-0.191,5.014-0.652,8.077-1.917,12.719c-5.301,19.46-21.403,34.725-41.192,39.055
		c-1.924,0.421-4.155,0.856-4.96,0.965l-1.462,0.2l-0.49-1.167c-1.463-3.485-3.322-13.758-4.089-22.603
		c-0.189-2.188-0.415-4.221-0.499-4.515c-0.157-0.547-1.173-0.743-1.459-0.282c-0.086,0.14-0.51,3.381-0.942,7.202
		c-1.293,11.456-3.059,20.34-4.184,21.052C81.13,135.579,81.222,135.585,78.297,135.09L78.297,135.09z"/>
	<path fill="#8D9093" d="M82.278,139.037c-0.253-0.058-2.114-0.242-4.134-0.408c-3.599-0.293-7.618-1.251-11.404-2.714
		c-1.743-0.673-4.486-2.194-4.297-2.383c0.064-0.063,1.212,0.312,2.55,0.835c5.909,2.31,8.113,2.774,14.223,2.998
		c4.423,0.163,5.929,0.327,6.866,0.748c0.916,0.413,1.097,0.606,0.764,0.816C86.434,139.192,83.261,139.266,82.278,139.037
		L82.278,139.037z M87.795,138.919c-0.388-0.245-0.441-1.767-0.368-10.636c0.048-5.692,0.414-11.58,0.393-13.105
		c-0.045-3.242,0.089-7.808-0.368-7.808c0.29-0.086,0.643,0.251,0.689,0.964c0.22,3.475,0.407,18.815,1.443,25.007
		c0.641,3.839,1.558,4.082,5.886,4.298c5.316-0.223,8.225-0.847,13.88-2.98c1.839-0.692,3.4-1.204,3.469-1.135
		c0.265,0.266-2.795,1.806-5.505,2.771c-3.852,1.371-7.879,2.198-12.637,2.592C89.854,139.288,88.389,139.296,87.795,138.919
		L87.795,138.919z"/>
	<path fill="#8D9093" d="M87.457,53.479c0.457,0,0.7-5.226,0.368-7.961c-0.494-4.082-0.583-22.846-0.111-23.317
		c0.66-0.66,8.067,0.135,13.09,1.404c5.209,1.316,8.093,2.405,12.708,4.798c3.378,1.753,6.625,3.856,6.359,4.121
		c-0.069,0.07-2.045-0.835-4.391-2.011c-5.532-2.772-8.295-3.752-13.822-4.901c-2.491-0.518-5.585-1.212-6.875-1.541
		c-3.021-0.771-3.789-0.755-4.712,0.101c-0.667,0.619-0.789,1.088-1.055,4.057c-0.223,2.495-0.2,3.978,0.089,5.779
		C89.028,38.652,90.077,41.312,87.457,53.479L87.457,53.479z"/>
	<path fill="#5F6269" d="M81.972,173.094c-11.261-5.351-17.798-8.896-24.496-13.285c-16.296-10.677-28.915-24.164-39.472-42.179
		C8.236,100.959,2.957,83.322,1.414,62.207c-0.374-5.124-0.185-25.358,0.263-28.018c0.451-2.682,0.644-0.667,0.367,3.847
		c-1.682,27.479,3.208,53.926,13.558,73.315c9.712,18.195,21.444,31.899,37.038,43.261c6.266,4.566,17.181,10.963,28.719,16.831
		c4.953,2.52,6.141,3.01,6.969,2.877c0.548-0.087,2.753-0.956,4.899-1.931c8.318-3.775,15.485-7.779,18.327-10.238
		c0.765-0.663,4.223-3.216,7.681-5.674c3.458-2.459,7.902-5.822,9.875-7.474c17.217-14.426,31.24-35.396,37.665-56.324
		c4.032-13.131,6.15-28.526,6.129-44.557c-0.009-6.678-0.384-13.921-0.773-14.936c-0.158-0.413-0.035-0.527,0.567-0.527
		c0.688,0,0.79,0.155,0.956,1.455c0.465,3.636,0.742,17.166,0.476,23.217c-0.603,13.692-2.08,22.705-5.692,34.705
		c-2.459,8.173-3.808,11.604-7.174,18.245c-7.339,14.488-17.204,27.767-27.511,37.031c-10.031,9.017-18.441,14.593-32.968,21.86
		c-5.55,2.776-13.279,6.505-13.422,6.476C87.346,175.643,84.918,174.494,81.972,173.094L81.972,173.094z M81.748,167.703
		c-8.122-4.23-18.843-11.093-22.311-14.284c-1.357-1.248-1.347-1.242,3.405,1.722c4.586,2.862,10.65,6.186,17.673,9.685l6.658,3.317
		l4.213-2.091c14.003-6.949,22.826-12.402,31.212-19.288c12.982-10.66,22.789-22.589,30.832-37.505
		c8.805-16.327,13.041-34.527,13.053-56.086c0.004-5.858-0.555-15.998-0.939-17.032c-0.418-1.126-12.659-9.66-19.245-13.418
		c-7.006-3.997-15.745-7.901-24.817-11.09c-2.604-0.915-4.809-1.739-4.9-1.83c-0.504-0.509,7.452,1.365,11.959,2.817
		c7.6,2.45,15.978,6.347,22.938,10.672c3.175,1.973,12.267,8.591,14.949,10.881c0.645,0.551,0.74,0.998,1.028,4.828
		c0.417,5.512,0.129,21.99-0.476,27.366c-1.19,10.573-4.062,22.836-7.595,32.429c-1.82,4.942-6.733,15.069-9.582,19.75
		c-2.291,3.764-8.244,12.336-10.845,15.617c-4.641,5.852-16.256,16.706-21.228,19.839c-3.676,2.315-19.249,10.335-25.72,13.244
		c-1.973,0.888-3.992,1.903-4.487,2.255c-0.495,0.353-0.948,0.638-1.006,0.635C86.459,170.133,84.313,169.039,81.748,167.703
		L81.748,167.703z M88.095,138.609c-0.391-0.25-0.443-1.378-0.358-7.723c0.112-8.202,0.629-11.197,0.676-3.918
		c0.037,5.849,0.393,9.499,0.967,9.926c0.626,0.465,0.916,1.71,0.397,1.71c-0.223,0-0.589,0.067-0.814,0.15
		C88.738,138.836,88.348,138.771,88.095,138.609L88.095,138.609z M82.431,138.297c-0.247-0.399,2.291-0.399,2.909,0
		c0.33,0.213,0.009,0.298-1.13,0.302C83.335,138.601,82.535,138.465,82.431,138.297L82.431,138.297z M44.004,42.219
		c0.003-0.47,3.441-4.046,5.872-6.107c5.236-4.439,12.515-8.546,18.529-10.457c5.918-1.88,16.935-3.914,16.935-3.126
		c0,0.182-0.05,0.331-0.113,0.331c-1.051,0-6.427,1.24-10.604,2.446c-7.831,2.262-15.708,6.221-22.658,11.389
		C47.38,40.104,44.003,42.448,44.004,42.219L44.004,42.219z M88.016,37.557c-0.347-2.324-0.57-13.263-0.291-14.238l0.264-0.919
		l3.346,0.105c3.696,0.116,8.028,0.847,12.212,2.06c2.605,0.755,6.594,2.379,6.594,2.684c0,0.078-0.655-0.057-1.453-0.301
		c-3.294-1.002-15.127-3.798-16.831-3.976c-1.614-0.169-1.857-0.123-2.039,0.383c-0.113,0.316-0.42,0.959-0.681,1.43
		c-0.366,0.658-0.525,2.388-0.695,7.502C88.302,36.53,88.147,38.436,88.016,37.557L88.016,37.557z M10.966,68.725
		c-0.614-4.961-0.906-8.807-1.111-14.633c-0.216-6.136,0.226-16.417,0.726-16.918c0.21-0.209,0.521,0.026,0.961,0.726
		c0.531,0.848,0.618,1.342,0.48,2.72c-1.051,10.447-1.28,18.272-0.756,25.85C11.447,68.643,11.745,74.587,10.966,68.725
		L10.966,68.725z M167.379,29.672c-3.13-2.098-5.765-4.121-5.783-4.439c-0.027-0.491,0.704-0.174,2.824,1.223
		c1.919,1.264,6.163,4.938,5.737,4.966C170.073,31.427,168.822,30.64,167.379,29.672L167.379,29.672z"/>
	<path fill="#8D9093" d="M80.412,172.641c-17.099-8.155-27.033-14.423-37.497-23.656c-15.356-13.553-28.52-33.232-35.139-52.532
		c-5.583-16.28-7.822-33.685-6.963-54.149c0.238-5.692,0.501-9.064,0.73-9.392c0.56-0.803,5.211-4.49,9.171-7.271
		c9.604-6.745,21.164-12.857,31.777-16.801c26.481-9.842,55.407-10.717,82.655-2.498c14.459,4.361,32.857,14.085,44.858,23.707
		c1.515,1.215,2.983,2.291,3.262,2.389c0.786,0.278,1.026,4.6,1.019,18.287c-0.008,12.929-0.245,16.208-1.852,25.721
		c-0.96,5.678-1.836,9.29-3.979,16.406c-3.45,11.459-7.93,20.727-15.531,32.127c-12.588,18.882-27.285,31.745-49.364,43.203
		c-6.682,3.467-15.354,7.474-16.171,7.471C87.019,175.648,83.88,174.293,80.412,172.641L80.412,172.641z M93.586,171.519
		c4.929-2.303,7.836-3.898,8.901-4.889c0.422-0.389,2.764-1.918,5.206-3.394c13.37-8.081,22.131-14.79,30.007-22.982
		c8.134-8.46,14.3-16.915,20.292-27.831c9.747-17.754,14.363-38.411,14.436-64.609c0.014-4.884-0.087-10.055-0.226-11.491
		c-0.245-2.551-0.275-2.626-1.299-3.215C148.269,16.286,129.08,6.221,101.416,2.139c-6.045-0.787-22.348-0.795-28.325-0.014
		C60.206,3.808,49.109,6.64,41.405,10.212c-14.277,6.617-18.307,8.81-28.023,15.243c-3.62,2.397-7.426,4.869-8.456,5.493
		l-1.874,1.135l-0.187,2.048c-0.45,4.899-0.58,19.095-0.225,24.554c1.694,26.074,7.871,45.168,20.999,64.914
		c4.527,6.811,8.998,12.242,15.143,18.4c11.252,11.274,21.251,18.076,41.422,28.179c6.52,3.266,7.488,3.661,8.459,3.456
		C89.057,173.551,91.274,172.598,93.586,171.519L93.586,171.519z M81.512,168.034c-8.945-4.681-17.256-10.028-24.16-15.544
		c-3.941-3.15-10.9-9.502-10.9-9.95c0-0.172,0.585,0.187,1.301,0.8c5.936,5.074,14.624,11.149,21.663,15.148
		c5.173,2.938,16.974,8.898,17.62,8.898c0.649,0,12.849-6.109,17.593-8.809c21.511-12.244,36.832-27.903,48.755-49.828
		c5.115-9.408,9.026-20.858,10.928-31.998c1.343-7.868,2.169-22.127,1.723-29.778c-0.395-7.214,1.429-9.14-4.529-13.643
		c-17.281-12.632-31.886-19.49-51.629-24.241c-2.923-0.704-5.61-1.399-5.97-1.544c-1.11-0.448,1.855-0.356,5.688,0.177
		c16.789,2.335,30.501,7.502,44.486,16.766c3.994,2.645,11.784,8.543,13.014,9.852l0.765,0.815l-0.004,13.371
		c-0.004,14.692-0.204,17.409-2.001,27.183c-2.876,15.651-7.832,29.397-15.018,41.648c-1.91,3.257-7.069,10.871-10.649,15.719
		c-4.285,5.8-15.467,16.822-21.26,20.956c-2.211,1.577-18.863,10.068-26.188,13.352c-2.414,1.082-4.52,2.213-4.68,2.514
		C87.54,170.872,86.212,170.494,81.512,168.034L81.512,168.034z M11.861,63.125l0.149,3.589c0.502,12.077,4.094,26.323,9.571,37.956
		c2.914,6.19,7.174,13.289,12.093,20.155c1.266,1.769,3.041,4.244,3.943,5.502c0.902,1.258,4.243,4.909,7.424,8.115
		c3.182,3.205,5.386,5.476,4.9,5.046C38.057,133,29.258,121.629,22.59,108.137C15.668,94.13,12.301,82.778,10.42,67.105
		c-0.701-5.836-0.83-28.92-0.169-30.078c1.373-2.402,16.18-12.275,23.647-15.767c2.99-1.399,8.706-3.614,9.267-3.591
		c0.209,0.008-1.28,0.812-3.308,1.785c-6.866,3.296-12.552,6.714-20.198,12.144c-1.515,1.077-3.96,2.681-5.435,3.566
		c-1.473,0.884-2.68,1.755-2.68,1.932L11.861,63.125L11.861,63.125z M51.312,144.497c-0.38-0.485-0.37-0.496,0.116-0.115
		c0.51,0.399,0.673,0.65,0.42,0.65C51.785,145.032,51.544,144.792,51.312,144.497L51.312,144.497z"/>
	<path fill="#101A4B" d="M81.359,160.918c-21.343-11.042-34.83-21.951-46.326-37.472c-10.505-14.185-17.052-28.942-20.237-45.623
		c-1.609-8.428-1.875-11.944-1.86-24.65c0.008-6.483,0.115-12.271,0.236-12.86c0.191-0.924,0.697-1.416,3.66-3.569
		c10.161-7.379,17.815-11.818,27.653-16.036c13.894-5.956,32.392-9.144,47.922-8.257c24.683,1.409,43.846,8.535,65.347,24.301
		c3.691,2.706,3.846,2.854,3.61,3.467c-0.134,0.35-0.219,0.351-0.508,0.01c-0.19-0.225-0.966-0.853-1.724-1.395
		c-0.758-0.542-2.567-1.857-4.023-2.922c-1.454-1.065-3.178-2.253-3.828-2.642c-0.65-0.388-1.934-1.201-2.854-1.806
		c-2.19-1.441-4.219-2.524-10.882-5.809c-8.454-4.168-10.333-5.043-11.329-5.278c-0.505-0.119-2.159-0.655-3.674-1.189
		c-10.259-3.621-22.765-5.625-35.061-5.618c-14.848,0.01-28.79,2.679-41.612,7.968c-3.544,1.462-11.503,5.431-14.816,7.389
		c-6.046,3.573-14.909,9.778-15.94,11.159c-0.782,1.047-1.074,4.731-1.101,13.887c-0.051,17.122,2.651,31.465,8.567,45.481
		c6.506,15.412,19.887,32.976,33.921,44.522c4.947,4.071,5.411,4.43,7.104,5.499c0.799,0.505,2.521,1.642,3.828,2.526
		c1.305,0.885,2.562,1.608,2.791,1.608c0.229,0,0.416,0.139,0.416,0.309c0,0.17,0.601,0.618,1.335,0.995
		c3.244,1.667,5.057,2.684,6.619,3.715c0.923,0.608,1.913,1.106,2.203,1.106c0.288,0,0.607,0.134,0.708,0.297
		c0.101,0.164,0.764,0.574,1.472,0.91c0.709,0.338,1.496,0.74,1.749,0.892c0.252,0.153,1.115,0.58,1.917,0.949
		c0.802,0.37,1.379,0.8,1.283,0.955c-0.095,0.156-0.269,0.281-0.386,0.278C87.426,164.01,84.643,162.617,81.359,160.918
		L81.359,160.918z M82.278,144.858c-0.421-0.071-2.282-0.36-4.134-0.643c-1.852-0.282-3.74-0.696-4.196-0.919
		c-0.454-0.224-1.212-0.407-1.683-0.409c-1.177-0.005-7.52-2.213-10.449-3.637c-0.282-0.139-1.063-0.507-1.738-0.821
		c-0.673-0.314-2.1-1.092-3.169-1.729c-1.07-0.637-2.016-1.159-2.102-1.159c-0.286,0-3.773-2.582-5.067-3.751
		c-0.698-0.631-1.375-1.148-1.502-1.148c-0.129,0-0.633-0.379-1.12-0.841c-4.213-3.998-6.178-5.997-6.035-6.139
		c0.092-0.092,1.166,0.812,2.386,2.011c16.519,16.24,41.611,21.918,63.912,14.463c13.409-4.483,24.226-12.81,32.219-24.805
		c10.854-16.287,13.502-35.665,7.405-54.197c-5.184-15.761-17.054-29.357-32.269-36.964c-1.096-0.547-1.821-0.997-1.613-1
		c0.542-0.007,7.949,3.576,8.186,3.96c0.11,0.177,0.411,0.321,0.672,0.321c0.261,0,0.975,0.383,1.59,0.851
		c0.612,0.468,1.514,1.053,2.001,1.3c2.485,1.259,11.03,9.49,14.139,13.619c9.574,12.721,13.807,27.466,12.521,43.633
		c-0.234,2.947-0.572,5.978-0.752,6.735c-0.18,0.759-0.478,2.068-0.665,2.91c-0.721,3.268-3.275,10.378-4.619,12.861
		c-3.868,7.149-6.208,10.568-10.139,14.816c-6.884,7.437-15.198,13.162-23.925,16.476c-8.711,3.309-12.832,4.089-22.353,4.233
		C86.074,144.943,82.699,144.93,82.278,144.858L82.278,144.858z M92.824,134.169c-1.669-3.994-4.102-18.898-4.113-25.191
		c-0.004-2.135,0.491-2.539,1.404-1.146c0.596,0.91,1.347,4.616,1.349,6.654c0,0.797,0.133,2.038,0.295,2.756
		c0.163,0.718,0.588,3.553,0.944,6.301c0.66,5.104,1.831,9.922,2.628,10.812c0.395,0.441,0.365,0.518-0.257,0.685
		C93.687,135.409,93.276,135.251,92.824,134.169L92.824,134.169z M78.79,134.678c-0.085-0.139,0.251-0.192,0.748-0.119
		c0.496,0.073,0.902,0.186,0.902,0.251C80.441,135.044,78.942,134.923,78.79,134.678L78.79,134.678z M77.155,134.438
		c0.101-0.102,0.366-0.114,0.586-0.025c0.245,0.098,0.173,0.171-0.185,0.186C77.234,134.611,77.054,134.539,77.155,134.438
		L77.155,134.438z M73.397,133.665c-3.997-1.069-6.79-2.09-10.258-3.753c-27.767-13.306-39.002-46.786-24.929-74.29
		c7.641-14.934,21.425-25.445,37.754-28.789c3.965-0.812,5.813-0.739,5.951,0.235c0.075,0.522-0.019,0.642-0.388,0.501
		c-0.559-0.215-5.852,0.653-7.67,1.258c-0.673,0.224-2.189,0.711-3.368,1.082c-2.983,0.939-9.61,4.204-12.636,6.226
		C45.93,44.099,37.888,56.136,34.808,70.627c-0.851,4.005-1.153,11.942-0.627,16.472c0.716,6.157,2.41,11.889,5.12,17.327
		c1.588,3.187,2.633,4.888,5.787,9.431c1.274,1.836,6.292,6.96,9.041,9.231c1.873,1.549,6.539,4.798,6.889,4.798
		c0.189,0,0.591,0.275,0.897,0.613c0.303,0.336,0.752,0.611,0.995,0.611c0.242,0,0.815,0.267,1.273,0.592
		c0.457,0.326,1.235,0.69,1.731,0.809c0.494,0.119,1.043,0.326,1.217,0.462c0.39,0.304,3.944,1.551,6.42,2.253
		c1.01,0.286,2.112,0.639,2.449,0.785C77.084,134.478,75.801,134.308,73.397,133.665L73.397,133.665z M99.248,98.669
		c-1.069-0.466-4.352-3.406-4.093-3.666c0.093-0.093,0.697,0.264,1.341,0.795c1.653,1.363,3.716,1.852,5.667,1.347
		c3.161-0.82,5.006-3.206,6.16-7.966c0.371-1.531,0.765-2.886,0.877-3.01c0.111-0.125,0.516-0.007,0.898,0.26
		c0.62,0.435,0.688,0.71,0.623,2.515c-0.041,1.116-0.255,2.376-0.477,2.801c-0.223,0.426-0.405,1.079-0.406,1.453
		c-0.001,0.372-0.271,0.821-0.601,0.997c-0.33,0.178-0.683,0.768-0.786,1.313c-0.2,1.051-1.853,2.496-3.652,3.188
		C103.528,99.186,100.399,99.17,99.248,98.669L99.248,98.669z M48.411,98.491c-5.026-0.12-6.578-0.252-6.994-0.598
		c-0.508-0.423-0.507-0.456,0.03-0.668c0.31-0.121,3.752-0.232,7.647-0.243c5.559-0.017,7.156-0.111,7.425-0.436
		c0.19-0.228,0.728-2.293,1.198-4.59c0.469-2.297,1.001-4.321,1.178-4.5c0.186-0.185,1.231-0.285,2.438-0.232l2.114,0.091
		l0.091,0.945c0.087,0.886,0.037,0.936-0.807,0.813c-1.498-0.221-2.065,0.323-2.613,2.505c-0.275,1.093-0.501,2.235-0.502,2.536
		c-0.002,0.983-0.613,2.781-1.181,3.483C57.674,98.538,56.145,98.674,48.411,98.491L48.411,98.491z M64.978,98.591
		c-0.912-0.243-1.749-1.076-1.414-1.411c0.156-0.157,3.365-0.311,7.131-0.343c3.767-0.032,7.018-0.164,7.226-0.292
		c0.207-0.129,0.377-0.718,0.377-1.311c0-1.058-0.02-1.074-1.149-0.977L76,94.354l-0.069-11.48
		c-0.046-7.481,0.034-11.307,0.226-10.98c0.162,0.276,0.761,1.89,1.331,3.589c0.94,2.802,1.007,3.235,0.731,4.703
		c-0.175,0.936-0.23,4.119-0.128,7.557l0.173,5.939l0.935,0.965c1.236,1.276,1.28,2.685,0.107,3.454
		c-0.72,0.472-1.677,0.55-7.273,0.598C68.49,98.727,65.314,98.678,64.978,98.591L64.978,98.591z M87.101,98.466
		c-0.767-0.447-0.661-0.895,0.211-0.895c0.412,0,0.824-0.123,0.916-0.274c0.122-0.197,0.503-24.985,0.481-31.322
		c-0.001-0.377,0.31-0.543,1.146-0.613c1.049-0.087,1.156-0.182,1.244-1.09c0.098-1.016,0.259-1.158,0.854-0.76
		c0.389,0.259,1.041,1.423,1.041,1.86c0,0.163-0.482,0.874-1.07,1.578l-1.072,1.282l0.144,8.775
		c0.169,10.343,0.178,8.739-0.085,15.311c-0.205,5.086-0.245,5.334-0.936,5.894C89.187,98.849,87.945,98.959,87.101,98.466
		L87.101,98.466z M110.524,98.188c-0.547-0.333-0.994-0.746-0.994-0.917c0-0.201,2.421-0.311,6.852-0.311
		c7.373,0,7.702-0.07,7.485-1.59c-0.072-0.512-0.331-0.733-0.941-0.802c-0.585-0.068-0.842-0.273-0.842-0.669
		c0-0.497,0.59-3.649,1.077-5.741c0.148-0.644,0.32-0.689,2.603-0.689h2.443v1.063c0,1.002-0.05,1.055-0.853,0.894
		c-1.32-0.263-2.153,0.628-2.531,2.706c-0.292,1.608-0.263,1.831,0.363,2.676c0.58,0.783,0.638,1.092,0.397,2.066
		c-0.445,1.788-0.973,1.916-7.94,1.92C112.074,98.794,111.43,98.74,110.524,98.188L110.524,98.188z M128.82,98.131l-1.071-0.666
		l0.766-0.222c0.42-0.122,2.576-0.236,4.789-0.253c4.33-0.033,4.395-0.06,4.395-1.74c0-0.962,0.412-0.939,1.203,0.066
		c0.839,1.066,0.8,1.589-0.187,2.621c-0.819,0.856-0.839,0.859-4.823,0.858C130.32,98.794,129.777,98.724,128.82,98.131
		L128.82,98.131z M47.205,94.127c-0.082-0.21-0.111-6.652-0.068-14.315l0.081-13.931l1.163-0.096
		c0.913-0.075,1.226-0.26,1.454-0.861c0.159-0.42,0.428-0.679,0.597-0.575c0.576,0.357,0.307,1.45-0.617,2.503l-0.923,1.051
		l0.038,9.253c0.019,5.09,0.137,10.973,0.26,13.074c0.154,2.641,0.12,3.89-0.109,4.045C48.547,94.637,47.365,94.544,47.205,94.127
		L47.205,94.127z M70.42,94.114c-0.152-0.203-0.778-2.712-1.394-5.575c-0.615-2.863-1.941-8.995-2.947-13.626
		c-1.006-4.632-1.926-9.159-2.045-10.063c-0.208-1.577-0.192-1.629,0.398-1.313c0.338,0.181,0.766,0.713,0.95,1.183
		c0.412,1.046,2.361,8.782,3.108,12.337c1.208,5.746,3.353,14.198,4.021,15.834c0.22,0.541,0.337,1.038,0.26,1.104
		C72.354,94.358,70.665,94.443,70.42,94.114L70.42,94.114z M116.405,94.127c-0.08-0.21-0.11-6.721-0.066-14.467l0.08-14.085
		l1.012-0.01c1.028-0.01,1.577-0.499,1.585-1.411c0.007-0.756,0.865-0.945,1.226-0.271c0.587,1.099,0.357,2.299-0.624,3.238
		l-0.933,0.895l0.091,13.078c0.09,12.86,0.081,13.083-0.521,13.244C117.243,94.61,116.562,94.532,116.405,94.127L116.405,94.127z
		 M134.822,93.975c-0.09-0.296-1.49-6.668-3.109-14.163c-3.004-13.897-3.562-17.147-2.947-17.147c0.523,0,1.538,1.224,1.879,2.27
		c0.344,1.049,1.408,5.884,1.841,8.361c0.154,0.879,0.551,2.67,0.882,3.981c0.331,1.31,0.763,3.209,0.96,4.22
		c0.198,1.01,0.569,2.733,0.827,3.828c0.468,1.993,1.165,5.033,1.616,7.042c0.132,0.589,0.341,1.312,0.465,1.608
		c0.192,0.458,0.047,0.535-1.012,0.535C135.311,94.51,134.942,94.37,134.822,93.975L134.822,93.975z M99.543,93.903
		c-0.879-0.355-1.877-1.681-2.278-3.026c-0.182-0.613-0.409-3.938-0.504-7.391c-0.182-6.634,0.184-12.228,0.975-14.891
		c0.786-2.649,2.694-3.722,4.709-2.65c1.103,0.586,2.161,2.052,1.767,2.447c-0.131,0.131-0.373-0.001-0.539-0.294
		c-0.403-0.722-1.952-0.685-2.7,0.063c-1.386,1.385-1.995,6.816-1.776,15.814c0.173,7.115,0.311,7.847,1.728,9.128
		c0.354,0.321,0.644,0.698,0.644,0.841C101.568,94.272,100.395,94.248,99.543,93.903L99.543,93.903z M123.609,84.369
		c-0.012-0.849,1.996-10.374,2.186-10.374c0.108,0,0.426,1.55,0.706,3.445c0.674,4.547,0.661,4.267,0.224,5.059
		c-0.435,0.789-0.197,1.418,0.442,1.172c0.247-0.094,0.428,0.026,0.428,0.286c0,0.285-0.307,0.45-0.842,0.452
		c-0.464,0.002-1.358,0.089-1.989,0.193C123.9,84.745,123.613,84.687,123.609,84.369L123.609,84.369z M58.995,84.176
		c-0.03-0.616,2.024-10.182,2.186-10.182c0.103,0,0.362,1.221,0.575,2.713c0.295,2.06,0.306,2.965,0.04,3.768
		c-0.192,0.581-0.377,1.703-0.412,2.494l-0.062,1.437h-1.158C59.527,84.406,59.002,84.303,58.995,84.176L58.995,84.176z
		 M82.629,72.264c-1.576-3.845-2.939-7.459-3.032-8.032l-0.169-1.041l0.918,0.679c0.671,0.496,1.398,1.771,2.691,4.714
		c0.974,2.219,1.916,4.127,2.091,4.238c0.316,0.203,0.691,4.823,0.478,5.882C85.543,79.006,84.205,76.108,82.629,72.264
		L82.629,72.264z M106.927,74.493c-0.337-0.246-0.543-0.493-0.459-0.549c0.083-0.056,0.428-0.254,0.764-0.44
		c0.561-0.311,0.627-0.743,0.766-5.105c0.084-2.621,0.256-4.869,0.382-4.995c0.127-0.125,0.231,0.181,0.231,0.681
		c0,1.146,0.491,1.643,1.626,1.643c0.843,0,0.882,0.055,0.695,0.995c-0.11,0.547-0.307,2.205-0.441,3.684
		c-0.176,1.937-0.417,2.921-0.864,3.522C108.909,74.896,107.797,75.129,106.927,74.493L106.927,74.493z M72.235,66.585
		c-0.5-0.5-0.462-0.858,0.091-0.858c0.254,0,0.459,0.272,0.459,0.613C72.785,67.053,72.729,67.079,72.235,66.585L72.235,66.585z
		 M84.788,66.585c-0.539-0.54-0.449-0.858,0.245-0.858c0.408,0,0.613,0.204,0.613,0.613C85.646,67.034,85.329,67.125,84.788,66.585
		L84.788,66.585z M104.027,63.11c-1.174-0.829-1.031-0.938,0.506-0.383c0.558,0.202,1.016,0.547,1.016,0.766
		C105.549,64.048,105.249,63.974,104.027,63.11L104.027,63.11z M88.115,55.029c-0.357-0.226-0.367-0.366-0.054-0.743
		c0.227-0.273,0.563-2.491,0.816-5.377c0.945-10.794,3.232-22.277,4.534-22.776c0.226-0.087,1.567,0.043,2.982,0.288
		c13.963,2.42,25.515,9.262,34.312,20.321c0.601,0.758,1.257,1.722,1.454,2.143l0.36,0.766l-0.55-0.715
		c-0.302-0.393-1.168-1.426-1.927-2.296c-0.756-0.871-1.653-1.927-1.989-2.349c-1.439-1.796-6.612-6.024-10.397-8.498
		c-7.545-4.932-21.24-9.488-22.812-7.591c-0.727,0.875-1.779,5.215-2.456,10.119c-0.776,5.635-0.927,6.917-1.243,10.564
		c-0.411,4.759-0.49,5.074-1.441,5.823C88.831,55.396,88.727,55.416,88.115,55.029L88.115,55.029z"/>
	<path fill="#FFFFFF" d="M88.328,81.285l0.08-15.827l1.145-0.095c1.04-0.087,1.155-0.186,1.24-1.071l0.095-0.974l-3.197-0.097
		c-4.188-0.126-4.244-0.112-4.128,1.078c0.082,0.851,0.225,0.988,1.166,1.123l1.072,0.153l0.082,7.141
		c0.045,3.928-0.032,7.07-0.171,6.984c-0.14-0.086-1.748-3.82-3.573-8.298l-3.318-8.14l-4.013,0.085l-4.011,0.086v0.919
		c0,0.84,0.097,0.926,1.151,1.013l1.151,0.096l-0.08,14.449l-0.08,14.45h-1.378h-1.378l-3.17-14.698
		c-3.84-17.799-3.618-16.89-4.203-17.115c-1.27-0.487-1.443,0.034-4.213,12.724c-2.793,12.798-3.584,15.338-5.349,17.202
		C52,93.788,50.356,94.51,48.605,94.51h-1.547l0.08-14.467l0.08-14.469l1.072-0.153c0.952-0.136,1.071-0.256,1.071-1.072v-0.919
		h-4.746h-4.746l-0.101,0.885c-0.115,1.006,0.323,1.4,1.556,1.407l0.842,0.004v14.391V94.51h-0.741
		c-1.262,0-1.709,0.324-1.709,1.241c0,0.476,0.104,0.929,0.23,1.007c0.126,0.077,3.944,0.05,8.482-0.059l8.251-0.198l0.935-4.593
		l0.935-4.593l2.517-0.089c2.409-0.085,2.525-0.059,2.667,0.613c0.546,2.553,1.093,5.598,1.093,6.073
		c0,0.408-0.27,0.585-0.995,0.656c-0.88,0.085-0.995,0.203-0.995,1.015v0.918l7.349,0.082c6.378,0.071,7.395,0.018,7.7-0.397
		c0.629-0.862,0.153-1.635-1.071-1.736l-1.117-0.092l-0.081-11.311c-0.044-6.221,0.029-11.421,0.164-11.555
		c0.134-0.135,2.361,5.023,4.949,11.463c6.379,15.872,5.675,14.369,6.676,14.255l0.844-0.098L88.328,81.285L88.328,81.285z
		 M58.696,84.483c-0.014-0.737,2.284-11.101,2.461-11.101c0.246,0,2.392,10.752,2.215,11.101c-0.064,0.125-1.141,0.23-2.394,0.23
		C59.725,84.712,58.699,84.608,58.696,84.483L58.696,84.483z M102.584,96.938c2.626-0.73,4.631-3.547,5.594-7.866
		c0.587-2.629,0.464-3.136-0.764-3.136c-1.113,0-1.127,0.02-1.874,2.944c-0.816,3.19-1.831,4.869-3.221,5.328
		c-2.028,0.67-3.835-0.23-4.828-2.404c-0.603-1.318-0.662-2.044-0.761-9.39c-0.153-11.276,0.519-15.409,2.684-16.529
		c2.844-1.471,5.256,0.584,6.11,5.203c0.372,2.017,0.62,2.4,1.447,2.243c0.515-0.098,0.586-0.552,0.744-4.851
		c0.097-2.609,0.117-4.915,0.043-5.126c-0.235-0.684-1.584-0.442-1.944,0.349l-0.333,0.732l-1.482-0.922
		c-1.339-0.833-1.674-0.91-3.481-0.795c-1.596,0.102-2.257,0.31-3.279,1.032c-3.583,2.531-6.082,9.117-6.082,16.032
		c0,7.993,3.151,15.156,7.502,17.058C99.788,97.334,101.046,97.364,102.584,96.938L102.584,96.938z M137.075,96.515
		c0.687-0.828,0.25-1.534-1.05-1.699l-1.209-0.153l-3.451-15.923c-1.899-8.757-3.454-15.956-3.457-15.998
		c-0.004-0.043-0.414-0.077-0.913-0.077c-1.068,0-0.866-0.618-2.901,8.879c-0.778,3.621-2.201,10.235-3.166,14.698l-1.751,8.115
		l-1.458,0.092l-1.458,0.093l0.08-14.484l0.08-14.485l1.071-0.153c0.954-0.136,1.072-0.256,1.072-1.072v-0.919h-4.746h-4.746v0.919
		c0,0.816,0.119,0.935,1.07,1.072l1.072,0.153v14.392v14.392l-1.072,0.152c-0.948,0.137-1.082,0.269-1.166,1.154l-0.098,1.001
		l7.293-0.082l7.292-0.082l0.097-0.846c0.083-0.729-0.032-0.871-0.843-1.033c-0.516-0.103-0.932-0.273-0.926-0.379
		c0.009-0.106,0.324-1.708,0.703-3.561l0.686-3.368l2.506-0.089c2.395-0.085,2.511-0.058,2.654,0.613
		c0.552,2.585,1.093,5.602,1.093,6.092c0,0.413-0.219,0.58-0.756,0.58c-0.432,0-0.888,0.252-1.07,0.592
		c-0.41,0.767-0.406,0.807,0.164,1.376C128.45,97.159,136.516,97.19,137.075,96.515L137.075,96.515z M123.383,84.023
		c0.08-0.379,0.597-2.927,1.15-5.664c0.554-2.737,1.107-4.976,1.228-4.976c0.123,0,0.674,2.378,1.225,5.283
		c0.55,2.905,1.066,5.454,1.145,5.664c0.107,0.287-0.488,0.383-2.375,0.383C123.306,84.712,123.241,84.694,123.383,84.023
		L123.383,84.023z"/>
	<path fill="#8D9093" d="M137.069,44.752c1.138,1.927,1.438,2.531,3.104,6.278c0.861,1.936,1.898,4.248,2.303,5.137
		c0.404,0.889,0.735,1.683,0.735,1.763c0,0.082,0.565,1.47,1.255,3.086c1.598,3.739,2.329,7.306,2.735,13.35
		c0.543,8.062-0.375,16.495-2.522,23.206c-0.951,2.966-3.205,8.163-3.44,7.929c-0.072-0.072,0.484-1.819,1.233-3.884
		c2.744-7.566,3.802-13.372,3.802-20.895c0-7.894-0.86-13.804-2.926-20.124c-1.477-4.517-3.835-9.042-7.638-14.655
		C129.355,35.918,129.658,34.46,137.069,44.752L137.069,44.752z"/>
</g>
</svg>
