<?xml version="1.0" encoding="utf-8"?>
<!-- Generator: Adobe Illustrator 16.0.0, SVG Export Plug-In . SVG Version: 6.00 Build 0)  -->
<!DOCTYPE svg PUBLIC "-//W3C//DTD SVG 1.1//EN" "http://www.w3.org/Graphics/SVG/1.1/DTD/svg11.dtd">
<svg version="1.1" id="Layer_1" xmlns="http://www.w3.org/2000/svg" xmlns:xlink="http://www.w3.org/1999/xlink" x="0px" y="0px"
	 width="110px" height="97px" viewBox="0 0 110 97" enable-background="new 0 0 110 97" xml:space="preserve">
<path fill="#DDDDDD" d="M30.488,87.781c-0.2-0.107-0.537-0.516-0.544-0.725c-0.011-0.328,1.008-1.676,1.179-1.992
	c1.096,0.974,2.451,1.686,3.262,2.944c-0.478,0.073-1.102,0.126-1.727,0.126C31.813,88.135,30.966,88.041,30.488,87.781
	 M56.307,82.124c-0.742,2.248-1.972,3.823-3.534,5.388c-0.439,0.439-1.084,1.2-1.585,1.357c-0.499,0.156-0.979,0.124-1.446,0.092
	c-0.414-0.027-0.82-0.057-1.226,0.044c-0.642,0.16-1.568,0.991-2.13,1.358c-0.729,0.479-1.425,0.873-2.128,1.313
	c-0.872-0.607-1.9-1.06-2.446-1.992c0.809-0.045,1.339-0.89,2.038-1.178c0.667-0.273,1.318-0.184,1.903-0.544
	c0.717-0.438,1.188-0.985,1.586-1.812c-1.337-0.295-3.098-0.162-4.667-0.227c-0.323,1.049-0.754,1.577-2.265,1.404
	c-0.176-0.842-0.319-2.111,0.091-2.809c4.515,0.207,8.616-0.49,12.229-1.449C53.947,82.75,55.012,82.281,56.307,82.124
	L56.307,82.124 M24.872,64.825c-3.388,0.372-5.563,2.198-8.833,2.534c0.049-0.572,0.524-1.617,0.138-2.354
	c-0.534,0.032-0.915,0.384-1.314,0.589c-0.426,0.219-0.883,0.389-1.27,0.682c-0.501,0.377-0.833,0.959-1.358,1.312
	c-0.51,0.343-1.073,0.522-1.585,0.771c-1.071,0.516-1.892,1.229-2.763,1.947c-0.429,0.352-0.96,0.66-1.359,1.041
	c-0.555,0.527-0.931,1.252-1.449,1.856c-1.072,1.249-2.029,2.166-3.442,3.215c-0.6,0.444-1.559,0.985-1.63,1.722
	c-0.061,0.608,0.356,1.01,0.679,1.493c0.284,0.427,0.628,0.888,0.905,1.042c0.842,0.463,2.757,0.48,3.624,0
	c0.413-0.23,0.732-0.656,1.086-0.951c1.154-0.947,2.438-1.742,3.986-2.265c1.453-0.487,3.521-0.726,5.073-1.179
	c0.548-0.156,1.084-0.471,1.54-0.543c0.881-0.135,2.001,0.064,2.809,0.318c1.681,0.527,2.813,1.254,4.168,2.082
	c0.59,0.362,1.515,0.746,1.901,1.268c0.274,0.373,0.301,0.845,0.589,1.404c0.238,0.463,0.635,0.777,0.681,1.133
	c0.075,0.604-0.272,1.324-0.453,1.945c-0.432,1.477-0.775,2.194-1.496,3.307c-0.257,0.395-0.838,1.127-0.77,1.676
	c0.057,0.453,0.64,0.781,1.088,1.042c0.478,0.278,1.021,0.646,1.448,0.726c0.66,0.119,1.448-0.059,2.175-0.093
	c2.236-0.104,4.481-0.081,6.748-0.136c0.741,1.053,2.646,0.963,4.077,1.404c0.781,0.24,1.327,0.726,1.902,1.041
	c-0.378,0.236-0.816,0.383-1.269,0.726c-0.306,0.229-0.621,0.772-0.905,0.86c-0.412,0.123-0.858,0.092-1.284,0.06
	c-0.39-0.028-0.761-0.06-1.072,0.03c-0.568,0.164-1.025,0.803-1.403,1.133c-0.22,0.189-0.501,0.352-0.725,0.544
	c-0.205,0.175-0.507,0.378-0.544,0.679c1.86,0.016,4.226,0.188,5.843,0c0.24-0.281,0.073-0.602,0.181-0.859
	c0.151-0.362,0.607-0.541,0.953-0.545c0.229-0.002,0.473,0.09,0.717,0.183c0.248,0.093,0.496,0.187,0.731,0.181
	c0.794-0.014,1.14-0.523,1.676-0.859c0.755,0.891,2.065,0.771,3.352,1.133c0.646,0.182,1.21,0.592,1.813,0.77
	c0.646,0.188,1.545,0.09,2.355,0.09c0.563,0,1.175,0.1,1.676-0.135c-0.11-0.398-0.489-0.648-0.771-0.906
	c-0.284-0.26-0.563-0.537-0.859-0.814c-0.333-0.309-1.331-1.477-1.813-1.539c-0.25-0.033-0.547,0.063-0.853,0.158
	c-0.31,0.098-0.626,0.191-0.914,0.158c-0.405-0.051-0.669-0.392-0.904-0.635c0.81-0.347,1.597-0.72,2.444-1.041
	c0.806-0.305,1.734-0.762,2.628-0.859c1.801-0.2,3.89,0.529,5.616,0.679c1.994,0.172,2.484-1.537,3.397-2.354
	c0.671-0.603,1.53-1.064,2.446-1.449c1.809-0.758,3.768-1.303,5.615-2.129c1.785-0.795,3.312-1.801,4.711-3.032
	c0.693-0.611,1.371-1.163,1.946-1.903c0.871-1.113,1.446-2.686,3.263-2.806c0.936-0.063,1.957-0.003,2.983,0.058
	c2.144,0.125,4.31,0.252,5.757-0.736c0.42-0.285,0.822-0.85,1.178-1.313c0.313-0.407,0.687-1.06,1.269-1.224
	c0.806-0.229,1.995,0.158,2.81,0.363c2.488,0.621,5.42,1.053,8.65,0.678c1.734-0.199,3.525-0.617,4.938-1.402
	c1.182-0.658,2.801-1.805,2.582-3.76c-0.041-0.363-0.221-1.064-0.635-1.131c-0.281-0.047-0.969,0.381-1.313,0.543
	c-1.301,0.606-2.815,1.05-4.396,1.222c-2.488,0.271-4.267-0.245-6.656-0.726c-1.988-0.398-4.094-0.893-6.388-1.086
	c-2.395-0.201-4.796-0.061-6.204,1.133c-0.675,0.568-0.979,1.313-1.18,2.4c-0.291,1.598-0.676,2.451-2.581,2.037
	c-0.659-0.145-1.373-0.6-2.038-0.953c-0.693-0.369-1.398-0.701-1.992-0.994c-2.729-1.351-5.529-2.679-8.787-3.261
	c-1.699-0.303-3.529-0.356-5.572-0.452c-3.709-0.178-7.424,0.646-11.051,0.904c-3.514,0.251-6.889-0.055-9.873-0.453
	c-0.397-0.053-0.891-0.023-1.224-0.316c0.669-0.523,2.21-0.416,2.49-1.178c-0.352-0.453-1.849,0.051-1.947-0.543
	c-0.044-0.264,0.408-0.484,0.634-0.589c0.881-0.409,2.103-0.674,2.628-1.177c-1.365-0.319-3.192-0.157-5,0.005
	c-1.484,0.132-2.957,0.265-4.149,0.131c-0.313-0.034-0.768-0.165-0.816-0.407c-0.085-0.439,0.512-0.591,0.545-0.951
	c-2.644-0.321-5.522,0.514-7.928,0.996c-0.559,0.112-2.365,0.596-2.49-0.045C23.935,65.516,24.89,65.316,24.872,64.825z"/>
<g>
	<path fill="#38418E" d="M93.891,6.226C83.146,2.038,70.146-0.043,54.931,0C39.684,0.042,26.709,2.229,16.01,6.586
		C5.305,10.928-0.046,15.914,0,21.583c0.024,5.641,5.423,10.531,16.175,14.6c10.749,4.047,23.748,6.071,38.92,6.051
		c15.17-0.041,28.121-2.177,38.821-6.406C104.624,31.58,110,26.635,110,20.991C110.021,15.328,104.648,10.386,93.891,6.226z
		 M91.236,35.209c-9.963,4.053-22.027,6.093-36.142,6.137c-14.135,0.02-26.232-1.919-36.246-5.801
		C8.836,31.649,3.806,26.963,3.784,21.553C3.745,16.131,8.726,11.349,18.687,7.198c9.973-4.177,22.058-6.267,36.245-6.305
		c14.169-0.046,26.271,1.955,36.286,5.964c10.011,3.967,15.021,8.716,14.995,14.134C106.213,26.401,101.208,31.142,91.236,35.209z"
		/>
	<path fill="#38418E" d="M104.712,18.852c-0.313-1.336-0.935-2.533-1.782-3.604c-1.088-1.278-2.291-2.393-3.641-3.323
		c-1.729-1.17-3.551-2.183-5.464-3.028c-2.154-0.931-4.394-1.782-6.697-2.517c-2.647-0.814-5.336-1.552-8.065-2.145
		c-1.748-0.385-3.482-0.74-5.25-1.043c-2.838-0.297-5.658-0.542-8.517-0.735C61.969,2.27,58.581,2.13,55.178,2.08
		c-1.622,0-3.264,0.022-4.88,0.08c-1.747,0.11-3.465,0.27-5.203,0.437c-3.114,0.35-6.256,0.73-9.391,1.253
		c-2.845,0.49-5.665,1.087-8.485,1.795c-2.5,0.69-4.957,1.442-7.407,2.378c-2.112,0.813-4.148,1.803-6.082,2.918
		c-1.647,0.934-3.162,2.029-4.61,3.306c-1.08,0.973-2.061,2.071-2.92,3.329c-0.389,0.595-0.661,1.196-0.858,1.851
		C5.198,20.063,5.15,20.71,5.15,21.332c0,0.628,0.074,1.23,0.211,1.833c0.179,0.677,0.477,1.308,0.865,1.823
		c0.881,1.286,1.892,2.409,2.993,3.359c1.451,1.283,2.992,2.343,4.633,3.257c1.941,1.118,3.998,2.012,6.108,2.747
		c2.456,0.931,4.93,1.719,7.411,2.346c2.837,0.71,5.681,1.275,8.505,1.718c3.155,0.512,6.306,0.9,9.421,1.203
		c1.734,0.129,3.451,0.245,5.168,0.303c5.057,0.134,10.063-0.042,15.033-0.501c2.825-0.234,5.668-0.542,8.49-0.947
		c1.761-0.281,3.531-0.628,5.242-1.066c2.729-0.602,5.402-1.337,8.043-2.21c2.283-0.713,4.509-1.581,6.674-2.619
		c1.908-0.895,3.729-1.991,5.449-3.218c1.32-0.928,2.518-2.054,3.578-3.384c0.858-1.013,1.448-2.214,1.793-3.557
		C105.055,21.258,105.032,20.063,104.712,18.852z M36.61,29.278c-0.859,0.929-1.814,1.68-2.823,2.289
		c-0.955,0.544-1.84,0.933-2.696,1.172c-0.884,0.273-1.817,0.193-2.801-0.16c-0.997-0.38-1.737-0.771-2.129-1.153
		c-0.421-0.397-0.813-0.917-1.201-1.604c-0.391-0.686-0.59-1.608-0.54-2.784c0.072-1.165,0.351-2.378,0.857-3.521
		c0.291-0.622,0.669-1.225,1.155-1.771c0.565-0.581,1.13-1.172,1.712-1.773l0.474-0.273l0.655,0.05l0.393,0.223l0.249,0.355
		c0.096,0.187,0.046,0.462-0.13,0.837c-0.512,0.581-1.021,1.153-1.54,1.696c-0.248,0.272-0.465,0.539-0.663,0.875
		c-0.189,0.27-0.363,0.567-0.487,0.897l-0.146,0.85l0.098,0.815c0.132,0.573,0.293,1.043,0.536,1.42
		c0.247,0.354,0.493,0.625,0.766,0.813c0.804,0.382,1.663,0.438,2.578,0.137c0.897-0.27,1.817-0.76,2.713-1.416
		c0.914-0.682,1.817-1.61,2.754-2.783c0.685-0.876,1.363-1.771,1.985-2.726c0.652-0.955,1.286-1.916,1.911-2.872
		c-0.297,0.146-0.589,0.284-0.936,0.391l-0.808,0.325l-0.835,0.24l-0.786,0.248h-0.434l-0.23-0.248l0.376-0.779
		c0.802-0.396,1.593-0.766,2.372-1.123c0.419-0.193,0.811-0.339,1.209-0.437c0.462-0.116,0.925-0.222,1.377-0.327
		c1.144-1.424,2.27-2.737,3.429-4.014c1.275-1.399,2.578-2.753,3.922-4.125c-1.344-0.291-2.696-0.603-4.045-0.839
		c-1.201-0.193-2.408-0.267-3.59-0.193c-1.093,0.055-2.173,0.245-3.232,0.636c-1.001,0.424-1.959,1-2.867,1.707
		c-0.563,0.47-1.005,1.096-1.35,1.861c-0.146,0.294-0.169,0.677-0.121,1.09c0.047,0.358,0.176,0.68,0.418,0.875
		c0.341,0.328,0.738,0.487,1.154,0.487c0.463,0,0.907-0.14,1.298-0.405c1.006-0.71,1.988-1.451,2.943-2.244h0.563
		c0.151,0.245,0.102,0.548-0.074,0.931c-0.466,0.903-1.033,1.776-1.645,2.569c-0.525,0.702-1.154,1.277-1.837,1.768
		c-0.686,0.465-1.399,0.658-2.156,0.679c-0.766,0.058-1.505-0.154-2.169-0.65c-0.533-0.434-0.924-1.01-1.175-1.748
		c-0.171-0.814-0.171-1.61,0-2.4c0.21-0.953,0.575-1.858,1.135-2.643c0.757-0.991,1.652-1.801,2.644-2.486
		c0.958-0.537,1.971-0.977,3.033-1.308c1.184-0.278,2.396-0.443,3.641-0.49c1.448-0.078,2.872-0.036,4.348,0.19
		c1.469,0.22,2.955,0.459,4.456,0.791c1.824,0.302,3.64,0.525,5.479,0.674c3.061,0.201,6.1,0.229,9.118,0.116
		c1.614-0.074,3.241-0.168,4.88-0.297l0.732,0.165l0.297,0.325c0.074,0.166,0,0.443-0.297,0.788
		c-0.658,0.708-1.424,1.231-2.23,1.614c-1.096,0.592-2.256,0.955-3.438,1.063c-1.514,0.174-3.084,0.174-4.682-0.027
		c-1.918-0.276-3.845-0.623-5.833-1.087c-1.083-0.331-2.192-0.659-3.319-1.019l-0.678,0.547c-0.912,0.903-1.822,1.859-2.674,2.812
		c-1.014,1.288-1.985,2.596-2.92,3.935c0.621-0.061,1.257-0.116,1.859-0.168c0.322,0,0.636,0,0.937,0.052
		c0.337,0,0.634,0.027,0.935,0.085c0.041-0.628,0.118-1.277,0.223-1.957l0.217-0.659c0.169-0.355,0.363-0.627,0.557-0.875
		l0.619-0.413l0.218-0.022l0.515,0.022l0.564,0.217l0.54,0.493l0.18,0.465l-0.055,0.658c-0.241,0.733-0.567,1.357-0.981,1.933
		c-0.174,0.33-0.446,0.575-0.781,0.763l0.071,0.354l0.195,0.168l0.124,0.331l-0.124,0.211l-0.195,0.249l-0.391,0.019l-0.264-0.099
		l-0.28-0.251l-0.223-0.405L49,17.657c-0.418,0-0.862,0-1.28,0.017c-0.443,0.063-0.906,0.124-1.374,0.124
		c-0.413,0.044-0.802,0.104-1.22,0.154c-0.449,0.058-0.89,0.083-1.309,0.083c-1.539,2.847-3.162,5.623-4.933,8.365
		C38.204,27.478,37.464,28.433,36.61,29.278z M82.908,29.061c-0.854,1.002-1.838,1.897-2.917,2.668
		c-0.712,0.471-1.495,0.713-2.3,0.664c-0.617,0-1.203-0.218-1.721-0.633c-0.268-0.223-0.47-0.515-0.66-0.903l-1.352,0.988
		c-0.564,0.215-1.15,0.33-1.713,0.33c-0.881,0.075-1.646-0.2-2.332-0.712c-0.643-0.361-1.031-0.926-1.223-1.718
		c-0.199-0.826-0.279-1.666-0.199-2.597c-0.76,0.331-1.475,0.595-2.186,0.815c-0.559,0.174-1.175,0.174-1.789,0
		c-0.59-0.066-1.129-0.294-1.644-0.617l-0.444-0.33l-0.408-0.603l-0.179-0.741l-0.438,0.826c-1.059,2.015-2.135,4.061-3.293,6.115
		l-2.908,0.022c1.42-2.651,2.738-5.289,4.047-7.973c0.289-0.54,0.479-1.143,0.563-1.765v-0.661l-0.517-0.159
		c-0.396,0.271-0.769,0.575-1.149,0.895c-0.723,0.708-1.377,1.453-1.996,2.266c-0.898,1.118-1.808,2.241-2.718,3.298
		c-0.811,1.071-1.659,2.053-2.578,2.949c-0.485,0.443-1.022,0.765-1.544,1.015c-0.563,0.224-1.075,0.347-1.613,0.383
		c-0.545,0-1.085-0.088-1.613-0.303l-0.837-0.468l-0.57-0.575l-0.521-0.788l-0.338-0.79l-0.438,0.328l-0.418,0.462l-0.51,0.352
		l-0.454,0.165l-0.484,0.141l-0.703-0.377c-0.154-0.391-0.102-0.718,0.192-1.046c0.511-0.548,0.995-1.088,1.49-1.69
		c0.469-0.655,0.887-1.365,1.207-2.103c0.291-0.542,0.551-1.085,0.807-1.572c0.324-0.661,0.716-1.228,1.151-1.691
		c0.52-0.606,1.106-1.114,1.771-1.558c0.709-0.465,1.445-0.911,2.228-1.289l0.731-0.248h0.245c0.293,0.116,0.521,0.303,0.601,0.625
		l0.022,0.423l-0.154,0.378l-0.229,0.355l-0.347,0.245l-0.138,0.075c-0.908,0.85-1.765,1.784-2.568,2.789
		c-0.543,0.659-0.885,1.415-1.056,2.261c-0.151,0.547-0.124,1.07,0.069,1.607c0.132,0.418,0.319,0.771,0.596,1.041
		c0.457,0.193,0.877,0.25,1.318,0.135c0.592-0.267,1.063-0.518,1.352-0.793l0.534-0.511c0.198-0.325,0.446-0.683,0.623-1.044
		c0.237-0.377,0.414-0.788,0.518-1.197c0.162-0.466,0.287-0.983,0.342-1.531c0.066-0.542,0.165-1.054,0.242-1.58
		c0.022-0.713,0.066-1.382,0.171-2.065l0.224-0.424l0.362-0.344h0.287h0.27l0.386,0.182l0.287,0.305l0.123,0.471l0.071,0.655
		l0.018,0.815v0.686v0.757c1.239-1.25,2.527-2.42,3.86-3.549c0.485-0.382,0.972-0.649,1.519-0.765
		c0.486-0.049,0.934,0.058,1.373,0.248c0.287,0.223,0.491,0.462,0.64,0.801c0.192,0.353,0.36,0.733,0.463,1.116
		c0.366-0.443,0.784-0.829,1.21-1.203l0.631-0.49c0.348-0.167,0.635-0.24,0.932-0.223c0.543-0.017,1.035,0.056,1.522,0.196
		c0.388,0.163,0.685,0.435,0.957,0.818c0.19,0.327,0.271,0.68,0.271,1.118c0,0.492-0.127,0.897-0.365,1.28l-0.691,0.795
		c-0.22,0.046-0.521,0.046-0.835-0.033l-0.769-0.427l-0.283-0.798v-0.405l-0.42-0.088h-0.293c-0.246,0.329-0.413,0.656-0.561,0.983
		c-0.15,0.355-0.197,0.735-0.15,1.099c0.15,0.603,0.438,1.002,0.858,1.195c0.564,0.377,1.203,0.446,1.886,0.223
		c0.733-0.16,1.426-0.471,2.062-0.958c0.446-0.275,0.827-0.603,1.226-0.956c0.369-0.328,0.741-0.683,1.074-1.043
		c0.723-0.659,1.469-1.267,2.311-1.845l0.584-0.419c0.154-0.104,0.443-0.217,0.83-0.357c0.4-0.182,0.89-0.243,1.406-0.182
		c0.543,0,0.979,0.104,1.274,0.242c0.319,0.22,0.588,0.469,0.79,0.741c0.291,0.267,0.508,0.554,0.699,0.872l4.932-8.108l3.287-0.014
		L78.254,28.54l-0.146,0.712v0.496l0.095,0.319l0.271,0.473c0.322,0.074,0.594,0.074,0.869,0c0.489-0.33,0.922-0.685,1.367-1.065
		c0.316-0.224,0.63-0.499,0.936-0.823l0.707-0.798l0.562-0.777c0.231-0.336,0.474-0.633,0.744-0.883l0.388-0.399l0.295,0.085
		l0.248,0.193l0.215,0.344C84.266,27.37,83.624,28.232,82.908,29.061z"/>
	<path fill="#38418E" d="M75.659,23.028c-0.209-0.107-0.479-0.132-0.849-0.09c-0.342-0.017-0.683,0.141-1.049,0.473l-0.478,0.421
		l-0.097,0.091l-0.226,0.292c-0.59,0.749-1.042,1.558-1.396,2.406c-0.219,0.553-0.379,1.131-0.475,1.704l0.16,0.636
		c0.205,0.316,0.482,0.526,0.795,0.623c0.324,0.074,0.646,0.074,0.941,0l0.727-0.361c0.564-0.658,1.094-1.374,1.572-2.119
		c0.411-0.623,0.701-1.279,0.855-1.922c0.193-0.658,0.166-1.212,0-1.663L75.659,23.028z"/>
	<path fill="#38418E" d="M51.204,14.868c0.235-1.118-2.242-1.966-1.515,1.52C49.689,16.388,50.963,15.983,51.204,14.868z"/>
</g>
</svg>
