<?xml version="1.0" encoding="utf-8"?>
<!-- Generator: Adobe Illustrator 17.0.0, SVG Export Plug-In . SVG Version: 6.00 Build 0)  -->
<!DOCTYPE svg PUBLIC "-//W3C//DTD SVG 1.1//EN" "http://www.w3.org/Graphics/SVG/1.1/DTD/svg11.dtd">
<svg version="1.1" id="Layer_1" xmlns="http://www.w3.org/2000/svg" xmlns:xlink="http://www.w3.org/1999/xlink" x="0px" y="0px"
	 width="150px" height="35.634px" viewBox="0 0 150 35.634" enable-background="new 0 0 150 35.634" xml:space="preserve">
<g>
	<polygon fill-rule="evenodd" clip-rule="evenodd" fill="#312783" points="105.535,0 150,0 150,7.254 123.198,7.254 123.198,11.941 
		150,11.941 150,18.794 123.198,18.794 123.198,26.048 105.535,26.048 105.535,0 	"/>
	<polygon fill-rule="evenodd" clip-rule="evenodd" fill="#312783" points="47.527,26.048 62.318,0 86.905,0 102.614,26.048 
		102.614,26.072 69.1,26.048 73.222,18.794 81.677,18.794 74.847,7.254 63.895,26.048 47.527,26.048 	"/>
	<path fill-rule="evenodd" clip-rule="evenodd" fill="#312783" d="M30.264,26.048h-4.098H0V0h26.166c2.308,0,0,0,4.074,0
		C54.428,0,53.015,26.048,30.264,26.048L30.264,26.048z"/>
	<path fill-rule="evenodd" clip-rule="evenodd" fill="#FFFFFF" d="M23.951,18.805h-7.347V7.254h7.347
		C32.964,7.244,32.764,18.795,23.951,18.805L23.951,18.805z"/>
	<polygon fill-rule="evenodd" clip-rule="evenodd" fill="#E30613" points="0,29.228 150,29.228 150,35.634 0,35.634 0,29.228 	"/>
</g>
</svg>
