<?xml version="1.0" encoding="utf-8"?>
<!-- Generator: Adobe Illustrator 16.0.0, SVG Export Plug-In . SVG Version: 6.00 Build 0)  -->
<!DOCTYPE svg PUBLIC "-//W3C//DTD SVG 1.1//EN" "http://www.w3.org/Graphics/SVG/1.1/DTD/svg11.dtd">
<svg version="1.1" id="Layer_1" xmlns="http://www.w3.org/2000/svg" xmlns:xlink="http://www.w3.org/1999/xlink" x="0px" y="0px"
	 width="70px" height="70px" viewBox="0 0 70 70" enable-background="new 0 0 70 70" xml:space="preserve">
<path d="M8.793,44.479c-0.412-1.047-0.722-2.095-0.893-3.297c0.296,0.131,0.595,0.258,0.893,0.379
	c0.772,0.309,1.529,0.601,2.302,0.858c-0.653,0.944-1.374,1.854-1.993,2.8C8.998,44.961,8.896,44.721,8.793,44.479z M44.309,62.684
	c-0.807,0.293-1.632,0.533-2.438,0.723c-0.688-1.512-0.997-3.023-1.357-4.637c1.236-0.258,2.524-0.67,3.797-1.168
	c0.412-0.172,0.84-0.361,1.271-0.551c0.239-0.119,0.72,0,0.875,0.275c0.583,0.91,0.961,1.699,1.545,2.645
	c0.241,0.36-0.017,1.1-0.412,1.288C46.541,61.809,45.439,62.289,44.309,62.684z M53.771,54.131c-0.5-0.463-0.998-0.943-1.117-1.082
	c-0.532-0.55-0.446-0.79-0.053-1.236c0.396-0.498,0.791-0.961,1.17-1.426c0.635-0.756,1.271-1.527,1.904-2.455
	c0.069-0.104,0.207-0.189,0.344-0.224c0.189-0.067,0.412-0.086,0.567-0.017c0.996,0.498,1.718,0.979,2.695,1.494
	c0.396,0.188,0.567,0.979,0.345,1.321c-1.031,1.701-2.027,2.988-3.486,4.481c-0.033,0.035-0.067,0.07-0.121,0.105
	c-0.31,0.239-0.824,0.359-1.082,0.137C54.784,55.094,54.286,54.611,53.771,54.131z M50.078,40.855c0.086,0.293,0.086,0.584,0,0.877
	c-0.842,2.609-2.68,3.074-3.744,3.727c-0.754,0.447-0.516,1.168-1.1,1.752c-0.274,0.292-0.602,0.532-0.926,0.755
	c-0.517,0.327-1.05,0.636-1.512,0.979c-0.928,0.668-1.977,1.441-2.732,2.301c-0.564,0.602-0.703,1.529-1.305,2.095
	c-0.464,0.464-1.15,0.808-1.838,0.843c-0.602,0.051-1.253,0.153-1.923,0.223c-1.134,0.119-2.283,0.119-3.177-0.463
	c-1.203-0.739-1.116-2.611-1.494-3.95c-0.171-0.671-0.533-1.408-0.292-2.044c1.185-3.057,1.563-6.286,1.906-9.411
	c0.138-1.341-0.069-2.817-0.412-4.07c-0.173-0.705-0.532-1.631-1.236-1.837c-1.357-0.395-2.972-0.069-4.414,0.12
	c-1.306,0.172-2.199,0.189-2.766,0.034c-0.634-0.172-0.892-0.549-0.944-1.237c-0.051-0.635,0.36-1.116,0.944-1.494
	c0.756-0.498,1.804-0.842,2.542-1.151c1.872-0.773,2.953-1.614,3.899-2.868c0.309-0.429-1.22-1.047-0.653-3.057
	c0.188-0.687,1.115-1.408,1.785-1.082c0.258,0.154,0.019,0.687,0.053,0.962c0.085,0.652-0.034,1.425,0.378,1.958
	c0.189,0.257,0.463-0.55,0.463-0.876c0-0.807-0.772-1.683-0.704-2.473c0.068-0.584,0.67-1.134,1.135-1.511
	c0.137-0.121,0.463,0.292,0.463,0.498c0.018,0.343-0.103,0.91-0.103,1.305c0,0.533-0.413,1.494,0.103,1.375
	c0.618-0.155,0.841-1.186,0.807-1.787c-0.051-0.652-1.012-1.013-1.048-1.666c-0.085-0.669,0.275-1.391,0.551-2.009
	c0.086-0.24,0.326-0.601,0.566-0.583c1.115,0.103,0.327,1.752,0.944,2.233c0.292,0.24,0.567-0.481,0.704-0.825l0.034-0.069
	c0.31-0.549,0.24-1.237,0.499-1.82c0.188-0.498,0.411-1.597,0.962-1.511c0.65,0.034,0.308,1.408,0.841,1.7
	c0.515,0.274,1.494-0.687,1.685-0.189c0.291,0.67-0.412,1.511-0.81,2.147c-0.342,0.55-1.133,0.841-1.528,1.391
	c-0.309,0.481-0.309,1.15-0.498,1.7c0,0.052-0.154,0.086-0.188,0.155c-0.326,0.566-0.652,1.15-0.996,1.734
	c-0.395,0.721-0.772,1.477-1.082,2.267c-0.292,0.721-0.636,2.302-0.292,2.782c0.43,0.549,0.894,1.048,1.374,1.494
	c1.426,1.323,3.092,2.319,4.773,3.452c1.393,0.945,2.972,1.477,4.535,2.147c1.305,0.566,2.592,1.202,3.76,2.217
	C48.809,38.744,49.839,39.826,50.078,40.855z M35,40.375c-0.944,2.284-1.82,4.139-2.129,7.643c-0.139,1.494,0.48,2.457,0.927,4.518
	c0.086,0.412,0.653,0.463,1.202,0.344c0.395-0.087,0.807-0.258,1.064-0.43c0.961-0.635,1.135-2.164,2.043-2.954
	c1.84-1.614,5.016-2.438,5.41-5.375c0.121-0.843-1.22-2.595-2.162-3.572c-0.189-0.239-0.432,0.361-0.67,0.154
	c-0.432-0.31-0.293-1.03-0.738-1.271c-1.237-0.602-4.055-1.22-4.398-0.412C35.378,39.5,35.189,39.945,35,40.375z M8.793,56.003
	C4.174,50.232,1.391,42.934,1.391,35c0-7.917,2.783-15.216,7.402-20.969c0.894-1.133,1.871-2.181,2.902-3.194
	c1.683-1.615,3.537-3.075,5.53-4.311c1.854-1.167,3.829-2.164,5.89-2.954C26.825,2.164,30.826,1.391,35,1.391
	c3.229,0,6.355,0.464,9.309,1.322c2.01,0.584,3.934,1.34,5.771,2.267c0.12,0.068,0.241,0.12,0.344,0.171
	c1.168,0.601,2.284,1.271,3.351,1.992c0.771,0.533,1.526,1.082,2.248,1.666c1.838,1.478,3.521,3.144,4.998,4.964
	c4.758,5.805,7.607,13.206,7.607,21.227c0,8.055-2.852,15.457-7.607,21.262c-1.478,1.82-3.16,3.469-4.998,4.945
	c-0.722,0.584-1.477,1.15-2.248,1.666c-1.065,0.721-2.183,1.391-3.351,1.992c-0.103,0.051-0.224,0.119-0.344,0.171
	c-1.837,0.928-3.761,1.7-5.771,2.284c-2.953,0.859-6.08,1.306-9.309,1.306c-4.174,0-8.175-0.772-11.885-2.183
	c-2.061-0.789-4.036-1.768-5.89-2.937c-1.993-1.253-3.848-2.696-5.53-4.327C10.664,58.186,9.687,57.12,8.793,56.003z M4.739,39.551
	c1.06,0.631,2.106,1.166,3.161,1.633l-0.772-0.328c0.239,1.822,0.789,3.486,1.527,5.084c-0.446,0.756-0.876,1.478-1.236,2.301
	l1.117,2.199c0.085-0.207,0.171-0.377,0.257-0.566c0.928-1.975,1.821-3.264,2.902-4.826c0.43-0.617,0.876-1.271,1.374-2.025
	l-0.704-2.354c-0.224-0.086-0.447-0.172-0.67-0.24c-1.1-0.396-2.027-0.738-2.902-1.134c-1.392-0.618-2.661-1.339-4.276-2.489
	L4.739,39.551z M11.695,51.831c-0.43,0.325-0.876,0.651-1.373,0.979c0.463,0.531,0.909,1.063,1.373,1.631l0.119,0.154
	c1.221-1.392,2.336-2.302,3.642-3.298c0.48,2.524,1.014,4.774,1.77,7.161c0.153,0.533,0.343,1.083,0.532,1.632
	c0.583,0.361,1.185,0.738,1.768,1.134c1.237-1.734,2.286-3.177,3.59-4.619c0.31-0.36,0.653-0.705,0.997-1.065
	c-0.327-0.224-0.67-0.429-0.997-0.636c-0.343-0.223-0.703-0.428-1.047-0.617c-0.893,1.425-1.992,2.867-3.229,3.967
	c-0.738-2.009-1.219-4.02-1.614-6.113c-0.189-0.945-0.361-1.906-0.517-2.904c-0.239-0.291-0.651-0.687-0.892-0.995
	C14.443,49.615,13.241,50.68,11.695,51.831z M17.226,25.314c-1.598,2.885-2.491,6.183-2.491,9.686c0,3.521,0.894,6.835,2.491,9.721
	c1.442,2.646,3.469,4.93,5.89,6.697c3.349,2.439,7.454,3.881,11.885,3.881c3.351,0,6.509-0.824,9.31-2.283
	c2.181-1.135,4.138-2.662,5.77-4.5c0.12-0.121,0.24-0.258,0.344-0.396c1.391-1.632,2.524-3.47,3.35-5.496
	c0.963-2.353,1.494-4.929,1.494-7.625c0-2.679-0.531-5.255-1.494-7.608c-0.824-2.009-1.959-3.864-3.35-5.479
	c-0.104-0.137-0.224-0.274-0.344-0.395c-1.632-1.821-3.589-3.349-5.77-4.5c-2.801-1.443-5.959-2.267-9.31-2.267
	c-4.431,0-8.536,1.442-11.885,3.864C20.694,20.385,18.668,22.67,17.226,25.314z M23.115,62.066c-0.309,0.17-0.652,0.343-0.995,0.515
	l0.995,0.446l1.528,0.67c2.097-1.305,3.883-2.748,5.515-4.26c0.53,1.015,0.995,2.062,1.511,3.058
	c-1.392-0.12-2.714-0.31-4.105-0.824l-0.687,0.533c1.768,0.651,3.469,0.944,5.238,1.013c0.446,0.773,0.909,1.495,1.459,2.182
	L35,65.415l1.029,0.017c-0.377-0.479-0.72-0.943-1.029-1.373c-1.357-1.992-2.061-3.642-3.399-6.097l-2.405-0.481
	C26.979,59.559,25.571,60.762,23.115,62.066z M44.309,56.105c-1.906,0.895-3.847,1.442-6.543,1.855
	c0.809,2.301,1.186,4.482,1.596,7.161c1.787-0.326,3.418-0.722,4.947-1.202c2.062-0.652,3.934-1.477,5.771-2.576
	c0.12-0.068,0.241-0.138,0.344-0.224l0.054-0.017c0.479-0.293,0.394-1.168,0.205-1.666c-0.086-0.156-0.156-0.311-0.259-0.447
	c-0.103-0.189-0.224-0.344-0.344-0.516c-0.205-0.291-0.447-0.584-0.687-0.91c-0.43-0.652-0.843-1.58-1.393-2.129
	c-0.412-0.412-1.221-0.67-1.7-0.377C45.613,55.454,44.96,55.797,44.309,56.105z M50.078,52.482c-0.085,0.207-0.068,0.396,0,0.602
	c0.068,0.171,0.188,0.359,0.344,0.533c0.018,0.018,0.034,0.051,0.053,0.068c0.359,0.463,2.146,2.901,2.971,3.76
	c0.104,0.104,0.224,0.207,0.326,0.293c0.463,0.326,0.929,0.326,1.355-0.034c0.311-0.274,0.619-0.55,0.895-0.825
	c2.232-2.095,3.676-3.848,4.996-6.098c0.328-0.531,0.637-1.098,0.945-1.699c0.258-0.48-0.291-1.202-0.722-1.512
	c-0.068-0.051-0.138-0.102-0.224-0.137c-0.566-0.361-1.15-0.515-1.804-0.824c-0.722-0.36-1.528-0.91-2.301-1.116
	c-0.276-0.069-0.584-0.034-0.894,0.051c-0.311,0.104-0.617,0.274-0.772,0.517c-0.583,0.943-1.015,1.666-1.478,2.301
	c-0.824,1.168-1.648,2.078-3.35,3.675C50.232,52.208,50.146,52.346,50.078,52.482z M61.018,41.646
	c-1.234-0.412-2.42-0.894-3.676-1.426c-0.117,0.772-0.342,1.547-0.652,2.319c1.408,0.463,2.886,0.979,4.328,1.614
	c0.877,0.395,1.752,0.824,2.576,1.305c0.963-3.107,1.563-5.357,1.77-8.913h-1.064c-0.172,2.267-0.431,3.83-1.014,5.753
	C62.495,42.094,61.756,41.887,61.018,41.646z M8.793,58.15C3.331,51.967,0,43.861,0,35c0-8.845,3.331-16.967,8.793-23.15
	c0.909-1.031,1.871-1.992,2.902-2.919c1.701-1.512,3.556-2.885,5.53-4.053c1.854-1.099,3.829-2.043,5.89-2.799
	C26.825,0.738,30.826,0,35,0c3.229,0,6.337,0.447,9.309,1.271c1.991,0.55,3.934,1.271,5.771,2.164
	c0.12,0.051,0.241,0.12,0.344,0.171c1.168,0.567,2.284,1.202,3.351,1.889c0.771,0.498,1.526,1.013,2.248,1.563
	c1.82,1.374,3.486,2.919,4.998,4.603C66.602,17.86,70,26.052,70,35c0,8.947-3.398,17.141-8.982,23.355
	c-1.511,1.685-3.177,3.213-4.996,4.586c-0.723,0.55-1.478,1.065-2.25,1.563c-1.064,0.687-2.182,1.323-3.35,1.89
	c-0.104,0.051-0.224,0.119-0.344,0.172c-1.837,0.893-3.778,1.613-5.77,2.164C41.337,69.553,38.229,70,35,70
	c-4.174,0-8.175-0.738-11.885-2.078c-2.061-0.755-4.036-1.699-5.89-2.799c-1.975-1.167-3.829-2.542-5.53-4.053
	C10.664,60.143,9.702,59.182,8.793,58.15z M8.793,12.966C3.761,18.942,0.721,26.636,0.721,35c0,8.398,3.04,16.092,8.072,22.068
	c0.909,1.082,1.871,2.095,2.902,3.039c1.701,1.58,3.537,2.988,5.53,4.19c1.854,1.134,3.829,2.095,5.89,2.868
	c3.71,1.391,7.729,2.146,11.885,2.146c3.229,0,6.337-0.463,9.309-1.289c1.991-0.566,3.934-1.321,5.771-2.231
	c0.12-0.052,0.241-0.12,0.344-0.171c1.168-0.584,2.284-1.236,3.351-1.941c0.771-0.516,1.526-1.047,2.248-1.613
	c1.82-1.408,3.504-3.006,4.998-4.758c5.17-6.011,8.295-13.808,8.295-22.309c0-8.467-3.125-16.264-8.295-22.274
	c-1.494-1.751-3.178-3.349-4.998-4.757c-0.722-0.567-1.477-1.116-2.248-1.614c-1.065-0.721-2.183-1.356-3.351-1.94
	c-0.103-0.069-0.224-0.12-0.344-0.171c-1.837-0.911-3.778-1.666-5.771-2.233c-2.972-0.843-6.08-1.29-9.309-1.29
	c-4.156,0-8.175,0.756-11.885,2.129c-2.061,0.773-4.036,1.735-5.89,2.868c-1.993,1.219-3.829,2.627-5.53,4.19
	C10.664,10.871,9.702,11.884,8.793,12.966z"/>
</svg>
